M48
; DRILL file {KiCad (7.0.0)} date Sun Mar 12 16:39:37 2023
; FORMAT={-:-/ absolute / inch / decimal}
; #@! TF.CreationDate,2023-03-12T16:39:37+01:00
; #@! TF.GenerationSoftware,Kicad,Pcbnew,(7.0.0)
; #@! TF.FileFunction,Plated,1,2,PTH
FMAT,2
INCH
; #@! TA.AperFunction,Plated,PTH,ComponentDrill
T1C0.0118
; #@! TA.AperFunction,Plated,PTH,ViaDrill
T2C0.0157
; #@! TA.AperFunction,Plated,PTH,ComponentDrill
T3C0.0315
; #@! TA.AperFunction,Plated,PTH,ComponentDrill
T4C0.0394
; #@! TA.AperFunction,Plated,PTH,ViaDrill
T5C0.0454
%
G90
G05
T1
X5.6132Y-4.3224
X5.6132Y-4.3776
X5.6408Y-4.2949
X5.6408Y-4.35
X5.6408Y-4.4051
X5.6683Y-4.3224
X5.6683Y-4.3776
X5.6959Y-4.2949
X5.6959Y-4.35
X5.6959Y-4.4051
X5.7235Y-4.3224
X5.7235Y-4.3776
T2
X4.1575Y-4.4882
X4.1732Y-3.7559
X4.2028Y-4.3504
X4.2964Y-4.1427
X4.3307Y-4.3701
X4.3622Y-3.2835
X4.4291Y-4.3996
X4.4724Y-3.1181
X4.519Y-3.524
X4.5344Y-4.47
X4.541Y-4.254
X4.559Y-4.391
X4.566Y-3.1191
X4.5691Y-3.1705
X4.5768Y-4.1437
X4.5866Y-3.9469
X4.6025Y-4.7642
X4.6063Y-2.7756
X4.611Y-4.546
X4.6949Y-3.3465
X4.705Y-4.88
X4.7195Y-4.7362
X4.749Y-3.931
X4.7835Y-3.3268
X4.8031Y-3.7894
X4.82Y-2.64
X4.9016Y-3.7894
X4.9016Y-4.815
X4.9311Y-3.3268
X4.9409Y-4.0157
X4.9508Y-4.9213
X5.043Y-2.4213
X5.1476Y-3.3071
X5.1575Y-4.0856
X5.1772Y-4.5236
X5.1969Y-4.6654
X5.1996Y-4.1277
X5.3248Y-4.4685
X5.3285Y-4.6691
X5.374Y-3.6417
X5.374Y-4.3209
X5.4035Y-3.3169
X5.4922Y-3.8986
X5.5148Y-3.4222
X5.5413Y-3.5236
X5.5423Y-3.8729
X5.5512Y-3.376
X5.5906Y-4.0945
X5.6319Y-3.7992
X5.689Y-3.6909
X5.689Y-3.878
X5.6929Y-2.8425
X5.7Y-4.7
X5.7776Y-3.8976
X5.78Y-3.727
X5.834Y-3.085
X5.8465Y-3.2776
X5.86Y-4.725
X5.864Y-3.487
X5.876Y-4.4685
X5.8819Y-4.627
X5.8858Y-4.2913
X5.8858Y-4.5472
X5.8888Y-4.1053
X5.9Y-4.3961
X5.916Y-3.627
X5.954Y-3.407
X5.9665Y-3.6811
X6.014Y-3.944
X6.046Y-3.813
X6.048Y-3.567
X6.2697Y-2.5787
X6.2894Y-3.8976
X6.349Y-4.769
X6.4469Y-4.2323
X6.449Y-4.4
X6.4764Y-2.6181
X6.5157Y-2.7067
X6.5453Y-4.4193
T3
X4.9989Y-2.8425
X5.0776Y-2.8425
X5.1564Y-2.8425
X5.2351Y-2.8425
X6.3307Y-3.8031
X6.6299Y-3.8031
T4
X4.6988Y-3.685
X4.6988Y-3.785
X4.6988Y-3.885
X4.6988Y-3.985
X4.6988Y-4.085
X4.6988Y-4.185
X4.938Y-4.1348
X4.938Y-4.2348
X4.938Y-4.3348
X4.938Y-4.4348
X4.938Y-4.5348
X4.938Y-4.6348
X4.971Y-2.645
X5.071Y-2.645
X5.0886Y-4.211
X5.0886Y-4.311
X5.0886Y-4.411
X5.0886Y-4.511
X5.0886Y-4.611
X5.171Y-2.645
X5.271Y-2.645
X5.4528Y-2.8642
X6.065Y-4.0295
X6.065Y-4.1295
X6.065Y-4.2295
X6.065Y-4.3295
X6.065Y-4.4295
X6.065Y-4.5295
X6.2087Y-4.0295
X6.2087Y-4.1295
X6.2087Y-4.2295
X6.2087Y-4.3295
X6.2087Y-4.4295
X6.2087Y-4.5295
T5
X4.2913Y-4.8819
X4.4783Y-2.2835
X6.5236Y-4.8819
X6.6142Y-2.2835
T3
G00X4.4862Y-4.71
M15
G01X4.4862Y-4.7415
M16
G05
G00X4.4862Y-4.8793
M15
G01X4.4862Y-4.9029
M16
G05
G00X4.8268Y-4.71
M15
G01X4.8268Y-4.7415
M16
G05
G00X4.8268Y-4.8793
M15
G01X4.8268Y-4.9029
M16
G05
T0
M30
