G04 #@! TF.GenerationSoftware,KiCad,Pcbnew,(7.0.0)*
G04 #@! TF.CreationDate,2023-03-27T20:50:48+02:00*
G04 #@! TF.ProjectId,S3-27-epaper-touch,53332d32-372d-4657-9061-7065722d746f,rev?*
G04 #@! TF.SameCoordinates,Original*
G04 #@! TF.FileFunction,AssemblyDrawing,Top*
%FSLAX46Y46*%
G04 Gerber Fmt 4.6, Leading zero omitted, Abs format (unit mm)*
G04 Created by KiCad (PCBNEW (7.0.0)) date 2023-03-27 20:50:48*
%MOMM*%
%LPD*%
G01*
G04 APERTURE LIST*
%ADD10C,0.150000*%
%ADD11C,0.080000*%
%ADD12C,0.050000*%
%ADD13C,0.060000*%
%ADD14C,0.130000*%
%ADD15C,0.110000*%
%ADD16C,0.075000*%
%ADD17C,0.100000*%
G04 APERTURE END LIST*
D10*
X155288095Y-80017380D02*
X155859523Y-80017380D01*
X155573809Y-81017380D02*
X155573809Y-80017380D01*
X156192857Y-81017380D02*
X156192857Y-80017380D01*
X156192857Y-80017380D02*
X156573809Y-80017380D01*
X156573809Y-80017380D02*
X156669047Y-80065000D01*
X156669047Y-80065000D02*
X156716666Y-80112619D01*
X156716666Y-80112619D02*
X156764285Y-80207857D01*
X156764285Y-80207857D02*
X156764285Y-80350714D01*
X156764285Y-80350714D02*
X156716666Y-80445952D01*
X156716666Y-80445952D02*
X156669047Y-80493571D01*
X156669047Y-80493571D02*
X156573809Y-80541190D01*
X156573809Y-80541190D02*
X156192857Y-80541190D01*
X157716666Y-81017380D02*
X157145238Y-81017380D01*
X157430952Y-81017380D02*
X157430952Y-80017380D01*
X157430952Y-80017380D02*
X157335714Y-80160238D01*
X157335714Y-80160238D02*
X157240476Y-80255476D01*
X157240476Y-80255476D02*
X157145238Y-80303095D01*
D11*
X111006771Y-105034890D02*
X110840105Y-104796795D01*
X110721057Y-105034890D02*
X110721057Y-104534890D01*
X110721057Y-104534890D02*
X110911533Y-104534890D01*
X110911533Y-104534890D02*
X110959152Y-104558700D01*
X110959152Y-104558700D02*
X110982962Y-104582509D01*
X110982962Y-104582509D02*
X111006771Y-104630128D01*
X111006771Y-104630128D02*
X111006771Y-104701557D01*
X111006771Y-104701557D02*
X110982962Y-104749176D01*
X110982962Y-104749176D02*
X110959152Y-104772985D01*
X110959152Y-104772985D02*
X110911533Y-104796795D01*
X110911533Y-104796795D02*
X110721057Y-104796795D01*
X111482962Y-105034890D02*
X111197248Y-105034890D01*
X111340105Y-105034890D02*
X111340105Y-104534890D01*
X111340105Y-104534890D02*
X111292486Y-104606319D01*
X111292486Y-104606319D02*
X111244867Y-104653938D01*
X111244867Y-104653938D02*
X111197248Y-104677747D01*
X111768676Y-104749176D02*
X111721057Y-104725366D01*
X111721057Y-104725366D02*
X111697247Y-104701557D01*
X111697247Y-104701557D02*
X111673438Y-104653938D01*
X111673438Y-104653938D02*
X111673438Y-104630128D01*
X111673438Y-104630128D02*
X111697247Y-104582509D01*
X111697247Y-104582509D02*
X111721057Y-104558700D01*
X111721057Y-104558700D02*
X111768676Y-104534890D01*
X111768676Y-104534890D02*
X111863914Y-104534890D01*
X111863914Y-104534890D02*
X111911533Y-104558700D01*
X111911533Y-104558700D02*
X111935342Y-104582509D01*
X111935342Y-104582509D02*
X111959152Y-104630128D01*
X111959152Y-104630128D02*
X111959152Y-104653938D01*
X111959152Y-104653938D02*
X111935342Y-104701557D01*
X111935342Y-104701557D02*
X111911533Y-104725366D01*
X111911533Y-104725366D02*
X111863914Y-104749176D01*
X111863914Y-104749176D02*
X111768676Y-104749176D01*
X111768676Y-104749176D02*
X111721057Y-104772985D01*
X111721057Y-104772985D02*
X111697247Y-104796795D01*
X111697247Y-104796795D02*
X111673438Y-104844414D01*
X111673438Y-104844414D02*
X111673438Y-104939652D01*
X111673438Y-104939652D02*
X111697247Y-104987271D01*
X111697247Y-104987271D02*
X111721057Y-105011080D01*
X111721057Y-105011080D02*
X111768676Y-105034890D01*
X111768676Y-105034890D02*
X111863914Y-105034890D01*
X111863914Y-105034890D02*
X111911533Y-105011080D01*
X111911533Y-105011080D02*
X111935342Y-104987271D01*
X111935342Y-104987271D02*
X111959152Y-104939652D01*
X111959152Y-104939652D02*
X111959152Y-104844414D01*
X111959152Y-104844414D02*
X111935342Y-104796795D01*
X111935342Y-104796795D02*
X111911533Y-104772985D01*
X111911533Y-104772985D02*
X111863914Y-104749176D01*
X147283690Y-96921428D02*
X147045595Y-97088094D01*
X147283690Y-97207142D02*
X146783690Y-97207142D01*
X146783690Y-97207142D02*
X146783690Y-97016666D01*
X146783690Y-97016666D02*
X146807500Y-96969047D01*
X146807500Y-96969047D02*
X146831309Y-96945237D01*
X146831309Y-96945237D02*
X146878928Y-96921428D01*
X146878928Y-96921428D02*
X146950357Y-96921428D01*
X146950357Y-96921428D02*
X146997976Y-96945237D01*
X146997976Y-96945237D02*
X147021785Y-96969047D01*
X147021785Y-96969047D02*
X147045595Y-97016666D01*
X147045595Y-97016666D02*
X147045595Y-97207142D01*
X147283690Y-96445237D02*
X147283690Y-96730951D01*
X147283690Y-96588094D02*
X146783690Y-96588094D01*
X146783690Y-96588094D02*
X146855119Y-96635713D01*
X146855119Y-96635713D02*
X146902738Y-96683332D01*
X146902738Y-96683332D02*
X146926547Y-96730951D01*
X146783690Y-96016666D02*
X146783690Y-96111904D01*
X146783690Y-96111904D02*
X146807500Y-96159523D01*
X146807500Y-96159523D02*
X146831309Y-96183333D01*
X146831309Y-96183333D02*
X146902738Y-96230952D01*
X146902738Y-96230952D02*
X146997976Y-96254761D01*
X146997976Y-96254761D02*
X147188452Y-96254761D01*
X147188452Y-96254761D02*
X147236071Y-96230952D01*
X147236071Y-96230952D02*
X147259880Y-96207142D01*
X147259880Y-96207142D02*
X147283690Y-96159523D01*
X147283690Y-96159523D02*
X147283690Y-96064285D01*
X147283690Y-96064285D02*
X147259880Y-96016666D01*
X147259880Y-96016666D02*
X147236071Y-95992857D01*
X147236071Y-95992857D02*
X147188452Y-95969047D01*
X147188452Y-95969047D02*
X147069404Y-95969047D01*
X147069404Y-95969047D02*
X147021785Y-95992857D01*
X147021785Y-95992857D02*
X146997976Y-96016666D01*
X146997976Y-96016666D02*
X146974166Y-96064285D01*
X146974166Y-96064285D02*
X146974166Y-96159523D01*
X146974166Y-96159523D02*
X146997976Y-96207142D01*
X146997976Y-96207142D02*
X147021785Y-96230952D01*
X147021785Y-96230952D02*
X147069404Y-96254761D01*
D10*
X133367380Y-76738094D02*
X132367380Y-76738094D01*
X132367380Y-76738094D02*
X132367380Y-76499999D01*
X132367380Y-76499999D02*
X132415000Y-76357142D01*
X132415000Y-76357142D02*
X132510238Y-76261904D01*
X132510238Y-76261904D02*
X132605476Y-76214285D01*
X132605476Y-76214285D02*
X132795952Y-76166666D01*
X132795952Y-76166666D02*
X132938809Y-76166666D01*
X132938809Y-76166666D02*
X133129285Y-76214285D01*
X133129285Y-76214285D02*
X133224523Y-76261904D01*
X133224523Y-76261904D02*
X133319761Y-76357142D01*
X133319761Y-76357142D02*
X133367380Y-76499999D01*
X133367380Y-76499999D02*
X133367380Y-76738094D01*
X132700714Y-75309523D02*
X133367380Y-75309523D01*
X132319761Y-75547618D02*
X133034047Y-75785713D01*
X133034047Y-75785713D02*
X133034047Y-75166666D01*
X123238095Y-79517380D02*
X123809523Y-79517380D01*
X123523809Y-80517380D02*
X123523809Y-79517380D01*
X124142857Y-80517380D02*
X124142857Y-79517380D01*
X124142857Y-79517380D02*
X124523809Y-79517380D01*
X124523809Y-79517380D02*
X124619047Y-79565000D01*
X124619047Y-79565000D02*
X124666666Y-79612619D01*
X124666666Y-79612619D02*
X124714285Y-79707857D01*
X124714285Y-79707857D02*
X124714285Y-79850714D01*
X124714285Y-79850714D02*
X124666666Y-79945952D01*
X124666666Y-79945952D02*
X124619047Y-79993571D01*
X124619047Y-79993571D02*
X124523809Y-80041190D01*
X124523809Y-80041190D02*
X124142857Y-80041190D01*
X125285714Y-79945952D02*
X125190476Y-79898333D01*
X125190476Y-79898333D02*
X125142857Y-79850714D01*
X125142857Y-79850714D02*
X125095238Y-79755476D01*
X125095238Y-79755476D02*
X125095238Y-79707857D01*
X125095238Y-79707857D02*
X125142857Y-79612619D01*
X125142857Y-79612619D02*
X125190476Y-79565000D01*
X125190476Y-79565000D02*
X125285714Y-79517380D01*
X125285714Y-79517380D02*
X125476190Y-79517380D01*
X125476190Y-79517380D02*
X125571428Y-79565000D01*
X125571428Y-79565000D02*
X125619047Y-79612619D01*
X125619047Y-79612619D02*
X125666666Y-79707857D01*
X125666666Y-79707857D02*
X125666666Y-79755476D01*
X125666666Y-79755476D02*
X125619047Y-79850714D01*
X125619047Y-79850714D02*
X125571428Y-79898333D01*
X125571428Y-79898333D02*
X125476190Y-79945952D01*
X125476190Y-79945952D02*
X125285714Y-79945952D01*
X125285714Y-79945952D02*
X125190476Y-79993571D01*
X125190476Y-79993571D02*
X125142857Y-80041190D01*
X125142857Y-80041190D02*
X125095238Y-80136428D01*
X125095238Y-80136428D02*
X125095238Y-80326904D01*
X125095238Y-80326904D02*
X125142857Y-80422142D01*
X125142857Y-80422142D02*
X125190476Y-80469761D01*
X125190476Y-80469761D02*
X125285714Y-80517380D01*
X125285714Y-80517380D02*
X125476190Y-80517380D01*
X125476190Y-80517380D02*
X125571428Y-80469761D01*
X125571428Y-80469761D02*
X125619047Y-80422142D01*
X125619047Y-80422142D02*
X125666666Y-80326904D01*
X125666666Y-80326904D02*
X125666666Y-80136428D01*
X125666666Y-80136428D02*
X125619047Y-80041190D01*
X125619047Y-80041190D02*
X125571428Y-79993571D01*
X125571428Y-79993571D02*
X125476190Y-79945952D01*
X113261905Y-82917380D02*
X113833333Y-82917380D01*
X113547619Y-83917380D02*
X113547619Y-82917380D01*
X114166667Y-83917380D02*
X114166667Y-82917380D01*
X114166667Y-82917380D02*
X114547619Y-82917380D01*
X114547619Y-82917380D02*
X114642857Y-82965000D01*
X114642857Y-82965000D02*
X114690476Y-83012619D01*
X114690476Y-83012619D02*
X114738095Y-83107857D01*
X114738095Y-83107857D02*
X114738095Y-83250714D01*
X114738095Y-83250714D02*
X114690476Y-83345952D01*
X114690476Y-83345952D02*
X114642857Y-83393571D01*
X114642857Y-83393571D02*
X114547619Y-83441190D01*
X114547619Y-83441190D02*
X114166667Y-83441190D01*
X115690476Y-83917380D02*
X115119048Y-83917380D01*
X115404762Y-83917380D02*
X115404762Y-82917380D01*
X115404762Y-82917380D02*
X115309524Y-83060238D01*
X115309524Y-83060238D02*
X115214286Y-83155476D01*
X115214286Y-83155476D02*
X115119048Y-83203095D01*
X116071429Y-83012619D02*
X116119048Y-82965000D01*
X116119048Y-82965000D02*
X116214286Y-82917380D01*
X116214286Y-82917380D02*
X116452381Y-82917380D01*
X116452381Y-82917380D02*
X116547619Y-82965000D01*
X116547619Y-82965000D02*
X116595238Y-83012619D01*
X116595238Y-83012619D02*
X116642857Y-83107857D01*
X116642857Y-83107857D02*
X116642857Y-83203095D01*
X116642857Y-83203095D02*
X116595238Y-83345952D01*
X116595238Y-83345952D02*
X116023810Y-83917380D01*
X116023810Y-83917380D02*
X116642857Y-83917380D01*
D11*
X113741666Y-116108690D02*
X113575000Y-115870595D01*
X113455952Y-116108690D02*
X113455952Y-115608690D01*
X113455952Y-115608690D02*
X113646428Y-115608690D01*
X113646428Y-115608690D02*
X113694047Y-115632500D01*
X113694047Y-115632500D02*
X113717857Y-115656309D01*
X113717857Y-115656309D02*
X113741666Y-115703928D01*
X113741666Y-115703928D02*
X113741666Y-115775357D01*
X113741666Y-115775357D02*
X113717857Y-115822976D01*
X113717857Y-115822976D02*
X113694047Y-115846785D01*
X113694047Y-115846785D02*
X113646428Y-115870595D01*
X113646428Y-115870595D02*
X113455952Y-115870595D01*
X113932143Y-115656309D02*
X113955952Y-115632500D01*
X113955952Y-115632500D02*
X114003571Y-115608690D01*
X114003571Y-115608690D02*
X114122619Y-115608690D01*
X114122619Y-115608690D02*
X114170238Y-115632500D01*
X114170238Y-115632500D02*
X114194047Y-115656309D01*
X114194047Y-115656309D02*
X114217857Y-115703928D01*
X114217857Y-115703928D02*
X114217857Y-115751547D01*
X114217857Y-115751547D02*
X114194047Y-115822976D01*
X114194047Y-115822976D02*
X113908333Y-116108690D01*
X113908333Y-116108690D02*
X114217857Y-116108690D01*
X134429166Y-83186071D02*
X134405357Y-83209880D01*
X134405357Y-83209880D02*
X134333928Y-83233690D01*
X134333928Y-83233690D02*
X134286309Y-83233690D01*
X134286309Y-83233690D02*
X134214881Y-83209880D01*
X134214881Y-83209880D02*
X134167262Y-83162261D01*
X134167262Y-83162261D02*
X134143452Y-83114642D01*
X134143452Y-83114642D02*
X134119643Y-83019404D01*
X134119643Y-83019404D02*
X134119643Y-82947976D01*
X134119643Y-82947976D02*
X134143452Y-82852738D01*
X134143452Y-82852738D02*
X134167262Y-82805119D01*
X134167262Y-82805119D02*
X134214881Y-82757500D01*
X134214881Y-82757500D02*
X134286309Y-82733690D01*
X134286309Y-82733690D02*
X134333928Y-82733690D01*
X134333928Y-82733690D02*
X134405357Y-82757500D01*
X134405357Y-82757500D02*
X134429166Y-82781309D01*
X134619643Y-82781309D02*
X134643452Y-82757500D01*
X134643452Y-82757500D02*
X134691071Y-82733690D01*
X134691071Y-82733690D02*
X134810119Y-82733690D01*
X134810119Y-82733690D02*
X134857738Y-82757500D01*
X134857738Y-82757500D02*
X134881547Y-82781309D01*
X134881547Y-82781309D02*
X134905357Y-82828928D01*
X134905357Y-82828928D02*
X134905357Y-82876547D01*
X134905357Y-82876547D02*
X134881547Y-82947976D01*
X134881547Y-82947976D02*
X134595833Y-83233690D01*
X134595833Y-83233690D02*
X134905357Y-83233690D01*
D10*
X127676666Y-75967380D02*
X127676666Y-76681666D01*
X127676666Y-76681666D02*
X127629047Y-76824523D01*
X127629047Y-76824523D02*
X127533809Y-76919761D01*
X127533809Y-76919761D02*
X127390952Y-76967380D01*
X127390952Y-76967380D02*
X127295714Y-76967380D01*
X128057619Y-75967380D02*
X128724285Y-75967380D01*
X128724285Y-75967380D02*
X128295714Y-76967380D01*
D11*
X158883690Y-119121428D02*
X158645595Y-119288094D01*
X158883690Y-119407142D02*
X158383690Y-119407142D01*
X158383690Y-119407142D02*
X158383690Y-119216666D01*
X158383690Y-119216666D02*
X158407500Y-119169047D01*
X158407500Y-119169047D02*
X158431309Y-119145237D01*
X158431309Y-119145237D02*
X158478928Y-119121428D01*
X158478928Y-119121428D02*
X158550357Y-119121428D01*
X158550357Y-119121428D02*
X158597976Y-119145237D01*
X158597976Y-119145237D02*
X158621785Y-119169047D01*
X158621785Y-119169047D02*
X158645595Y-119216666D01*
X158645595Y-119216666D02*
X158645595Y-119407142D01*
X158883690Y-118645237D02*
X158883690Y-118930951D01*
X158883690Y-118788094D02*
X158383690Y-118788094D01*
X158383690Y-118788094D02*
X158455119Y-118835713D01*
X158455119Y-118835713D02*
X158502738Y-118883332D01*
X158502738Y-118883332D02*
X158526547Y-118930951D01*
X158383690Y-118478571D02*
X158383690Y-118145238D01*
X158383690Y-118145238D02*
X158883690Y-118359523D01*
X149436071Y-86183333D02*
X149459880Y-86207142D01*
X149459880Y-86207142D02*
X149483690Y-86278571D01*
X149483690Y-86278571D02*
X149483690Y-86326190D01*
X149483690Y-86326190D02*
X149459880Y-86397618D01*
X149459880Y-86397618D02*
X149412261Y-86445237D01*
X149412261Y-86445237D02*
X149364642Y-86469047D01*
X149364642Y-86469047D02*
X149269404Y-86492856D01*
X149269404Y-86492856D02*
X149197976Y-86492856D01*
X149197976Y-86492856D02*
X149102738Y-86469047D01*
X149102738Y-86469047D02*
X149055119Y-86445237D01*
X149055119Y-86445237D02*
X149007500Y-86397618D01*
X149007500Y-86397618D02*
X148983690Y-86326190D01*
X148983690Y-86326190D02*
X148983690Y-86278571D01*
X148983690Y-86278571D02*
X149007500Y-86207142D01*
X149007500Y-86207142D02*
X149031309Y-86183333D01*
X149197976Y-85897618D02*
X149174166Y-85945237D01*
X149174166Y-85945237D02*
X149150357Y-85969047D01*
X149150357Y-85969047D02*
X149102738Y-85992856D01*
X149102738Y-85992856D02*
X149078928Y-85992856D01*
X149078928Y-85992856D02*
X149031309Y-85969047D01*
X149031309Y-85969047D02*
X149007500Y-85945237D01*
X149007500Y-85945237D02*
X148983690Y-85897618D01*
X148983690Y-85897618D02*
X148983690Y-85802380D01*
X148983690Y-85802380D02*
X149007500Y-85754761D01*
X149007500Y-85754761D02*
X149031309Y-85730952D01*
X149031309Y-85730952D02*
X149078928Y-85707142D01*
X149078928Y-85707142D02*
X149102738Y-85707142D01*
X149102738Y-85707142D02*
X149150357Y-85730952D01*
X149150357Y-85730952D02*
X149174166Y-85754761D01*
X149174166Y-85754761D02*
X149197976Y-85802380D01*
X149197976Y-85802380D02*
X149197976Y-85897618D01*
X149197976Y-85897618D02*
X149221785Y-85945237D01*
X149221785Y-85945237D02*
X149245595Y-85969047D01*
X149245595Y-85969047D02*
X149293214Y-85992856D01*
X149293214Y-85992856D02*
X149388452Y-85992856D01*
X149388452Y-85992856D02*
X149436071Y-85969047D01*
X149436071Y-85969047D02*
X149459880Y-85945237D01*
X149459880Y-85945237D02*
X149483690Y-85897618D01*
X149483690Y-85897618D02*
X149483690Y-85802380D01*
X149483690Y-85802380D02*
X149459880Y-85754761D01*
X149459880Y-85754761D02*
X149436071Y-85730952D01*
X149436071Y-85730952D02*
X149388452Y-85707142D01*
X149388452Y-85707142D02*
X149293214Y-85707142D01*
X149293214Y-85707142D02*
X149245595Y-85730952D01*
X149245595Y-85730952D02*
X149221785Y-85754761D01*
X149221785Y-85754761D02*
X149197976Y-85802380D01*
X160883690Y-119121428D02*
X160645595Y-119288094D01*
X160883690Y-119407142D02*
X160383690Y-119407142D01*
X160383690Y-119407142D02*
X160383690Y-119216666D01*
X160383690Y-119216666D02*
X160407500Y-119169047D01*
X160407500Y-119169047D02*
X160431309Y-119145237D01*
X160431309Y-119145237D02*
X160478928Y-119121428D01*
X160478928Y-119121428D02*
X160550357Y-119121428D01*
X160550357Y-119121428D02*
X160597976Y-119145237D01*
X160597976Y-119145237D02*
X160621785Y-119169047D01*
X160621785Y-119169047D02*
X160645595Y-119216666D01*
X160645595Y-119216666D02*
X160645595Y-119407142D01*
X160883690Y-118645237D02*
X160883690Y-118930951D01*
X160883690Y-118788094D02*
X160383690Y-118788094D01*
X160383690Y-118788094D02*
X160455119Y-118835713D01*
X160455119Y-118835713D02*
X160502738Y-118883332D01*
X160502738Y-118883332D02*
X160526547Y-118930951D01*
X160550357Y-118216666D02*
X160883690Y-118216666D01*
X160359880Y-118335714D02*
X160717023Y-118454761D01*
X160717023Y-118454761D02*
X160717023Y-118145238D01*
X151191666Y-95911071D02*
X151167857Y-95934880D01*
X151167857Y-95934880D02*
X151096428Y-95958690D01*
X151096428Y-95958690D02*
X151048809Y-95958690D01*
X151048809Y-95958690D02*
X150977381Y-95934880D01*
X150977381Y-95934880D02*
X150929762Y-95887261D01*
X150929762Y-95887261D02*
X150905952Y-95839642D01*
X150905952Y-95839642D02*
X150882143Y-95744404D01*
X150882143Y-95744404D02*
X150882143Y-95672976D01*
X150882143Y-95672976D02*
X150905952Y-95577738D01*
X150905952Y-95577738D02*
X150929762Y-95530119D01*
X150929762Y-95530119D02*
X150977381Y-95482500D01*
X150977381Y-95482500D02*
X151048809Y-95458690D01*
X151048809Y-95458690D02*
X151096428Y-95458690D01*
X151096428Y-95458690D02*
X151167857Y-95482500D01*
X151167857Y-95482500D02*
X151191666Y-95506309D01*
X151358333Y-95458690D02*
X151691666Y-95458690D01*
X151691666Y-95458690D02*
X151477381Y-95958690D01*
X126883690Y-81021428D02*
X126645595Y-81188094D01*
X126883690Y-81307142D02*
X126383690Y-81307142D01*
X126383690Y-81307142D02*
X126383690Y-81116666D01*
X126383690Y-81116666D02*
X126407500Y-81069047D01*
X126407500Y-81069047D02*
X126431309Y-81045237D01*
X126431309Y-81045237D02*
X126478928Y-81021428D01*
X126478928Y-81021428D02*
X126550357Y-81021428D01*
X126550357Y-81021428D02*
X126597976Y-81045237D01*
X126597976Y-81045237D02*
X126621785Y-81069047D01*
X126621785Y-81069047D02*
X126645595Y-81116666D01*
X126645595Y-81116666D02*
X126645595Y-81307142D01*
X126431309Y-80830951D02*
X126407500Y-80807142D01*
X126407500Y-80807142D02*
X126383690Y-80759523D01*
X126383690Y-80759523D02*
X126383690Y-80640475D01*
X126383690Y-80640475D02*
X126407500Y-80592856D01*
X126407500Y-80592856D02*
X126431309Y-80569047D01*
X126431309Y-80569047D02*
X126478928Y-80545237D01*
X126478928Y-80545237D02*
X126526547Y-80545237D01*
X126526547Y-80545237D02*
X126597976Y-80569047D01*
X126597976Y-80569047D02*
X126883690Y-80854761D01*
X126883690Y-80854761D02*
X126883690Y-80545237D01*
X126383690Y-80092857D02*
X126383690Y-80330952D01*
X126383690Y-80330952D02*
X126621785Y-80354761D01*
X126621785Y-80354761D02*
X126597976Y-80330952D01*
X126597976Y-80330952D02*
X126574166Y-80283333D01*
X126574166Y-80283333D02*
X126574166Y-80164285D01*
X126574166Y-80164285D02*
X126597976Y-80116666D01*
X126597976Y-80116666D02*
X126621785Y-80092857D01*
X126621785Y-80092857D02*
X126669404Y-80069047D01*
X126669404Y-80069047D02*
X126788452Y-80069047D01*
X126788452Y-80069047D02*
X126836071Y-80092857D01*
X126836071Y-80092857D02*
X126859880Y-80116666D01*
X126859880Y-80116666D02*
X126883690Y-80164285D01*
X126883690Y-80164285D02*
X126883690Y-80283333D01*
X126883690Y-80283333D02*
X126859880Y-80330952D01*
X126859880Y-80330952D02*
X126836071Y-80354761D01*
X116383690Y-76571428D02*
X116145595Y-76738094D01*
X116383690Y-76857142D02*
X115883690Y-76857142D01*
X115883690Y-76857142D02*
X115883690Y-76666666D01*
X115883690Y-76666666D02*
X115907500Y-76619047D01*
X115907500Y-76619047D02*
X115931309Y-76595237D01*
X115931309Y-76595237D02*
X115978928Y-76571428D01*
X115978928Y-76571428D02*
X116050357Y-76571428D01*
X116050357Y-76571428D02*
X116097976Y-76595237D01*
X116097976Y-76595237D02*
X116121785Y-76619047D01*
X116121785Y-76619047D02*
X116145595Y-76666666D01*
X116145595Y-76666666D02*
X116145595Y-76857142D01*
X115931309Y-76380951D02*
X115907500Y-76357142D01*
X115907500Y-76357142D02*
X115883690Y-76309523D01*
X115883690Y-76309523D02*
X115883690Y-76190475D01*
X115883690Y-76190475D02*
X115907500Y-76142856D01*
X115907500Y-76142856D02*
X115931309Y-76119047D01*
X115931309Y-76119047D02*
X115978928Y-76095237D01*
X115978928Y-76095237D02*
X116026547Y-76095237D01*
X116026547Y-76095237D02*
X116097976Y-76119047D01*
X116097976Y-76119047D02*
X116383690Y-76404761D01*
X116383690Y-76404761D02*
X116383690Y-76095237D01*
X115931309Y-75904761D02*
X115907500Y-75880952D01*
X115907500Y-75880952D02*
X115883690Y-75833333D01*
X115883690Y-75833333D02*
X115883690Y-75714285D01*
X115883690Y-75714285D02*
X115907500Y-75666666D01*
X115907500Y-75666666D02*
X115931309Y-75642857D01*
X115931309Y-75642857D02*
X115978928Y-75619047D01*
X115978928Y-75619047D02*
X116026547Y-75619047D01*
X116026547Y-75619047D02*
X116097976Y-75642857D01*
X116097976Y-75642857D02*
X116383690Y-75928571D01*
X116383690Y-75928571D02*
X116383690Y-75619047D01*
X130936071Y-73121428D02*
X130959880Y-73145237D01*
X130959880Y-73145237D02*
X130983690Y-73216666D01*
X130983690Y-73216666D02*
X130983690Y-73264285D01*
X130983690Y-73264285D02*
X130959880Y-73335713D01*
X130959880Y-73335713D02*
X130912261Y-73383332D01*
X130912261Y-73383332D02*
X130864642Y-73407142D01*
X130864642Y-73407142D02*
X130769404Y-73430951D01*
X130769404Y-73430951D02*
X130697976Y-73430951D01*
X130697976Y-73430951D02*
X130602738Y-73407142D01*
X130602738Y-73407142D02*
X130555119Y-73383332D01*
X130555119Y-73383332D02*
X130507500Y-73335713D01*
X130507500Y-73335713D02*
X130483690Y-73264285D01*
X130483690Y-73264285D02*
X130483690Y-73216666D01*
X130483690Y-73216666D02*
X130507500Y-73145237D01*
X130507500Y-73145237D02*
X130531309Y-73121428D01*
X130531309Y-72930951D02*
X130507500Y-72907142D01*
X130507500Y-72907142D02*
X130483690Y-72859523D01*
X130483690Y-72859523D02*
X130483690Y-72740475D01*
X130483690Y-72740475D02*
X130507500Y-72692856D01*
X130507500Y-72692856D02*
X130531309Y-72669047D01*
X130531309Y-72669047D02*
X130578928Y-72645237D01*
X130578928Y-72645237D02*
X130626547Y-72645237D01*
X130626547Y-72645237D02*
X130697976Y-72669047D01*
X130697976Y-72669047D02*
X130983690Y-72954761D01*
X130983690Y-72954761D02*
X130983690Y-72645237D01*
X130483690Y-72335714D02*
X130483690Y-72288095D01*
X130483690Y-72288095D02*
X130507500Y-72240476D01*
X130507500Y-72240476D02*
X130531309Y-72216666D01*
X130531309Y-72216666D02*
X130578928Y-72192857D01*
X130578928Y-72192857D02*
X130674166Y-72169047D01*
X130674166Y-72169047D02*
X130793214Y-72169047D01*
X130793214Y-72169047D02*
X130888452Y-72192857D01*
X130888452Y-72192857D02*
X130936071Y-72216666D01*
X130936071Y-72216666D02*
X130959880Y-72240476D01*
X130959880Y-72240476D02*
X130983690Y-72288095D01*
X130983690Y-72288095D02*
X130983690Y-72335714D01*
X130983690Y-72335714D02*
X130959880Y-72383333D01*
X130959880Y-72383333D02*
X130936071Y-72407142D01*
X130936071Y-72407142D02*
X130888452Y-72430952D01*
X130888452Y-72430952D02*
X130793214Y-72454761D01*
X130793214Y-72454761D02*
X130674166Y-72454761D01*
X130674166Y-72454761D02*
X130578928Y-72430952D01*
X130578928Y-72430952D02*
X130531309Y-72407142D01*
X130531309Y-72407142D02*
X130507500Y-72383333D01*
X130507500Y-72383333D02*
X130483690Y-72335714D01*
X156266071Y-88636071D02*
X156242262Y-88659880D01*
X156242262Y-88659880D02*
X156170833Y-88683690D01*
X156170833Y-88683690D02*
X156123214Y-88683690D01*
X156123214Y-88683690D02*
X156051786Y-88659880D01*
X156051786Y-88659880D02*
X156004167Y-88612261D01*
X156004167Y-88612261D02*
X155980357Y-88564642D01*
X155980357Y-88564642D02*
X155956548Y-88469404D01*
X155956548Y-88469404D02*
X155956548Y-88397976D01*
X155956548Y-88397976D02*
X155980357Y-88302738D01*
X155980357Y-88302738D02*
X156004167Y-88255119D01*
X156004167Y-88255119D02*
X156051786Y-88207500D01*
X156051786Y-88207500D02*
X156123214Y-88183690D01*
X156123214Y-88183690D02*
X156170833Y-88183690D01*
X156170833Y-88183690D02*
X156242262Y-88207500D01*
X156242262Y-88207500D02*
X156266071Y-88231309D01*
X156742262Y-88683690D02*
X156456548Y-88683690D01*
X156599405Y-88683690D02*
X156599405Y-88183690D01*
X156599405Y-88183690D02*
X156551786Y-88255119D01*
X156551786Y-88255119D02*
X156504167Y-88302738D01*
X156504167Y-88302738D02*
X156456548Y-88326547D01*
X157218452Y-88683690D02*
X156932738Y-88683690D01*
X157075595Y-88683690D02*
X157075595Y-88183690D01*
X157075595Y-88183690D02*
X157027976Y-88255119D01*
X157027976Y-88255119D02*
X156980357Y-88302738D01*
X156980357Y-88302738D02*
X156932738Y-88326547D01*
X129278571Y-81333690D02*
X129111905Y-81095595D01*
X128992857Y-81333690D02*
X128992857Y-80833690D01*
X128992857Y-80833690D02*
X129183333Y-80833690D01*
X129183333Y-80833690D02*
X129230952Y-80857500D01*
X129230952Y-80857500D02*
X129254762Y-80881309D01*
X129254762Y-80881309D02*
X129278571Y-80928928D01*
X129278571Y-80928928D02*
X129278571Y-81000357D01*
X129278571Y-81000357D02*
X129254762Y-81047976D01*
X129254762Y-81047976D02*
X129230952Y-81071785D01*
X129230952Y-81071785D02*
X129183333Y-81095595D01*
X129183333Y-81095595D02*
X128992857Y-81095595D01*
X129469048Y-80881309D02*
X129492857Y-80857500D01*
X129492857Y-80857500D02*
X129540476Y-80833690D01*
X129540476Y-80833690D02*
X129659524Y-80833690D01*
X129659524Y-80833690D02*
X129707143Y-80857500D01*
X129707143Y-80857500D02*
X129730952Y-80881309D01*
X129730952Y-80881309D02*
X129754762Y-80928928D01*
X129754762Y-80928928D02*
X129754762Y-80976547D01*
X129754762Y-80976547D02*
X129730952Y-81047976D01*
X129730952Y-81047976D02*
X129445238Y-81333690D01*
X129445238Y-81333690D02*
X129754762Y-81333690D01*
X130064285Y-80833690D02*
X130111904Y-80833690D01*
X130111904Y-80833690D02*
X130159523Y-80857500D01*
X130159523Y-80857500D02*
X130183333Y-80881309D01*
X130183333Y-80881309D02*
X130207142Y-80928928D01*
X130207142Y-80928928D02*
X130230952Y-81024166D01*
X130230952Y-81024166D02*
X130230952Y-81143214D01*
X130230952Y-81143214D02*
X130207142Y-81238452D01*
X130207142Y-81238452D02*
X130183333Y-81286071D01*
X130183333Y-81286071D02*
X130159523Y-81309880D01*
X130159523Y-81309880D02*
X130111904Y-81333690D01*
X130111904Y-81333690D02*
X130064285Y-81333690D01*
X130064285Y-81333690D02*
X130016666Y-81309880D01*
X130016666Y-81309880D02*
X129992857Y-81286071D01*
X129992857Y-81286071D02*
X129969047Y-81238452D01*
X129969047Y-81238452D02*
X129945238Y-81143214D01*
X129945238Y-81143214D02*
X129945238Y-81024166D01*
X129945238Y-81024166D02*
X129969047Y-80928928D01*
X129969047Y-80928928D02*
X129992857Y-80881309D01*
X129992857Y-80881309D02*
X130016666Y-80857500D01*
X130016666Y-80857500D02*
X130064285Y-80833690D01*
D10*
X114461905Y-93117380D02*
X115033333Y-93117380D01*
X114747619Y-94117380D02*
X114747619Y-93117380D01*
X115366667Y-94117380D02*
X115366667Y-93117380D01*
X115366667Y-93117380D02*
X115747619Y-93117380D01*
X115747619Y-93117380D02*
X115842857Y-93165000D01*
X115842857Y-93165000D02*
X115890476Y-93212619D01*
X115890476Y-93212619D02*
X115938095Y-93307857D01*
X115938095Y-93307857D02*
X115938095Y-93450714D01*
X115938095Y-93450714D02*
X115890476Y-93545952D01*
X115890476Y-93545952D02*
X115842857Y-93593571D01*
X115842857Y-93593571D02*
X115747619Y-93641190D01*
X115747619Y-93641190D02*
X115366667Y-93641190D01*
X116890476Y-94117380D02*
X116319048Y-94117380D01*
X116604762Y-94117380D02*
X116604762Y-93117380D01*
X116604762Y-93117380D02*
X116509524Y-93260238D01*
X116509524Y-93260238D02*
X116414286Y-93355476D01*
X116414286Y-93355476D02*
X116319048Y-93403095D01*
X117747619Y-93450714D02*
X117747619Y-94117380D01*
X117509524Y-93069761D02*
X117271429Y-93784047D01*
X117271429Y-93784047D02*
X117890476Y-93784047D01*
D11*
X128548571Y-89683690D02*
X128381905Y-89445595D01*
X128262857Y-89683690D02*
X128262857Y-89183690D01*
X128262857Y-89183690D02*
X128453333Y-89183690D01*
X128453333Y-89183690D02*
X128500952Y-89207500D01*
X128500952Y-89207500D02*
X128524762Y-89231309D01*
X128524762Y-89231309D02*
X128548571Y-89278928D01*
X128548571Y-89278928D02*
X128548571Y-89350357D01*
X128548571Y-89350357D02*
X128524762Y-89397976D01*
X128524762Y-89397976D02*
X128500952Y-89421785D01*
X128500952Y-89421785D02*
X128453333Y-89445595D01*
X128453333Y-89445595D02*
X128262857Y-89445595D01*
X129024762Y-89683690D02*
X128739048Y-89683690D01*
X128881905Y-89683690D02*
X128881905Y-89183690D01*
X128881905Y-89183690D02*
X128834286Y-89255119D01*
X128834286Y-89255119D02*
X128786667Y-89302738D01*
X128786667Y-89302738D02*
X128739048Y-89326547D01*
X129500952Y-89683690D02*
X129215238Y-89683690D01*
X129358095Y-89683690D02*
X129358095Y-89183690D01*
X129358095Y-89183690D02*
X129310476Y-89255119D01*
X129310476Y-89255119D02*
X129262857Y-89302738D01*
X129262857Y-89302738D02*
X129215238Y-89326547D01*
X154666666Y-85786071D02*
X154642857Y-85809880D01*
X154642857Y-85809880D02*
X154571428Y-85833690D01*
X154571428Y-85833690D02*
X154523809Y-85833690D01*
X154523809Y-85833690D02*
X154452381Y-85809880D01*
X154452381Y-85809880D02*
X154404762Y-85762261D01*
X154404762Y-85762261D02*
X154380952Y-85714642D01*
X154380952Y-85714642D02*
X154357143Y-85619404D01*
X154357143Y-85619404D02*
X154357143Y-85547976D01*
X154357143Y-85547976D02*
X154380952Y-85452738D01*
X154380952Y-85452738D02*
X154404762Y-85405119D01*
X154404762Y-85405119D02*
X154452381Y-85357500D01*
X154452381Y-85357500D02*
X154523809Y-85333690D01*
X154523809Y-85333690D02*
X154571428Y-85333690D01*
X154571428Y-85333690D02*
X154642857Y-85357500D01*
X154642857Y-85357500D02*
X154666666Y-85381309D01*
X155095238Y-85500357D02*
X155095238Y-85833690D01*
X154976190Y-85309880D02*
X154857143Y-85667023D01*
X154857143Y-85667023D02*
X155166666Y-85667023D01*
X158536071Y-71083333D02*
X158559880Y-71107142D01*
X158559880Y-71107142D02*
X158583690Y-71178571D01*
X158583690Y-71178571D02*
X158583690Y-71226190D01*
X158583690Y-71226190D02*
X158559880Y-71297618D01*
X158559880Y-71297618D02*
X158512261Y-71345237D01*
X158512261Y-71345237D02*
X158464642Y-71369047D01*
X158464642Y-71369047D02*
X158369404Y-71392856D01*
X158369404Y-71392856D02*
X158297976Y-71392856D01*
X158297976Y-71392856D02*
X158202738Y-71369047D01*
X158202738Y-71369047D02*
X158155119Y-71345237D01*
X158155119Y-71345237D02*
X158107500Y-71297618D01*
X158107500Y-71297618D02*
X158083690Y-71226190D01*
X158083690Y-71226190D02*
X158083690Y-71178571D01*
X158083690Y-71178571D02*
X158107500Y-71107142D01*
X158107500Y-71107142D02*
X158131309Y-71083333D01*
X158583690Y-70845237D02*
X158583690Y-70749999D01*
X158583690Y-70749999D02*
X158559880Y-70702380D01*
X158559880Y-70702380D02*
X158536071Y-70678571D01*
X158536071Y-70678571D02*
X158464642Y-70630952D01*
X158464642Y-70630952D02*
X158369404Y-70607142D01*
X158369404Y-70607142D02*
X158178928Y-70607142D01*
X158178928Y-70607142D02*
X158131309Y-70630952D01*
X158131309Y-70630952D02*
X158107500Y-70654761D01*
X158107500Y-70654761D02*
X158083690Y-70702380D01*
X158083690Y-70702380D02*
X158083690Y-70797618D01*
X158083690Y-70797618D02*
X158107500Y-70845237D01*
X158107500Y-70845237D02*
X158131309Y-70869047D01*
X158131309Y-70869047D02*
X158178928Y-70892856D01*
X158178928Y-70892856D02*
X158297976Y-70892856D01*
X158297976Y-70892856D02*
X158345595Y-70869047D01*
X158345595Y-70869047D02*
X158369404Y-70845237D01*
X158369404Y-70845237D02*
X158393214Y-70797618D01*
X158393214Y-70797618D02*
X158393214Y-70702380D01*
X158393214Y-70702380D02*
X158369404Y-70654761D01*
X158369404Y-70654761D02*
X158345595Y-70630952D01*
X158345595Y-70630952D02*
X158297976Y-70607142D01*
X132783690Y-88183333D02*
X132545595Y-88349999D01*
X132783690Y-88469047D02*
X132283690Y-88469047D01*
X132283690Y-88469047D02*
X132283690Y-88278571D01*
X132283690Y-88278571D02*
X132307500Y-88230952D01*
X132307500Y-88230952D02*
X132331309Y-88207142D01*
X132331309Y-88207142D02*
X132378928Y-88183333D01*
X132378928Y-88183333D02*
X132450357Y-88183333D01*
X132450357Y-88183333D02*
X132497976Y-88207142D01*
X132497976Y-88207142D02*
X132521785Y-88230952D01*
X132521785Y-88230952D02*
X132545595Y-88278571D01*
X132545595Y-88278571D02*
X132545595Y-88469047D01*
X132283690Y-88016666D02*
X132283690Y-87707142D01*
X132283690Y-87707142D02*
X132474166Y-87873809D01*
X132474166Y-87873809D02*
X132474166Y-87802380D01*
X132474166Y-87802380D02*
X132497976Y-87754761D01*
X132497976Y-87754761D02*
X132521785Y-87730952D01*
X132521785Y-87730952D02*
X132569404Y-87707142D01*
X132569404Y-87707142D02*
X132688452Y-87707142D01*
X132688452Y-87707142D02*
X132736071Y-87730952D01*
X132736071Y-87730952D02*
X132759880Y-87754761D01*
X132759880Y-87754761D02*
X132783690Y-87802380D01*
X132783690Y-87802380D02*
X132783690Y-87945237D01*
X132783690Y-87945237D02*
X132759880Y-87992856D01*
X132759880Y-87992856D02*
X132736071Y-88016666D01*
D10*
X155288095Y-72467380D02*
X155859523Y-72467380D01*
X155573809Y-73467380D02*
X155573809Y-72467380D01*
X156192857Y-73467380D02*
X156192857Y-72467380D01*
X156192857Y-72467380D02*
X156573809Y-72467380D01*
X156573809Y-72467380D02*
X156669047Y-72515000D01*
X156669047Y-72515000D02*
X156716666Y-72562619D01*
X156716666Y-72562619D02*
X156764285Y-72657857D01*
X156764285Y-72657857D02*
X156764285Y-72800714D01*
X156764285Y-72800714D02*
X156716666Y-72895952D01*
X156716666Y-72895952D02*
X156669047Y-72943571D01*
X156669047Y-72943571D02*
X156573809Y-72991190D01*
X156573809Y-72991190D02*
X156192857Y-72991190D01*
X157621428Y-72800714D02*
X157621428Y-73467380D01*
X157383333Y-72419761D02*
X157145238Y-73134047D01*
X157145238Y-73134047D02*
X157764285Y-73134047D01*
X106688095Y-90467380D02*
X106688095Y-89467380D01*
X106688095Y-89943571D02*
X107259523Y-89943571D01*
X107259523Y-90467380D02*
X107259523Y-89467380D01*
X108259523Y-90467380D02*
X107688095Y-90467380D01*
X107973809Y-90467380D02*
X107973809Y-89467380D01*
X107973809Y-89467380D02*
X107878571Y-89610238D01*
X107878571Y-89610238D02*
X107783333Y-89705476D01*
X107783333Y-89705476D02*
X107688095Y-89753095D01*
D11*
X156336071Y-71020833D02*
X156359880Y-71044642D01*
X156359880Y-71044642D02*
X156383690Y-71116071D01*
X156383690Y-71116071D02*
X156383690Y-71163690D01*
X156383690Y-71163690D02*
X156359880Y-71235118D01*
X156359880Y-71235118D02*
X156312261Y-71282737D01*
X156312261Y-71282737D02*
X156264642Y-71306547D01*
X156264642Y-71306547D02*
X156169404Y-71330356D01*
X156169404Y-71330356D02*
X156097976Y-71330356D01*
X156097976Y-71330356D02*
X156002738Y-71306547D01*
X156002738Y-71306547D02*
X155955119Y-71282737D01*
X155955119Y-71282737D02*
X155907500Y-71235118D01*
X155907500Y-71235118D02*
X155883690Y-71163690D01*
X155883690Y-71163690D02*
X155883690Y-71116071D01*
X155883690Y-71116071D02*
X155907500Y-71044642D01*
X155907500Y-71044642D02*
X155931309Y-71020833D01*
X155883690Y-70592261D02*
X155883690Y-70687499D01*
X155883690Y-70687499D02*
X155907500Y-70735118D01*
X155907500Y-70735118D02*
X155931309Y-70758928D01*
X155931309Y-70758928D02*
X156002738Y-70806547D01*
X156002738Y-70806547D02*
X156097976Y-70830356D01*
X156097976Y-70830356D02*
X156288452Y-70830356D01*
X156288452Y-70830356D02*
X156336071Y-70806547D01*
X156336071Y-70806547D02*
X156359880Y-70782737D01*
X156359880Y-70782737D02*
X156383690Y-70735118D01*
X156383690Y-70735118D02*
X156383690Y-70639880D01*
X156383690Y-70639880D02*
X156359880Y-70592261D01*
X156359880Y-70592261D02*
X156336071Y-70568452D01*
X156336071Y-70568452D02*
X156288452Y-70544642D01*
X156288452Y-70544642D02*
X156169404Y-70544642D01*
X156169404Y-70544642D02*
X156121785Y-70568452D01*
X156121785Y-70568452D02*
X156097976Y-70592261D01*
X156097976Y-70592261D02*
X156074166Y-70639880D01*
X156074166Y-70639880D02*
X156074166Y-70735118D01*
X156074166Y-70735118D02*
X156097976Y-70782737D01*
X156097976Y-70782737D02*
X156121785Y-70806547D01*
X156121785Y-70806547D02*
X156169404Y-70830356D01*
D12*
X115514123Y-106929638D02*
X115483647Y-106914400D01*
X115483647Y-106914400D02*
X115453171Y-106883923D01*
X115453171Y-106883923D02*
X115407457Y-106838209D01*
X115407457Y-106838209D02*
X115376980Y-106822971D01*
X115376980Y-106822971D02*
X115346504Y-106822971D01*
X115361742Y-106899161D02*
X115331266Y-106883923D01*
X115331266Y-106883923D02*
X115300790Y-106853447D01*
X115300790Y-106853447D02*
X115285552Y-106792495D01*
X115285552Y-106792495D02*
X115285552Y-106685828D01*
X115285552Y-106685828D02*
X115300790Y-106624876D01*
X115300790Y-106624876D02*
X115331266Y-106594400D01*
X115331266Y-106594400D02*
X115361742Y-106579161D01*
X115361742Y-106579161D02*
X115422695Y-106579161D01*
X115422695Y-106579161D02*
X115453171Y-106594400D01*
X115453171Y-106594400D02*
X115483647Y-106624876D01*
X115483647Y-106624876D02*
X115498885Y-106685828D01*
X115498885Y-106685828D02*
X115498885Y-106792495D01*
X115498885Y-106792495D02*
X115483647Y-106853447D01*
X115483647Y-106853447D02*
X115453171Y-106883923D01*
X115453171Y-106883923D02*
X115422695Y-106899161D01*
X115422695Y-106899161D02*
X115361742Y-106899161D01*
X115620790Y-106609638D02*
X115636028Y-106594400D01*
X115636028Y-106594400D02*
X115666504Y-106579161D01*
X115666504Y-106579161D02*
X115742695Y-106579161D01*
X115742695Y-106579161D02*
X115773171Y-106594400D01*
X115773171Y-106594400D02*
X115788409Y-106609638D01*
X115788409Y-106609638D02*
X115803647Y-106640114D01*
X115803647Y-106640114D02*
X115803647Y-106670590D01*
X115803647Y-106670590D02*
X115788409Y-106716304D01*
X115788409Y-106716304D02*
X115605552Y-106899161D01*
X115605552Y-106899161D02*
X115803647Y-106899161D01*
D11*
X114516666Y-111715090D02*
X114350000Y-111476995D01*
X114230952Y-111715090D02*
X114230952Y-111215090D01*
X114230952Y-111215090D02*
X114421428Y-111215090D01*
X114421428Y-111215090D02*
X114469047Y-111238900D01*
X114469047Y-111238900D02*
X114492857Y-111262709D01*
X114492857Y-111262709D02*
X114516666Y-111310328D01*
X114516666Y-111310328D02*
X114516666Y-111381757D01*
X114516666Y-111381757D02*
X114492857Y-111429376D01*
X114492857Y-111429376D02*
X114469047Y-111453185D01*
X114469047Y-111453185D02*
X114421428Y-111476995D01*
X114421428Y-111476995D02*
X114230952Y-111476995D01*
X114945238Y-111215090D02*
X114850000Y-111215090D01*
X114850000Y-111215090D02*
X114802381Y-111238900D01*
X114802381Y-111238900D02*
X114778571Y-111262709D01*
X114778571Y-111262709D02*
X114730952Y-111334138D01*
X114730952Y-111334138D02*
X114707143Y-111429376D01*
X114707143Y-111429376D02*
X114707143Y-111619852D01*
X114707143Y-111619852D02*
X114730952Y-111667471D01*
X114730952Y-111667471D02*
X114754762Y-111691280D01*
X114754762Y-111691280D02*
X114802381Y-111715090D01*
X114802381Y-111715090D02*
X114897619Y-111715090D01*
X114897619Y-111715090D02*
X114945238Y-111691280D01*
X114945238Y-111691280D02*
X114969047Y-111667471D01*
X114969047Y-111667471D02*
X114992857Y-111619852D01*
X114992857Y-111619852D02*
X114992857Y-111500804D01*
X114992857Y-111500804D02*
X114969047Y-111453185D01*
X114969047Y-111453185D02*
X114945238Y-111429376D01*
X114945238Y-111429376D02*
X114897619Y-111405566D01*
X114897619Y-111405566D02*
X114802381Y-111405566D01*
X114802381Y-111405566D02*
X114754762Y-111429376D01*
X114754762Y-111429376D02*
X114730952Y-111453185D01*
X114730952Y-111453185D02*
X114707143Y-111500804D01*
X113699171Y-114029671D02*
X113675362Y-114053480D01*
X113675362Y-114053480D02*
X113603933Y-114077290D01*
X113603933Y-114077290D02*
X113556314Y-114077290D01*
X113556314Y-114077290D02*
X113484886Y-114053480D01*
X113484886Y-114053480D02*
X113437267Y-114005861D01*
X113437267Y-114005861D02*
X113413457Y-113958242D01*
X113413457Y-113958242D02*
X113389648Y-113863004D01*
X113389648Y-113863004D02*
X113389648Y-113791576D01*
X113389648Y-113791576D02*
X113413457Y-113696338D01*
X113413457Y-113696338D02*
X113437267Y-113648719D01*
X113437267Y-113648719D02*
X113484886Y-113601100D01*
X113484886Y-113601100D02*
X113556314Y-113577290D01*
X113556314Y-113577290D02*
X113603933Y-113577290D01*
X113603933Y-113577290D02*
X113675362Y-113601100D01*
X113675362Y-113601100D02*
X113699171Y-113624909D01*
X114175362Y-114077290D02*
X113889648Y-114077290D01*
X114032505Y-114077290D02*
X114032505Y-113577290D01*
X114032505Y-113577290D02*
X113984886Y-113648719D01*
X113984886Y-113648719D02*
X113937267Y-113696338D01*
X113937267Y-113696338D02*
X113889648Y-113720147D01*
X114603933Y-113743957D02*
X114603933Y-114077290D01*
X114484885Y-113553480D02*
X114365838Y-113910623D01*
X114365838Y-113910623D02*
X114675361Y-113910623D01*
D10*
X118717380Y-100759523D02*
X119431666Y-100759523D01*
X119431666Y-100759523D02*
X119574523Y-100807142D01*
X119574523Y-100807142D02*
X119669761Y-100902380D01*
X119669761Y-100902380D02*
X119717380Y-101045237D01*
X119717380Y-101045237D02*
X119717380Y-101140475D01*
X119717380Y-99759523D02*
X119717380Y-100330951D01*
X119717380Y-100045237D02*
X118717380Y-100045237D01*
X118717380Y-100045237D02*
X118860238Y-100140475D01*
X118860238Y-100140475D02*
X118955476Y-100235713D01*
X118955476Y-100235713D02*
X119003095Y-100330951D01*
X118717380Y-99140475D02*
X118717380Y-99045237D01*
X118717380Y-99045237D02*
X118765000Y-98949999D01*
X118765000Y-98949999D02*
X118812619Y-98902380D01*
X118812619Y-98902380D02*
X118907857Y-98854761D01*
X118907857Y-98854761D02*
X119098333Y-98807142D01*
X119098333Y-98807142D02*
X119336428Y-98807142D01*
X119336428Y-98807142D02*
X119526904Y-98854761D01*
X119526904Y-98854761D02*
X119622142Y-98902380D01*
X119622142Y-98902380D02*
X119669761Y-98949999D01*
X119669761Y-98949999D02*
X119717380Y-99045237D01*
X119717380Y-99045237D02*
X119717380Y-99140475D01*
X119717380Y-99140475D02*
X119669761Y-99235713D01*
X119669761Y-99235713D02*
X119622142Y-99283332D01*
X119622142Y-99283332D02*
X119526904Y-99330951D01*
X119526904Y-99330951D02*
X119336428Y-99378570D01*
X119336428Y-99378570D02*
X119098333Y-99378570D01*
X119098333Y-99378570D02*
X118907857Y-99330951D01*
X118907857Y-99330951D02*
X118812619Y-99283332D01*
X118812619Y-99283332D02*
X118765000Y-99235713D01*
X118765000Y-99235713D02*
X118717380Y-99140475D01*
X106561905Y-104417380D02*
X107133333Y-104417380D01*
X106847619Y-105417380D02*
X106847619Y-104417380D01*
X107466667Y-105417380D02*
X107466667Y-104417380D01*
X107466667Y-104417380D02*
X107847619Y-104417380D01*
X107847619Y-104417380D02*
X107942857Y-104465000D01*
X107942857Y-104465000D02*
X107990476Y-104512619D01*
X107990476Y-104512619D02*
X108038095Y-104607857D01*
X108038095Y-104607857D02*
X108038095Y-104750714D01*
X108038095Y-104750714D02*
X107990476Y-104845952D01*
X107990476Y-104845952D02*
X107942857Y-104893571D01*
X107942857Y-104893571D02*
X107847619Y-104941190D01*
X107847619Y-104941190D02*
X107466667Y-104941190D01*
X108990476Y-105417380D02*
X108419048Y-105417380D01*
X108704762Y-105417380D02*
X108704762Y-104417380D01*
X108704762Y-104417380D02*
X108609524Y-104560238D01*
X108609524Y-104560238D02*
X108514286Y-104655476D01*
X108514286Y-104655476D02*
X108419048Y-104703095D01*
X109942857Y-105417380D02*
X109371429Y-105417380D01*
X109657143Y-105417380D02*
X109657143Y-104417380D01*
X109657143Y-104417380D02*
X109561905Y-104560238D01*
X109561905Y-104560238D02*
X109466667Y-104655476D01*
X109466667Y-104655476D02*
X109371429Y-104703095D01*
D11*
X122783690Y-72283333D02*
X122545595Y-72449999D01*
X122783690Y-72569047D02*
X122283690Y-72569047D01*
X122283690Y-72569047D02*
X122283690Y-72378571D01*
X122283690Y-72378571D02*
X122307500Y-72330952D01*
X122307500Y-72330952D02*
X122331309Y-72307142D01*
X122331309Y-72307142D02*
X122378928Y-72283333D01*
X122378928Y-72283333D02*
X122450357Y-72283333D01*
X122450357Y-72283333D02*
X122497976Y-72307142D01*
X122497976Y-72307142D02*
X122521785Y-72330952D01*
X122521785Y-72330952D02*
X122545595Y-72378571D01*
X122545595Y-72378571D02*
X122545595Y-72569047D01*
X122283690Y-71830952D02*
X122283690Y-72069047D01*
X122283690Y-72069047D02*
X122521785Y-72092856D01*
X122521785Y-72092856D02*
X122497976Y-72069047D01*
X122497976Y-72069047D02*
X122474166Y-72021428D01*
X122474166Y-72021428D02*
X122474166Y-71902380D01*
X122474166Y-71902380D02*
X122497976Y-71854761D01*
X122497976Y-71854761D02*
X122521785Y-71830952D01*
X122521785Y-71830952D02*
X122569404Y-71807142D01*
X122569404Y-71807142D02*
X122688452Y-71807142D01*
X122688452Y-71807142D02*
X122736071Y-71830952D01*
X122736071Y-71830952D02*
X122759880Y-71854761D01*
X122759880Y-71854761D02*
X122783690Y-71902380D01*
X122783690Y-71902380D02*
X122783690Y-72021428D01*
X122783690Y-72021428D02*
X122759880Y-72069047D01*
X122759880Y-72069047D02*
X122736071Y-72092856D01*
D10*
X143638095Y-95717380D02*
X144209523Y-95717380D01*
X143923809Y-96717380D02*
X143923809Y-95717380D01*
X144542857Y-96717380D02*
X144542857Y-95717380D01*
X144542857Y-95717380D02*
X144923809Y-95717380D01*
X144923809Y-95717380D02*
X145019047Y-95765000D01*
X145019047Y-95765000D02*
X145066666Y-95812619D01*
X145066666Y-95812619D02*
X145114285Y-95907857D01*
X145114285Y-95907857D02*
X145114285Y-96050714D01*
X145114285Y-96050714D02*
X145066666Y-96145952D01*
X145066666Y-96145952D02*
X145019047Y-96193571D01*
X145019047Y-96193571D02*
X144923809Y-96241190D01*
X144923809Y-96241190D02*
X144542857Y-96241190D01*
X145447619Y-95717380D02*
X146114285Y-95717380D01*
X146114285Y-95717380D02*
X145685714Y-96717380D01*
D11*
X114842171Y-101990071D02*
X114818362Y-102013880D01*
X114818362Y-102013880D02*
X114746933Y-102037690D01*
X114746933Y-102037690D02*
X114699314Y-102037690D01*
X114699314Y-102037690D02*
X114627886Y-102013880D01*
X114627886Y-102013880D02*
X114580267Y-101966261D01*
X114580267Y-101966261D02*
X114556457Y-101918642D01*
X114556457Y-101918642D02*
X114532648Y-101823404D01*
X114532648Y-101823404D02*
X114532648Y-101751976D01*
X114532648Y-101751976D02*
X114556457Y-101656738D01*
X114556457Y-101656738D02*
X114580267Y-101609119D01*
X114580267Y-101609119D02*
X114627886Y-101561500D01*
X114627886Y-101561500D02*
X114699314Y-101537690D01*
X114699314Y-101537690D02*
X114746933Y-101537690D01*
X114746933Y-101537690D02*
X114818362Y-101561500D01*
X114818362Y-101561500D02*
X114842171Y-101585309D01*
X115318362Y-102037690D02*
X115032648Y-102037690D01*
X115175505Y-102037690D02*
X115175505Y-101537690D01*
X115175505Y-101537690D02*
X115127886Y-101609119D01*
X115127886Y-101609119D02*
X115080267Y-101656738D01*
X115080267Y-101656738D02*
X115032648Y-101680547D01*
X115485028Y-101537690D02*
X115794552Y-101537690D01*
X115794552Y-101537690D02*
X115627885Y-101728166D01*
X115627885Y-101728166D02*
X115699314Y-101728166D01*
X115699314Y-101728166D02*
X115746933Y-101751976D01*
X115746933Y-101751976D02*
X115770742Y-101775785D01*
X115770742Y-101775785D02*
X115794552Y-101823404D01*
X115794552Y-101823404D02*
X115794552Y-101942452D01*
X115794552Y-101942452D02*
X115770742Y-101990071D01*
X115770742Y-101990071D02*
X115746933Y-102013880D01*
X115746933Y-102013880D02*
X115699314Y-102037690D01*
X115699314Y-102037690D02*
X115556457Y-102037690D01*
X115556457Y-102037690D02*
X115508838Y-102013880D01*
X115508838Y-102013880D02*
X115485028Y-101990071D01*
X152378571Y-88636071D02*
X152354762Y-88659880D01*
X152354762Y-88659880D02*
X152283333Y-88683690D01*
X152283333Y-88683690D02*
X152235714Y-88683690D01*
X152235714Y-88683690D02*
X152164286Y-88659880D01*
X152164286Y-88659880D02*
X152116667Y-88612261D01*
X152116667Y-88612261D02*
X152092857Y-88564642D01*
X152092857Y-88564642D02*
X152069048Y-88469404D01*
X152069048Y-88469404D02*
X152069048Y-88397976D01*
X152069048Y-88397976D02*
X152092857Y-88302738D01*
X152092857Y-88302738D02*
X152116667Y-88255119D01*
X152116667Y-88255119D02*
X152164286Y-88207500D01*
X152164286Y-88207500D02*
X152235714Y-88183690D01*
X152235714Y-88183690D02*
X152283333Y-88183690D01*
X152283333Y-88183690D02*
X152354762Y-88207500D01*
X152354762Y-88207500D02*
X152378571Y-88231309D01*
X152854762Y-88683690D02*
X152569048Y-88683690D01*
X152711905Y-88683690D02*
X152711905Y-88183690D01*
X152711905Y-88183690D02*
X152664286Y-88255119D01*
X152664286Y-88255119D02*
X152616667Y-88302738D01*
X152616667Y-88302738D02*
X152569048Y-88326547D01*
X153164285Y-88183690D02*
X153211904Y-88183690D01*
X153211904Y-88183690D02*
X153259523Y-88207500D01*
X153259523Y-88207500D02*
X153283333Y-88231309D01*
X153283333Y-88231309D02*
X153307142Y-88278928D01*
X153307142Y-88278928D02*
X153330952Y-88374166D01*
X153330952Y-88374166D02*
X153330952Y-88493214D01*
X153330952Y-88493214D02*
X153307142Y-88588452D01*
X153307142Y-88588452D02*
X153283333Y-88636071D01*
X153283333Y-88636071D02*
X153259523Y-88659880D01*
X153259523Y-88659880D02*
X153211904Y-88683690D01*
X153211904Y-88683690D02*
X153164285Y-88683690D01*
X153164285Y-88683690D02*
X153116666Y-88659880D01*
X153116666Y-88659880D02*
X153092857Y-88636071D01*
X153092857Y-88636071D02*
X153069047Y-88588452D01*
X153069047Y-88588452D02*
X153045238Y-88493214D01*
X153045238Y-88493214D02*
X153045238Y-88374166D01*
X153045238Y-88374166D02*
X153069047Y-88278928D01*
X153069047Y-88278928D02*
X153092857Y-88231309D01*
X153092857Y-88231309D02*
X153116666Y-88207500D01*
X153116666Y-88207500D02*
X153164285Y-88183690D01*
X114183690Y-76571428D02*
X113945595Y-76738094D01*
X114183690Y-76857142D02*
X113683690Y-76857142D01*
X113683690Y-76857142D02*
X113683690Y-76666666D01*
X113683690Y-76666666D02*
X113707500Y-76619047D01*
X113707500Y-76619047D02*
X113731309Y-76595237D01*
X113731309Y-76595237D02*
X113778928Y-76571428D01*
X113778928Y-76571428D02*
X113850357Y-76571428D01*
X113850357Y-76571428D02*
X113897976Y-76595237D01*
X113897976Y-76595237D02*
X113921785Y-76619047D01*
X113921785Y-76619047D02*
X113945595Y-76666666D01*
X113945595Y-76666666D02*
X113945595Y-76857142D01*
X113731309Y-76380951D02*
X113707500Y-76357142D01*
X113707500Y-76357142D02*
X113683690Y-76309523D01*
X113683690Y-76309523D02*
X113683690Y-76190475D01*
X113683690Y-76190475D02*
X113707500Y-76142856D01*
X113707500Y-76142856D02*
X113731309Y-76119047D01*
X113731309Y-76119047D02*
X113778928Y-76095237D01*
X113778928Y-76095237D02*
X113826547Y-76095237D01*
X113826547Y-76095237D02*
X113897976Y-76119047D01*
X113897976Y-76119047D02*
X114183690Y-76404761D01*
X114183690Y-76404761D02*
X114183690Y-76095237D01*
X114183690Y-75619047D02*
X114183690Y-75904761D01*
X114183690Y-75761904D02*
X113683690Y-75761904D01*
X113683690Y-75761904D02*
X113755119Y-75809523D01*
X113755119Y-75809523D02*
X113802738Y-75857142D01*
X113802738Y-75857142D02*
X113826547Y-75904761D01*
X161178571Y-111433690D02*
X161011905Y-111195595D01*
X160892857Y-111433690D02*
X160892857Y-110933690D01*
X160892857Y-110933690D02*
X161083333Y-110933690D01*
X161083333Y-110933690D02*
X161130952Y-110957500D01*
X161130952Y-110957500D02*
X161154762Y-110981309D01*
X161154762Y-110981309D02*
X161178571Y-111028928D01*
X161178571Y-111028928D02*
X161178571Y-111100357D01*
X161178571Y-111100357D02*
X161154762Y-111147976D01*
X161154762Y-111147976D02*
X161130952Y-111171785D01*
X161130952Y-111171785D02*
X161083333Y-111195595D01*
X161083333Y-111195595D02*
X160892857Y-111195595D01*
X161654762Y-111433690D02*
X161369048Y-111433690D01*
X161511905Y-111433690D02*
X161511905Y-110933690D01*
X161511905Y-110933690D02*
X161464286Y-111005119D01*
X161464286Y-111005119D02*
X161416667Y-111052738D01*
X161416667Y-111052738D02*
X161369048Y-111076547D01*
X162107142Y-110933690D02*
X161869047Y-110933690D01*
X161869047Y-110933690D02*
X161845238Y-111171785D01*
X161845238Y-111171785D02*
X161869047Y-111147976D01*
X161869047Y-111147976D02*
X161916666Y-111124166D01*
X161916666Y-111124166D02*
X162035714Y-111124166D01*
X162035714Y-111124166D02*
X162083333Y-111147976D01*
X162083333Y-111147976D02*
X162107142Y-111171785D01*
X162107142Y-111171785D02*
X162130952Y-111219404D01*
X162130952Y-111219404D02*
X162130952Y-111338452D01*
X162130952Y-111338452D02*
X162107142Y-111386071D01*
X162107142Y-111386071D02*
X162083333Y-111409880D01*
X162083333Y-111409880D02*
X162035714Y-111433690D01*
X162035714Y-111433690D02*
X161916666Y-111433690D01*
X161916666Y-111433690D02*
X161869047Y-111409880D01*
X161869047Y-111409880D02*
X161845238Y-111386071D01*
D10*
X142581993Y-95522482D02*
X143167102Y-95932179D01*
X143167102Y-95932179D02*
X143256810Y-96053126D01*
X143256810Y-96053126D02*
X143280198Y-96185767D01*
X143280198Y-96185767D02*
X143237266Y-96330102D01*
X143237266Y-96330102D02*
X143182640Y-96408116D01*
X143128256Y-94742337D02*
X142855125Y-95132409D01*
X142855125Y-95132409D02*
X143217884Y-95444548D01*
X143217884Y-95444548D02*
X143206190Y-95378228D01*
X143206190Y-95378228D02*
X143221809Y-95272900D01*
X143221809Y-95272900D02*
X143358375Y-95077864D01*
X143358375Y-95077864D02*
X143452008Y-95027163D01*
X143452008Y-95027163D02*
X143518329Y-95015469D01*
X143518329Y-95015469D02*
X143623657Y-95031088D01*
X143623657Y-95031088D02*
X143818693Y-95167653D01*
X143818693Y-95167653D02*
X143869394Y-95261287D01*
X143869394Y-95261287D02*
X143881088Y-95327607D01*
X143881088Y-95327607D02*
X143865469Y-95432935D01*
X143865469Y-95432935D02*
X143728903Y-95627971D01*
X143728903Y-95627971D02*
X143635270Y-95678673D01*
X143635270Y-95678673D02*
X143568949Y-95690367D01*
X123938095Y-84117380D02*
X124509523Y-84117380D01*
X124223809Y-85117380D02*
X124223809Y-84117380D01*
X124842857Y-85117380D02*
X124842857Y-84117380D01*
X124842857Y-84117380D02*
X125223809Y-84117380D01*
X125223809Y-84117380D02*
X125319047Y-84165000D01*
X125319047Y-84165000D02*
X125366666Y-84212619D01*
X125366666Y-84212619D02*
X125414285Y-84307857D01*
X125414285Y-84307857D02*
X125414285Y-84450714D01*
X125414285Y-84450714D02*
X125366666Y-84545952D01*
X125366666Y-84545952D02*
X125319047Y-84593571D01*
X125319047Y-84593571D02*
X125223809Y-84641190D01*
X125223809Y-84641190D02*
X124842857Y-84641190D01*
X125795238Y-84212619D02*
X125842857Y-84165000D01*
X125842857Y-84165000D02*
X125938095Y-84117380D01*
X125938095Y-84117380D02*
X126176190Y-84117380D01*
X126176190Y-84117380D02*
X126271428Y-84165000D01*
X126271428Y-84165000D02*
X126319047Y-84212619D01*
X126319047Y-84212619D02*
X126366666Y-84307857D01*
X126366666Y-84307857D02*
X126366666Y-84403095D01*
X126366666Y-84403095D02*
X126319047Y-84545952D01*
X126319047Y-84545952D02*
X125747619Y-85117380D01*
X125747619Y-85117380D02*
X126366666Y-85117380D01*
D11*
X123928571Y-84183690D02*
X123761905Y-83945595D01*
X123642857Y-84183690D02*
X123642857Y-83683690D01*
X123642857Y-83683690D02*
X123833333Y-83683690D01*
X123833333Y-83683690D02*
X123880952Y-83707500D01*
X123880952Y-83707500D02*
X123904762Y-83731309D01*
X123904762Y-83731309D02*
X123928571Y-83778928D01*
X123928571Y-83778928D02*
X123928571Y-83850357D01*
X123928571Y-83850357D02*
X123904762Y-83897976D01*
X123904762Y-83897976D02*
X123880952Y-83921785D01*
X123880952Y-83921785D02*
X123833333Y-83945595D01*
X123833333Y-83945595D02*
X123642857Y-83945595D01*
X124404762Y-84183690D02*
X124119048Y-84183690D01*
X124261905Y-84183690D02*
X124261905Y-83683690D01*
X124261905Y-83683690D02*
X124214286Y-83755119D01*
X124214286Y-83755119D02*
X124166667Y-83802738D01*
X124166667Y-83802738D02*
X124119048Y-83826547D01*
X124595238Y-83731309D02*
X124619047Y-83707500D01*
X124619047Y-83707500D02*
X124666666Y-83683690D01*
X124666666Y-83683690D02*
X124785714Y-83683690D01*
X124785714Y-83683690D02*
X124833333Y-83707500D01*
X124833333Y-83707500D02*
X124857142Y-83731309D01*
X124857142Y-83731309D02*
X124880952Y-83778928D01*
X124880952Y-83778928D02*
X124880952Y-83826547D01*
X124880952Y-83826547D02*
X124857142Y-83897976D01*
X124857142Y-83897976D02*
X124571428Y-84183690D01*
X124571428Y-84183690D02*
X124880952Y-84183690D01*
X115178571Y-92933690D02*
X115011905Y-92695595D01*
X114892857Y-92933690D02*
X114892857Y-92433690D01*
X114892857Y-92433690D02*
X115083333Y-92433690D01*
X115083333Y-92433690D02*
X115130952Y-92457500D01*
X115130952Y-92457500D02*
X115154762Y-92481309D01*
X115154762Y-92481309D02*
X115178571Y-92528928D01*
X115178571Y-92528928D02*
X115178571Y-92600357D01*
X115178571Y-92600357D02*
X115154762Y-92647976D01*
X115154762Y-92647976D02*
X115130952Y-92671785D01*
X115130952Y-92671785D02*
X115083333Y-92695595D01*
X115083333Y-92695595D02*
X114892857Y-92695595D01*
X115654762Y-92933690D02*
X115369048Y-92933690D01*
X115511905Y-92933690D02*
X115511905Y-92433690D01*
X115511905Y-92433690D02*
X115464286Y-92505119D01*
X115464286Y-92505119D02*
X115416667Y-92552738D01*
X115416667Y-92552738D02*
X115369048Y-92576547D01*
X115964285Y-92433690D02*
X116011904Y-92433690D01*
X116011904Y-92433690D02*
X116059523Y-92457500D01*
X116059523Y-92457500D02*
X116083333Y-92481309D01*
X116083333Y-92481309D02*
X116107142Y-92528928D01*
X116107142Y-92528928D02*
X116130952Y-92624166D01*
X116130952Y-92624166D02*
X116130952Y-92743214D01*
X116130952Y-92743214D02*
X116107142Y-92838452D01*
X116107142Y-92838452D02*
X116083333Y-92886071D01*
X116083333Y-92886071D02*
X116059523Y-92909880D01*
X116059523Y-92909880D02*
X116011904Y-92933690D01*
X116011904Y-92933690D02*
X115964285Y-92933690D01*
X115964285Y-92933690D02*
X115916666Y-92909880D01*
X115916666Y-92909880D02*
X115892857Y-92886071D01*
X115892857Y-92886071D02*
X115869047Y-92838452D01*
X115869047Y-92838452D02*
X115845238Y-92743214D01*
X115845238Y-92743214D02*
X115845238Y-92624166D01*
X115845238Y-92624166D02*
X115869047Y-92528928D01*
X115869047Y-92528928D02*
X115892857Y-92481309D01*
X115892857Y-92481309D02*
X115916666Y-92457500D01*
X115916666Y-92457500D02*
X115964285Y-92433690D01*
X122386071Y-107321428D02*
X122409880Y-107345237D01*
X122409880Y-107345237D02*
X122433690Y-107416666D01*
X122433690Y-107416666D02*
X122433690Y-107464285D01*
X122433690Y-107464285D02*
X122409880Y-107535713D01*
X122409880Y-107535713D02*
X122362261Y-107583332D01*
X122362261Y-107583332D02*
X122314642Y-107607142D01*
X122314642Y-107607142D02*
X122219404Y-107630951D01*
X122219404Y-107630951D02*
X122147976Y-107630951D01*
X122147976Y-107630951D02*
X122052738Y-107607142D01*
X122052738Y-107607142D02*
X122005119Y-107583332D01*
X122005119Y-107583332D02*
X121957500Y-107535713D01*
X121957500Y-107535713D02*
X121933690Y-107464285D01*
X121933690Y-107464285D02*
X121933690Y-107416666D01*
X121933690Y-107416666D02*
X121957500Y-107345237D01*
X121957500Y-107345237D02*
X121981309Y-107321428D01*
X122433690Y-106845237D02*
X122433690Y-107130951D01*
X122433690Y-106988094D02*
X121933690Y-106988094D01*
X121933690Y-106988094D02*
X122005119Y-107035713D01*
X122005119Y-107035713D02*
X122052738Y-107083332D01*
X122052738Y-107083332D02*
X122076547Y-107130951D01*
X121933690Y-106392857D02*
X121933690Y-106630952D01*
X121933690Y-106630952D02*
X122171785Y-106654761D01*
X122171785Y-106654761D02*
X122147976Y-106630952D01*
X122147976Y-106630952D02*
X122124166Y-106583333D01*
X122124166Y-106583333D02*
X122124166Y-106464285D01*
X122124166Y-106464285D02*
X122147976Y-106416666D01*
X122147976Y-106416666D02*
X122171785Y-106392857D01*
X122171785Y-106392857D02*
X122219404Y-106369047D01*
X122219404Y-106369047D02*
X122338452Y-106369047D01*
X122338452Y-106369047D02*
X122386071Y-106392857D01*
X122386071Y-106392857D02*
X122409880Y-106416666D01*
X122409880Y-106416666D02*
X122433690Y-106464285D01*
X122433690Y-106464285D02*
X122433690Y-106583333D01*
X122433690Y-106583333D02*
X122409880Y-106630952D01*
X122409880Y-106630952D02*
X122386071Y-106654761D01*
D10*
X111234695Y-97386980D02*
X111806123Y-97386980D01*
X111520409Y-98386980D02*
X111520409Y-97386980D01*
X112139457Y-98386980D02*
X112139457Y-97386980D01*
X112139457Y-97386980D02*
X112520409Y-97386980D01*
X112520409Y-97386980D02*
X112615647Y-97434600D01*
X112615647Y-97434600D02*
X112663266Y-97482219D01*
X112663266Y-97482219D02*
X112710885Y-97577457D01*
X112710885Y-97577457D02*
X112710885Y-97720314D01*
X112710885Y-97720314D02*
X112663266Y-97815552D01*
X112663266Y-97815552D02*
X112615647Y-97863171D01*
X112615647Y-97863171D02*
X112520409Y-97910790D01*
X112520409Y-97910790D02*
X112139457Y-97910790D01*
X113568028Y-97386980D02*
X113377552Y-97386980D01*
X113377552Y-97386980D02*
X113282314Y-97434600D01*
X113282314Y-97434600D02*
X113234695Y-97482219D01*
X113234695Y-97482219D02*
X113139457Y-97625076D01*
X113139457Y-97625076D02*
X113091838Y-97815552D01*
X113091838Y-97815552D02*
X113091838Y-98196504D01*
X113091838Y-98196504D02*
X113139457Y-98291742D01*
X113139457Y-98291742D02*
X113187076Y-98339361D01*
X113187076Y-98339361D02*
X113282314Y-98386980D01*
X113282314Y-98386980D02*
X113472790Y-98386980D01*
X113472790Y-98386980D02*
X113568028Y-98339361D01*
X113568028Y-98339361D02*
X113615647Y-98291742D01*
X113615647Y-98291742D02*
X113663266Y-98196504D01*
X113663266Y-98196504D02*
X113663266Y-97958409D01*
X113663266Y-97958409D02*
X113615647Y-97863171D01*
X113615647Y-97863171D02*
X113568028Y-97815552D01*
X113568028Y-97815552D02*
X113472790Y-97767933D01*
X113472790Y-97767933D02*
X113282314Y-97767933D01*
X113282314Y-97767933D02*
X113187076Y-97815552D01*
X113187076Y-97815552D02*
X113139457Y-97863171D01*
X113139457Y-97863171D02*
X113091838Y-97958409D01*
D13*
X120020238Y-113296952D02*
X120020238Y-113620761D01*
X120020238Y-113620761D02*
X120039285Y-113658857D01*
X120039285Y-113658857D02*
X120058333Y-113677904D01*
X120058333Y-113677904D02*
X120096428Y-113696952D01*
X120096428Y-113696952D02*
X120172619Y-113696952D01*
X120172619Y-113696952D02*
X120210714Y-113677904D01*
X120210714Y-113677904D02*
X120229761Y-113658857D01*
X120229761Y-113658857D02*
X120248809Y-113620761D01*
X120248809Y-113620761D02*
X120248809Y-113296952D01*
X120420238Y-113335047D02*
X120439286Y-113316000D01*
X120439286Y-113316000D02*
X120477381Y-113296952D01*
X120477381Y-113296952D02*
X120572619Y-113296952D01*
X120572619Y-113296952D02*
X120610714Y-113316000D01*
X120610714Y-113316000D02*
X120629762Y-113335047D01*
X120629762Y-113335047D02*
X120648809Y-113373142D01*
X120648809Y-113373142D02*
X120648809Y-113411238D01*
X120648809Y-113411238D02*
X120629762Y-113468380D01*
X120629762Y-113468380D02*
X120401190Y-113696952D01*
X120401190Y-113696952D02*
X120648809Y-113696952D01*
D14*
X158896785Y-122639486D02*
X158854881Y-122681391D01*
X158854881Y-122681391D02*
X158729166Y-122723296D01*
X158729166Y-122723296D02*
X158645357Y-122723296D01*
X158645357Y-122723296D02*
X158519643Y-122681391D01*
X158519643Y-122681391D02*
X158435833Y-122597581D01*
X158435833Y-122597581D02*
X158393928Y-122513772D01*
X158393928Y-122513772D02*
X158352024Y-122346153D01*
X158352024Y-122346153D02*
X158352024Y-122220439D01*
X158352024Y-122220439D02*
X158393928Y-122052820D01*
X158393928Y-122052820D02*
X158435833Y-121969010D01*
X158435833Y-121969010D02*
X158519643Y-121885201D01*
X158519643Y-121885201D02*
X158645357Y-121843296D01*
X158645357Y-121843296D02*
X158729166Y-121843296D01*
X158729166Y-121843296D02*
X158854881Y-121885201D01*
X158854881Y-121885201D02*
X158896785Y-121927105D01*
X159734881Y-122723296D02*
X159232024Y-122723296D01*
X159483452Y-122723296D02*
X159483452Y-121843296D01*
X159483452Y-121843296D02*
X159399643Y-121969010D01*
X159399643Y-121969010D02*
X159315833Y-122052820D01*
X159315833Y-122052820D02*
X159232024Y-122094724D01*
X160489166Y-121843296D02*
X160321547Y-121843296D01*
X160321547Y-121843296D02*
X160237738Y-121885201D01*
X160237738Y-121885201D02*
X160195833Y-121927105D01*
X160195833Y-121927105D02*
X160112023Y-122052820D01*
X160112023Y-122052820D02*
X160070119Y-122220439D01*
X160070119Y-122220439D02*
X160070119Y-122555677D01*
X160070119Y-122555677D02*
X160112023Y-122639486D01*
X160112023Y-122639486D02*
X160153928Y-122681391D01*
X160153928Y-122681391D02*
X160237738Y-122723296D01*
X160237738Y-122723296D02*
X160405357Y-122723296D01*
X160405357Y-122723296D02*
X160489166Y-122681391D01*
X160489166Y-122681391D02*
X160531071Y-122639486D01*
X160531071Y-122639486D02*
X160572976Y-122555677D01*
X160572976Y-122555677D02*
X160572976Y-122346153D01*
X160572976Y-122346153D02*
X160531071Y-122262343D01*
X160531071Y-122262343D02*
X160489166Y-122220439D01*
X160489166Y-122220439D02*
X160405357Y-122178534D01*
X160405357Y-122178534D02*
X160237738Y-122178534D01*
X160237738Y-122178534D02*
X160153928Y-122220439D01*
X160153928Y-122220439D02*
X160112023Y-122262343D01*
X160112023Y-122262343D02*
X160070119Y-122346153D01*
D13*
X111176752Y-108381761D02*
X111500561Y-108381761D01*
X111500561Y-108381761D02*
X111538657Y-108362714D01*
X111538657Y-108362714D02*
X111557704Y-108343666D01*
X111557704Y-108343666D02*
X111576752Y-108305571D01*
X111576752Y-108305571D02*
X111576752Y-108229380D01*
X111576752Y-108229380D02*
X111557704Y-108191285D01*
X111557704Y-108191285D02*
X111538657Y-108172238D01*
X111538657Y-108172238D02*
X111500561Y-108153190D01*
X111500561Y-108153190D02*
X111176752Y-108153190D01*
X111176752Y-107791285D02*
X111176752Y-107867475D01*
X111176752Y-107867475D02*
X111195800Y-107905571D01*
X111195800Y-107905571D02*
X111214847Y-107924618D01*
X111214847Y-107924618D02*
X111271990Y-107962713D01*
X111271990Y-107962713D02*
X111348180Y-107981761D01*
X111348180Y-107981761D02*
X111500561Y-107981761D01*
X111500561Y-107981761D02*
X111538657Y-107962713D01*
X111538657Y-107962713D02*
X111557704Y-107943666D01*
X111557704Y-107943666D02*
X111576752Y-107905571D01*
X111576752Y-107905571D02*
X111576752Y-107829380D01*
X111576752Y-107829380D02*
X111557704Y-107791285D01*
X111557704Y-107791285D02*
X111538657Y-107772237D01*
X111538657Y-107772237D02*
X111500561Y-107753190D01*
X111500561Y-107753190D02*
X111405323Y-107753190D01*
X111405323Y-107753190D02*
X111367228Y-107772237D01*
X111367228Y-107772237D02*
X111348180Y-107791285D01*
X111348180Y-107791285D02*
X111329133Y-107829380D01*
X111329133Y-107829380D02*
X111329133Y-107905571D01*
X111329133Y-107905571D02*
X111348180Y-107943666D01*
X111348180Y-107943666D02*
X111367228Y-107962713D01*
X111367228Y-107962713D02*
X111405323Y-107981761D01*
D10*
X148038095Y-95917380D02*
X148609523Y-95917380D01*
X148323809Y-96917380D02*
X148323809Y-95917380D01*
X148942857Y-96917380D02*
X148942857Y-95917380D01*
X148942857Y-95917380D02*
X149323809Y-95917380D01*
X149323809Y-95917380D02*
X149419047Y-95965000D01*
X149419047Y-95965000D02*
X149466666Y-96012619D01*
X149466666Y-96012619D02*
X149514285Y-96107857D01*
X149514285Y-96107857D02*
X149514285Y-96250714D01*
X149514285Y-96250714D02*
X149466666Y-96345952D01*
X149466666Y-96345952D02*
X149419047Y-96393571D01*
X149419047Y-96393571D02*
X149323809Y-96441190D01*
X149323809Y-96441190D02*
X148942857Y-96441190D01*
X149990476Y-96917380D02*
X150180952Y-96917380D01*
X150180952Y-96917380D02*
X150276190Y-96869761D01*
X150276190Y-96869761D02*
X150323809Y-96822142D01*
X150323809Y-96822142D02*
X150419047Y-96679285D01*
X150419047Y-96679285D02*
X150466666Y-96488809D01*
X150466666Y-96488809D02*
X150466666Y-96107857D01*
X150466666Y-96107857D02*
X150419047Y-96012619D01*
X150419047Y-96012619D02*
X150371428Y-95965000D01*
X150371428Y-95965000D02*
X150276190Y-95917380D01*
X150276190Y-95917380D02*
X150085714Y-95917380D01*
X150085714Y-95917380D02*
X149990476Y-95965000D01*
X149990476Y-95965000D02*
X149942857Y-96012619D01*
X149942857Y-96012619D02*
X149895238Y-96107857D01*
X149895238Y-96107857D02*
X149895238Y-96345952D01*
X149895238Y-96345952D02*
X149942857Y-96441190D01*
X149942857Y-96441190D02*
X149990476Y-96488809D01*
X149990476Y-96488809D02*
X150085714Y-96536428D01*
X150085714Y-96536428D02*
X150276190Y-96536428D01*
X150276190Y-96536428D02*
X150371428Y-96488809D01*
X150371428Y-96488809D02*
X150419047Y-96441190D01*
X150419047Y-96441190D02*
X150466666Y-96345952D01*
D11*
X134516666Y-85383690D02*
X134350000Y-85145595D01*
X134230952Y-85383690D02*
X134230952Y-84883690D01*
X134230952Y-84883690D02*
X134421428Y-84883690D01*
X134421428Y-84883690D02*
X134469047Y-84907500D01*
X134469047Y-84907500D02*
X134492857Y-84931309D01*
X134492857Y-84931309D02*
X134516666Y-84978928D01*
X134516666Y-84978928D02*
X134516666Y-85050357D01*
X134516666Y-85050357D02*
X134492857Y-85097976D01*
X134492857Y-85097976D02*
X134469047Y-85121785D01*
X134469047Y-85121785D02*
X134421428Y-85145595D01*
X134421428Y-85145595D02*
X134230952Y-85145595D01*
X134992857Y-85383690D02*
X134707143Y-85383690D01*
X134850000Y-85383690D02*
X134850000Y-84883690D01*
X134850000Y-84883690D02*
X134802381Y-84955119D01*
X134802381Y-84955119D02*
X134754762Y-85002738D01*
X134754762Y-85002738D02*
X134707143Y-85026547D01*
X121386666Y-116744290D02*
X121220000Y-116506195D01*
X121100952Y-116744290D02*
X121100952Y-116244290D01*
X121100952Y-116244290D02*
X121291428Y-116244290D01*
X121291428Y-116244290D02*
X121339047Y-116268100D01*
X121339047Y-116268100D02*
X121362857Y-116291909D01*
X121362857Y-116291909D02*
X121386666Y-116339528D01*
X121386666Y-116339528D02*
X121386666Y-116410957D01*
X121386666Y-116410957D02*
X121362857Y-116458576D01*
X121362857Y-116458576D02*
X121339047Y-116482385D01*
X121339047Y-116482385D02*
X121291428Y-116506195D01*
X121291428Y-116506195D02*
X121100952Y-116506195D01*
X121553333Y-116244290D02*
X121886666Y-116244290D01*
X121886666Y-116244290D02*
X121672381Y-116744290D01*
X129416666Y-81933690D02*
X129250000Y-81695595D01*
X129130952Y-81933690D02*
X129130952Y-81433690D01*
X129130952Y-81433690D02*
X129321428Y-81433690D01*
X129321428Y-81433690D02*
X129369047Y-81457500D01*
X129369047Y-81457500D02*
X129392857Y-81481309D01*
X129392857Y-81481309D02*
X129416666Y-81528928D01*
X129416666Y-81528928D02*
X129416666Y-81600357D01*
X129416666Y-81600357D02*
X129392857Y-81647976D01*
X129392857Y-81647976D02*
X129369047Y-81671785D01*
X129369047Y-81671785D02*
X129321428Y-81695595D01*
X129321428Y-81695595D02*
X129130952Y-81695595D01*
X129654762Y-81933690D02*
X129750000Y-81933690D01*
X129750000Y-81933690D02*
X129797619Y-81909880D01*
X129797619Y-81909880D02*
X129821428Y-81886071D01*
X129821428Y-81886071D02*
X129869047Y-81814642D01*
X129869047Y-81814642D02*
X129892857Y-81719404D01*
X129892857Y-81719404D02*
X129892857Y-81528928D01*
X129892857Y-81528928D02*
X129869047Y-81481309D01*
X129869047Y-81481309D02*
X129845238Y-81457500D01*
X129845238Y-81457500D02*
X129797619Y-81433690D01*
X129797619Y-81433690D02*
X129702381Y-81433690D01*
X129702381Y-81433690D02*
X129654762Y-81457500D01*
X129654762Y-81457500D02*
X129630952Y-81481309D01*
X129630952Y-81481309D02*
X129607143Y-81528928D01*
X129607143Y-81528928D02*
X129607143Y-81647976D01*
X129607143Y-81647976D02*
X129630952Y-81695595D01*
X129630952Y-81695595D02*
X129654762Y-81719404D01*
X129654762Y-81719404D02*
X129702381Y-81743214D01*
X129702381Y-81743214D02*
X129797619Y-81743214D01*
X129797619Y-81743214D02*
X129845238Y-81719404D01*
X129845238Y-81719404D02*
X129869047Y-81695595D01*
X129869047Y-81695595D02*
X129892857Y-81647976D01*
X117428571Y-116508690D02*
X117261905Y-116270595D01*
X117142857Y-116508690D02*
X117142857Y-116008690D01*
X117142857Y-116008690D02*
X117333333Y-116008690D01*
X117333333Y-116008690D02*
X117380952Y-116032500D01*
X117380952Y-116032500D02*
X117404762Y-116056309D01*
X117404762Y-116056309D02*
X117428571Y-116103928D01*
X117428571Y-116103928D02*
X117428571Y-116175357D01*
X117428571Y-116175357D02*
X117404762Y-116222976D01*
X117404762Y-116222976D02*
X117380952Y-116246785D01*
X117380952Y-116246785D02*
X117333333Y-116270595D01*
X117333333Y-116270595D02*
X117142857Y-116270595D01*
X117904762Y-116508690D02*
X117619048Y-116508690D01*
X117761905Y-116508690D02*
X117761905Y-116008690D01*
X117761905Y-116008690D02*
X117714286Y-116080119D01*
X117714286Y-116080119D02*
X117666667Y-116127738D01*
X117666667Y-116127738D02*
X117619048Y-116151547D01*
X118071428Y-116008690D02*
X118380952Y-116008690D01*
X118380952Y-116008690D02*
X118214285Y-116199166D01*
X118214285Y-116199166D02*
X118285714Y-116199166D01*
X118285714Y-116199166D02*
X118333333Y-116222976D01*
X118333333Y-116222976D02*
X118357142Y-116246785D01*
X118357142Y-116246785D02*
X118380952Y-116294404D01*
X118380952Y-116294404D02*
X118380952Y-116413452D01*
X118380952Y-116413452D02*
X118357142Y-116461071D01*
X118357142Y-116461071D02*
X118333333Y-116484880D01*
X118333333Y-116484880D02*
X118285714Y-116508690D01*
X118285714Y-116508690D02*
X118142857Y-116508690D01*
X118142857Y-116508690D02*
X118095238Y-116484880D01*
X118095238Y-116484880D02*
X118071428Y-116461071D01*
D10*
X107285714Y-110367380D02*
X107285714Y-109367380D01*
X107285714Y-109367380D02*
X107523809Y-109367380D01*
X107523809Y-109367380D02*
X107666666Y-109415000D01*
X107666666Y-109415000D02*
X107761904Y-109510238D01*
X107761904Y-109510238D02*
X107809523Y-109605476D01*
X107809523Y-109605476D02*
X107857142Y-109795952D01*
X107857142Y-109795952D02*
X107857142Y-109938809D01*
X107857142Y-109938809D02*
X107809523Y-110129285D01*
X107809523Y-110129285D02*
X107761904Y-110224523D01*
X107761904Y-110224523D02*
X107666666Y-110319761D01*
X107666666Y-110319761D02*
X107523809Y-110367380D01*
X107523809Y-110367380D02*
X107285714Y-110367380D01*
X108809523Y-110367380D02*
X108238095Y-110367380D01*
X108523809Y-110367380D02*
X108523809Y-109367380D01*
X108523809Y-109367380D02*
X108428571Y-109510238D01*
X108428571Y-109510238D02*
X108333333Y-109605476D01*
X108333333Y-109605476D02*
X108238095Y-109653095D01*
X109142857Y-109367380D02*
X109761904Y-109367380D01*
X109761904Y-109367380D02*
X109428571Y-109748333D01*
X109428571Y-109748333D02*
X109571428Y-109748333D01*
X109571428Y-109748333D02*
X109666666Y-109795952D01*
X109666666Y-109795952D02*
X109714285Y-109843571D01*
X109714285Y-109843571D02*
X109761904Y-109938809D01*
X109761904Y-109938809D02*
X109761904Y-110176904D01*
X109761904Y-110176904D02*
X109714285Y-110272142D01*
X109714285Y-110272142D02*
X109666666Y-110319761D01*
X109666666Y-110319761D02*
X109571428Y-110367380D01*
X109571428Y-110367380D02*
X109285714Y-110367380D01*
X109285714Y-110367380D02*
X109190476Y-110319761D01*
X109190476Y-110319761D02*
X109142857Y-110272142D01*
D11*
X114278571Y-88136071D02*
X114254762Y-88159880D01*
X114254762Y-88159880D02*
X114183333Y-88183690D01*
X114183333Y-88183690D02*
X114135714Y-88183690D01*
X114135714Y-88183690D02*
X114064286Y-88159880D01*
X114064286Y-88159880D02*
X114016667Y-88112261D01*
X114016667Y-88112261D02*
X113992857Y-88064642D01*
X113992857Y-88064642D02*
X113969048Y-87969404D01*
X113969048Y-87969404D02*
X113969048Y-87897976D01*
X113969048Y-87897976D02*
X113992857Y-87802738D01*
X113992857Y-87802738D02*
X114016667Y-87755119D01*
X114016667Y-87755119D02*
X114064286Y-87707500D01*
X114064286Y-87707500D02*
X114135714Y-87683690D01*
X114135714Y-87683690D02*
X114183333Y-87683690D01*
X114183333Y-87683690D02*
X114254762Y-87707500D01*
X114254762Y-87707500D02*
X114278571Y-87731309D01*
X114754762Y-88183690D02*
X114469048Y-88183690D01*
X114611905Y-88183690D02*
X114611905Y-87683690D01*
X114611905Y-87683690D02*
X114564286Y-87755119D01*
X114564286Y-87755119D02*
X114516667Y-87802738D01*
X114516667Y-87802738D02*
X114469048Y-87826547D01*
X114992857Y-88183690D02*
X115088095Y-88183690D01*
X115088095Y-88183690D02*
X115135714Y-88159880D01*
X115135714Y-88159880D02*
X115159523Y-88136071D01*
X115159523Y-88136071D02*
X115207142Y-88064642D01*
X115207142Y-88064642D02*
X115230952Y-87969404D01*
X115230952Y-87969404D02*
X115230952Y-87778928D01*
X115230952Y-87778928D02*
X115207142Y-87731309D01*
X115207142Y-87731309D02*
X115183333Y-87707500D01*
X115183333Y-87707500D02*
X115135714Y-87683690D01*
X115135714Y-87683690D02*
X115040476Y-87683690D01*
X115040476Y-87683690D02*
X114992857Y-87707500D01*
X114992857Y-87707500D02*
X114969047Y-87731309D01*
X114969047Y-87731309D02*
X114945238Y-87778928D01*
X114945238Y-87778928D02*
X114945238Y-87897976D01*
X114945238Y-87897976D02*
X114969047Y-87945595D01*
X114969047Y-87945595D02*
X114992857Y-87969404D01*
X114992857Y-87969404D02*
X115040476Y-87993214D01*
X115040476Y-87993214D02*
X115135714Y-87993214D01*
X115135714Y-87993214D02*
X115183333Y-87969404D01*
X115183333Y-87969404D02*
X115207142Y-87945595D01*
X115207142Y-87945595D02*
X115230952Y-87897976D01*
X142236071Y-85283333D02*
X142259880Y-85307142D01*
X142259880Y-85307142D02*
X142283690Y-85378571D01*
X142283690Y-85378571D02*
X142283690Y-85426190D01*
X142283690Y-85426190D02*
X142259880Y-85497618D01*
X142259880Y-85497618D02*
X142212261Y-85545237D01*
X142212261Y-85545237D02*
X142164642Y-85569047D01*
X142164642Y-85569047D02*
X142069404Y-85592856D01*
X142069404Y-85592856D02*
X141997976Y-85592856D01*
X141997976Y-85592856D02*
X141902738Y-85569047D01*
X141902738Y-85569047D02*
X141855119Y-85545237D01*
X141855119Y-85545237D02*
X141807500Y-85497618D01*
X141807500Y-85497618D02*
X141783690Y-85426190D01*
X141783690Y-85426190D02*
X141783690Y-85378571D01*
X141783690Y-85378571D02*
X141807500Y-85307142D01*
X141807500Y-85307142D02*
X141831309Y-85283333D01*
X142283690Y-84807142D02*
X142283690Y-85092856D01*
X142283690Y-84949999D02*
X141783690Y-84949999D01*
X141783690Y-84949999D02*
X141855119Y-84997618D01*
X141855119Y-84997618D02*
X141902738Y-85045237D01*
X141902738Y-85045237D02*
X141926547Y-85092856D01*
D10*
X124792380Y-111708333D02*
X125506666Y-111708333D01*
X125506666Y-111708333D02*
X125649523Y-111755952D01*
X125649523Y-111755952D02*
X125744761Y-111851190D01*
X125744761Y-111851190D02*
X125792380Y-111994047D01*
X125792380Y-111994047D02*
X125792380Y-112089285D01*
X124887619Y-111279761D02*
X124840000Y-111232142D01*
X124840000Y-111232142D02*
X124792380Y-111136904D01*
X124792380Y-111136904D02*
X124792380Y-110898809D01*
X124792380Y-110898809D02*
X124840000Y-110803571D01*
X124840000Y-110803571D02*
X124887619Y-110755952D01*
X124887619Y-110755952D02*
X124982857Y-110708333D01*
X124982857Y-110708333D02*
X125078095Y-110708333D01*
X125078095Y-110708333D02*
X125220952Y-110755952D01*
X125220952Y-110755952D02*
X125792380Y-111327380D01*
X125792380Y-111327380D02*
X125792380Y-110708333D01*
X136690596Y-91310195D02*
X137275705Y-91719892D01*
X137275705Y-91719892D02*
X137365413Y-91840839D01*
X137365413Y-91840839D02*
X137388801Y-91973480D01*
X137388801Y-91973480D02*
X137345869Y-92117815D01*
X137345869Y-92117815D02*
X137291243Y-92195829D01*
X137810193Y-91454692D02*
X137919446Y-91298663D01*
X137919446Y-91298663D02*
X137935065Y-91193335D01*
X137935065Y-91193335D02*
X137923371Y-91127015D01*
X137923371Y-91127015D02*
X137860975Y-90967061D01*
X137860975Y-90967061D02*
X137732260Y-90818801D01*
X137732260Y-90818801D02*
X137420202Y-90600295D01*
X137420202Y-90600295D02*
X137314874Y-90584676D01*
X137314874Y-90584676D02*
X137248554Y-90596370D01*
X137248554Y-90596370D02*
X137154920Y-90647072D01*
X137154920Y-90647072D02*
X137045667Y-90803101D01*
X137045667Y-90803101D02*
X137030048Y-90908428D01*
X137030048Y-90908428D02*
X137041742Y-90974749D01*
X137041742Y-90974749D02*
X137092444Y-91068382D01*
X137092444Y-91068382D02*
X137287480Y-91204948D01*
X137287480Y-91204948D02*
X137392808Y-91220567D01*
X137392808Y-91220567D02*
X137459128Y-91208873D01*
X137459128Y-91208873D02*
X137552761Y-91158172D01*
X137552761Y-91158172D02*
X137662014Y-91002143D01*
X137662014Y-91002143D02*
X137677633Y-90896815D01*
X137677633Y-90896815D02*
X137665939Y-90830495D01*
X137665939Y-90830495D02*
X137615238Y-90736861D01*
X143237904Y-114182619D02*
X143237904Y-113373095D01*
X143237904Y-113373095D02*
X143190285Y-113277857D01*
X143190285Y-113277857D02*
X143142666Y-113230238D01*
X143142666Y-113230238D02*
X143047428Y-113182619D01*
X143047428Y-113182619D02*
X142856952Y-113182619D01*
X142856952Y-113182619D02*
X142761714Y-113230238D01*
X142761714Y-113230238D02*
X142714095Y-113277857D01*
X142714095Y-113277857D02*
X142666476Y-113373095D01*
X142666476Y-113373095D02*
X142666476Y-114182619D01*
X141666476Y-113182619D02*
X142237904Y-113182619D01*
X141952190Y-113182619D02*
X141952190Y-114182619D01*
X141952190Y-114182619D02*
X142047428Y-114039761D01*
X142047428Y-114039761D02*
X142142666Y-113944523D01*
X142142666Y-113944523D02*
X142237904Y-113896904D01*
D15*
X114275535Y-82658928D02*
X114882678Y-82658928D01*
X114882678Y-82658928D02*
X114954107Y-82623214D01*
X114954107Y-82623214D02*
X114989821Y-82587500D01*
X114989821Y-82587500D02*
X115025535Y-82516071D01*
X115025535Y-82516071D02*
X115025535Y-82373214D01*
X115025535Y-82373214D02*
X114989821Y-82301785D01*
X114989821Y-82301785D02*
X114954107Y-82266071D01*
X114954107Y-82266071D02*
X114882678Y-82230357D01*
X114882678Y-82230357D02*
X114275535Y-82230357D01*
X114596964Y-81766071D02*
X114561250Y-81837500D01*
X114561250Y-81837500D02*
X114525535Y-81873214D01*
X114525535Y-81873214D02*
X114454107Y-81908928D01*
X114454107Y-81908928D02*
X114418392Y-81908928D01*
X114418392Y-81908928D02*
X114346964Y-81873214D01*
X114346964Y-81873214D02*
X114311250Y-81837500D01*
X114311250Y-81837500D02*
X114275535Y-81766071D01*
X114275535Y-81766071D02*
X114275535Y-81623214D01*
X114275535Y-81623214D02*
X114311250Y-81551786D01*
X114311250Y-81551786D02*
X114346964Y-81516071D01*
X114346964Y-81516071D02*
X114418392Y-81480357D01*
X114418392Y-81480357D02*
X114454107Y-81480357D01*
X114454107Y-81480357D02*
X114525535Y-81516071D01*
X114525535Y-81516071D02*
X114561250Y-81551786D01*
X114561250Y-81551786D02*
X114596964Y-81623214D01*
X114596964Y-81623214D02*
X114596964Y-81766071D01*
X114596964Y-81766071D02*
X114632678Y-81837500D01*
X114632678Y-81837500D02*
X114668392Y-81873214D01*
X114668392Y-81873214D02*
X114739821Y-81908928D01*
X114739821Y-81908928D02*
X114882678Y-81908928D01*
X114882678Y-81908928D02*
X114954107Y-81873214D01*
X114954107Y-81873214D02*
X114989821Y-81837500D01*
X114989821Y-81837500D02*
X115025535Y-81766071D01*
X115025535Y-81766071D02*
X115025535Y-81623214D01*
X115025535Y-81623214D02*
X114989821Y-81551786D01*
X114989821Y-81551786D02*
X114954107Y-81516071D01*
X114954107Y-81516071D02*
X114882678Y-81480357D01*
X114882678Y-81480357D02*
X114739821Y-81480357D01*
X114739821Y-81480357D02*
X114668392Y-81516071D01*
X114668392Y-81516071D02*
X114632678Y-81551786D01*
X114632678Y-81551786D02*
X114596964Y-81623214D01*
D10*
X153417380Y-109033333D02*
X154131666Y-109033333D01*
X154131666Y-109033333D02*
X154274523Y-109080952D01*
X154274523Y-109080952D02*
X154369761Y-109176190D01*
X154369761Y-109176190D02*
X154417380Y-109319047D01*
X154417380Y-109319047D02*
X154417380Y-109414285D01*
X153845952Y-108414285D02*
X153798333Y-108509523D01*
X153798333Y-108509523D02*
X153750714Y-108557142D01*
X153750714Y-108557142D02*
X153655476Y-108604761D01*
X153655476Y-108604761D02*
X153607857Y-108604761D01*
X153607857Y-108604761D02*
X153512619Y-108557142D01*
X153512619Y-108557142D02*
X153465000Y-108509523D01*
X153465000Y-108509523D02*
X153417380Y-108414285D01*
X153417380Y-108414285D02*
X153417380Y-108223809D01*
X153417380Y-108223809D02*
X153465000Y-108128571D01*
X153465000Y-108128571D02*
X153512619Y-108080952D01*
X153512619Y-108080952D02*
X153607857Y-108033333D01*
X153607857Y-108033333D02*
X153655476Y-108033333D01*
X153655476Y-108033333D02*
X153750714Y-108080952D01*
X153750714Y-108080952D02*
X153798333Y-108128571D01*
X153798333Y-108128571D02*
X153845952Y-108223809D01*
X153845952Y-108223809D02*
X153845952Y-108414285D01*
X153845952Y-108414285D02*
X153893571Y-108509523D01*
X153893571Y-108509523D02*
X153941190Y-108557142D01*
X153941190Y-108557142D02*
X154036428Y-108604761D01*
X154036428Y-108604761D02*
X154226904Y-108604761D01*
X154226904Y-108604761D02*
X154322142Y-108557142D01*
X154322142Y-108557142D02*
X154369761Y-108509523D01*
X154369761Y-108509523D02*
X154417380Y-108414285D01*
X154417380Y-108414285D02*
X154417380Y-108223809D01*
X154417380Y-108223809D02*
X154369761Y-108128571D01*
X154369761Y-108128571D02*
X154322142Y-108080952D01*
X154322142Y-108080952D02*
X154226904Y-108033333D01*
X154226904Y-108033333D02*
X154036428Y-108033333D01*
X154036428Y-108033333D02*
X153941190Y-108080952D01*
X153941190Y-108080952D02*
X153893571Y-108128571D01*
X153893571Y-108128571D02*
X153845952Y-108223809D01*
X150911905Y-91817380D02*
X150911905Y-90817380D01*
X150911905Y-90817380D02*
X151150000Y-90817380D01*
X151150000Y-90817380D02*
X151292857Y-90865000D01*
X151292857Y-90865000D02*
X151388095Y-90960238D01*
X151388095Y-90960238D02*
X151435714Y-91055476D01*
X151435714Y-91055476D02*
X151483333Y-91245952D01*
X151483333Y-91245952D02*
X151483333Y-91388809D01*
X151483333Y-91388809D02*
X151435714Y-91579285D01*
X151435714Y-91579285D02*
X151388095Y-91674523D01*
X151388095Y-91674523D02*
X151292857Y-91769761D01*
X151292857Y-91769761D02*
X151150000Y-91817380D01*
X151150000Y-91817380D02*
X150911905Y-91817380D01*
X151816667Y-90817380D02*
X152435714Y-90817380D01*
X152435714Y-90817380D02*
X152102381Y-91198333D01*
X152102381Y-91198333D02*
X152245238Y-91198333D01*
X152245238Y-91198333D02*
X152340476Y-91245952D01*
X152340476Y-91245952D02*
X152388095Y-91293571D01*
X152388095Y-91293571D02*
X152435714Y-91388809D01*
X152435714Y-91388809D02*
X152435714Y-91626904D01*
X152435714Y-91626904D02*
X152388095Y-91722142D01*
X152388095Y-91722142D02*
X152340476Y-91769761D01*
X152340476Y-91769761D02*
X152245238Y-91817380D01*
X152245238Y-91817380D02*
X151959524Y-91817380D01*
X151959524Y-91817380D02*
X151864286Y-91769761D01*
X151864286Y-91769761D02*
X151816667Y-91722142D01*
D11*
X114765971Y-103993490D02*
X114599305Y-103755395D01*
X114480257Y-103993490D02*
X114480257Y-103493490D01*
X114480257Y-103493490D02*
X114670733Y-103493490D01*
X114670733Y-103493490D02*
X114718352Y-103517300D01*
X114718352Y-103517300D02*
X114742162Y-103541109D01*
X114742162Y-103541109D02*
X114765971Y-103588728D01*
X114765971Y-103588728D02*
X114765971Y-103660157D01*
X114765971Y-103660157D02*
X114742162Y-103707776D01*
X114742162Y-103707776D02*
X114718352Y-103731585D01*
X114718352Y-103731585D02*
X114670733Y-103755395D01*
X114670733Y-103755395D02*
X114480257Y-103755395D01*
X115242162Y-103993490D02*
X114956448Y-103993490D01*
X115099305Y-103993490D02*
X115099305Y-103493490D01*
X115099305Y-103493490D02*
X115051686Y-103564919D01*
X115051686Y-103564919D02*
X115004067Y-103612538D01*
X115004067Y-103612538D02*
X114956448Y-103636347D01*
X115480257Y-103993490D02*
X115575495Y-103993490D01*
X115575495Y-103993490D02*
X115623114Y-103969680D01*
X115623114Y-103969680D02*
X115646923Y-103945871D01*
X115646923Y-103945871D02*
X115694542Y-103874442D01*
X115694542Y-103874442D02*
X115718352Y-103779204D01*
X115718352Y-103779204D02*
X115718352Y-103588728D01*
X115718352Y-103588728D02*
X115694542Y-103541109D01*
X115694542Y-103541109D02*
X115670733Y-103517300D01*
X115670733Y-103517300D02*
X115623114Y-103493490D01*
X115623114Y-103493490D02*
X115527876Y-103493490D01*
X115527876Y-103493490D02*
X115480257Y-103517300D01*
X115480257Y-103517300D02*
X115456447Y-103541109D01*
X115456447Y-103541109D02*
X115432638Y-103588728D01*
X115432638Y-103588728D02*
X115432638Y-103707776D01*
X115432638Y-103707776D02*
X115456447Y-103755395D01*
X115456447Y-103755395D02*
X115480257Y-103779204D01*
X115480257Y-103779204D02*
X115527876Y-103803014D01*
X115527876Y-103803014D02*
X115623114Y-103803014D01*
X115623114Y-103803014D02*
X115670733Y-103779204D01*
X115670733Y-103779204D02*
X115694542Y-103755395D01*
X115694542Y-103755395D02*
X115718352Y-103707776D01*
X149016666Y-90936071D02*
X148992857Y-90959880D01*
X148992857Y-90959880D02*
X148921428Y-90983690D01*
X148921428Y-90983690D02*
X148873809Y-90983690D01*
X148873809Y-90983690D02*
X148802381Y-90959880D01*
X148802381Y-90959880D02*
X148754762Y-90912261D01*
X148754762Y-90912261D02*
X148730952Y-90864642D01*
X148730952Y-90864642D02*
X148707143Y-90769404D01*
X148707143Y-90769404D02*
X148707143Y-90697976D01*
X148707143Y-90697976D02*
X148730952Y-90602738D01*
X148730952Y-90602738D02*
X148754762Y-90555119D01*
X148754762Y-90555119D02*
X148802381Y-90507500D01*
X148802381Y-90507500D02*
X148873809Y-90483690D01*
X148873809Y-90483690D02*
X148921428Y-90483690D01*
X148921428Y-90483690D02*
X148992857Y-90507500D01*
X148992857Y-90507500D02*
X149016666Y-90531309D01*
X149469047Y-90483690D02*
X149230952Y-90483690D01*
X149230952Y-90483690D02*
X149207143Y-90721785D01*
X149207143Y-90721785D02*
X149230952Y-90697976D01*
X149230952Y-90697976D02*
X149278571Y-90674166D01*
X149278571Y-90674166D02*
X149397619Y-90674166D01*
X149397619Y-90674166D02*
X149445238Y-90697976D01*
X149445238Y-90697976D02*
X149469047Y-90721785D01*
X149469047Y-90721785D02*
X149492857Y-90769404D01*
X149492857Y-90769404D02*
X149492857Y-90888452D01*
X149492857Y-90888452D02*
X149469047Y-90936071D01*
X149469047Y-90936071D02*
X149445238Y-90959880D01*
X149445238Y-90959880D02*
X149397619Y-90983690D01*
X149397619Y-90983690D02*
X149278571Y-90983690D01*
X149278571Y-90983690D02*
X149230952Y-90959880D01*
X149230952Y-90959880D02*
X149207143Y-90936071D01*
D10*
X157067380Y-109033333D02*
X157781666Y-109033333D01*
X157781666Y-109033333D02*
X157924523Y-109080952D01*
X157924523Y-109080952D02*
X158019761Y-109176190D01*
X158019761Y-109176190D02*
X158067380Y-109319047D01*
X158067380Y-109319047D02*
X158067380Y-109414285D01*
X157067380Y-108652380D02*
X157067380Y-108033333D01*
X157067380Y-108033333D02*
X157448333Y-108366666D01*
X157448333Y-108366666D02*
X157448333Y-108223809D01*
X157448333Y-108223809D02*
X157495952Y-108128571D01*
X157495952Y-108128571D02*
X157543571Y-108080952D01*
X157543571Y-108080952D02*
X157638809Y-108033333D01*
X157638809Y-108033333D02*
X157876904Y-108033333D01*
X157876904Y-108033333D02*
X157972142Y-108080952D01*
X157972142Y-108080952D02*
X158019761Y-108128571D01*
X158019761Y-108128571D02*
X158067380Y-108223809D01*
X158067380Y-108223809D02*
X158067380Y-108509523D01*
X158067380Y-108509523D02*
X158019761Y-108604761D01*
X158019761Y-108604761D02*
X157972142Y-108652380D01*
D14*
X133434285Y-80539486D02*
X133392381Y-80581391D01*
X133392381Y-80581391D02*
X133266666Y-80623296D01*
X133266666Y-80623296D02*
X133182857Y-80623296D01*
X133182857Y-80623296D02*
X133057143Y-80581391D01*
X133057143Y-80581391D02*
X132973333Y-80497581D01*
X132973333Y-80497581D02*
X132931428Y-80413772D01*
X132931428Y-80413772D02*
X132889524Y-80246153D01*
X132889524Y-80246153D02*
X132889524Y-80120439D01*
X132889524Y-80120439D02*
X132931428Y-79952820D01*
X132931428Y-79952820D02*
X132973333Y-79869010D01*
X132973333Y-79869010D02*
X133057143Y-79785201D01*
X133057143Y-79785201D02*
X133182857Y-79743296D01*
X133182857Y-79743296D02*
X133266666Y-79743296D01*
X133266666Y-79743296D02*
X133392381Y-79785201D01*
X133392381Y-79785201D02*
X133434285Y-79827105D01*
X134272381Y-80623296D02*
X133769524Y-80623296D01*
X134020952Y-80623296D02*
X134020952Y-79743296D01*
X134020952Y-79743296D02*
X133937143Y-79869010D01*
X133937143Y-79869010D02*
X133853333Y-79952820D01*
X133853333Y-79952820D02*
X133769524Y-79994724D01*
X134775238Y-80120439D02*
X134691428Y-80078534D01*
X134691428Y-80078534D02*
X134649523Y-80036629D01*
X134649523Y-80036629D02*
X134607619Y-79952820D01*
X134607619Y-79952820D02*
X134607619Y-79910915D01*
X134607619Y-79910915D02*
X134649523Y-79827105D01*
X134649523Y-79827105D02*
X134691428Y-79785201D01*
X134691428Y-79785201D02*
X134775238Y-79743296D01*
X134775238Y-79743296D02*
X134942857Y-79743296D01*
X134942857Y-79743296D02*
X135026666Y-79785201D01*
X135026666Y-79785201D02*
X135068571Y-79827105D01*
X135068571Y-79827105D02*
X135110476Y-79910915D01*
X135110476Y-79910915D02*
X135110476Y-79952820D01*
X135110476Y-79952820D02*
X135068571Y-80036629D01*
X135068571Y-80036629D02*
X135026666Y-80078534D01*
X135026666Y-80078534D02*
X134942857Y-80120439D01*
X134942857Y-80120439D02*
X134775238Y-80120439D01*
X134775238Y-80120439D02*
X134691428Y-80162343D01*
X134691428Y-80162343D02*
X134649523Y-80204248D01*
X134649523Y-80204248D02*
X134607619Y-80288058D01*
X134607619Y-80288058D02*
X134607619Y-80455677D01*
X134607619Y-80455677D02*
X134649523Y-80539486D01*
X134649523Y-80539486D02*
X134691428Y-80581391D01*
X134691428Y-80581391D02*
X134775238Y-80623296D01*
X134775238Y-80623296D02*
X134942857Y-80623296D01*
X134942857Y-80623296D02*
X135026666Y-80581391D01*
X135026666Y-80581391D02*
X135068571Y-80539486D01*
X135068571Y-80539486D02*
X135110476Y-80455677D01*
X135110476Y-80455677D02*
X135110476Y-80288058D01*
X135110476Y-80288058D02*
X135068571Y-80204248D01*
X135068571Y-80204248D02*
X135026666Y-80162343D01*
X135026666Y-80162343D02*
X134942857Y-80120439D01*
D10*
X155288095Y-76367380D02*
X155859523Y-76367380D01*
X155573809Y-77367380D02*
X155573809Y-76367380D01*
X156192857Y-77367380D02*
X156192857Y-76367380D01*
X156192857Y-76367380D02*
X156573809Y-76367380D01*
X156573809Y-76367380D02*
X156669047Y-76415000D01*
X156669047Y-76415000D02*
X156716666Y-76462619D01*
X156716666Y-76462619D02*
X156764285Y-76557857D01*
X156764285Y-76557857D02*
X156764285Y-76700714D01*
X156764285Y-76700714D02*
X156716666Y-76795952D01*
X156716666Y-76795952D02*
X156669047Y-76843571D01*
X156669047Y-76843571D02*
X156573809Y-76891190D01*
X156573809Y-76891190D02*
X156192857Y-76891190D01*
X157669047Y-76367380D02*
X157192857Y-76367380D01*
X157192857Y-76367380D02*
X157145238Y-76843571D01*
X157145238Y-76843571D02*
X157192857Y-76795952D01*
X157192857Y-76795952D02*
X157288095Y-76748333D01*
X157288095Y-76748333D02*
X157526190Y-76748333D01*
X157526190Y-76748333D02*
X157621428Y-76795952D01*
X157621428Y-76795952D02*
X157669047Y-76843571D01*
X157669047Y-76843571D02*
X157716666Y-76938809D01*
X157716666Y-76938809D02*
X157716666Y-77176904D01*
X157716666Y-77176904D02*
X157669047Y-77272142D01*
X157669047Y-77272142D02*
X157621428Y-77319761D01*
X157621428Y-77319761D02*
X157526190Y-77367380D01*
X157526190Y-77367380D02*
X157288095Y-77367380D01*
X157288095Y-77367380D02*
X157192857Y-77319761D01*
X157192857Y-77319761D02*
X157145238Y-77272142D01*
D16*
X138831309Y-84697619D02*
X138807500Y-84745238D01*
X138807500Y-84745238D02*
X138759880Y-84792857D01*
X138759880Y-84792857D02*
X138688452Y-84864285D01*
X138688452Y-84864285D02*
X138664642Y-84911904D01*
X138664642Y-84911904D02*
X138664642Y-84959523D01*
X138783690Y-84935714D02*
X138759880Y-84983333D01*
X138759880Y-84983333D02*
X138712261Y-85030952D01*
X138712261Y-85030952D02*
X138617023Y-85054761D01*
X138617023Y-85054761D02*
X138450357Y-85054761D01*
X138450357Y-85054761D02*
X138355119Y-85030952D01*
X138355119Y-85030952D02*
X138307500Y-84983333D01*
X138307500Y-84983333D02*
X138283690Y-84935714D01*
X138283690Y-84935714D02*
X138283690Y-84840476D01*
X138283690Y-84840476D02*
X138307500Y-84792857D01*
X138307500Y-84792857D02*
X138355119Y-84745238D01*
X138355119Y-84745238D02*
X138450357Y-84721428D01*
X138450357Y-84721428D02*
X138617023Y-84721428D01*
X138617023Y-84721428D02*
X138712261Y-84745238D01*
X138712261Y-84745238D02*
X138759880Y-84792857D01*
X138759880Y-84792857D02*
X138783690Y-84840476D01*
X138783690Y-84840476D02*
X138783690Y-84935714D01*
X138783690Y-84245237D02*
X138783690Y-84530951D01*
X138783690Y-84388094D02*
X138283690Y-84388094D01*
X138283690Y-84388094D02*
X138355119Y-84435713D01*
X138355119Y-84435713D02*
X138402738Y-84483332D01*
X138402738Y-84483332D02*
X138426547Y-84530951D01*
D11*
X152178571Y-98036071D02*
X152154762Y-98059880D01*
X152154762Y-98059880D02*
X152083333Y-98083690D01*
X152083333Y-98083690D02*
X152035714Y-98083690D01*
X152035714Y-98083690D02*
X151964286Y-98059880D01*
X151964286Y-98059880D02*
X151916667Y-98012261D01*
X151916667Y-98012261D02*
X151892857Y-97964642D01*
X151892857Y-97964642D02*
X151869048Y-97869404D01*
X151869048Y-97869404D02*
X151869048Y-97797976D01*
X151869048Y-97797976D02*
X151892857Y-97702738D01*
X151892857Y-97702738D02*
X151916667Y-97655119D01*
X151916667Y-97655119D02*
X151964286Y-97607500D01*
X151964286Y-97607500D02*
X152035714Y-97583690D01*
X152035714Y-97583690D02*
X152083333Y-97583690D01*
X152083333Y-97583690D02*
X152154762Y-97607500D01*
X152154762Y-97607500D02*
X152178571Y-97631309D01*
X152654762Y-98083690D02*
X152369048Y-98083690D01*
X152511905Y-98083690D02*
X152511905Y-97583690D01*
X152511905Y-97583690D02*
X152464286Y-97655119D01*
X152464286Y-97655119D02*
X152416667Y-97702738D01*
X152416667Y-97702738D02*
X152369048Y-97726547D01*
X152845238Y-97631309D02*
X152869047Y-97607500D01*
X152869047Y-97607500D02*
X152916666Y-97583690D01*
X152916666Y-97583690D02*
X153035714Y-97583690D01*
X153035714Y-97583690D02*
X153083333Y-97607500D01*
X153083333Y-97607500D02*
X153107142Y-97631309D01*
X153107142Y-97631309D02*
X153130952Y-97678928D01*
X153130952Y-97678928D02*
X153130952Y-97726547D01*
X153130952Y-97726547D02*
X153107142Y-97797976D01*
X153107142Y-97797976D02*
X152821428Y-98083690D01*
X152821428Y-98083690D02*
X153130952Y-98083690D01*
X160783690Y-107121428D02*
X160545595Y-107288094D01*
X160783690Y-107407142D02*
X160283690Y-107407142D01*
X160283690Y-107407142D02*
X160283690Y-107216666D01*
X160283690Y-107216666D02*
X160307500Y-107169047D01*
X160307500Y-107169047D02*
X160331309Y-107145237D01*
X160331309Y-107145237D02*
X160378928Y-107121428D01*
X160378928Y-107121428D02*
X160450357Y-107121428D01*
X160450357Y-107121428D02*
X160497976Y-107145237D01*
X160497976Y-107145237D02*
X160521785Y-107169047D01*
X160521785Y-107169047D02*
X160545595Y-107216666D01*
X160545595Y-107216666D02*
X160545595Y-107407142D01*
X160331309Y-106930951D02*
X160307500Y-106907142D01*
X160307500Y-106907142D02*
X160283690Y-106859523D01*
X160283690Y-106859523D02*
X160283690Y-106740475D01*
X160283690Y-106740475D02*
X160307500Y-106692856D01*
X160307500Y-106692856D02*
X160331309Y-106669047D01*
X160331309Y-106669047D02*
X160378928Y-106645237D01*
X160378928Y-106645237D02*
X160426547Y-106645237D01*
X160426547Y-106645237D02*
X160497976Y-106669047D01*
X160497976Y-106669047D02*
X160783690Y-106954761D01*
X160783690Y-106954761D02*
X160783690Y-106645237D01*
X160450357Y-106216666D02*
X160783690Y-106216666D01*
X160259880Y-106335714D02*
X160617023Y-106454761D01*
X160617023Y-106454761D02*
X160617023Y-106145238D01*
X124916666Y-91383690D02*
X124750000Y-91145595D01*
X124630952Y-91383690D02*
X124630952Y-90883690D01*
X124630952Y-90883690D02*
X124821428Y-90883690D01*
X124821428Y-90883690D02*
X124869047Y-90907500D01*
X124869047Y-90907500D02*
X124892857Y-90931309D01*
X124892857Y-90931309D02*
X124916666Y-90978928D01*
X124916666Y-90978928D02*
X124916666Y-91050357D01*
X124916666Y-91050357D02*
X124892857Y-91097976D01*
X124892857Y-91097976D02*
X124869047Y-91121785D01*
X124869047Y-91121785D02*
X124821428Y-91145595D01*
X124821428Y-91145595D02*
X124630952Y-91145595D01*
X125202381Y-91097976D02*
X125154762Y-91074166D01*
X125154762Y-91074166D02*
X125130952Y-91050357D01*
X125130952Y-91050357D02*
X125107143Y-91002738D01*
X125107143Y-91002738D02*
X125107143Y-90978928D01*
X125107143Y-90978928D02*
X125130952Y-90931309D01*
X125130952Y-90931309D02*
X125154762Y-90907500D01*
X125154762Y-90907500D02*
X125202381Y-90883690D01*
X125202381Y-90883690D02*
X125297619Y-90883690D01*
X125297619Y-90883690D02*
X125345238Y-90907500D01*
X125345238Y-90907500D02*
X125369047Y-90931309D01*
X125369047Y-90931309D02*
X125392857Y-90978928D01*
X125392857Y-90978928D02*
X125392857Y-91002738D01*
X125392857Y-91002738D02*
X125369047Y-91050357D01*
X125369047Y-91050357D02*
X125345238Y-91074166D01*
X125345238Y-91074166D02*
X125297619Y-91097976D01*
X125297619Y-91097976D02*
X125202381Y-91097976D01*
X125202381Y-91097976D02*
X125154762Y-91121785D01*
X125154762Y-91121785D02*
X125130952Y-91145595D01*
X125130952Y-91145595D02*
X125107143Y-91193214D01*
X125107143Y-91193214D02*
X125107143Y-91288452D01*
X125107143Y-91288452D02*
X125130952Y-91336071D01*
X125130952Y-91336071D02*
X125154762Y-91359880D01*
X125154762Y-91359880D02*
X125202381Y-91383690D01*
X125202381Y-91383690D02*
X125297619Y-91383690D01*
X125297619Y-91383690D02*
X125345238Y-91359880D01*
X125345238Y-91359880D02*
X125369047Y-91336071D01*
X125369047Y-91336071D02*
X125392857Y-91288452D01*
X125392857Y-91288452D02*
X125392857Y-91193214D01*
X125392857Y-91193214D02*
X125369047Y-91145595D01*
X125369047Y-91145595D02*
X125345238Y-91121785D01*
X125345238Y-91121785D02*
X125297619Y-91097976D01*
D10*
X128617380Y-112373333D02*
X129331666Y-112373333D01*
X129331666Y-112373333D02*
X129474523Y-112420952D01*
X129474523Y-112420952D02*
X129569761Y-112516190D01*
X129569761Y-112516190D02*
X129617380Y-112659047D01*
X129617380Y-112659047D02*
X129617380Y-112754285D01*
X128617380Y-111468571D02*
X128617380Y-111659047D01*
X128617380Y-111659047D02*
X128665000Y-111754285D01*
X128665000Y-111754285D02*
X128712619Y-111801904D01*
X128712619Y-111801904D02*
X128855476Y-111897142D01*
X128855476Y-111897142D02*
X129045952Y-111944761D01*
X129045952Y-111944761D02*
X129426904Y-111944761D01*
X129426904Y-111944761D02*
X129522142Y-111897142D01*
X129522142Y-111897142D02*
X129569761Y-111849523D01*
X129569761Y-111849523D02*
X129617380Y-111754285D01*
X129617380Y-111754285D02*
X129617380Y-111563809D01*
X129617380Y-111563809D02*
X129569761Y-111468571D01*
X129569761Y-111468571D02*
X129522142Y-111420952D01*
X129522142Y-111420952D02*
X129426904Y-111373333D01*
X129426904Y-111373333D02*
X129188809Y-111373333D01*
X129188809Y-111373333D02*
X129093571Y-111420952D01*
X129093571Y-111420952D02*
X129045952Y-111468571D01*
X129045952Y-111468571D02*
X128998333Y-111563809D01*
X128998333Y-111563809D02*
X128998333Y-111754285D01*
X128998333Y-111754285D02*
X129045952Y-111849523D01*
X129045952Y-111849523D02*
X129093571Y-111897142D01*
X129093571Y-111897142D02*
X129188809Y-111944761D01*
X166738095Y-90467380D02*
X166738095Y-89467380D01*
X166738095Y-89943571D02*
X167309523Y-89943571D01*
X167309523Y-90467380D02*
X167309523Y-89467380D01*
X167738095Y-89562619D02*
X167785714Y-89515000D01*
X167785714Y-89515000D02*
X167880952Y-89467380D01*
X167880952Y-89467380D02*
X168119047Y-89467380D01*
X168119047Y-89467380D02*
X168214285Y-89515000D01*
X168214285Y-89515000D02*
X168261904Y-89562619D01*
X168261904Y-89562619D02*
X168309523Y-89657857D01*
X168309523Y-89657857D02*
X168309523Y-89753095D01*
X168309523Y-89753095D02*
X168261904Y-89895952D01*
X168261904Y-89895952D02*
X167690476Y-90467380D01*
X167690476Y-90467380D02*
X168309523Y-90467380D01*
D11*
X151686071Y-85083333D02*
X151709880Y-85107142D01*
X151709880Y-85107142D02*
X151733690Y-85178571D01*
X151733690Y-85178571D02*
X151733690Y-85226190D01*
X151733690Y-85226190D02*
X151709880Y-85297618D01*
X151709880Y-85297618D02*
X151662261Y-85345237D01*
X151662261Y-85345237D02*
X151614642Y-85369047D01*
X151614642Y-85369047D02*
X151519404Y-85392856D01*
X151519404Y-85392856D02*
X151447976Y-85392856D01*
X151447976Y-85392856D02*
X151352738Y-85369047D01*
X151352738Y-85369047D02*
X151305119Y-85345237D01*
X151305119Y-85345237D02*
X151257500Y-85297618D01*
X151257500Y-85297618D02*
X151233690Y-85226190D01*
X151233690Y-85226190D02*
X151233690Y-85178571D01*
X151233690Y-85178571D02*
X151257500Y-85107142D01*
X151257500Y-85107142D02*
X151281309Y-85083333D01*
X151233690Y-84916666D02*
X151233690Y-84607142D01*
X151233690Y-84607142D02*
X151424166Y-84773809D01*
X151424166Y-84773809D02*
X151424166Y-84702380D01*
X151424166Y-84702380D02*
X151447976Y-84654761D01*
X151447976Y-84654761D02*
X151471785Y-84630952D01*
X151471785Y-84630952D02*
X151519404Y-84607142D01*
X151519404Y-84607142D02*
X151638452Y-84607142D01*
X151638452Y-84607142D02*
X151686071Y-84630952D01*
X151686071Y-84630952D02*
X151709880Y-84654761D01*
X151709880Y-84654761D02*
X151733690Y-84702380D01*
X151733690Y-84702380D02*
X151733690Y-84845237D01*
X151733690Y-84845237D02*
X151709880Y-84892856D01*
X151709880Y-84892856D02*
X151686071Y-84916666D01*
X156883690Y-118883333D02*
X156645595Y-119049999D01*
X156883690Y-119169047D02*
X156383690Y-119169047D01*
X156383690Y-119169047D02*
X156383690Y-118978571D01*
X156383690Y-118978571D02*
X156407500Y-118930952D01*
X156407500Y-118930952D02*
X156431309Y-118907142D01*
X156431309Y-118907142D02*
X156478928Y-118883333D01*
X156478928Y-118883333D02*
X156550357Y-118883333D01*
X156550357Y-118883333D02*
X156597976Y-118907142D01*
X156597976Y-118907142D02*
X156621785Y-118930952D01*
X156621785Y-118930952D02*
X156645595Y-118978571D01*
X156645595Y-118978571D02*
X156645595Y-119169047D01*
X156550357Y-118454761D02*
X156883690Y-118454761D01*
X156359880Y-118573809D02*
X156717023Y-118692856D01*
X156717023Y-118692856D02*
X156717023Y-118383333D01*
D17*
X110328200Y-104226200D02*
X112328200Y-104226200D01*
X110328200Y-105476200D02*
X110328200Y-104226200D01*
X112328200Y-104226200D02*
X112328200Y-105476200D01*
X112328200Y-105476200D02*
X110328200Y-105476200D01*
X147725000Y-95600000D02*
X147725000Y-97600000D01*
X146475000Y-95600000D02*
X147725000Y-95600000D01*
X147725000Y-97600000D02*
X146475000Y-97600000D01*
X146475000Y-97600000D02*
X146475000Y-95600000D01*
X134100000Y-77400000D02*
X134100000Y-74600000D01*
X135900000Y-77400000D02*
X134100000Y-77400000D01*
X135000000Y-76750000D02*
X135000000Y-76350000D01*
X135000000Y-76350000D02*
X134450000Y-76350000D01*
X135000000Y-76350000D02*
X135550000Y-76350000D01*
X135000000Y-76350000D02*
X134600000Y-75750000D01*
X134600000Y-75750000D02*
X135400000Y-75750000D01*
X135000000Y-75750000D02*
X135000000Y-75250000D01*
X135400000Y-75750000D02*
X135000000Y-76350000D01*
X134100000Y-74600000D02*
X135900000Y-74600000D01*
X135900000Y-74600000D02*
X135900000Y-77400000D01*
X114825000Y-116550000D02*
X112825000Y-116550000D01*
X114825000Y-115300000D02*
X114825000Y-116550000D01*
X112825000Y-116550000D02*
X112825000Y-115300000D01*
X112825000Y-115300000D02*
X114825000Y-115300000D01*
X133512500Y-82425000D02*
X135512500Y-82425000D01*
X133512500Y-83675000D02*
X133512500Y-82425000D01*
X135512500Y-82425000D02*
X135512500Y-83675000D01*
X135512500Y-83675000D02*
X133512500Y-83675000D01*
X123565000Y-77870000D02*
X122930000Y-77235000D01*
X133090000Y-77870000D02*
X123565000Y-77870000D01*
X122930000Y-77235000D02*
X122930000Y-75330000D01*
X122930000Y-75330000D02*
X133090000Y-75330000D01*
X133090000Y-75330000D02*
X133090000Y-77870000D01*
X159325000Y-117800000D02*
X159325000Y-119800000D01*
X158075000Y-117800000D02*
X159325000Y-117800000D01*
X159325000Y-119800000D02*
X158075000Y-119800000D01*
X158075000Y-119800000D02*
X158075000Y-117800000D01*
X148675000Y-87100000D02*
X148675000Y-85100000D01*
X149925000Y-87100000D02*
X148675000Y-87100000D01*
X148675000Y-85100000D02*
X149925000Y-85100000D01*
X149925000Y-85100000D02*
X149925000Y-87100000D01*
X161325000Y-117800000D02*
X161325000Y-119800000D01*
X160075000Y-117800000D02*
X161325000Y-117800000D01*
X161325000Y-119800000D02*
X160075000Y-119800000D01*
X160075000Y-119800000D02*
X160075000Y-117800000D01*
X152275000Y-96400000D02*
X150275000Y-96400000D01*
X152275000Y-95150000D02*
X152275000Y-96400000D01*
X150275000Y-96400000D02*
X150275000Y-95150000D01*
X150275000Y-95150000D02*
X152275000Y-95150000D01*
X126075000Y-81700000D02*
X126075000Y-79700000D01*
X127325000Y-81700000D02*
X126075000Y-81700000D01*
X126075000Y-79700000D02*
X127325000Y-79700000D01*
X127325000Y-79700000D02*
X127325000Y-81700000D01*
X115575000Y-77250000D02*
X115575000Y-75250000D01*
X116825000Y-77250000D02*
X115575000Y-77250000D01*
X115575000Y-75250000D02*
X116825000Y-75250000D01*
X116825000Y-75250000D02*
X116825000Y-77250000D01*
X130175000Y-73800000D02*
X130175000Y-71800000D01*
X131425000Y-73800000D02*
X130175000Y-73800000D01*
X130175000Y-71800000D02*
X131425000Y-71800000D01*
X131425000Y-71800000D02*
X131425000Y-73800000D01*
X155587500Y-87875000D02*
X157587500Y-87875000D01*
X155587500Y-89125000D02*
X155587500Y-87875000D01*
X157587500Y-87875000D02*
X157587500Y-89125000D01*
X157587500Y-89125000D02*
X155587500Y-89125000D01*
X128600000Y-79175000D02*
X130600000Y-79175000D01*
X128600000Y-80425000D02*
X128600000Y-79175000D01*
X130600000Y-79175000D02*
X130600000Y-80425000D01*
X130600000Y-80425000D02*
X128600000Y-80425000D01*
X127870000Y-88875000D02*
X129870000Y-88875000D01*
X127870000Y-90125000D02*
X127870000Y-88875000D01*
X129870000Y-88875000D02*
X129870000Y-90125000D01*
X129870000Y-90125000D02*
X127870000Y-90125000D01*
X155750000Y-86275000D02*
X153750000Y-86275000D01*
X155750000Y-85025000D02*
X155750000Y-86275000D01*
X153750000Y-86275000D02*
X153750000Y-85025000D01*
X153750000Y-85025000D02*
X155750000Y-85025000D01*
X159025000Y-70000000D02*
X159025000Y-72000000D01*
X157775000Y-70000000D02*
X159025000Y-70000000D01*
X159025000Y-72000000D02*
X157775000Y-72000000D01*
X157775000Y-72000000D02*
X157775000Y-70000000D01*
X131975000Y-89100000D02*
X131975000Y-87100000D01*
X133225000Y-89100000D02*
X131975000Y-89100000D01*
X131975000Y-87100000D02*
X133225000Y-87100000D01*
X133225000Y-87100000D02*
X133225000Y-89100000D01*
X156825000Y-69937500D02*
X156825000Y-71937500D01*
X155575000Y-69937500D02*
X156825000Y-69937500D01*
X156825000Y-71937500D02*
X155575000Y-71937500D01*
X155575000Y-71937500D02*
X155575000Y-69937500D01*
X114894600Y-105656600D02*
X115219600Y-105331600D01*
X114894600Y-108231600D02*
X114894600Y-105656600D01*
X115219600Y-105331600D02*
X116194600Y-105331600D01*
X116194600Y-105331600D02*
X116194600Y-108231600D01*
X116194600Y-108231600D02*
X114894600Y-108231600D01*
X115600000Y-112156400D02*
X113600000Y-112156400D01*
X115600000Y-110906400D02*
X115600000Y-112156400D01*
X113600000Y-112156400D02*
X113600000Y-110906400D01*
X113600000Y-110906400D02*
X115600000Y-110906400D01*
X113020600Y-113268600D02*
X115020600Y-113268600D01*
X113020600Y-114518600D02*
X113020600Y-113268600D01*
X115020600Y-113268600D02*
X115020600Y-114518600D01*
X115020600Y-114518600D02*
X113020600Y-114518600D01*
X120620000Y-106935000D02*
X119985000Y-107570000D01*
X120620000Y-92330000D02*
X120620000Y-106935000D01*
X119985000Y-107570000D02*
X118080000Y-107570000D01*
X118080000Y-107570000D02*
X118080000Y-92330000D01*
X118080000Y-92330000D02*
X120620000Y-92330000D01*
X121975000Y-73200000D02*
X121975000Y-71200000D01*
X123225000Y-73200000D02*
X121975000Y-73200000D01*
X121975000Y-71200000D02*
X123225000Y-71200000D01*
X123225000Y-71200000D02*
X123225000Y-73200000D01*
X114163600Y-101229000D02*
X116163600Y-101229000D01*
X114163600Y-102479000D02*
X114163600Y-101229000D01*
X116163600Y-101229000D02*
X116163600Y-102479000D01*
X116163600Y-102479000D02*
X114163600Y-102479000D01*
X153700000Y-89125000D02*
X151700000Y-89125000D01*
X153700000Y-87875000D02*
X153700000Y-89125000D01*
X151700000Y-89125000D02*
X151700000Y-87875000D01*
X151700000Y-87875000D02*
X153700000Y-87875000D01*
X114625000Y-75250000D02*
X114625000Y-77250000D01*
X113375000Y-75250000D02*
X114625000Y-75250000D01*
X114625000Y-77250000D02*
X113375000Y-77250000D01*
X113375000Y-77250000D02*
X113375000Y-75250000D01*
X155550000Y-91750000D02*
X152750000Y-91750000D01*
X155550000Y-89950000D02*
X155550000Y-91750000D01*
X154900000Y-90850000D02*
X154500000Y-90850000D01*
X154500000Y-90850000D02*
X154500000Y-91400000D01*
X154500000Y-90850000D02*
X154500000Y-90300000D01*
X154500000Y-90850000D02*
X153900000Y-91250000D01*
X153900000Y-91250000D02*
X153900000Y-90450000D01*
X153900000Y-90850000D02*
X153400000Y-90850000D01*
X153900000Y-90450000D02*
X154500000Y-90850000D01*
X152750000Y-91750000D02*
X152750000Y-89950000D01*
X152750000Y-89950000D02*
X155550000Y-89950000D01*
X160500000Y-110625000D02*
X162500000Y-110625000D01*
X160500000Y-111875000D02*
X160500000Y-110625000D01*
X162500000Y-110625000D02*
X162500000Y-111875000D01*
X162500000Y-111875000D02*
X160500000Y-111875000D01*
X144072179Y-92283037D02*
X144956562Y-92127097D01*
X140065748Y-98004814D02*
X144072179Y-92283037D01*
X144956562Y-92127097D02*
X146517046Y-93219760D01*
X146517046Y-93219760D02*
X142146394Y-99461699D01*
X142146394Y-99461699D02*
X140065748Y-98004814D01*
X123250000Y-83375000D02*
X125250000Y-83375000D01*
X123250000Y-84625000D02*
X123250000Y-83375000D01*
X125250000Y-83375000D02*
X125250000Y-84625000D01*
X125250000Y-84625000D02*
X123250000Y-84625000D01*
X114500000Y-92125000D02*
X116500000Y-92125000D01*
X114500000Y-93375000D02*
X114500000Y-92125000D01*
X116500000Y-92125000D02*
X116500000Y-93375000D01*
X116500000Y-93375000D02*
X114500000Y-93375000D01*
X121625000Y-108000000D02*
X121625000Y-106000000D01*
X122875000Y-108000000D02*
X121625000Y-108000000D01*
X121625000Y-106000000D02*
X122875000Y-106000000D01*
X122875000Y-106000000D02*
X122875000Y-108000000D01*
X119525000Y-112500000D02*
X119925000Y-112100000D01*
X119525000Y-115000000D02*
X119525000Y-112500000D01*
X119925000Y-112100000D02*
X121125000Y-112100000D01*
X121125000Y-112100000D02*
X121125000Y-115000000D01*
X121125000Y-115000000D02*
X119525000Y-115000000D01*
X157712500Y-121700000D02*
X157712500Y-123800000D01*
X157712500Y-123800000D02*
X161212500Y-123800000D01*
X158412500Y-121000000D02*
X157712500Y-121700000D01*
X161212500Y-121000000D02*
X158412500Y-121000000D01*
X161212500Y-123800000D02*
X161212500Y-121000000D01*
X110379800Y-108877000D02*
X109979800Y-108477000D01*
X112879800Y-108877000D02*
X110379800Y-108877000D01*
X109979800Y-108477000D02*
X109979800Y-107277000D01*
X109979800Y-107277000D02*
X112879800Y-107277000D01*
X112879800Y-107277000D02*
X112879800Y-108877000D01*
X135600000Y-85825000D02*
X133600000Y-85825000D01*
X135600000Y-84575000D02*
X135600000Y-85825000D01*
X133600000Y-85825000D02*
X133600000Y-84575000D01*
X133600000Y-84575000D02*
X135600000Y-84575000D01*
X120470000Y-115935600D02*
X122470000Y-115935600D01*
X120470000Y-117185600D02*
X120470000Y-115935600D01*
X122470000Y-115935600D02*
X122470000Y-117185600D01*
X122470000Y-117185600D02*
X120470000Y-117185600D01*
X128500000Y-81125000D02*
X130500000Y-81125000D01*
X128500000Y-82375000D02*
X128500000Y-81125000D01*
X130500000Y-81125000D02*
X130500000Y-82375000D01*
X130500000Y-82375000D02*
X128500000Y-82375000D01*
X116750000Y-115700000D02*
X118750000Y-115700000D01*
X116750000Y-116950000D02*
X116750000Y-115700000D01*
X118750000Y-115700000D02*
X118750000Y-116950000D01*
X118750000Y-116950000D02*
X116750000Y-116950000D01*
X107100000Y-111100000D02*
X109900000Y-111100000D01*
X107100000Y-112900000D02*
X107100000Y-111100000D01*
X107750000Y-112000000D02*
X108150000Y-112000000D01*
X108150000Y-112000000D02*
X108150000Y-111450000D01*
X108150000Y-112000000D02*
X108150000Y-112550000D01*
X108150000Y-112000000D02*
X108750000Y-111600000D01*
X108750000Y-111600000D02*
X108750000Y-112400000D01*
X108750000Y-112000000D02*
X109250000Y-112000000D01*
X108750000Y-112400000D02*
X108150000Y-112000000D01*
X109900000Y-111100000D02*
X109900000Y-112900000D01*
X109900000Y-112900000D02*
X107100000Y-112900000D01*
X115600000Y-88625000D02*
X113600000Y-88625000D01*
X115600000Y-87375000D02*
X115600000Y-88625000D01*
X113600000Y-88625000D02*
X113600000Y-87375000D01*
X113600000Y-87375000D02*
X115600000Y-87375000D01*
X141475000Y-86200000D02*
X141475000Y-84200000D01*
X142725000Y-86200000D02*
X141475000Y-86200000D01*
X141475000Y-84200000D02*
X142725000Y-84200000D01*
X142725000Y-84200000D02*
X142725000Y-86200000D01*
X126695000Y-118360000D02*
X126060000Y-118995000D01*
X126695000Y-103755000D02*
X126695000Y-118360000D01*
X126060000Y-118995000D02*
X124155000Y-118995000D01*
X124155000Y-118995000D02*
X124155000Y-103755000D01*
X124155000Y-103755000D02*
X126695000Y-103755000D01*
X138180782Y-88070750D02*
X139065165Y-87914810D01*
X134174351Y-93792527D02*
X138180782Y-88070750D01*
X139065165Y-87914810D02*
X140625649Y-89007473D01*
X140625649Y-89007473D02*
X136254997Y-95249412D01*
X136254997Y-95249412D02*
X134174351Y-93792527D01*
X151476000Y-125700000D02*
X133476000Y-125700000D01*
X151476000Y-119700000D02*
X133476000Y-119700000D01*
X151476000Y-100200000D02*
X151476000Y-125700000D01*
X151476000Y-100200000D02*
X133476000Y-100200000D01*
X133476000Y-100200000D02*
X133476000Y-125700000D01*
X115375000Y-80587500D02*
X116000000Y-81212500D01*
X113500000Y-80587500D02*
X115375000Y-80587500D01*
X116000000Y-81212500D02*
X116000000Y-83587500D01*
X116000000Y-83587500D02*
X113500000Y-83587500D01*
X113500000Y-83587500D02*
X113500000Y-80587500D01*
X152780000Y-101715000D02*
X153415000Y-101080000D01*
X152780000Y-116320000D02*
X152780000Y-101715000D01*
X153415000Y-101080000D02*
X155320000Y-101080000D01*
X155320000Y-101080000D02*
X155320000Y-116320000D01*
X155320000Y-116320000D02*
X152780000Y-116320000D01*
X150250000Y-92550000D02*
X153050000Y-92550000D01*
X150250000Y-94350000D02*
X150250000Y-92550000D01*
X150900000Y-93450000D02*
X151300000Y-93450000D01*
X151300000Y-93450000D02*
X151300000Y-92900000D01*
X151300000Y-93450000D02*
X151300000Y-94000000D01*
X151300000Y-93450000D02*
X151900000Y-93050000D01*
X151900000Y-93050000D02*
X151900000Y-93850000D01*
X151900000Y-93450000D02*
X152400000Y-93450000D01*
X151900000Y-93850000D02*
X151300000Y-93450000D01*
X153050000Y-92550000D02*
X153050000Y-94350000D01*
X153050000Y-94350000D02*
X150250000Y-94350000D01*
X114087400Y-103184800D02*
X116087400Y-103184800D01*
X114087400Y-104434800D02*
X114087400Y-103184800D01*
X116087400Y-103184800D02*
X116087400Y-104434800D01*
X116087400Y-104434800D02*
X114087400Y-104434800D01*
X150100000Y-91425000D02*
X148100000Y-91425000D01*
X150100000Y-90175000D02*
X150100000Y-91425000D01*
X148100000Y-91425000D02*
X148100000Y-90175000D01*
X148100000Y-90175000D02*
X150100000Y-90175000D01*
X156430000Y-101715000D02*
X157065000Y-101080000D01*
X156430000Y-116320000D02*
X156430000Y-101715000D01*
X157065000Y-101080000D02*
X158970000Y-101080000D01*
X158970000Y-101080000D02*
X158970000Y-116320000D01*
X158970000Y-116320000D02*
X156430000Y-116320000D01*
X132250000Y-79600000D02*
X132250000Y-81700000D01*
X132250000Y-81700000D02*
X135750000Y-81700000D01*
X132950000Y-78900000D02*
X132250000Y-79600000D01*
X135750000Y-78900000D02*
X132950000Y-78900000D01*
X135750000Y-81700000D02*
X135750000Y-78900000D01*
X137920000Y-84050000D02*
X137920000Y-85750000D01*
X138420000Y-83550000D02*
X137920000Y-84050000D01*
X139270000Y-83550000D02*
X138420000Y-83550000D01*
X139270000Y-83550000D02*
X139270000Y-85750000D01*
X139270000Y-85750000D02*
X137920000Y-85750000D01*
X153500000Y-98525000D02*
X151500000Y-98525000D01*
X153500000Y-97275000D02*
X153500000Y-98525000D01*
X151500000Y-98525000D02*
X151500000Y-97275000D01*
X151500000Y-97275000D02*
X153500000Y-97275000D01*
X159975000Y-107800000D02*
X159975000Y-105800000D01*
X161225000Y-107800000D02*
X159975000Y-107800000D01*
X159975000Y-105800000D02*
X161225000Y-105800000D01*
X161225000Y-105800000D02*
X161225000Y-107800000D01*
X124000000Y-90575000D02*
X126000000Y-90575000D01*
X124000000Y-91825000D02*
X124000000Y-90575000D01*
X126000000Y-90575000D02*
X126000000Y-91825000D01*
X126000000Y-91825000D02*
X124000000Y-91825000D01*
X130520000Y-117755000D02*
X129885000Y-118390000D01*
X130520000Y-105690000D02*
X130520000Y-117755000D01*
X129885000Y-118390000D02*
X127980000Y-118390000D01*
X127980000Y-118390000D02*
X127980000Y-105690000D01*
X127980000Y-105690000D02*
X130520000Y-105690000D01*
X157950000Y-94850000D02*
X155150000Y-94850000D01*
X157950000Y-93050000D02*
X157950000Y-94850000D01*
X157300000Y-93950000D02*
X156900000Y-93950000D01*
X156900000Y-93950000D02*
X156900000Y-94500000D01*
X156900000Y-93950000D02*
X156900000Y-93400000D01*
X156900000Y-93950000D02*
X156300000Y-94350000D01*
X156300000Y-94350000D02*
X156300000Y-93550000D01*
X156300000Y-93950000D02*
X155800000Y-93950000D01*
X156300000Y-93550000D02*
X156900000Y-93950000D01*
X155150000Y-94850000D02*
X155150000Y-93050000D01*
X155150000Y-93050000D02*
X157950000Y-93050000D01*
X150925000Y-86000000D02*
X150925000Y-84000000D01*
X152175000Y-86000000D02*
X150925000Y-86000000D01*
X150925000Y-84000000D02*
X152175000Y-84000000D01*
X152175000Y-84000000D02*
X152175000Y-86000000D01*
X156075000Y-119800000D02*
X156075000Y-117800000D01*
X157325000Y-119800000D02*
X156075000Y-119800000D01*
X156075000Y-117800000D02*
X157325000Y-117800000D01*
X157325000Y-117800000D02*
X157325000Y-119800000D01*
M02*
