M48
; DRILL file {KiCad (7.0.0)} date Sun Mar 26 15:26:50 2023
; FORMAT={-:-/ absolute / inch / decimal}
; #@! TF.CreationDate,2023-03-26T15:26:50+02:00
; #@! TF.GenerationSoftware,Kicad,Pcbnew,(7.0.0)
; #@! TF.FileFunction,Plated,1,2,PTH
FMAT,2
INCH
; #@! TA.AperFunction,Plated,PTH,ViaDrill
T1C0.0118
; #@! TA.AperFunction,Plated,PTH,ComponentDrill
T2C0.0118
; #@! TA.AperFunction,Plated,PTH,ViaDrill
T3C0.0157
; #@! TA.AperFunction,Plated,PTH,ComponentDrill
T4C0.0315
; #@! TA.AperFunction,Plated,PTH,ComponentDrill
T5C0.0394
; #@! TA.AperFunction,Plated,PTH,ViaDrill
T6C0.0454
%
G90
G05
T1
X4.265Y-2.3386
X4.3346Y-2.7756
X6.2717Y-4.1969
X6.3543Y-2.7244
X6.4685Y-2.3228
X6.5118Y-2.6614
T2
X5.6132Y-4.3224
X5.6132Y-4.3776
X5.6408Y-4.2949
X5.6408Y-4.35
X5.6408Y-4.4051
X5.6683Y-4.3224
X5.6683Y-4.3776
X5.6959Y-4.2949
X5.6959Y-4.35
X5.6959Y-4.4051
X5.7235Y-4.3224
X5.7235Y-4.3776
T3
X4.1575Y-4.4882
X4.1693Y-2.4803
X4.1732Y-3.7559
X4.2028Y-4.3504
X4.2964Y-4.1427
X4.3307Y-4.3701
X4.3622Y-3.2835
X4.4291Y-4.3996
X4.4724Y-3.1181
X4.4921Y-4.2874
X4.519Y-3.524
X4.5276Y-4.6151
X4.5344Y-4.484
X4.541Y-4.254
X4.559Y-4.391
X4.566Y-3.1191
X4.5669Y-2.7953
X4.5691Y-3.1705
X4.5768Y-4.1437
X4.5772Y-4.6349
X4.5866Y-3.9469
X4.5886Y-4.5719
X4.6417Y-4.7953
X4.6693Y-2.685
X4.6949Y-3.3465
X4.7195Y-4.7362
X4.7362Y-4.2717
X4.749Y-3.931
X4.7598Y-3.0354
X4.7795Y-3.2756
X4.8031Y-3.7894
X4.8524Y-3.3268
X4.8819Y-3.5
X4.8898Y-2.8583
X4.9016Y-3.7894
X4.9016Y-4.815
X4.9409Y-4.0157
X5.0118Y-4.6693
X5.0945Y-2.811
X5.1476Y-3.3071
X5.1575Y-4.0856
X5.1693Y-3.5551
X5.1772Y-4.5236
X5.1969Y-4.6654
X5.1996Y-4.1277
X5.2126Y-3.3543
X5.2717Y-3.1614
X5.2874Y-3.5591
X5.3248Y-4.4685
X5.3285Y-4.6691
X5.374Y-4.3209
X5.4449Y-3.6811
X5.5Y-3.8701
X5.5148Y-3.4222
X5.5906Y-4.0945
X5.6417Y-3.4488
X5.6772Y-2.8976
X5.689Y-3.878
X5.7Y-4.6654
X5.7205Y-3.7756
X5.7776Y-3.8976
X5.78Y-3.727
X5.834Y-3.085
X5.8465Y-3.2776
X5.86Y-4.725
X5.864Y-3.487
X5.876Y-4.4685
X5.8819Y-4.627
X5.8858Y-4.2913
X5.8858Y-4.5472
X5.8888Y-4.1053
X5.9Y-4.3961
X5.916Y-3.627
X5.954Y-3.407
X5.9665Y-3.6811
X6.014Y-3.944
X6.046Y-3.813
X6.048Y-3.567
X6.1811Y-3.3189
X6.2638Y-2.5039
X6.2894Y-3.8976
X6.3307Y-3.315
X6.3307Y-3.6142
X6.3392Y-4.8144
X6.449Y-4.4
X6.5453Y-4.4193
X6.6299Y-3.252
T4
X6.315Y-3.8031
X6.6142Y-3.8031
T5
X4.6988Y-3.685
X4.6988Y-3.785
X4.6988Y-3.885
X4.6988Y-3.985
X4.6988Y-4.085
X4.6988Y-4.185
X4.8898Y-3.0157
X4.938Y-4.1348
X4.938Y-4.2348
X4.938Y-4.3348
X4.938Y-4.4348
X4.938Y-4.5348
X4.938Y-4.6348
X4.9898Y-3.0157
X5.0886Y-4.211
X5.0886Y-4.311
X5.0886Y-4.411
X5.0886Y-4.511
X5.0886Y-4.611
X5.0898Y-3.0157
X5.1898Y-3.0157
X5.3521Y-3.6803
X5.4094Y-3.5984
X5.4252Y-2.8642
X5.4668Y-3.5165
X5.584Y-3.8462
X5.6414Y-3.7643
X5.6988Y-3.6823
X6.065Y-4.0295
X6.065Y-4.1295
X6.065Y-4.2295
X6.065Y-4.3295
X6.065Y-4.4295
X6.065Y-4.5295
X6.2087Y-4.0295
X6.2087Y-4.1295
X6.2087Y-4.2295
X6.2087Y-4.3295
X6.2087Y-4.4295
X6.2087Y-4.5295
T6
X4.252Y-3.7008
X4.2913Y-4.7835
X4.4882Y-2.5984
X4.9449Y-4.9055
X6.2244Y-2.5984
X6.3386Y-3.7008
X6.4764Y-4.8031
T4
G00X4.4862Y-4.71
M15
G01X4.4862Y-4.7415
M16
G05
G00X4.4862Y-4.8793
M15
G01X4.4862Y-4.9029
M16
G05
G00X4.8268Y-4.71
M15
G01X4.8268Y-4.7415
M16
G05
G00X4.8268Y-4.8793
M15
G01X4.8268Y-4.9029
M16
G05
T0
M30
