G04 #@! TF.GenerationSoftware,KiCad,Pcbnew,(7.0.0)*
G04 #@! TF.CreationDate,2023-03-26T15:26:54+02:00*
G04 #@! TF.ProjectId,S3-27-epaper-touch,53332d32-372d-4657-9061-7065722d746f,rev?*
G04 #@! TF.SameCoordinates,Original*
G04 #@! TF.FileFunction,Soldermask,Top*
G04 #@! TF.FilePolarity,Negative*
%FSLAX46Y46*%
G04 Gerber Fmt 4.6, Leading zero omitted, Abs format (unit mm)*
G04 Created by KiCad (PCBNEW (7.0.0)) date 2023-03-26 15:26:54*
%MOMM*%
%LPD*%
G01*
G04 APERTURE LIST*
G04 Aperture macros list*
%AMRoundRect*
0 Rectangle with rounded corners*
0 $1 Rounding radius*
0 $2 $3 $4 $5 $6 $7 $8 $9 X,Y pos of 4 corners*
0 Add a 4 corners polygon primitive as box body*
4,1,4,$2,$3,$4,$5,$6,$7,$8,$9,$2,$3,0*
0 Add four circle primitives for the rounded corners*
1,1,$1+$1,$2,$3*
1,1,$1+$1,$4,$5*
1,1,$1+$1,$6,$7*
1,1,$1+$1,$8,$9*
0 Add four rect primitives between the rounded corners*
20,1,$1+$1,$2,$3,$4,$5,0*
20,1,$1+$1,$4,$5,$6,$7,0*
20,1,$1+$1,$6,$7,$8,$9,0*
20,1,$1+$1,$8,$9,$2,$3,0*%
%AMHorizOval*
0 Thick line with rounded ends*
0 $1 width*
0 $2 $3 position (X,Y) of the first rounded end (center of the circle)*
0 $4 $5 position (X,Y) of the second rounded end (center of the circle)*
0 Add line between two ends*
20,1,$1,$2,$3,$4,$5,0*
0 Add two circle primitives to create the rounded ends*
1,1,$1,$2,$3*
1,1,$1,$4,$5*%
%AMRotRect*
0 Rectangle, with rotation*
0 The origin of the aperture is its center*
0 $1 length*
0 $2 width*
0 $3 Rotation angle, in degrees counterclockwise*
0 Add horizontal line*
21,1,$1,$2,0,0,$3*%
%AMFreePoly0*
4,1,19,0.500000,-0.750000,0.000000,-0.750000,0.000000,-0.744911,-0.071157,-0.744911,-0.207708,-0.704816,-0.327430,-0.627875,-0.420627,-0.520320,-0.479746,-0.390866,-0.500000,-0.250000,-0.500000,0.250000,-0.479746,0.390866,-0.420627,0.520320,-0.327430,0.627875,-0.207708,0.704816,-0.071157,0.744911,0.000000,0.744911,0.000000,0.750000,0.500000,0.750000,0.500000,-0.750000,0.500000,-0.750000,
$1*%
%AMFreePoly1*
4,1,19,0.000000,0.744911,0.071157,0.744911,0.207708,0.704816,0.327430,0.627875,0.420627,0.520320,0.479746,0.390866,0.500000,0.250000,0.500000,-0.250000,0.479746,-0.390866,0.420627,-0.520320,0.327430,-0.627875,0.207708,-0.704816,0.071157,-0.744911,0.000000,-0.744911,0.000000,-0.750000,-0.500000,-0.750000,-0.500000,0.750000,0.000000,0.750000,0.000000,0.744911,0.000000,0.744911,
$1*%
G04 Aperture macros list end*
%ADD10C,1.500000*%
%ADD11C,0.750000*%
%ADD12O,1.200000X2.000000*%
%ADD13O,1.200000X1.800000*%
%ADD14R,0.300000X1.300000*%
%ADD15RoundRect,0.250000X-0.350000X-0.450000X0.350000X-0.450000X0.350000X0.450000X-0.350000X0.450000X0*%
%ADD16RoundRect,0.250000X-0.450000X0.350000X-0.450000X-0.350000X0.450000X-0.350000X0.450000X0.350000X0*%
%ADD17RoundRect,0.225000X0.375000X-0.225000X0.375000X0.225000X-0.375000X0.225000X-0.375000X-0.225000X0*%
%ADD18RoundRect,0.250000X0.350000X0.450000X-0.350000X0.450000X-0.350000X-0.450000X0.350000X-0.450000X0*%
%ADD19RoundRect,0.250000X-0.337500X-0.475000X0.337500X-0.475000X0.337500X0.475000X-0.337500X0.475000X0*%
%ADD20R,1.700000X1.700000*%
%ADD21O,1.700000X1.700000*%
%ADD22RoundRect,0.250000X0.475000X-0.337500X0.475000X0.337500X-0.475000X0.337500X-0.475000X-0.337500X0*%
%ADD23R,0.500000X1.200000*%
%ADD24RoundRect,0.250000X0.337500X0.475000X-0.337500X0.475000X-0.337500X-0.475000X0.337500X-0.475000X0*%
%ADD25RoundRect,0.250000X0.450000X-0.350000X0.450000X0.350000X-0.450000X0.350000X-0.450000X-0.350000X0*%
%ADD26RoundRect,0.250000X-0.475000X0.337500X-0.475000X-0.337500X0.475000X-0.337500X0.475000X0.337500X0*%
%ADD27C,3.200000*%
%ADD28C,0.850000*%
%ADD29R,0.900000X2.000000*%
%ADD30R,1.100000X0.930000*%
%ADD31RoundRect,0.150000X-0.587500X-0.150000X0.587500X-0.150000X0.587500X0.150000X-0.587500X0.150000X0*%
%ADD32R,0.300000X1.500000*%
%ADD33R,1.800000X2.000000*%
%ADD34FreePoly0,0.000000*%
%ADD35FreePoly1,0.000000*%
%ADD36R,0.900000X1.200000*%
%ADD37RotRect,1.700000X1.700000X325.000000*%
%ADD38HorizOval,1.700000X0.000000X0.000000X0.000000X0.000000X0*%
%ADD39RoundRect,0.150000X-0.512500X-0.150000X0.512500X-0.150000X0.512500X0.150000X-0.512500X0.150000X0*%
%ADD40RoundRect,0.250000X-0.412500X-0.925000X0.412500X-0.925000X0.412500X0.925000X-0.412500X0.925000X0*%
%ADD41RoundRect,0.150000X0.150000X-0.512500X0.150000X0.512500X-0.150000X0.512500X-0.150000X-0.512500X0*%
%ADD42R,0.300000X1.000000*%
%ADD43R,0.600000X1.000000*%
%ADD44RoundRect,0.225000X-0.225000X-0.375000X0.225000X-0.375000X0.225000X0.375000X-0.225000X0.375000X0*%
%ADD45R,1.500000X0.900000*%
%ADD46R,0.900000X1.500000*%
%ADD47C,0.600000*%
%ADD48R,3.900000X3.900000*%
%ADD49RoundRect,0.087500X-0.087500X0.225000X-0.087500X-0.225000X0.087500X-0.225000X0.087500X0.225000X0*%
%ADD50RoundRect,0.087500X-0.225000X0.087500X-0.225000X-0.087500X0.225000X-0.087500X0.225000X0.087500X0*%
%ADD51R,0.700000X0.450000*%
%ADD52R,3.500000X1.600000*%
%ADD53O,0.900000X0.448000*%
%ADD54RoundRect,0.082000X0.328000X0.718000X-0.328000X0.718000X-0.328000X-0.718000X0.328000X-0.718000X0*%
%ADD55RoundRect,0.082000X-0.328000X-0.718000X0.328000X-0.718000X0.328000X0.718000X-0.328000X0.718000X0*%
%ADD56C,1.600000*%
%ADD57RoundRect,0.082000X-0.718000X0.328000X-0.718000X-0.328000X0.718000X-0.328000X0.718000X0.328000X0*%
G04 APERTURE END LIST*
D10*
X149300000Y-98200000D03*
X156550000Y-82300000D03*
D11*
X115375000Y-120534000D03*
X121175000Y-120534000D03*
D12*
X113949999Y-120033999D03*
D13*
X113949999Y-124233999D03*
D12*
X122599999Y-120033999D03*
D13*
X122599999Y-124233999D03*
D14*
X114924999Y-118965999D03*
X115724999Y-118965999D03*
X117024999Y-118965999D03*
X118024999Y-118965999D03*
X118524999Y-118965999D03*
X119524999Y-118965999D03*
X120824999Y-118965999D03*
X121624999Y-118965999D03*
X121324999Y-118965999D03*
X120524999Y-118965999D03*
X120024999Y-118965999D03*
X119024999Y-118965999D03*
X117524999Y-118965999D03*
X116524999Y-118965999D03*
X116024999Y-118965999D03*
X115224999Y-118965999D03*
D15*
X110328200Y-104851200D03*
X112328200Y-104851200D03*
D16*
X147100000Y-95600000D03*
X147100000Y-97600000D03*
D17*
X135000000Y-77650000D03*
X135000000Y-74350000D03*
D10*
X124500000Y-81800000D03*
X115000000Y-85200000D03*
D18*
X114825000Y-115925000D03*
X112825000Y-115925000D03*
D19*
X133475000Y-83050000D03*
X135550000Y-83050000D03*
D10*
X123700000Y-93400000D03*
D20*
X124199999Y-76599999D03*
D21*
X126739999Y-76599999D03*
X129279999Y-76599999D03*
X131819999Y-76599999D03*
D16*
X158700000Y-117800000D03*
X158700000Y-119800000D03*
D22*
X149300000Y-87137500D03*
X149300000Y-85062500D03*
D16*
X160700000Y-117800000D03*
X160700000Y-119800000D03*
D23*
X126999999Y-85599999D03*
X127899999Y-85599999D03*
X128799999Y-85599999D03*
X129699999Y-85599999D03*
X129699999Y-83999999D03*
X128799999Y-83999999D03*
X127899999Y-83999999D03*
X126999999Y-83999999D03*
D24*
X152312500Y-95775000D03*
X150237500Y-95775000D03*
D25*
X126700000Y-81700000D03*
X126700000Y-79700000D03*
X116200000Y-77250000D03*
X116200000Y-75250000D03*
D22*
X130800000Y-73837500D03*
X130800000Y-71762500D03*
D19*
X155550000Y-88500000D03*
X157625000Y-88500000D03*
D15*
X128600000Y-79800000D03*
X130600000Y-79800000D03*
D10*
X116200000Y-95400000D03*
D15*
X127870000Y-89500000D03*
X129870000Y-89500000D03*
D24*
X155787500Y-85650000D03*
X153712500Y-85650000D03*
D26*
X158400000Y-69962500D03*
X158400000Y-72037500D03*
D25*
X132600000Y-89100000D03*
X132600000Y-87100000D03*
D10*
X156550000Y-74750000D03*
D27*
X107450000Y-90100000D03*
D26*
X156200000Y-69900000D03*
X156200000Y-71975000D03*
D28*
X128770000Y-94096000D03*
X131770000Y-94096000D03*
D29*
X128019999Y-92248999D03*
X131019999Y-92248999D03*
X132519999Y-92248999D03*
D30*
X134069999Y-92960999D03*
X134069999Y-95230999D03*
X126469999Y-95230999D03*
X126469999Y-92960999D03*
D31*
X114607100Y-105831600D03*
X114607100Y-107731600D03*
X116482100Y-106781600D03*
D15*
X115800000Y-111531400D03*
X113800000Y-111531400D03*
D19*
X112983100Y-113893600D03*
X115058100Y-113893600D03*
D20*
X119349999Y-106299999D03*
D21*
X119349999Y-103759999D03*
X119349999Y-101219999D03*
X119349999Y-98679999D03*
X119349999Y-96139999D03*
X119349999Y-93599999D03*
D10*
X108300000Y-106700000D03*
D25*
X122600000Y-73200000D03*
X122600000Y-71200000D03*
D32*
X152099999Y-79773999D03*
X151601999Y-79775999D03*
X151101999Y-79775999D03*
X150601999Y-79775999D03*
X150101999Y-79775999D03*
X149601999Y-79775999D03*
X149101999Y-79775999D03*
X148601999Y-79775999D03*
X148101999Y-79775999D03*
X147601999Y-79775999D03*
X147101999Y-79775999D03*
X146601999Y-79775999D03*
X146101999Y-79775999D03*
X145601999Y-79775999D03*
X145101999Y-79775999D03*
X144601999Y-79775999D03*
X144101999Y-79775999D03*
X143601999Y-79775999D03*
X143101999Y-79775999D03*
X142601999Y-79775999D03*
X142101999Y-79775999D03*
X141601999Y-79775999D03*
X141101999Y-79775999D03*
X140601999Y-79775999D03*
D33*
X153749999Y-76623999D03*
X138949999Y-76623999D03*
D34*
X117700000Y-110500000D03*
D35*
X119000000Y-110500000D03*
D10*
X144900000Y-98000000D03*
D34*
X121100000Y-110500000D03*
D35*
X122400000Y-110500000D03*
D34*
X124000000Y-88900000D03*
D35*
X125300000Y-88900000D03*
D19*
X114126100Y-101854000D03*
X116201100Y-101854000D03*
D24*
X153737500Y-88500000D03*
X151662500Y-88500000D03*
D16*
X114000000Y-75250000D03*
X114000000Y-77250000D03*
D36*
X155799999Y-90849999D03*
X152499999Y-90849999D03*
D15*
X160500000Y-111250000D03*
X162500000Y-111250000D03*
D37*
X144748280Y-93531640D03*
D38*
X143291396Y-95612286D03*
X141834512Y-97692932D03*
D10*
X125200000Y-86400000D03*
D15*
X123250000Y-84000000D03*
X125250000Y-84000000D03*
X114500000Y-92750000D03*
X116500000Y-92750000D03*
D22*
X122250000Y-108037500D03*
X122250000Y-105962500D03*
D10*
X112496600Y-99669600D03*
D39*
X119187500Y-112600000D03*
X119187500Y-113550000D03*
X119187500Y-114500000D03*
X121462500Y-114500000D03*
X121462500Y-112600000D03*
D40*
X157925000Y-122400000D03*
X161000000Y-122400000D03*
D41*
X110479800Y-109214500D03*
X111429800Y-109214500D03*
X112379800Y-109214500D03*
X112379800Y-106939500D03*
X111429800Y-106939500D03*
X110479800Y-106939500D03*
D18*
X135600000Y-85200000D03*
X133600000Y-85200000D03*
D42*
X118149999Y-90249999D03*
X118649999Y-90249999D03*
X119149999Y-90249999D03*
X119649999Y-90249999D03*
X120149999Y-90249999D03*
X120649999Y-90249999D03*
D43*
X121649999Y-87749999D03*
X117149999Y-87749999D03*
D15*
X120470000Y-116560600D03*
X122470000Y-116560600D03*
X128500000Y-81750000D03*
X130500000Y-81750000D03*
X116750000Y-116325000D03*
X118750000Y-116325000D03*
D44*
X106850000Y-112000000D03*
X110150000Y-112000000D03*
D24*
X115637500Y-88000000D03*
X113562500Y-88000000D03*
D22*
X142100000Y-86237500D03*
X142100000Y-84162500D03*
D20*
X125424999Y-117724999D03*
D21*
X125424999Y-115184999D03*
X125424999Y-112644999D03*
X125424999Y-110104999D03*
X125424999Y-107564999D03*
X125424999Y-105024999D03*
D37*
X138856883Y-89319353D03*
D38*
X137399999Y-91399999D03*
X135943115Y-93480645D03*
D45*
X151225999Y-118209999D03*
X151225999Y-116939999D03*
X151225999Y-115669999D03*
X151225999Y-114399999D03*
X151225999Y-113129999D03*
X151225999Y-111859999D03*
X151225999Y-110589999D03*
X151225999Y-109319999D03*
X151225999Y-108049999D03*
X151225999Y-106779999D03*
X151225999Y-105509999D03*
X151225999Y-104239999D03*
X151225999Y-102969999D03*
X151225999Y-101699999D03*
D46*
X149460999Y-100449999D03*
X148190999Y-100449999D03*
X146920999Y-100449999D03*
X145650999Y-100449999D03*
X144380999Y-100449999D03*
X143110999Y-100449999D03*
X141840999Y-100449999D03*
X140570999Y-100449999D03*
X139300999Y-100449999D03*
X138030999Y-100449999D03*
X136760999Y-100449999D03*
X135490999Y-100449999D03*
D45*
X133725999Y-101699999D03*
X133725999Y-102969999D03*
X133725999Y-104239999D03*
X133725999Y-105509999D03*
X133725999Y-106779999D03*
X133725999Y-108049999D03*
X133725999Y-109319999D03*
X133725999Y-110589999D03*
X133725999Y-111859999D03*
X133725999Y-113129999D03*
X133725999Y-114399999D03*
X133725999Y-115669999D03*
X133725999Y-116939999D03*
X133725999Y-118209999D03*
D47*
X145376000Y-111190000D03*
X145376000Y-109790000D03*
X144676000Y-111890000D03*
X144676000Y-110490000D03*
X144676000Y-109090000D03*
X143976000Y-111190000D03*
D48*
X143975999Y-110489999D03*
D47*
X143976000Y-109790000D03*
X143276000Y-111890000D03*
X143276000Y-110490000D03*
X143276000Y-109090000D03*
X142576000Y-111190000D03*
X142576000Y-109790000D03*
D49*
X115500000Y-80925000D03*
X115000000Y-80925000D03*
X114500000Y-80925000D03*
X114000000Y-80925000D03*
D50*
X113837500Y-81587500D03*
X113837500Y-82087500D03*
X113837500Y-82587500D03*
D49*
X114000000Y-83250000D03*
X114500000Y-83250000D03*
X115000000Y-83250000D03*
X115500000Y-83250000D03*
D50*
X115662500Y-82587500D03*
X115662500Y-82087500D03*
X115662500Y-81587500D03*
D20*
X154049999Y-102349999D03*
D21*
X154049999Y-104889999D03*
X154049999Y-107429999D03*
X154049999Y-109969999D03*
X154049999Y-112509999D03*
X154049999Y-115049999D03*
D36*
X149999999Y-93449999D03*
X153299999Y-93449999D03*
D15*
X114087400Y-103809800D03*
X116087400Y-103809800D03*
D24*
X150137500Y-90800000D03*
X148062500Y-90800000D03*
D20*
X157699999Y-102349999D03*
D21*
X157699999Y-104889999D03*
X157699999Y-107429999D03*
X157699999Y-109969999D03*
X157699999Y-112509999D03*
X157699999Y-115049999D03*
D40*
X132462500Y-80300000D03*
X135537500Y-80300000D03*
D10*
X156550000Y-78650000D03*
D51*
X137599999Y-83999999D03*
X137599999Y-85299999D03*
X139599999Y-84649999D03*
D24*
X153537500Y-97900000D03*
X151462500Y-97900000D03*
D25*
X160600000Y-107800000D03*
X160600000Y-105800000D03*
D15*
X124000000Y-91200000D03*
X126000000Y-91200000D03*
D52*
X156649999Y-96449999D03*
X156649999Y-99649999D03*
D20*
X129249999Y-117119999D03*
D21*
X129249999Y-114579999D03*
X129249999Y-112039999D03*
X129249999Y-109499999D03*
X129249999Y-106959999D03*
D36*
X158199999Y-93949999D03*
X154899999Y-93949999D03*
D53*
X127999999Y-71399999D03*
X127999999Y-72199999D03*
X127999999Y-72999999D03*
X127999999Y-73799999D03*
X125199999Y-73799999D03*
X125199999Y-72999999D03*
X125199999Y-72199999D03*
X125199999Y-71399999D03*
D27*
X167500000Y-90100000D03*
D22*
X151550000Y-86037500D03*
X151550000Y-83962500D03*
D25*
X156700000Y-117800000D03*
X156700000Y-119800000D03*
D54*
X165070001Y-119700000D03*
X163570001Y-119700000D03*
X163570001Y-114500000D03*
X165070001Y-114500000D03*
X165070001Y-102600000D03*
X163570001Y-102600000D03*
X163570001Y-97400000D03*
X165070001Y-97400000D03*
D55*
X108250000Y-74100000D03*
X109750000Y-74100000D03*
X109750000Y-79300000D03*
X108250000Y-79300000D03*
X108329999Y-97400000D03*
X109829999Y-97400000D03*
X109829999Y-102600000D03*
X108329999Y-102600000D03*
D20*
X137799999Y-72749999D03*
D54*
X165020001Y-79300000D03*
X163520001Y-79300000D03*
X163520001Y-74100000D03*
X165020001Y-74100000D03*
D56*
X160400000Y-96600000D03*
X168000000Y-96600000D03*
D55*
X107329999Y-114500000D03*
X108829999Y-114500000D03*
X108829999Y-119700000D03*
X107329999Y-119700000D03*
D57*
X166800000Y-61429999D03*
X166800000Y-62929999D03*
X161600000Y-62929999D03*
X161600000Y-61429999D03*
D55*
X108329999Y-59400000D03*
X109829999Y-59400000D03*
X109829999Y-64600000D03*
X108329999Y-64600000D03*
M02*
