G04 #@! TF.GenerationSoftware,KiCad,Pcbnew,(7.0.0)*
G04 #@! TF.CreationDate,2023-03-12T16:39:35+01:00*
G04 #@! TF.ProjectId,S3-27-epaper-touch,53332d32-372d-4657-9061-7065722d746f,rev?*
G04 #@! TF.SameCoordinates,Original*
G04 #@! TF.FileFunction,Soldermask,Bot*
G04 #@! TF.FilePolarity,Negative*
%FSLAX46Y46*%
G04 Gerber Fmt 4.6, Leading zero omitted, Abs format (unit mm)*
G04 Created by KiCad (PCBNEW (7.0.0)) date 2023-03-12 16:39:35*
%MOMM*%
%LPD*%
G01*
G04 APERTURE LIST*
%ADD10C,1.600000*%
%ADD11C,0.750000*%
%ADD12O,1.200000X2.000000*%
%ADD13O,1.200000X1.800000*%
%ADD14R,1.700000X1.700000*%
%ADD15O,1.700000X1.700000*%
%ADD16C,3.200000*%
%ADD17C,0.850000*%
%ADD18R,1.150000X1.150000*%
%ADD19C,1.150000*%
%ADD20R,0.800000X1.580000*%
%ADD21R,1.580000X0.800000*%
%ADD22R,1.000000X2.000000*%
G04 APERTURE END LIST*
D10*
X168400000Y-96600000D03*
X160800000Y-96600000D03*
D11*
X115375000Y-120534000D03*
X121175000Y-120534000D03*
D12*
X113949999Y-120033999D03*
D13*
X113949999Y-124233999D03*
D12*
X122599999Y-120033999D03*
D13*
X122599999Y-124233999D03*
D14*
X126263399Y-67182999D03*
D15*
X128803399Y-67182999D03*
X131343399Y-67182999D03*
X133883399Y-67182999D03*
D16*
X107450000Y-90100000D03*
D17*
X128770000Y-94096000D03*
X131770000Y-94096000D03*
D14*
X119349999Y-106299999D03*
D15*
X119349999Y-103759999D03*
X119349999Y-101219999D03*
X119349999Y-98679999D03*
X119349999Y-96139999D03*
X119349999Y-93599999D03*
D14*
X125424999Y-117724999D03*
D15*
X125424999Y-115184999D03*
X125424999Y-112644999D03*
X125424999Y-110104999D03*
X125424999Y-107564999D03*
X125424999Y-105024999D03*
D14*
X154049999Y-102349999D03*
D15*
X154049999Y-104889999D03*
X154049999Y-107429999D03*
X154049999Y-109969999D03*
X154049999Y-112509999D03*
X154049999Y-115049999D03*
D18*
X126971500Y-72199999D03*
D19*
X128971502Y-72200000D03*
X130971501Y-72200000D03*
X132971502Y-72200000D03*
D14*
X157699999Y-102349999D03*
D15*
X157699999Y-104889999D03*
X157699999Y-107429999D03*
X157699999Y-109969999D03*
X157699999Y-112509999D03*
X157699999Y-115049999D03*
D14*
X129249999Y-117119999D03*
D15*
X129249999Y-114579999D03*
X129249999Y-112039999D03*
X129249999Y-109499999D03*
X129249999Y-106959999D03*
D16*
X167500000Y-90100000D03*
D20*
X162149999Y-79499999D03*
X162149999Y-85499999D03*
X165849999Y-79499999D03*
X165849999Y-85499999D03*
X165849999Y-70999999D03*
X165849999Y-64999999D03*
X162149999Y-70999999D03*
X162149999Y-64999999D03*
X142774999Y-113649999D03*
X142774999Y-119649999D03*
X146474999Y-113649999D03*
X146474999Y-119649999D03*
X162649999Y-103499999D03*
X162649999Y-109499999D03*
X166349999Y-103499999D03*
X166349999Y-109499999D03*
D14*
X138499999Y-72749999D03*
D20*
X111849999Y-70999999D03*
X111849999Y-64999999D03*
X108149999Y-70999999D03*
X108149999Y-64999999D03*
X108149999Y-79599999D03*
X108149999Y-85599999D03*
X111849999Y-79599999D03*
X111849999Y-85599999D03*
X111849999Y-109499999D03*
X111849999Y-103499999D03*
X108149999Y-109499999D03*
X108149999Y-103499999D03*
D21*
X162999999Y-123849999D03*
X168999999Y-123849999D03*
X162999999Y-120149999D03*
X168999999Y-120149999D03*
D22*
X151499999Y-96749999D03*
X149499999Y-96749999D03*
X147499999Y-96749999D03*
X145499999Y-96749999D03*
X143499999Y-96749999D03*
X141499999Y-96749999D03*
X139499999Y-96749999D03*
X137499999Y-96749999D03*
X137499999Y-80749999D03*
X139499999Y-80749999D03*
X141499999Y-80749999D03*
X143499999Y-80749999D03*
X145499999Y-80749999D03*
X147499999Y-80749999D03*
X149499999Y-80749999D03*
X151499999Y-80749999D03*
D21*
X105999999Y-123349999D03*
X111999999Y-123349999D03*
X105999999Y-119649999D03*
X111999999Y-119649999D03*
M02*
