G04 #@! TF.GenerationSoftware,KiCad,Pcbnew,(7.0.0)*
G04 #@! TF.CreationDate,2023-03-27T20:50:48+02:00*
G04 #@! TF.ProjectId,S3-27-epaper-touch,53332d32-372d-4657-9061-7065722d746f,rev?*
G04 #@! TF.SameCoordinates,Original*
G04 #@! TF.FileFunction,Paste,Bot*
G04 #@! TF.FilePolarity,Positive*
%FSLAX46Y46*%
G04 Gerber Fmt 4.6, Leading zero omitted, Abs format (unit mm)*
G04 Created by KiCad (PCBNEW (7.0.0)) date 2023-03-27 20:50:48*
%MOMM*%
%LPD*%
G01*
G04 APERTURE LIST*
G04 Aperture macros list*
%AMRoundRect*
0 Rectangle with rounded corners*
0 $1 Rounding radius*
0 $2 $3 $4 $5 $6 $7 $8 $9 X,Y pos of 4 corners*
0 Add a 4 corners polygon primitive as box body*
4,1,4,$2,$3,$4,$5,$6,$7,$8,$9,$2,$3,0*
0 Add four circle primitives for the rounded corners*
1,1,$1+$1,$2,$3*
1,1,$1+$1,$4,$5*
1,1,$1+$1,$6,$7*
1,1,$1+$1,$8,$9*
0 Add four rect primitives between the rounded corners*
20,1,$1+$1,$2,$3,$4,$5,0*
20,1,$1+$1,$4,$5,$6,$7,0*
20,1,$1+$1,$6,$7,$8,$9,0*
20,1,$1+$1,$8,$9,$2,$3,0*%
G04 Aperture macros list end*
%ADD10O,1.200000X2.000000*%
%ADD11O,1.200000X1.800000*%
%ADD12R,0.800000X1.580000*%
%ADD13RoundRect,0.150000X-0.587500X-0.150000X0.587500X-0.150000X0.587500X0.150000X-0.587500X0.150000X0*%
%ADD14RoundRect,0.250000X0.350000X0.450000X-0.350000X0.450000X-0.350000X-0.450000X0.350000X-0.450000X0*%
%ADD15RoundRect,0.225000X-0.375000X0.225000X-0.375000X-0.225000X0.375000X-0.225000X0.375000X0.225000X0*%
%ADD16RoundRect,0.250000X0.450000X-0.350000X0.450000X0.350000X-0.450000X0.350000X-0.450000X-0.350000X0*%
%ADD17R,1.580000X0.800000*%
%ADD18RoundRect,0.150000X0.700000X-0.150000X0.700000X0.150000X-0.700000X0.150000X-0.700000X-0.150000X0*%
%ADD19RoundRect,0.250000X1.100000X-0.250000X1.100000X0.250000X-1.100000X0.250000X-1.100000X-0.250000X0*%
%ADD20R,1.000000X0.600000*%
%ADD21R,1.000000X2.000000*%
G04 APERTURE END LIST*
D10*
X113949999Y-120033999D03*
D11*
X113949999Y-124233999D03*
D10*
X122599999Y-120033999D03*
D11*
X122599999Y-124233999D03*
D12*
X162149999Y-79499999D03*
X162149999Y-85499999D03*
X165849999Y-79499999D03*
X165849999Y-85499999D03*
D13*
X120362500Y-117150000D03*
X120362500Y-115250000D03*
X122237500Y-116200000D03*
D14*
X118500000Y-118000000D03*
X116500000Y-118000000D03*
X118800000Y-124000000D03*
X116800000Y-124000000D03*
D12*
X165849999Y-70999999D03*
X165849999Y-64999999D03*
X162149999Y-70999999D03*
X162149999Y-64999999D03*
D15*
X118200000Y-112300000D03*
X118200000Y-115600000D03*
D12*
X142774999Y-113649999D03*
X142774999Y-119649999D03*
X146474999Y-113649999D03*
X146474999Y-119649999D03*
X162649999Y-103499999D03*
X162649999Y-109499999D03*
X166349999Y-103499999D03*
X166349999Y-109499999D03*
X111849999Y-70999999D03*
X111849999Y-64999999D03*
X108149999Y-70999999D03*
X108149999Y-64999999D03*
D16*
X120800000Y-124000000D03*
X120800000Y-122000000D03*
D12*
X108149999Y-79599999D03*
X108149999Y-85599999D03*
X111849999Y-79599999D03*
X111849999Y-85599999D03*
X111849999Y-109499999D03*
X111849999Y-103499999D03*
X108149999Y-109499999D03*
X108149999Y-103499999D03*
D17*
X161499999Y-123849999D03*
X167499999Y-123849999D03*
X161499999Y-120149999D03*
X167499999Y-120149999D03*
D18*
X113900000Y-115825000D03*
X113900000Y-114575000D03*
D19*
X110700000Y-117675000D03*
X110700000Y-112725000D03*
D20*
X116799999Y-122249999D03*
X116799999Y-121299999D03*
X116799999Y-120349999D03*
X119399999Y-120349999D03*
X119399999Y-122249999D03*
D21*
X151499999Y-96299999D03*
X149499999Y-96299999D03*
X147499999Y-96299999D03*
X145499999Y-96299999D03*
X143499999Y-96299999D03*
X141499999Y-96299999D03*
X139499999Y-96299999D03*
X137499999Y-96299999D03*
X137499999Y-80299999D03*
X139499999Y-80299999D03*
X141499999Y-80299999D03*
X143499999Y-80299999D03*
X145499999Y-80299999D03*
X147499999Y-80299999D03*
X149499999Y-80299999D03*
X151499999Y-80299999D03*
D17*
X105999999Y-123349999D03*
X111999999Y-123349999D03*
X105999999Y-119649999D03*
X111999999Y-119649999D03*
M02*
