G04 #@! TF.GenerationSoftware,KiCad,Pcbnew,(7.0.0)*
G04 #@! TF.CreationDate,2023-03-26T15:26:54+02:00*
G04 #@! TF.ProjectId,S3-27-epaper-touch,53332d32-372d-4657-9061-7065722d746f,rev?*
G04 #@! TF.SameCoordinates,Original*
G04 #@! TF.FileFunction,Profile,NP*
%FSLAX46Y46*%
G04 Gerber Fmt 4.6, Leading zero omitted, Abs format (unit mm)*
G04 Created by KiCad (PCBNEW (7.0.0)) date 2023-03-26 15:26:54*
%MOMM*%
%LPD*%
G01*
G04 APERTURE LIST*
G04 #@! TA.AperFunction,Profile*
%ADD10C,0.050000*%
G04 #@! TD*
G04 #@! TA.AperFunction,Profile*
%ADD11C,0.100000*%
G04 #@! TD*
G04 APERTURE END LIST*
D10*
X127000000Y-126034800D02*
X127000000Y-121920000D01*
D11*
X119500000Y-68000000D02*
X153500000Y-68000000D01*
D10*
X156000000Y-126000000D02*
X168200000Y-126000000D01*
X106800000Y-126000000D02*
X127000000Y-126034800D01*
D11*
X160000000Y-61500000D02*
X153500000Y-68000000D01*
D10*
X106800000Y-126000000D02*
X104800000Y-124000000D01*
D11*
X160000000Y-58000000D02*
X167200000Y-58000000D01*
X170200000Y-124000000D02*
X170200000Y-62000000D01*
X107800000Y-58000000D02*
X104800000Y-62000000D01*
X104800000Y-62000000D02*
X104800000Y-124000000D01*
X113000000Y-62000000D02*
X119500000Y-68000000D01*
X167200000Y-58000000D02*
X170200000Y-62000000D01*
X160000000Y-61500000D02*
X160000000Y-58000000D01*
X113000000Y-58000000D02*
X107800000Y-58000000D01*
D10*
X156000000Y-121920000D02*
X156000000Y-126000000D01*
D11*
X113000000Y-58000000D02*
X113000000Y-62000000D01*
D10*
X127000000Y-121920000D02*
X156000000Y-121920000D01*
X170200000Y-124000000D02*
X168200000Y-126000000D01*
D11*
X163617159Y-118799999D02*
X165022843Y-118799999D01*
X165820000Y-117894452D02*
X165820000Y-116305547D01*
X162820001Y-116305548D02*
X162820001Y-117894452D01*
X165022843Y-115400001D02*
X163617159Y-115400001D01*
X163617158Y-118800000D02*
G75*
G03*
X163400281Y-118849485I-1J-499989D01*
G01*
X162751704Y-118146711D02*
G75*
G03*
X163400281Y-118849484I431700J-252258D01*
G01*
X165239721Y-118849484D02*
G75*
G03*
X165022843Y-118799999I-216876J-450505D01*
G01*
X165239721Y-118849483D02*
G75*
G03*
X165888299Y-118146711I216878J450514D01*
G01*
X165820002Y-117894453D02*
G75*
G03*
X165888301Y-118146711I499981J-5D01*
G01*
X162751702Y-118146710D02*
G75*
G03*
X162820001Y-117894452I-431710J252261D01*
G01*
X165888299Y-116053289D02*
G75*
G03*
X165820000Y-116305547I431711J-252261D01*
G01*
X162819999Y-116305548D02*
G75*
G03*
X162751701Y-116053289I-499979J8D01*
G01*
X163400280Y-115350519D02*
G75*
G03*
X162751703Y-116053289I-216880J-450511D01*
G01*
X163400280Y-115350518D02*
G75*
G03*
X163617159Y-115400001I216920J450718D01*
G01*
X165888298Y-116053289D02*
G75*
G03*
X165239721Y-115350516I-431700J252258D01*
G01*
X165022844Y-115400001D02*
G75*
G03*
X165239721Y-115350515I156J499301D01*
G01*
X163617159Y-101699999D02*
X165022843Y-101699999D01*
X165820000Y-100794452D02*
X165820000Y-99205547D01*
X162820001Y-99205548D02*
X162820001Y-100794452D01*
X165022843Y-98300001D02*
X163617159Y-98300001D01*
X163617158Y-101700000D02*
G75*
G03*
X163400281Y-101749485I-1J-499989D01*
G01*
X162751704Y-101046711D02*
G75*
G03*
X163400281Y-101749484I431700J-252258D01*
G01*
X165239721Y-101749484D02*
G75*
G03*
X165022843Y-101699999I-216876J-450505D01*
G01*
X165239721Y-101749483D02*
G75*
G03*
X165888299Y-101046711I216878J450514D01*
G01*
X165820002Y-100794453D02*
G75*
G03*
X165888301Y-101046711I499981J-5D01*
G01*
X162751702Y-101046710D02*
G75*
G03*
X162820001Y-100794452I-431710J252261D01*
G01*
X165888299Y-98953289D02*
G75*
G03*
X165820000Y-99205547I431711J-252261D01*
G01*
X162819999Y-99205548D02*
G75*
G03*
X162751701Y-98953289I-499979J8D01*
G01*
X163400280Y-98250519D02*
G75*
G03*
X162751703Y-98953289I-216880J-450511D01*
G01*
X163400280Y-98250518D02*
G75*
G03*
X163617159Y-98300001I216920J450718D01*
G01*
X165888298Y-98953289D02*
G75*
G03*
X165239721Y-98250516I-431700J252258D01*
G01*
X165022844Y-98300001D02*
G75*
G03*
X165239721Y-98250515I156J499301D01*
G01*
X109702842Y-75000001D02*
X108297158Y-75000001D01*
X107500001Y-75905548D02*
X107500001Y-77494453D01*
X110500000Y-77494452D02*
X110500000Y-75905548D01*
X108297158Y-78399999D02*
X109702842Y-78399999D01*
X109702843Y-75000000D02*
G75*
G03*
X109919720Y-74950515I1J499989D01*
G01*
X110568297Y-75653289D02*
G75*
G03*
X109919720Y-74950516I-431700J252258D01*
G01*
X108080280Y-74950516D02*
G75*
G03*
X108297158Y-75000001I216876J450505D01*
G01*
X108080280Y-74950517D02*
G75*
G03*
X107431702Y-75653289I-216878J-450514D01*
G01*
X107499999Y-75905547D02*
G75*
G03*
X107431700Y-75653289I-499981J5D01*
G01*
X110568299Y-75653290D02*
G75*
G03*
X110500000Y-75905548I431710J-252261D01*
G01*
X107431702Y-77746711D02*
G75*
G03*
X107500001Y-77494453I-431711J252261D01*
G01*
X110500002Y-77494452D02*
G75*
G03*
X110568300Y-77746711I499979J-8D01*
G01*
X109919721Y-78449481D02*
G75*
G03*
X110568298Y-77746711I216880J450511D01*
G01*
X109919721Y-78449482D02*
G75*
G03*
X109702842Y-78399999I-216920J-450718D01*
G01*
X107431703Y-77746711D02*
G75*
G03*
X108080280Y-78449484I431700J-252258D01*
G01*
X108297157Y-78399999D02*
G75*
G03*
X108080280Y-78449485I-156J-499301D01*
G01*
X109782841Y-98300001D02*
X108377157Y-98300001D01*
X107580000Y-99205548D02*
X107580000Y-100794453D01*
X110579999Y-100794452D02*
X110579999Y-99205548D01*
X108377157Y-101699999D02*
X109782841Y-101699999D01*
X109782842Y-98300000D02*
G75*
G03*
X109999719Y-98250515I1J499989D01*
G01*
X110648296Y-98953289D02*
G75*
G03*
X109999719Y-98250516I-431700J252258D01*
G01*
X108160279Y-98250516D02*
G75*
G03*
X108377157Y-98300001I216876J450505D01*
G01*
X108160279Y-98250517D02*
G75*
G03*
X107511701Y-98953289I-216878J-450514D01*
G01*
X107579998Y-99205547D02*
G75*
G03*
X107511699Y-98953289I-499981J5D01*
G01*
X110648298Y-98953290D02*
G75*
G03*
X110579999Y-99205548I431710J-252261D01*
G01*
X107511701Y-101046711D02*
G75*
G03*
X107580000Y-100794453I-431711J252261D01*
G01*
X110580001Y-100794452D02*
G75*
G03*
X110648299Y-101046711I499979J-8D01*
G01*
X109999720Y-101749481D02*
G75*
G03*
X110648297Y-101046711I216880J450511D01*
G01*
X109999720Y-101749482D02*
G75*
G03*
X109782841Y-101699999I-216920J-450718D01*
G01*
X107511702Y-101046711D02*
G75*
G03*
X108160279Y-101749484I431700J-252258D01*
G01*
X108377156Y-101699999D02*
G75*
G03*
X108160279Y-101749485I-156J-499301D01*
G01*
X163567159Y-78399999D02*
X164972843Y-78399999D01*
X165770000Y-77494452D02*
X165770000Y-75905547D01*
X162770001Y-75905548D02*
X162770001Y-77494452D01*
X164972843Y-75000001D02*
X163567159Y-75000001D01*
X163567158Y-78400000D02*
G75*
G03*
X163350281Y-78449485I-1J-499989D01*
G01*
X162701704Y-77746711D02*
G75*
G03*
X163350281Y-78449484I431700J-252258D01*
G01*
X165189721Y-78449484D02*
G75*
G03*
X164972843Y-78399999I-216876J-450505D01*
G01*
X165189721Y-78449483D02*
G75*
G03*
X165838299Y-77746711I216878J450514D01*
G01*
X165770002Y-77494453D02*
G75*
G03*
X165838301Y-77746711I499981J-5D01*
G01*
X162701702Y-77746710D02*
G75*
G03*
X162770001Y-77494452I-431710J252261D01*
G01*
X165838299Y-75653289D02*
G75*
G03*
X165770000Y-75905547I431711J-252261D01*
G01*
X162769999Y-75905548D02*
G75*
G03*
X162701701Y-75653289I-499979J8D01*
G01*
X163350280Y-74950519D02*
G75*
G03*
X162701703Y-75653289I-216880J-450511D01*
G01*
X163350280Y-74950518D02*
G75*
G03*
X163567159Y-75000001I216920J450718D01*
G01*
X165838298Y-75653289D02*
G75*
G03*
X165189721Y-74950516I-431700J252258D01*
G01*
X164972844Y-75000001D02*
G75*
G03*
X165189721Y-74950515I156J499301D01*
G01*
X108782841Y-115400001D02*
X107377157Y-115400001D01*
X106580000Y-116305548D02*
X106580000Y-117894453D01*
X109579999Y-117894452D02*
X109579999Y-116305548D01*
X107377157Y-118799999D02*
X108782841Y-118799999D01*
X108782842Y-115400000D02*
G75*
G03*
X108999719Y-115350515I1J499989D01*
G01*
X109648296Y-116053289D02*
G75*
G03*
X108999719Y-115350516I-431700J252258D01*
G01*
X107160279Y-115350516D02*
G75*
G03*
X107377157Y-115400001I216876J450505D01*
G01*
X107160279Y-115350517D02*
G75*
G03*
X106511701Y-116053289I-216878J-450514D01*
G01*
X106579998Y-116305547D02*
G75*
G03*
X106511699Y-116053289I-499981J5D01*
G01*
X109648298Y-116053290D02*
G75*
G03*
X109579999Y-116305548I431710J-252261D01*
G01*
X106511701Y-118146711D02*
G75*
G03*
X106580000Y-117894453I-431711J252261D01*
G01*
X109580001Y-117894452D02*
G75*
G03*
X109648299Y-118146711I499979J-8D01*
G01*
X108999720Y-118849481D02*
G75*
G03*
X109648297Y-118146711I216880J450511D01*
G01*
X108999720Y-118849482D02*
G75*
G03*
X108782841Y-118799999I-216920J-450718D01*
G01*
X106511702Y-118146711D02*
G75*
G03*
X107160279Y-118849484I431700J-252258D01*
G01*
X107377156Y-118799999D02*
G75*
G03*
X107160279Y-118849485I-156J-499301D01*
G01*
X165899999Y-62882841D02*
X165899999Y-61477157D01*
X164994452Y-60680000D02*
X163405547Y-60680000D01*
X163405548Y-63679999D02*
X164994452Y-63679999D01*
X162500001Y-61477157D02*
X162500001Y-62882841D01*
X165900000Y-62882842D02*
G75*
G03*
X165949485Y-63099719I499989J-1D01*
G01*
X165246711Y-63748296D02*
G75*
G03*
X165949484Y-63099719I252258J431700D01*
G01*
X165949484Y-61260279D02*
G75*
G03*
X165899999Y-61477157I450505J-216876D01*
G01*
X165949483Y-61260279D02*
G75*
G03*
X165246711Y-60611701I-450514J216878D01*
G01*
X164994453Y-60679998D02*
G75*
G03*
X165246711Y-60611699I5J499981D01*
G01*
X165246710Y-63748298D02*
G75*
G03*
X164994452Y-63679999I-252261J-431710D01*
G01*
X163153289Y-60611701D02*
G75*
G03*
X163405547Y-60680000I252261J431711D01*
G01*
X163405548Y-63680001D02*
G75*
G03*
X163153289Y-63748299I-8J-499979D01*
G01*
X162450519Y-63099720D02*
G75*
G03*
X163153289Y-63748297I450511J-216880D01*
G01*
X162450518Y-63099720D02*
G75*
G03*
X162500001Y-62882841I-450718J216920D01*
G01*
X163153289Y-60611702D02*
G75*
G03*
X162450516Y-61260279I-252258J-431700D01*
G01*
X162500001Y-61477156D02*
G75*
G03*
X162450515Y-61260279I-499301J156D01*
G01*
X109782841Y-60300001D02*
X108377157Y-60300001D01*
X107580000Y-61205548D02*
X107580000Y-62794453D01*
X110579999Y-62794452D02*
X110579999Y-61205548D01*
X108377157Y-63699999D02*
X109782841Y-63699999D01*
X109782842Y-60300000D02*
G75*
G03*
X109999719Y-60250515I1J499989D01*
G01*
X110648296Y-60953289D02*
G75*
G03*
X109999719Y-60250516I-431700J252258D01*
G01*
X108160279Y-60250516D02*
G75*
G03*
X108377157Y-60300001I216876J450505D01*
G01*
X108160279Y-60250517D02*
G75*
G03*
X107511701Y-60953289I-216878J-450514D01*
G01*
X107579998Y-61205547D02*
G75*
G03*
X107511699Y-60953289I-499981J5D01*
G01*
X110648298Y-60953290D02*
G75*
G03*
X110579999Y-61205548I431710J-252261D01*
G01*
X107511701Y-63046711D02*
G75*
G03*
X107580000Y-62794453I-431711J252261D01*
G01*
X110580001Y-62794452D02*
G75*
G03*
X110648299Y-63046711I499979J-8D01*
G01*
X109999720Y-63749481D02*
G75*
G03*
X110648297Y-63046711I216880J450511D01*
G01*
X109999720Y-63749482D02*
G75*
G03*
X109782841Y-63699999I-216920J-450718D01*
G01*
X107511702Y-63046711D02*
G75*
G03*
X108160279Y-63749484I431700J-252258D01*
G01*
X108377156Y-63699999D02*
G75*
G03*
X108160279Y-63749485I-156J-499301D01*
G01*
M02*
