G04 #@! TF.GenerationSoftware,KiCad,Pcbnew,(7.0.0)*
G04 #@! TF.CreationDate,2023-03-08T22:05:44+01:00*
G04 #@! TF.ProjectId,S3-27-epaper-touch,53332d32-372d-4657-9061-7065722d746f,rev?*
G04 #@! TF.SameCoordinates,Original*
G04 #@! TF.FileFunction,Paste,Bot*
G04 #@! TF.FilePolarity,Positive*
%FSLAX46Y46*%
G04 Gerber Fmt 4.6, Leading zero omitted, Abs format (unit mm)*
G04 Created by KiCad (PCBNEW (7.0.0)) date 2023-03-08 22:05:44*
%MOMM*%
%LPD*%
G01*
G04 APERTURE LIST*
%ADD10O,1.200000X2.000000*%
%ADD11O,1.200000X1.800000*%
%ADD12R,0.800000X1.580000*%
%ADD13R,1.580000X0.800000*%
%ADD14R,1.000000X2.000000*%
G04 APERTURE END LIST*
D10*
X113949999Y-120033999D03*
D11*
X113949999Y-124233999D03*
D10*
X122599999Y-120033999D03*
D11*
X122599999Y-124233999D03*
D12*
X162149999Y-79499999D03*
X162149999Y-85499999D03*
X165849999Y-79499999D03*
X165849999Y-85499999D03*
X165849999Y-70999999D03*
X165849999Y-64999999D03*
X162149999Y-70999999D03*
X162149999Y-64999999D03*
X142774999Y-113649999D03*
X142774999Y-119649999D03*
X146474999Y-113649999D03*
X146474999Y-119649999D03*
X162649999Y-103499999D03*
X162649999Y-109499999D03*
X166349999Y-103499999D03*
X166349999Y-109499999D03*
X111849999Y-70999999D03*
X111849999Y-64999999D03*
X108149999Y-70999999D03*
X108149999Y-64999999D03*
X108149999Y-79599999D03*
X108149999Y-85599999D03*
X111849999Y-79599999D03*
X111849999Y-85599999D03*
X111849999Y-109499999D03*
X111849999Y-103499999D03*
X108149999Y-109499999D03*
X108149999Y-103499999D03*
D13*
X162999999Y-123849999D03*
X168999999Y-123849999D03*
X162999999Y-120149999D03*
X168999999Y-120149999D03*
D14*
X151499999Y-96749999D03*
X149499999Y-96749999D03*
X147499999Y-96749999D03*
X145499999Y-96749999D03*
X143499999Y-96749999D03*
X141499999Y-96749999D03*
X139499999Y-96749999D03*
X137499999Y-96749999D03*
X137499999Y-80749999D03*
X139499999Y-80749999D03*
X141499999Y-80749999D03*
X143499999Y-80749999D03*
X145499999Y-80749999D03*
X147499999Y-80749999D03*
X149499999Y-80749999D03*
X151499999Y-80749999D03*
D13*
X105999999Y-123349999D03*
X111999999Y-123349999D03*
X105999999Y-119649999D03*
X111999999Y-119649999D03*
M02*
