G04 #@! TF.GenerationSoftware,KiCad,Pcbnew,(7.0.0)*
G04 #@! TF.CreationDate,2023-03-08T22:05:45+01:00*
G04 #@! TF.ProjectId,S3-27-epaper-touch,53332d32-372d-4657-9061-7065722d746f,rev?*
G04 #@! TF.SameCoordinates,Original*
G04 #@! TF.FileFunction,Profile,NP*
%FSLAX46Y46*%
G04 Gerber Fmt 4.6, Leading zero omitted, Abs format (unit mm)*
G04 Created by KiCad (PCBNEW (7.0.0)) date 2023-03-08 22:05:45*
%MOMM*%
%LPD*%
G01*
G04 APERTURE LIST*
G04 #@! TA.AperFunction,Profile*
%ADD10C,0.050000*%
G04 #@! TD*
G04 #@! TA.AperFunction,Profile*
%ADD11C,0.100000*%
G04 #@! TD*
G04 APERTURE END LIST*
D10*
X127000000Y-126034800D02*
X127000000Y-121920000D01*
D11*
X134315200Y-64871600D02*
X155000000Y-64871600D01*
D10*
X156000000Y-126000000D02*
X170200000Y-126000000D01*
X104800000Y-126000000D02*
X127000000Y-126034800D01*
D11*
X117200000Y-55000000D02*
X110000000Y-55000000D01*
X155000000Y-54991000D02*
X170200000Y-55000000D01*
X125552200Y-59000000D02*
X134315200Y-59000000D01*
X170200000Y-126000000D02*
X170200000Y-55000000D01*
X104800000Y-59000000D02*
X104800000Y-126000000D01*
X125552200Y-59000000D02*
X117200000Y-59000000D01*
X104800000Y-59000000D02*
X110000000Y-55000000D01*
X155000000Y-64871600D02*
X155000000Y-54991000D01*
D10*
X156000000Y-121920000D02*
X156000000Y-126000000D01*
D11*
X134315200Y-64871600D02*
X134315200Y-59000000D01*
X117200000Y-55000000D02*
X117200000Y-59000000D01*
D10*
X127000000Y-121920000D02*
X156000000Y-121920000D01*
D11*
X163617159Y-118799999D02*
X165022843Y-118799999D01*
X165820000Y-117894452D02*
X165820000Y-116305547D01*
X162820001Y-116305548D02*
X162820001Y-117894452D01*
X165022843Y-115400001D02*
X163617159Y-115400001D01*
X163617158Y-118800000D02*
G75*
G03*
X163400281Y-118849485I-1J-499989D01*
G01*
X162751704Y-118146711D02*
G75*
G03*
X163400281Y-118849484I431700J-252258D01*
G01*
X165239721Y-118849484D02*
G75*
G03*
X165022843Y-118799999I-216876J-450505D01*
G01*
X165239721Y-118849483D02*
G75*
G03*
X165888299Y-118146711I216878J450514D01*
G01*
X165820002Y-117894453D02*
G75*
G03*
X165888301Y-118146711I499981J-5D01*
G01*
X162751702Y-118146710D02*
G75*
G03*
X162820001Y-117894452I-431710J252261D01*
G01*
X165888299Y-116053289D02*
G75*
G03*
X165820000Y-116305547I431711J-252261D01*
G01*
X162819999Y-116305548D02*
G75*
G03*
X162751701Y-116053289I-499979J8D01*
G01*
X163400280Y-115350519D02*
G75*
G03*
X162751703Y-116053289I-216880J-450511D01*
G01*
X163400284Y-115350509D02*
G75*
G03*
X163617159Y-115400001I216916J450609D01*
G01*
X165888298Y-116053289D02*
G75*
G03*
X165239721Y-115350516I-431700J252258D01*
G01*
X165022844Y-115400001D02*
G75*
G03*
X165239721Y-115350515I156J499301D01*
G01*
X163617159Y-101699999D02*
X165022843Y-101699999D01*
X165820000Y-100794452D02*
X165820000Y-99205547D01*
X162820001Y-99205548D02*
X162820001Y-100794452D01*
X165022843Y-98300001D02*
X163617159Y-98300001D01*
X163617158Y-101700000D02*
G75*
G03*
X163400281Y-101749485I-1J-499989D01*
G01*
X162751704Y-101046711D02*
G75*
G03*
X163400281Y-101749484I431700J-252258D01*
G01*
X165239721Y-101749484D02*
G75*
G03*
X165022843Y-101699999I-216876J-450505D01*
G01*
X165239721Y-101749483D02*
G75*
G03*
X165888299Y-101046711I216878J450514D01*
G01*
X165820002Y-100794453D02*
G75*
G03*
X165888301Y-101046711I499981J-5D01*
G01*
X162751702Y-101046710D02*
G75*
G03*
X162820001Y-100794452I-431710J252261D01*
G01*
X165888299Y-98953289D02*
G75*
G03*
X165820000Y-99205547I431711J-252261D01*
G01*
X162819999Y-99205548D02*
G75*
G03*
X162751701Y-98953289I-499979J8D01*
G01*
X163400280Y-98250519D02*
G75*
G03*
X162751703Y-98953289I-216880J-450511D01*
G01*
X163400284Y-98250509D02*
G75*
G03*
X163617159Y-98300001I216916J450609D01*
G01*
X165888298Y-98953289D02*
G75*
G03*
X165239721Y-98250516I-431700J252258D01*
G01*
X165022844Y-98300001D02*
G75*
G03*
X165239721Y-98250515I156J499301D01*
G01*
X109702842Y-75000001D02*
X108297158Y-75000001D01*
X107500001Y-75905548D02*
X107500001Y-77494453D01*
X110500000Y-77494452D02*
X110500000Y-75905548D01*
X108297158Y-78399999D02*
X109702842Y-78399999D01*
X109702843Y-75000000D02*
G75*
G03*
X109919720Y-74950515I1J499989D01*
G01*
X110568297Y-75653289D02*
G75*
G03*
X109919720Y-74950516I-431700J252258D01*
G01*
X108080280Y-74950516D02*
G75*
G03*
X108297158Y-75000001I216876J450505D01*
G01*
X108080280Y-74950517D02*
G75*
G03*
X107431702Y-75653289I-216878J-450514D01*
G01*
X107499999Y-75905547D02*
G75*
G03*
X107431700Y-75653289I-499981J5D01*
G01*
X110568299Y-75653290D02*
G75*
G03*
X110500000Y-75905548I431710J-252261D01*
G01*
X107431702Y-77746711D02*
G75*
G03*
X107500001Y-77494453I-431711J252261D01*
G01*
X110500002Y-77494452D02*
G75*
G03*
X110568300Y-77746711I499979J-8D01*
G01*
X109919721Y-78449481D02*
G75*
G03*
X110568298Y-77746711I216880J450511D01*
G01*
X109919717Y-78449491D02*
G75*
G03*
X109702842Y-78399999I-216916J-450609D01*
G01*
X107431703Y-77746711D02*
G75*
G03*
X108080280Y-78449484I431700J-252258D01*
G01*
X108297157Y-78399999D02*
G75*
G03*
X108080280Y-78449485I-156J-499301D01*
G01*
X109782841Y-98300001D02*
X108377157Y-98300001D01*
X107580000Y-99205548D02*
X107580000Y-100794453D01*
X110579999Y-100794452D02*
X110579999Y-99205548D01*
X108377157Y-101699999D02*
X109782841Y-101699999D01*
X109782842Y-98300000D02*
G75*
G03*
X109999719Y-98250515I1J499989D01*
G01*
X110648296Y-98953289D02*
G75*
G03*
X109999719Y-98250516I-431700J252258D01*
G01*
X108160279Y-98250516D02*
G75*
G03*
X108377157Y-98300001I216876J450505D01*
G01*
X108160279Y-98250517D02*
G75*
G03*
X107511701Y-98953289I-216878J-450514D01*
G01*
X107579998Y-99205547D02*
G75*
G03*
X107511699Y-98953289I-499981J5D01*
G01*
X110648298Y-98953290D02*
G75*
G03*
X110579999Y-99205548I431710J-252261D01*
G01*
X107511701Y-101046711D02*
G75*
G03*
X107580000Y-100794453I-431711J252261D01*
G01*
X110580001Y-100794452D02*
G75*
G03*
X110648299Y-101046711I499979J-8D01*
G01*
X109999720Y-101749481D02*
G75*
G03*
X110648297Y-101046711I216880J450511D01*
G01*
X109999716Y-101749491D02*
G75*
G03*
X109782841Y-101699999I-216916J-450609D01*
G01*
X107511702Y-101046711D02*
G75*
G03*
X108160279Y-101749484I431700J-252258D01*
G01*
X108377156Y-101699999D02*
G75*
G03*
X108160279Y-101749485I-156J-499301D01*
G01*
X163567159Y-78399999D02*
X164972843Y-78399999D01*
X165770000Y-77494452D02*
X165770000Y-75905547D01*
X162770001Y-75905548D02*
X162770001Y-77494452D01*
X164972843Y-75000001D02*
X163567159Y-75000001D01*
X163567158Y-78400000D02*
G75*
G03*
X163350281Y-78449485I-1J-499989D01*
G01*
X162701704Y-77746711D02*
G75*
G03*
X163350281Y-78449484I431700J-252258D01*
G01*
X165189721Y-78449484D02*
G75*
G03*
X164972843Y-78399999I-216876J-450505D01*
G01*
X165189721Y-78449483D02*
G75*
G03*
X165838299Y-77746711I216878J450514D01*
G01*
X165770002Y-77494453D02*
G75*
G03*
X165838301Y-77746711I499981J-5D01*
G01*
X162701702Y-77746710D02*
G75*
G03*
X162770001Y-77494452I-431710J252261D01*
G01*
X165838299Y-75653289D02*
G75*
G03*
X165770000Y-75905547I431711J-252261D01*
G01*
X162769999Y-75905548D02*
G75*
G03*
X162701701Y-75653289I-499979J8D01*
G01*
X163350280Y-74950519D02*
G75*
G03*
X162701703Y-75653289I-216880J-450511D01*
G01*
X163350284Y-74950509D02*
G75*
G03*
X163567159Y-75000001I216916J450609D01*
G01*
X165838298Y-75653289D02*
G75*
G03*
X165189721Y-74950516I-431700J252258D01*
G01*
X164972844Y-75000001D02*
G75*
G03*
X165189721Y-74950515I156J499301D01*
G01*
X108782841Y-115400001D02*
X107377157Y-115400001D01*
X106580000Y-116305548D02*
X106580000Y-117894453D01*
X109579999Y-117894452D02*
X109579999Y-116305548D01*
X107377157Y-118799999D02*
X108782841Y-118799999D01*
X108782842Y-115400000D02*
G75*
G03*
X108999719Y-115350515I1J499989D01*
G01*
X109648296Y-116053289D02*
G75*
G03*
X108999719Y-115350516I-431700J252258D01*
G01*
X107160279Y-115350516D02*
G75*
G03*
X107377157Y-115400001I216876J450505D01*
G01*
X107160279Y-115350517D02*
G75*
G03*
X106511701Y-116053289I-216878J-450514D01*
G01*
X106579998Y-116305547D02*
G75*
G03*
X106511699Y-116053289I-499981J5D01*
G01*
X109648298Y-116053290D02*
G75*
G03*
X109579999Y-116305548I431710J-252261D01*
G01*
X106511701Y-118146711D02*
G75*
G03*
X106580000Y-117894453I-431711J252261D01*
G01*
X109580001Y-117894452D02*
G75*
G03*
X109648299Y-118146711I499979J-8D01*
G01*
X108999720Y-118849481D02*
G75*
G03*
X109648297Y-118146711I216880J450511D01*
G01*
X108999716Y-118849491D02*
G75*
G03*
X108782841Y-118799999I-216916J-450609D01*
G01*
X106511702Y-118146711D02*
G75*
G03*
X107160279Y-118849484I431700J-252258D01*
G01*
X107377156Y-118799999D02*
G75*
G03*
X107160279Y-118849485I-156J-499301D01*
G01*
X163517159Y-63224999D02*
X164922843Y-63224999D01*
X165720000Y-62319452D02*
X165720000Y-60730547D01*
X162720001Y-60730548D02*
X162720001Y-62319452D01*
X164922843Y-59825001D02*
X163517159Y-59825001D01*
X163517158Y-63225000D02*
G75*
G03*
X163300281Y-63274485I-1J-499989D01*
G01*
X162651704Y-62571711D02*
G75*
G03*
X163300281Y-63274484I431700J-252258D01*
G01*
X165139721Y-63274484D02*
G75*
G03*
X164922843Y-63224999I-216876J-450505D01*
G01*
X165139721Y-63274483D02*
G75*
G03*
X165788299Y-62571711I216878J450514D01*
G01*
X165720002Y-62319453D02*
G75*
G03*
X165788301Y-62571711I499981J-5D01*
G01*
X162651702Y-62571710D02*
G75*
G03*
X162720001Y-62319452I-431710J252261D01*
G01*
X165788299Y-60478289D02*
G75*
G03*
X165720000Y-60730547I431711J-252261D01*
G01*
X162719999Y-60730548D02*
G75*
G03*
X162651701Y-60478289I-499979J8D01*
G01*
X163300280Y-59775519D02*
G75*
G03*
X162651703Y-60478289I-216880J-450511D01*
G01*
X163300284Y-59775509D02*
G75*
G03*
X163517159Y-59825001I216916J450609D01*
G01*
X165788298Y-60478289D02*
G75*
G03*
X165139721Y-59775516I-431700J252258D01*
G01*
X164922844Y-59825001D02*
G75*
G03*
X165139721Y-59775515I156J499301D01*
G01*
X109782841Y-60300001D02*
X108377157Y-60300001D01*
X107580000Y-61205548D02*
X107580000Y-62794453D01*
X110579999Y-62794452D02*
X110579999Y-61205548D01*
X108377157Y-63699999D02*
X109782841Y-63699999D01*
X109782842Y-60300000D02*
G75*
G03*
X109999719Y-60250515I1J499989D01*
G01*
X110648296Y-60953289D02*
G75*
G03*
X109999719Y-60250516I-431700J252258D01*
G01*
X108160279Y-60250516D02*
G75*
G03*
X108377157Y-60300001I216876J450505D01*
G01*
X108160279Y-60250517D02*
G75*
G03*
X107511701Y-60953289I-216878J-450514D01*
G01*
X107579998Y-61205547D02*
G75*
G03*
X107511699Y-60953289I-499981J5D01*
G01*
X110648298Y-60953290D02*
G75*
G03*
X110579999Y-61205548I431710J-252261D01*
G01*
X107511701Y-63046711D02*
G75*
G03*
X107580000Y-62794453I-431711J252261D01*
G01*
X110580001Y-62794452D02*
G75*
G03*
X110648299Y-63046711I499979J-8D01*
G01*
X109999720Y-63749481D02*
G75*
G03*
X110648297Y-63046711I216880J450511D01*
G01*
X109999716Y-63749491D02*
G75*
G03*
X109782841Y-63699999I-216916J-450609D01*
G01*
X107511702Y-63046711D02*
G75*
G03*
X108160279Y-63749484I431700J-252258D01*
G01*
X108377156Y-63699999D02*
G75*
G03*
X108160279Y-63749485I-156J-499301D01*
G01*
M02*
