G04 #@! TF.GenerationSoftware,KiCad,Pcbnew,(7.0.0)*
G04 #@! TF.CreationDate,2023-03-08T22:05:44+01:00*
G04 #@! TF.ProjectId,S3-27-epaper-touch,53332d32-372d-4657-9061-7065722d746f,rev?*
G04 #@! TF.SameCoordinates,Original*
G04 #@! TF.FileFunction,Paste,Top*
G04 #@! TF.FilePolarity,Positive*
%FSLAX46Y46*%
G04 Gerber Fmt 4.6, Leading zero omitted, Abs format (unit mm)*
G04 Created by KiCad (PCBNEW (7.0.0)) date 2023-03-08 22:05:44*
%MOMM*%
%LPD*%
G01*
G04 APERTURE LIST*
G04 Aperture macros list*
%AMRoundRect*
0 Rectangle with rounded corners*
0 $1 Rounding radius*
0 $2 $3 $4 $5 $6 $7 $8 $9 X,Y pos of 4 corners*
0 Add a 4 corners polygon primitive as box body*
4,1,4,$2,$3,$4,$5,$6,$7,$8,$9,$2,$3,0*
0 Add four circle primitives for the rounded corners*
1,1,$1+$1,$2,$3*
1,1,$1+$1,$4,$5*
1,1,$1+$1,$6,$7*
1,1,$1+$1,$8,$9*
0 Add four rect primitives between the rounded corners*
20,1,$1+$1,$2,$3,$4,$5,0*
20,1,$1+$1,$4,$5,$6,$7,0*
20,1,$1+$1,$6,$7,$8,$9,0*
20,1,$1+$1,$8,$9,$2,$3,0*%
G04 Aperture macros list end*
%ADD10O,1.200000X2.000000*%
%ADD11O,1.200000X1.800000*%
%ADD12R,0.300000X1.300000*%
%ADD13RoundRect,0.250000X-0.350000X-0.450000X0.350000X-0.450000X0.350000X0.450000X-0.350000X0.450000X0*%
%ADD14RoundRect,0.250000X-0.450000X0.350000X-0.450000X-0.350000X0.450000X-0.350000X0.450000X0.350000X0*%
%ADD15RoundRect,0.225000X0.375000X-0.225000X0.375000X0.225000X-0.375000X0.225000X-0.375000X-0.225000X0*%
%ADD16RoundRect,0.250000X0.350000X0.450000X-0.350000X0.450000X-0.350000X-0.450000X0.350000X-0.450000X0*%
%ADD17RoundRect,0.250000X-0.337500X-0.475000X0.337500X-0.475000X0.337500X0.475000X-0.337500X0.475000X0*%
%ADD18RoundRect,0.250000X0.475000X-0.337500X0.475000X0.337500X-0.475000X0.337500X-0.475000X-0.337500X0*%
%ADD19R,0.500000X1.200000*%
%ADD20RoundRect,0.250000X0.337500X0.475000X-0.337500X0.475000X-0.337500X-0.475000X0.337500X-0.475000X0*%
%ADD21RoundRect,0.250000X0.450000X-0.350000X0.450000X0.350000X-0.450000X0.350000X-0.450000X-0.350000X0*%
%ADD22RoundRect,0.250000X0.412500X0.925000X-0.412500X0.925000X-0.412500X-0.925000X0.412500X-0.925000X0*%
%ADD23RoundRect,0.250000X-0.475000X0.337500X-0.475000X-0.337500X0.475000X-0.337500X0.475000X0.337500X0*%
%ADD24R,0.900000X2.000000*%
%ADD25R,1.100000X0.930000*%
%ADD26RoundRect,0.150000X-0.587500X-0.150000X0.587500X-0.150000X0.587500X0.150000X-0.587500X0.150000X0*%
%ADD27R,0.300000X1.500000*%
%ADD28R,1.800000X2.000000*%
%ADD29R,0.900000X1.200000*%
%ADD30RoundRect,0.150000X-0.512500X-0.150000X0.512500X-0.150000X0.512500X0.150000X-0.512500X0.150000X0*%
%ADD31RoundRect,0.250000X-0.412500X-0.925000X0.412500X-0.925000X0.412500X0.925000X-0.412500X0.925000X0*%
%ADD32RoundRect,0.150000X0.150000X-0.512500X0.150000X0.512500X-0.150000X0.512500X-0.150000X-0.512500X0*%
%ADD33R,0.300000X1.000000*%
%ADD34R,0.600000X1.000000*%
%ADD35RoundRect,0.225000X-0.225000X-0.375000X0.225000X-0.375000X0.225000X0.375000X-0.225000X0.375000X0*%
%ADD36R,0.900000X0.900000*%
%ADD37R,1.500000X0.900000*%
%ADD38R,0.900000X1.500000*%
%ADD39RoundRect,0.087500X-0.087500X0.225000X-0.087500X-0.225000X0.087500X-0.225000X0.087500X0.225000X0*%
%ADD40RoundRect,0.087500X-0.225000X0.087500X-0.225000X-0.087500X0.225000X-0.087500X0.225000X0.087500X0*%
%ADD41R,0.700000X0.450000*%
%ADD42R,3.500000X1.600000*%
%ADD43O,0.900000X0.448000*%
%ADD44RoundRect,0.082000X0.328000X0.718000X-0.328000X0.718000X-0.328000X-0.718000X0.328000X-0.718000X0*%
%ADD45RoundRect,0.082000X-0.328000X-0.718000X0.328000X-0.718000X0.328000X0.718000X-0.328000X0.718000X0*%
G04 APERTURE END LIST*
G36*
X116675000Y-119615000D02*
G01*
X116375000Y-119615000D01*
X116375000Y-118316000D01*
X116675000Y-118316000D01*
X116675000Y-119615000D01*
G37*
G36*
X117175000Y-119615000D02*
G01*
X116875000Y-119615000D01*
X116875000Y-118316000D01*
X117175000Y-118316000D01*
X117175000Y-119615000D01*
G37*
G36*
X117675000Y-119615000D02*
G01*
X117375000Y-119615000D01*
X117375000Y-118316000D01*
X117675000Y-118316000D01*
X117675000Y-119615000D01*
G37*
G36*
X118175000Y-119615000D02*
G01*
X117875000Y-119615000D01*
X117875000Y-118316000D01*
X118175000Y-118316000D01*
X118175000Y-119615000D01*
G37*
G36*
X118675000Y-119615000D02*
G01*
X118375000Y-119615000D01*
X118375000Y-118316000D01*
X118675000Y-118316000D01*
X118675000Y-119615000D01*
G37*
G36*
X119175000Y-119615000D02*
G01*
X118875000Y-119615000D01*
X118875000Y-118316000D01*
X119175000Y-118316000D01*
X119175000Y-119615000D01*
G37*
G36*
X119675000Y-119615000D02*
G01*
X119375000Y-119615000D01*
X119375000Y-118316000D01*
X119675000Y-118316000D01*
X119675000Y-119615000D01*
G37*
G36*
X120175000Y-119615000D02*
G01*
X119875000Y-119615000D01*
X119875000Y-118316000D01*
X120175000Y-118316000D01*
X120175000Y-119615000D01*
G37*
G36*
X115325000Y-119616000D02*
G01*
X114825000Y-119616000D01*
X114825000Y-119593000D01*
X114825000Y-118316000D01*
X115325000Y-118316000D01*
X115325000Y-119616000D01*
G37*
G36*
X116125000Y-119616000D02*
G01*
X115625000Y-119616000D01*
X115625000Y-119593000D01*
X115625000Y-118316000D01*
X116125000Y-118316000D01*
X116125000Y-119616000D01*
G37*
G36*
X120925000Y-119616000D02*
G01*
X120425000Y-119616000D01*
X120425000Y-119593000D01*
X120425000Y-118316000D01*
X120925000Y-118316000D01*
X120925000Y-119616000D01*
G37*
G36*
X121725000Y-119616000D02*
G01*
X121225000Y-119616000D01*
X121225000Y-119593000D01*
X121225000Y-118316000D01*
X121725000Y-118316000D01*
X121725000Y-119616000D01*
G37*
D10*
X113949999Y-120033999D03*
D11*
X113949999Y-124233999D03*
D10*
X122599999Y-120033999D03*
D11*
X122599999Y-124233999D03*
D12*
X114924999Y-118965999D03*
X115724999Y-118965999D03*
X117024999Y-118965999D03*
X118024999Y-118965999D03*
X118524999Y-118965999D03*
X119524999Y-118965999D03*
X120824999Y-118965999D03*
X121624999Y-118965999D03*
X121324999Y-118965999D03*
X120524999Y-118965999D03*
X120024999Y-118965999D03*
X119024999Y-118965999D03*
X117524999Y-118965999D03*
X116524999Y-118965999D03*
X116024999Y-118965999D03*
X115224999Y-118965999D03*
D13*
X110328200Y-104851200D03*
X112328200Y-104851200D03*
D14*
X146750000Y-95200000D03*
X146750000Y-97200000D03*
D15*
X136280000Y-74400000D03*
X136280000Y-71100000D03*
D16*
X114825000Y-115925000D03*
X112825000Y-115925000D03*
D17*
X133475000Y-83050000D03*
X135550000Y-83050000D03*
D14*
X157175200Y-117745000D03*
X157175200Y-119745000D03*
D13*
X114239800Y-109448600D03*
X116239800Y-109448600D03*
D18*
X149300000Y-87137500D03*
X149300000Y-85062500D03*
D14*
X160500000Y-117618000D03*
X160500000Y-119618000D03*
D19*
X126999999Y-85599999D03*
X127899999Y-85599999D03*
X128799999Y-85599999D03*
X129699999Y-85599999D03*
X129699999Y-83999999D03*
X128799999Y-83999999D03*
X127899999Y-83999999D03*
X126999999Y-83999999D03*
D20*
X152312500Y-95775000D03*
X150237500Y-95775000D03*
D21*
X116500000Y-77500000D03*
X116500000Y-75500000D03*
D17*
X124712500Y-60000000D03*
X126787500Y-60000000D03*
X155550000Y-88500000D03*
X157625000Y-88500000D03*
D13*
X127870000Y-89500000D03*
X129870000Y-89500000D03*
D22*
X131137500Y-78800000D03*
X128062500Y-78800000D03*
D20*
X155787500Y-85650000D03*
X153712500Y-85650000D03*
D23*
X158400000Y-69962500D03*
X158400000Y-72037500D03*
D13*
X134300000Y-89530000D03*
X136300000Y-89530000D03*
D18*
X156100000Y-71000000D03*
X156100000Y-68925000D03*
D24*
X128019999Y-92248999D03*
X131019999Y-92248999D03*
X132519999Y-92248999D03*
D25*
X134069999Y-92960999D03*
X134069999Y-95230999D03*
X126469999Y-95230999D03*
X126469999Y-92960999D03*
D26*
X114607100Y-105831600D03*
X114607100Y-107731600D03*
X116482100Y-106781600D03*
D13*
X114189000Y-111531400D03*
X116189000Y-111531400D03*
D17*
X112983100Y-113893600D03*
X115058100Y-113893600D03*
D16*
X126600000Y-62800000D03*
X124600000Y-62800000D03*
D27*
X152099999Y-79773999D03*
X151601999Y-79775999D03*
X151101999Y-79775999D03*
X150601999Y-79775999D03*
X150101999Y-79775999D03*
X149601999Y-79775999D03*
X149101999Y-79775999D03*
X148601999Y-79775999D03*
X148101999Y-79775999D03*
X147601999Y-79775999D03*
X147101999Y-79775999D03*
X146601999Y-79775999D03*
X146101999Y-79775999D03*
X145601999Y-79775999D03*
X145101999Y-79775999D03*
X144601999Y-79775999D03*
X144101999Y-79775999D03*
X143601999Y-79775999D03*
X143101999Y-79775999D03*
X142601999Y-79775999D03*
X142101999Y-79775999D03*
X141601999Y-79775999D03*
X141101999Y-79775999D03*
X140601999Y-79775999D03*
D28*
X153749999Y-76623999D03*
X138949999Y-76623999D03*
D17*
X114126100Y-101854000D03*
X116201100Y-101854000D03*
D20*
X153737500Y-88500000D03*
X151662500Y-88500000D03*
D14*
X114500000Y-75250000D03*
X114500000Y-77250000D03*
D29*
X155799999Y-90849999D03*
X152499999Y-90849999D03*
D13*
X160500000Y-111250000D03*
X162500000Y-111250000D03*
X123250000Y-84500000D03*
X125250000Y-84500000D03*
X114500000Y-92750000D03*
X116500000Y-92750000D03*
D18*
X122250000Y-108037500D03*
X122250000Y-105962500D03*
D30*
X119187500Y-112600000D03*
X119187500Y-113550000D03*
X119187500Y-114500000D03*
X121462500Y-114500000D03*
X121462500Y-112600000D03*
D31*
X157925000Y-122301000D03*
X161000000Y-122301000D03*
D32*
X110479800Y-109214500D03*
X111429800Y-109214500D03*
X112379800Y-109214500D03*
X112379800Y-106939500D03*
X111429800Y-106939500D03*
X110479800Y-106939500D03*
D16*
X135900000Y-85850000D03*
X133900000Y-85850000D03*
D33*
X118149999Y-90249999D03*
X118649999Y-90249999D03*
X119149999Y-90249999D03*
X119649999Y-90249999D03*
X120149999Y-90249999D03*
X120649999Y-90249999D03*
D34*
X121649999Y-87749999D03*
X117149999Y-87749999D03*
D13*
X120488200Y-116560600D03*
X122488200Y-116560600D03*
X128500000Y-81750000D03*
X130500000Y-81750000D03*
X116750000Y-116325000D03*
X118750000Y-116325000D03*
D35*
X106850000Y-112000000D03*
X110150000Y-112000000D03*
D18*
X115250000Y-87325000D03*
X115250000Y-85250000D03*
X142600000Y-86237500D03*
X142600000Y-84162500D03*
D36*
X145375999Y-111889999D03*
X145375999Y-110489999D03*
X145375999Y-109089999D03*
X143975999Y-111889999D03*
X143975999Y-110489999D03*
X143975999Y-109089999D03*
X142575999Y-111889999D03*
X142575999Y-110489999D03*
X142575999Y-109089999D03*
D37*
X151225999Y-118209999D03*
X151225999Y-116939999D03*
X151225999Y-115669999D03*
X151225999Y-114399999D03*
X151225999Y-113129999D03*
X151225999Y-111859999D03*
X151225999Y-110589999D03*
X151225999Y-109319999D03*
X151225999Y-108049999D03*
X151225999Y-106779999D03*
X151225999Y-105509999D03*
X151225999Y-104239999D03*
X151225999Y-102969999D03*
X151225999Y-101699999D03*
D38*
X149460999Y-100449999D03*
X148190999Y-100449999D03*
X146920999Y-100449999D03*
X145650999Y-100449999D03*
X144380999Y-100449999D03*
X143110999Y-100449999D03*
X141840999Y-100449999D03*
X140570999Y-100449999D03*
X139300999Y-100449999D03*
X138030999Y-100449999D03*
X136760999Y-100449999D03*
X135490999Y-100449999D03*
D37*
X133725999Y-101699999D03*
X133725999Y-102969999D03*
X133725999Y-104239999D03*
X133725999Y-105509999D03*
X133725999Y-106779999D03*
X133725999Y-108049999D03*
X133725999Y-109319999D03*
X133725999Y-110589999D03*
X133725999Y-111859999D03*
X133725999Y-113129999D03*
X133725999Y-114399999D03*
X133725999Y-115669999D03*
X133725999Y-116939999D03*
X133725999Y-118209999D03*
D39*
X115500000Y-80925000D03*
X115000000Y-80925000D03*
X114500000Y-80925000D03*
X114000000Y-80925000D03*
D40*
X113837500Y-81587500D03*
X113837500Y-82087500D03*
X113837500Y-82587500D03*
D39*
X114000000Y-83250000D03*
X114500000Y-83250000D03*
X115000000Y-83250000D03*
X115500000Y-83250000D03*
D40*
X115662500Y-82587500D03*
X115662500Y-82087500D03*
X115662500Y-81587500D03*
D29*
X149999999Y-93449999D03*
X153299999Y-93449999D03*
D13*
X114087400Y-103809800D03*
X116087400Y-103809800D03*
D20*
X150137500Y-90800000D03*
X148062500Y-90800000D03*
D31*
X133162500Y-78800000D03*
X136237500Y-78800000D03*
D41*
X137649999Y-85849999D03*
X137649999Y-87149999D03*
X139649999Y-86499999D03*
D20*
X152323800Y-97815400D03*
X150248800Y-97815400D03*
D13*
X123250000Y-87250000D03*
X125250000Y-87250000D03*
D42*
X156649999Y-96449999D03*
X156649999Y-99649999D03*
D29*
X158199999Y-93949999D03*
X154899999Y-93949999D03*
D43*
X132768799Y-59810799D03*
X132768799Y-60610799D03*
X132768799Y-61410799D03*
X132768799Y-62210799D03*
X129968799Y-62210799D03*
X129968799Y-61410799D03*
X129968799Y-60610799D03*
X129968799Y-59810799D03*
D18*
X151550000Y-86037500D03*
X151550000Y-83962500D03*
D21*
X154432000Y-119700000D03*
X154432000Y-117700000D03*
D44*
X165070001Y-119700000D03*
X163570001Y-119700000D03*
X163570001Y-114500000D03*
X165070001Y-114500000D03*
X165070001Y-102600000D03*
X163570001Y-102600000D03*
X163570001Y-97400000D03*
X165070001Y-97400000D03*
D45*
X108250000Y-74100000D03*
X109750000Y-74100000D03*
X109750000Y-79300000D03*
X108250000Y-79300000D03*
X108329999Y-97400000D03*
X109829999Y-97400000D03*
X109829999Y-102600000D03*
X108329999Y-102600000D03*
D44*
X165020001Y-79300000D03*
X163520001Y-79300000D03*
X163520001Y-74100000D03*
X165020001Y-74100000D03*
D45*
X107329999Y-114500000D03*
X108829999Y-114500000D03*
X108829999Y-119700000D03*
X107329999Y-119700000D03*
D44*
X164970001Y-64125000D03*
X163470001Y-64125000D03*
X163470001Y-58925000D03*
X164970001Y-58925000D03*
D45*
X108329999Y-59400000D03*
X109829999Y-59400000D03*
X109829999Y-64600000D03*
X108329999Y-64600000D03*
M02*
