G04 #@! TF.GenerationSoftware,KiCad,Pcbnew,(7.0.0)*
G04 #@! TF.CreationDate,2023-03-27T20:50:48+02:00*
G04 #@! TF.ProjectId,S3-27-epaper-touch,53332d32-372d-4657-9061-7065722d746f,rev?*
G04 #@! TF.SameCoordinates,Original*
G04 #@! TF.FileFunction,AssemblyDrawing,Bot*
%FSLAX46Y46*%
G04 Gerber Fmt 4.6, Leading zero omitted, Abs format (unit mm)*
G04 Created by KiCad (PCBNEW (7.0.0)) date 2023-03-27 20:50:48*
%MOMM*%
%LPD*%
G01*
G04 APERTURE LIST*
%ADD10C,0.050000*%
%ADD11C,0.080000*%
%ADD12C,0.150000*%
%ADD13C,0.100000*%
G04 APERTURE END LIST*
D10*
X121330476Y-116348038D02*
X121360952Y-116332800D01*
X121360952Y-116332800D02*
X121391428Y-116302323D01*
X121391428Y-116302323D02*
X121437142Y-116256609D01*
X121437142Y-116256609D02*
X121467619Y-116241371D01*
X121467619Y-116241371D02*
X121498095Y-116241371D01*
X121482857Y-116317561D02*
X121513333Y-116302323D01*
X121513333Y-116302323D02*
X121543809Y-116271847D01*
X121543809Y-116271847D02*
X121559047Y-116210895D01*
X121559047Y-116210895D02*
X121559047Y-116104228D01*
X121559047Y-116104228D02*
X121543809Y-116043276D01*
X121543809Y-116043276D02*
X121513333Y-116012800D01*
X121513333Y-116012800D02*
X121482857Y-115997561D01*
X121482857Y-115997561D02*
X121421904Y-115997561D01*
X121421904Y-115997561D02*
X121391428Y-116012800D01*
X121391428Y-116012800D02*
X121360952Y-116043276D01*
X121360952Y-116043276D02*
X121345714Y-116104228D01*
X121345714Y-116104228D02*
X121345714Y-116210895D01*
X121345714Y-116210895D02*
X121360952Y-116271847D01*
X121360952Y-116271847D02*
X121391428Y-116302323D01*
X121391428Y-116302323D02*
X121421904Y-116317561D01*
X121421904Y-116317561D02*
X121482857Y-116317561D01*
X121239047Y-115997561D02*
X121040952Y-115997561D01*
X121040952Y-115997561D02*
X121147619Y-116119466D01*
X121147619Y-116119466D02*
X121101904Y-116119466D01*
X121101904Y-116119466D02*
X121071428Y-116134704D01*
X121071428Y-116134704D02*
X121056190Y-116149942D01*
X121056190Y-116149942D02*
X121040952Y-116180419D01*
X121040952Y-116180419D02*
X121040952Y-116256609D01*
X121040952Y-116256609D02*
X121056190Y-116287085D01*
X121056190Y-116287085D02*
X121071428Y-116302323D01*
X121071428Y-116302323D02*
X121101904Y-116317561D01*
X121101904Y-116317561D02*
X121193333Y-116317561D01*
X121193333Y-116317561D02*
X121223809Y-116302323D01*
X121223809Y-116302323D02*
X121239047Y-116287085D01*
D11*
X117821428Y-118183690D02*
X117988094Y-117945595D01*
X118107142Y-118183690D02*
X118107142Y-117683690D01*
X118107142Y-117683690D02*
X117916666Y-117683690D01*
X117916666Y-117683690D02*
X117869047Y-117707500D01*
X117869047Y-117707500D02*
X117845237Y-117731309D01*
X117845237Y-117731309D02*
X117821428Y-117778928D01*
X117821428Y-117778928D02*
X117821428Y-117850357D01*
X117821428Y-117850357D02*
X117845237Y-117897976D01*
X117845237Y-117897976D02*
X117869047Y-117921785D01*
X117869047Y-117921785D02*
X117916666Y-117945595D01*
X117916666Y-117945595D02*
X118107142Y-117945595D01*
X117630951Y-117731309D02*
X117607142Y-117707500D01*
X117607142Y-117707500D02*
X117559523Y-117683690D01*
X117559523Y-117683690D02*
X117440475Y-117683690D01*
X117440475Y-117683690D02*
X117392856Y-117707500D01*
X117392856Y-117707500D02*
X117369047Y-117731309D01*
X117369047Y-117731309D02*
X117345237Y-117778928D01*
X117345237Y-117778928D02*
X117345237Y-117826547D01*
X117345237Y-117826547D02*
X117369047Y-117897976D01*
X117369047Y-117897976D02*
X117654761Y-118183690D01*
X117654761Y-118183690D02*
X117345237Y-118183690D01*
X117059523Y-117897976D02*
X117107142Y-117874166D01*
X117107142Y-117874166D02*
X117130952Y-117850357D01*
X117130952Y-117850357D02*
X117154761Y-117802738D01*
X117154761Y-117802738D02*
X117154761Y-117778928D01*
X117154761Y-117778928D02*
X117130952Y-117731309D01*
X117130952Y-117731309D02*
X117107142Y-117707500D01*
X117107142Y-117707500D02*
X117059523Y-117683690D01*
X117059523Y-117683690D02*
X116964285Y-117683690D01*
X116964285Y-117683690D02*
X116916666Y-117707500D01*
X116916666Y-117707500D02*
X116892857Y-117731309D01*
X116892857Y-117731309D02*
X116869047Y-117778928D01*
X116869047Y-117778928D02*
X116869047Y-117802738D01*
X116869047Y-117802738D02*
X116892857Y-117850357D01*
X116892857Y-117850357D02*
X116916666Y-117874166D01*
X116916666Y-117874166D02*
X116964285Y-117897976D01*
X116964285Y-117897976D02*
X117059523Y-117897976D01*
X117059523Y-117897976D02*
X117107142Y-117921785D01*
X117107142Y-117921785D02*
X117130952Y-117945595D01*
X117130952Y-117945595D02*
X117154761Y-117993214D01*
X117154761Y-117993214D02*
X117154761Y-118088452D01*
X117154761Y-118088452D02*
X117130952Y-118136071D01*
X117130952Y-118136071D02*
X117107142Y-118159880D01*
X117107142Y-118159880D02*
X117059523Y-118183690D01*
X117059523Y-118183690D02*
X116964285Y-118183690D01*
X116964285Y-118183690D02*
X116916666Y-118159880D01*
X116916666Y-118159880D02*
X116892857Y-118136071D01*
X116892857Y-118136071D02*
X116869047Y-118088452D01*
X116869047Y-118088452D02*
X116869047Y-117993214D01*
X116869047Y-117993214D02*
X116892857Y-117945595D01*
X116892857Y-117945595D02*
X116916666Y-117921785D01*
X116916666Y-117921785D02*
X116964285Y-117897976D01*
X118121428Y-124183690D02*
X118288094Y-123945595D01*
X118407142Y-124183690D02*
X118407142Y-123683690D01*
X118407142Y-123683690D02*
X118216666Y-123683690D01*
X118216666Y-123683690D02*
X118169047Y-123707500D01*
X118169047Y-123707500D02*
X118145237Y-123731309D01*
X118145237Y-123731309D02*
X118121428Y-123778928D01*
X118121428Y-123778928D02*
X118121428Y-123850357D01*
X118121428Y-123850357D02*
X118145237Y-123897976D01*
X118145237Y-123897976D02*
X118169047Y-123921785D01*
X118169047Y-123921785D02*
X118216666Y-123945595D01*
X118216666Y-123945595D02*
X118407142Y-123945595D01*
X117930951Y-123731309D02*
X117907142Y-123707500D01*
X117907142Y-123707500D02*
X117859523Y-123683690D01*
X117859523Y-123683690D02*
X117740475Y-123683690D01*
X117740475Y-123683690D02*
X117692856Y-123707500D01*
X117692856Y-123707500D02*
X117669047Y-123731309D01*
X117669047Y-123731309D02*
X117645237Y-123778928D01*
X117645237Y-123778928D02*
X117645237Y-123826547D01*
X117645237Y-123826547D02*
X117669047Y-123897976D01*
X117669047Y-123897976D02*
X117954761Y-124183690D01*
X117954761Y-124183690D02*
X117645237Y-124183690D01*
X117216666Y-123683690D02*
X117311904Y-123683690D01*
X117311904Y-123683690D02*
X117359523Y-123707500D01*
X117359523Y-123707500D02*
X117383333Y-123731309D01*
X117383333Y-123731309D02*
X117430952Y-123802738D01*
X117430952Y-123802738D02*
X117454761Y-123897976D01*
X117454761Y-123897976D02*
X117454761Y-124088452D01*
X117454761Y-124088452D02*
X117430952Y-124136071D01*
X117430952Y-124136071D02*
X117407142Y-124159880D01*
X117407142Y-124159880D02*
X117359523Y-124183690D01*
X117359523Y-124183690D02*
X117264285Y-124183690D01*
X117264285Y-124183690D02*
X117216666Y-124159880D01*
X117216666Y-124159880D02*
X117192857Y-124136071D01*
X117192857Y-124136071D02*
X117169047Y-124088452D01*
X117169047Y-124088452D02*
X117169047Y-123969404D01*
X117169047Y-123969404D02*
X117192857Y-123921785D01*
X117192857Y-123921785D02*
X117216666Y-123897976D01*
X117216666Y-123897976D02*
X117264285Y-123874166D01*
X117264285Y-123874166D02*
X117359523Y-123874166D01*
X117359523Y-123874166D02*
X117407142Y-123897976D01*
X117407142Y-123897976D02*
X117430952Y-123921785D01*
X117430952Y-123921785D02*
X117454761Y-123969404D01*
D12*
X116567380Y-112735714D02*
X115567380Y-112735714D01*
X115567380Y-112735714D02*
X115567380Y-112973809D01*
X115567380Y-112973809D02*
X115615000Y-113116666D01*
X115615000Y-113116666D02*
X115710238Y-113211904D01*
X115710238Y-113211904D02*
X115805476Y-113259523D01*
X115805476Y-113259523D02*
X115995952Y-113307142D01*
X115995952Y-113307142D02*
X116138809Y-113307142D01*
X116138809Y-113307142D02*
X116329285Y-113259523D01*
X116329285Y-113259523D02*
X116424523Y-113211904D01*
X116424523Y-113211904D02*
X116519761Y-113116666D01*
X116519761Y-113116666D02*
X116567380Y-112973809D01*
X116567380Y-112973809D02*
X116567380Y-112735714D01*
X116567380Y-114259523D02*
X116567380Y-113688095D01*
X116567380Y-113973809D02*
X115567380Y-113973809D01*
X115567380Y-113973809D02*
X115710238Y-113878571D01*
X115710238Y-113878571D02*
X115805476Y-113783333D01*
X115805476Y-113783333D02*
X115853095Y-113688095D01*
X115900714Y-115116666D02*
X116567380Y-115116666D01*
X115519761Y-114878571D02*
X116234047Y-114640476D01*
X116234047Y-114640476D02*
X116234047Y-115259523D01*
X137167380Y-71011905D02*
X137167380Y-71583333D01*
X138167380Y-71297619D02*
X137167380Y-71297619D01*
X138167380Y-71916667D02*
X137167380Y-71916667D01*
X137167380Y-71916667D02*
X137167380Y-72297619D01*
X137167380Y-72297619D02*
X137215000Y-72392857D01*
X137215000Y-72392857D02*
X137262619Y-72440476D01*
X137262619Y-72440476D02*
X137357857Y-72488095D01*
X137357857Y-72488095D02*
X137500714Y-72488095D01*
X137500714Y-72488095D02*
X137595952Y-72440476D01*
X137595952Y-72440476D02*
X137643571Y-72392857D01*
X137643571Y-72392857D02*
X137691190Y-72297619D01*
X137691190Y-72297619D02*
X137691190Y-71916667D01*
X138167380Y-73440476D02*
X138167380Y-72869048D01*
X138167380Y-73154762D02*
X137167380Y-73154762D01*
X137167380Y-73154762D02*
X137310238Y-73059524D01*
X137310238Y-73059524D02*
X137405476Y-72964286D01*
X137405476Y-72964286D02*
X137453095Y-72869048D01*
X137167380Y-74059524D02*
X137167380Y-74154762D01*
X137167380Y-74154762D02*
X137215000Y-74250000D01*
X137215000Y-74250000D02*
X137262619Y-74297619D01*
X137262619Y-74297619D02*
X137357857Y-74345238D01*
X137357857Y-74345238D02*
X137548333Y-74392857D01*
X137548333Y-74392857D02*
X137786428Y-74392857D01*
X137786428Y-74392857D02*
X137976904Y-74345238D01*
X137976904Y-74345238D02*
X138072142Y-74297619D01*
X138072142Y-74297619D02*
X138119761Y-74250000D01*
X138119761Y-74250000D02*
X138167380Y-74154762D01*
X138167380Y-74154762D02*
X138167380Y-74059524D01*
X138167380Y-74059524D02*
X138119761Y-73964286D01*
X138119761Y-73964286D02*
X138072142Y-73916667D01*
X138072142Y-73916667D02*
X137976904Y-73869048D01*
X137976904Y-73869048D02*
X137786428Y-73821429D01*
X137786428Y-73821429D02*
X137548333Y-73821429D01*
X137548333Y-73821429D02*
X137357857Y-73869048D01*
X137357857Y-73869048D02*
X137262619Y-73916667D01*
X137262619Y-73916667D02*
X137215000Y-73964286D01*
X137215000Y-73964286D02*
X137167380Y-74059524D01*
X165142857Y-94467380D02*
X165476190Y-93991190D01*
X165714285Y-94467380D02*
X165714285Y-93467380D01*
X165714285Y-93467380D02*
X165333333Y-93467380D01*
X165333333Y-93467380D02*
X165238095Y-93515000D01*
X165238095Y-93515000D02*
X165190476Y-93562619D01*
X165190476Y-93562619D02*
X165142857Y-93657857D01*
X165142857Y-93657857D02*
X165142857Y-93800714D01*
X165142857Y-93800714D02*
X165190476Y-93895952D01*
X165190476Y-93895952D02*
X165238095Y-93943571D01*
X165238095Y-93943571D02*
X165333333Y-93991190D01*
X165333333Y-93991190D02*
X165714285Y-93991190D01*
X164761904Y-93562619D02*
X164714285Y-93515000D01*
X164714285Y-93515000D02*
X164619047Y-93467380D01*
X164619047Y-93467380D02*
X164380952Y-93467380D01*
X164380952Y-93467380D02*
X164285714Y-93515000D01*
X164285714Y-93515000D02*
X164238095Y-93562619D01*
X164238095Y-93562619D02*
X164190476Y-93657857D01*
X164190476Y-93657857D02*
X164190476Y-93753095D01*
X164190476Y-93753095D02*
X164238095Y-93895952D01*
X164238095Y-93895952D02*
X164809523Y-94467380D01*
X164809523Y-94467380D02*
X164190476Y-94467380D01*
X163857142Y-93467380D02*
X163238095Y-93467380D01*
X163238095Y-93467380D02*
X163571428Y-93848333D01*
X163571428Y-93848333D02*
X163428571Y-93848333D01*
X163428571Y-93848333D02*
X163333333Y-93895952D01*
X163333333Y-93895952D02*
X163285714Y-93943571D01*
X163285714Y-93943571D02*
X163238095Y-94038809D01*
X163238095Y-94038809D02*
X163238095Y-94276904D01*
X163238095Y-94276904D02*
X163285714Y-94372142D01*
X163285714Y-94372142D02*
X163333333Y-94419761D01*
X163333333Y-94419761D02*
X163428571Y-94467380D01*
X163428571Y-94467380D02*
X163714285Y-94467380D01*
X163714285Y-94467380D02*
X163809523Y-94419761D01*
X163809523Y-94419761D02*
X163857142Y-94372142D01*
D11*
X120983690Y-122678571D02*
X120745595Y-122511905D01*
X120983690Y-122392857D02*
X120483690Y-122392857D01*
X120483690Y-122392857D02*
X120483690Y-122583333D01*
X120483690Y-122583333D02*
X120507500Y-122630952D01*
X120507500Y-122630952D02*
X120531309Y-122654762D01*
X120531309Y-122654762D02*
X120578928Y-122678571D01*
X120578928Y-122678571D02*
X120650357Y-122678571D01*
X120650357Y-122678571D02*
X120697976Y-122654762D01*
X120697976Y-122654762D02*
X120721785Y-122630952D01*
X120721785Y-122630952D02*
X120745595Y-122583333D01*
X120745595Y-122583333D02*
X120745595Y-122392857D01*
X120531309Y-122869048D02*
X120507500Y-122892857D01*
X120507500Y-122892857D02*
X120483690Y-122940476D01*
X120483690Y-122940476D02*
X120483690Y-123059524D01*
X120483690Y-123059524D02*
X120507500Y-123107143D01*
X120507500Y-123107143D02*
X120531309Y-123130952D01*
X120531309Y-123130952D02*
X120578928Y-123154762D01*
X120578928Y-123154762D02*
X120626547Y-123154762D01*
X120626547Y-123154762D02*
X120697976Y-123130952D01*
X120697976Y-123130952D02*
X120983690Y-122845238D01*
X120983690Y-122845238D02*
X120983690Y-123154762D01*
X120483690Y-123321428D02*
X120483690Y-123654761D01*
X120483690Y-123654761D02*
X120983690Y-123440476D01*
D12*
X117938094Y-76717380D02*
X117366666Y-76717380D01*
X117652380Y-77717380D02*
X117652380Y-76717380D01*
X117033332Y-77717380D02*
X117033332Y-76717380D01*
X117033332Y-76717380D02*
X116652380Y-76717380D01*
X116652380Y-76717380D02*
X116557142Y-76765000D01*
X116557142Y-76765000D02*
X116509523Y-76812619D01*
X116509523Y-76812619D02*
X116461904Y-76907857D01*
X116461904Y-76907857D02*
X116461904Y-77050714D01*
X116461904Y-77050714D02*
X116509523Y-77145952D01*
X116509523Y-77145952D02*
X116557142Y-77193571D01*
X116557142Y-77193571D02*
X116652380Y-77241190D01*
X116652380Y-77241190D02*
X117033332Y-77241190D01*
X115509523Y-77717380D02*
X116080951Y-77717380D01*
X115795237Y-77717380D02*
X115795237Y-76717380D01*
X115795237Y-76717380D02*
X115890475Y-76860238D01*
X115890475Y-76860238D02*
X115985713Y-76955476D01*
X115985713Y-76955476D02*
X116080951Y-77003095D01*
X115176189Y-76717380D02*
X114557142Y-76717380D01*
X114557142Y-76717380D02*
X114890475Y-77098333D01*
X114890475Y-77098333D02*
X114747618Y-77098333D01*
X114747618Y-77098333D02*
X114652380Y-77145952D01*
X114652380Y-77145952D02*
X114604761Y-77193571D01*
X114604761Y-77193571D02*
X114557142Y-77288809D01*
X114557142Y-77288809D02*
X114557142Y-77526904D01*
X114557142Y-77526904D02*
X114604761Y-77622142D01*
X114604761Y-77622142D02*
X114652380Y-77669761D01*
X114652380Y-77669761D02*
X114747618Y-77717380D01*
X114747618Y-77717380D02*
X115033332Y-77717380D01*
X115033332Y-77717380D02*
X115128570Y-77669761D01*
X115128570Y-77669761D02*
X115176189Y-77622142D01*
X111417380Y-114390476D02*
X112131666Y-114390476D01*
X112131666Y-114390476D02*
X112274523Y-114342857D01*
X112274523Y-114342857D02*
X112369761Y-114247619D01*
X112369761Y-114247619D02*
X112417380Y-114104762D01*
X112417380Y-114104762D02*
X112417380Y-114009524D01*
X112417380Y-115390476D02*
X112417380Y-114819048D01*
X112417380Y-115104762D02*
X111417380Y-115104762D01*
X111417380Y-115104762D02*
X111560238Y-115009524D01*
X111560238Y-115009524D02*
X111655476Y-114914286D01*
X111655476Y-114914286D02*
X111703095Y-114819048D01*
X112417380Y-116342857D02*
X112417380Y-115771429D01*
X112417380Y-116057143D02*
X111417380Y-116057143D01*
X111417380Y-116057143D02*
X111560238Y-115961905D01*
X111560238Y-115961905D02*
X111655476Y-115866667D01*
X111655476Y-115866667D02*
X111703095Y-115771429D01*
X143867380Y-87538095D02*
X144676904Y-87538095D01*
X144676904Y-87538095D02*
X144772142Y-87585714D01*
X144772142Y-87585714D02*
X144819761Y-87633333D01*
X144819761Y-87633333D02*
X144867380Y-87728571D01*
X144867380Y-87728571D02*
X144867380Y-87919047D01*
X144867380Y-87919047D02*
X144819761Y-88014285D01*
X144819761Y-88014285D02*
X144772142Y-88061904D01*
X144772142Y-88061904D02*
X144676904Y-88109523D01*
X144676904Y-88109523D02*
X143867380Y-88109523D01*
X143867380Y-88490476D02*
X143867380Y-89157142D01*
X143867380Y-89157142D02*
X144867380Y-88728571D01*
D13*
X120650000Y-114750000D02*
X120650000Y-117325000D01*
X120650000Y-117325000D02*
X120975000Y-117650000D01*
X120975000Y-117650000D02*
X121950000Y-117650000D01*
X121950000Y-114750000D02*
X120650000Y-114750000D01*
X121950000Y-117650000D02*
X121950000Y-114750000D01*
X118500000Y-118625000D02*
X118500000Y-117375000D01*
X118500000Y-117375000D02*
X116500000Y-117375000D01*
X116500000Y-118625000D02*
X118500000Y-118625000D01*
X116500000Y-117375000D02*
X116500000Y-118625000D01*
X118800000Y-124625000D02*
X118800000Y-123375000D01*
X118800000Y-123375000D02*
X116800000Y-123375000D01*
X116800000Y-124625000D02*
X118800000Y-124625000D01*
X116800000Y-123375000D02*
X116800000Y-124625000D01*
X119100000Y-112550000D02*
X117300000Y-112550000D01*
X117300000Y-112550000D02*
X117300000Y-115350000D01*
X118200000Y-113200000D02*
X118200000Y-113600000D01*
X118200000Y-113600000D02*
X118750000Y-113600000D01*
X118200000Y-113600000D02*
X117650000Y-113600000D01*
X118200000Y-113600000D02*
X117800000Y-114200000D01*
X118600000Y-114200000D02*
X118200000Y-113600000D01*
X118200000Y-114200000D02*
X118200000Y-114700000D01*
X117800000Y-114200000D02*
X118600000Y-114200000D01*
X119100000Y-115350000D02*
X119100000Y-112550000D01*
X117300000Y-115350000D02*
X119100000Y-115350000D01*
X139070000Y-74020000D02*
X139070000Y-72115000D01*
X139070000Y-72115000D02*
X138435000Y-71480000D01*
X138435000Y-71480000D02*
X136530000Y-71480000D01*
X136530000Y-74020000D02*
X139070000Y-74020000D01*
X136530000Y-71480000D02*
X136530000Y-74020000D01*
X167500000Y-92350000D02*
X161500000Y-92350000D01*
X165400000Y-98400000D02*
X163600000Y-98400000D01*
X165400000Y-97800000D02*
X165400000Y-98400000D01*
X165400000Y-97200000D02*
X163600000Y-97200000D01*
X165400000Y-96600000D02*
X165400000Y-97200000D01*
X165400000Y-96000000D02*
X163600000Y-96000000D01*
X165400000Y-95400000D02*
X165400000Y-96000000D01*
X165400000Y-94800000D02*
X163600000Y-94800000D01*
X163600000Y-97800000D02*
X165400000Y-97800000D01*
X163600000Y-97200000D02*
X163600000Y-97800000D01*
X163600000Y-96600000D02*
X165400000Y-96600000D01*
X163600000Y-96000000D02*
X163600000Y-96600000D01*
X163600000Y-95400000D02*
X165400000Y-95400000D01*
X163600000Y-94800000D02*
X163600000Y-95400000D01*
X161500000Y-100850000D02*
X167500000Y-100850000D01*
X167499999Y-100849999D02*
G75*
G03*
X167541749Y-92379780I-2999999J4249999D01*
G01*
X161500001Y-92350001D02*
G75*
G03*
X161458251Y-100820220I2999999J-4249999D01*
G01*
X120175000Y-124000000D02*
X121425000Y-124000000D01*
X121425000Y-124000000D02*
X121425000Y-122000000D01*
X120175000Y-122000000D02*
X120175000Y-124000000D01*
X121425000Y-122000000D02*
X120175000Y-122000000D01*
X109600000Y-118075000D02*
X109600000Y-112325000D01*
X113650000Y-118075000D02*
X109600000Y-118075000D01*
X113650000Y-118075000D02*
X113650000Y-112325000D01*
X113650000Y-116325000D02*
X112942893Y-115825000D01*
X112942893Y-115825000D02*
X113650000Y-115325000D01*
X113650000Y-112325000D02*
X109600000Y-112325000D01*
X136500000Y-96300000D02*
X151500000Y-96300000D01*
X136500000Y-96300000D02*
X136500000Y-80300000D01*
X152500000Y-95300000D02*
X151500000Y-96300000D01*
X152500000Y-95300000D02*
X152500000Y-80300000D01*
X136500000Y-80300000D02*
X152500000Y-80300000D01*
M02*
