G04 #@! TF.GenerationSoftware,KiCad,Pcbnew,(7.0.0)*
G04 #@! TF.CreationDate,2023-03-12T16:39:35+01:00*
G04 #@! TF.ProjectId,S3-27-epaper-touch,53332d32-372d-4657-9061-7065722d746f,rev?*
G04 #@! TF.SameCoordinates,Original*
G04 #@! TF.FileFunction,Soldermask,Top*
G04 #@! TF.FilePolarity,Negative*
%FSLAX46Y46*%
G04 Gerber Fmt 4.6, Leading zero omitted, Abs format (unit mm)*
G04 Created by KiCad (PCBNEW (7.0.0)) date 2023-03-12 16:39:35*
%MOMM*%
%LPD*%
G01*
G04 APERTURE LIST*
G04 Aperture macros list*
%AMRoundRect*
0 Rectangle with rounded corners*
0 $1 Rounding radius*
0 $2 $3 $4 $5 $6 $7 $8 $9 X,Y pos of 4 corners*
0 Add a 4 corners polygon primitive as box body*
4,1,4,$2,$3,$4,$5,$6,$7,$8,$9,$2,$3,0*
0 Add four circle primitives for the rounded corners*
1,1,$1+$1,$2,$3*
1,1,$1+$1,$4,$5*
1,1,$1+$1,$6,$7*
1,1,$1+$1,$8,$9*
0 Add four rect primitives between the rounded corners*
20,1,$1+$1,$2,$3,$4,$5,0*
20,1,$1+$1,$4,$5,$6,$7,0*
20,1,$1+$1,$6,$7,$8,$9,0*
20,1,$1+$1,$8,$9,$2,$3,0*%
%AMFreePoly0*
4,1,19,0.500000,-0.750000,0.000000,-0.750000,0.000000,-0.744911,-0.071157,-0.744911,-0.207708,-0.704816,-0.327430,-0.627875,-0.420627,-0.520320,-0.479746,-0.390866,-0.500000,-0.250000,-0.500000,0.250000,-0.479746,0.390866,-0.420627,0.520320,-0.327430,0.627875,-0.207708,0.704816,-0.071157,0.744911,0.000000,0.744911,0.000000,0.750000,0.500000,0.750000,0.500000,-0.750000,0.500000,-0.750000,
$1*%
%AMFreePoly1*
4,1,19,0.000000,0.744911,0.071157,0.744911,0.207708,0.704816,0.327430,0.627875,0.420627,0.520320,0.479746,0.390866,0.500000,0.250000,0.500000,-0.250000,0.479746,-0.390866,0.420627,-0.520320,0.327430,-0.627875,0.207708,-0.704816,0.071157,-0.744911,0.000000,-0.744911,0.000000,-0.750000,-0.500000,-0.750000,-0.500000,0.750000,0.000000,0.750000,0.000000,0.744911,0.000000,0.744911,
$1*%
G04 Aperture macros list end*
%ADD10RoundRect,0.250000X0.450000X-0.350000X0.450000X0.350000X-0.450000X0.350000X-0.450000X-0.350000X0*%
%ADD11C,1.600000*%
%ADD12C,1.500000*%
%ADD13C,0.750000*%
%ADD14O,1.200000X2.000000*%
%ADD15O,1.200000X1.800000*%
%ADD16R,0.300000X1.300000*%
%ADD17RoundRect,0.250000X-0.350000X-0.450000X0.350000X-0.450000X0.350000X0.450000X-0.350000X0.450000X0*%
%ADD18RoundRect,0.250000X-0.450000X0.350000X-0.450000X-0.350000X0.450000X-0.350000X0.450000X0.350000X0*%
%ADD19RoundRect,0.225000X0.375000X-0.225000X0.375000X0.225000X-0.375000X0.225000X-0.375000X-0.225000X0*%
%ADD20RoundRect,0.250000X0.350000X0.450000X-0.350000X0.450000X-0.350000X-0.450000X0.350000X-0.450000X0*%
%ADD21RoundRect,0.250000X-0.337500X-0.475000X0.337500X-0.475000X0.337500X0.475000X-0.337500X0.475000X0*%
%ADD22R,1.700000X1.700000*%
%ADD23O,1.700000X1.700000*%
%ADD24RoundRect,0.250000X0.475000X-0.337500X0.475000X0.337500X-0.475000X0.337500X-0.475000X-0.337500X0*%
%ADD25R,0.500000X1.200000*%
%ADD26RoundRect,0.250000X0.337500X0.475000X-0.337500X0.475000X-0.337500X-0.475000X0.337500X-0.475000X0*%
%ADD27RoundRect,0.250000X0.412500X0.925000X-0.412500X0.925000X-0.412500X-0.925000X0.412500X-0.925000X0*%
%ADD28RoundRect,0.250000X-0.475000X0.337500X-0.475000X-0.337500X0.475000X-0.337500X0.475000X0.337500X0*%
%ADD29C,3.200000*%
%ADD30C,0.850000*%
%ADD31R,0.900000X2.000000*%
%ADD32R,1.100000X0.930000*%
%ADD33RoundRect,0.150000X-0.587500X-0.150000X0.587500X-0.150000X0.587500X0.150000X-0.587500X0.150000X0*%
%ADD34R,0.300000X1.500000*%
%ADD35R,1.800000X2.000000*%
%ADD36FreePoly0,0.000000*%
%ADD37FreePoly1,0.000000*%
%ADD38R,0.900000X1.200000*%
%ADD39RoundRect,0.150000X-0.512500X-0.150000X0.512500X-0.150000X0.512500X0.150000X-0.512500X0.150000X0*%
%ADD40RoundRect,0.250000X-0.412500X-0.925000X0.412500X-0.925000X0.412500X0.925000X-0.412500X0.925000X0*%
%ADD41RoundRect,0.150000X0.150000X-0.512500X0.150000X0.512500X-0.150000X0.512500X-0.150000X-0.512500X0*%
%ADD42R,0.300000X1.000000*%
%ADD43R,0.600000X1.000000*%
%ADD44RoundRect,0.225000X-0.225000X-0.375000X0.225000X-0.375000X0.225000X0.375000X-0.225000X0.375000X0*%
%ADD45R,1.500000X0.900000*%
%ADD46R,0.900000X1.500000*%
%ADD47C,0.600000*%
%ADD48R,3.900000X3.900000*%
%ADD49RoundRect,0.087500X-0.087500X0.225000X-0.087500X-0.225000X0.087500X-0.225000X0.087500X0.225000X0*%
%ADD50RoundRect,0.087500X-0.225000X0.087500X-0.225000X-0.087500X0.225000X-0.087500X0.225000X0.087500X0*%
%ADD51R,1.150000X1.150000*%
%ADD52C,1.150000*%
%ADD53R,0.700000X0.450000*%
%ADD54R,3.500000X1.600000*%
%ADD55O,0.900000X0.448000*%
%ADD56RoundRect,0.082000X0.328000X0.718000X-0.328000X0.718000X-0.328000X-0.718000X0.328000X-0.718000X0*%
%ADD57RoundRect,0.082000X-0.328000X-0.718000X0.328000X-0.718000X0.328000X0.718000X-0.328000X0.718000X0*%
G04 APERTURE END LIST*
D10*
X160600000Y-107800000D03*
X160600000Y-105800000D03*
D11*
X168400000Y-96600000D03*
X160800000Y-96600000D03*
D12*
X156550000Y-82300000D03*
D13*
X115375000Y-120534000D03*
X121175000Y-120534000D03*
D14*
X113949999Y-120033999D03*
D15*
X113949999Y-124233999D03*
D14*
X122599999Y-120033999D03*
D15*
X122599999Y-124233999D03*
D16*
X114924999Y-118965999D03*
X115724999Y-118965999D03*
X117024999Y-118965999D03*
X118024999Y-118965999D03*
X118524999Y-118965999D03*
X119524999Y-118965999D03*
X120824999Y-118965999D03*
X121624999Y-118965999D03*
X121324999Y-118965999D03*
X120524999Y-118965999D03*
X120024999Y-118965999D03*
X119024999Y-118965999D03*
X117524999Y-118965999D03*
X116524999Y-118965999D03*
X116024999Y-118965999D03*
X115224999Y-118965999D03*
D17*
X110328200Y-104851200D03*
X112328200Y-104851200D03*
D18*
X146750000Y-95200000D03*
X146750000Y-97200000D03*
D19*
X136280000Y-74400000D03*
X136280000Y-71100000D03*
D20*
X114825000Y-115925000D03*
X112825000Y-115925000D03*
D21*
X133475000Y-83050000D03*
X135550000Y-83050000D03*
D12*
X125250000Y-81750000D03*
D22*
X126263399Y-67182999D03*
D23*
X128803399Y-67182999D03*
X131343399Y-67182999D03*
X133883399Y-67182999D03*
D18*
X157175200Y-117745000D03*
X157175200Y-119745000D03*
D17*
X114239800Y-109448600D03*
X116239800Y-109448600D03*
D24*
X149300000Y-87137500D03*
X149300000Y-85062500D03*
D18*
X160500000Y-117618000D03*
X160500000Y-119618000D03*
D25*
X126999999Y-85599999D03*
X127899999Y-85599999D03*
X128799999Y-85599999D03*
X129699999Y-85599999D03*
X129699999Y-83999999D03*
X128799999Y-83999999D03*
X127899999Y-83999999D03*
X126999999Y-83999999D03*
D26*
X152312500Y-95775000D03*
X150237500Y-95775000D03*
D10*
X116500000Y-77500000D03*
X116500000Y-75500000D03*
D21*
X124712500Y-60000000D03*
X126787500Y-60000000D03*
X155550000Y-88500000D03*
X157625000Y-88500000D03*
D17*
X127870000Y-89500000D03*
X129870000Y-89500000D03*
D27*
X131137500Y-78800000D03*
X128062500Y-78800000D03*
D26*
X155787500Y-85650000D03*
X153712500Y-85650000D03*
D28*
X158400000Y-69962500D03*
X158400000Y-72037500D03*
D17*
X134300000Y-89530000D03*
X136300000Y-89530000D03*
D12*
X143000000Y-96000000D03*
X156550000Y-74750000D03*
D29*
X107450000Y-90100000D03*
D12*
X144500000Y-93750000D03*
D24*
X156100000Y-71000000D03*
X156100000Y-68925000D03*
D30*
X128770000Y-94096000D03*
X131770000Y-94096000D03*
D31*
X128019999Y-92248999D03*
X131019999Y-92248999D03*
X132519999Y-92248999D03*
D32*
X134069999Y-92960999D03*
X134069999Y-95230999D03*
X126469999Y-95230999D03*
X126469999Y-92960999D03*
D33*
X114607100Y-105831600D03*
X114607100Y-107731600D03*
X116482100Y-106781600D03*
D17*
X114189000Y-111531400D03*
X116189000Y-111531400D03*
D21*
X112983100Y-113893600D03*
X115058100Y-113893600D03*
D22*
X119349999Y-106299999D03*
D23*
X119349999Y-103759999D03*
X119349999Y-101219999D03*
X119349999Y-98679999D03*
X119349999Y-96139999D03*
X119349999Y-93599999D03*
D12*
X108250000Y-106250000D03*
D20*
X126600000Y-62800000D03*
X124600000Y-62800000D03*
D34*
X152099999Y-79773999D03*
X151601999Y-79775999D03*
X151101999Y-79775999D03*
X150601999Y-79775999D03*
X150101999Y-79775999D03*
X149601999Y-79775999D03*
X149101999Y-79775999D03*
X148601999Y-79775999D03*
X148101999Y-79775999D03*
X147601999Y-79775999D03*
X147101999Y-79775999D03*
X146601999Y-79775999D03*
X146101999Y-79775999D03*
X145601999Y-79775999D03*
X145101999Y-79775999D03*
X144601999Y-79775999D03*
X144101999Y-79775999D03*
X143601999Y-79775999D03*
X143101999Y-79775999D03*
X142601999Y-79775999D03*
X142101999Y-79775999D03*
X141601999Y-79775999D03*
X141101999Y-79775999D03*
X140601999Y-79775999D03*
D35*
X153749999Y-76623999D03*
X138949999Y-76623999D03*
D12*
X141250000Y-98250000D03*
X144500000Y-98100000D03*
D36*
X121100000Y-110500000D03*
D37*
X122400000Y-110500000D03*
D21*
X114126100Y-101854000D03*
X116201100Y-101854000D03*
D26*
X153737500Y-88500000D03*
X151662500Y-88500000D03*
D18*
X114500000Y-75250000D03*
X114500000Y-77250000D03*
D38*
X155799999Y-90849999D03*
X152499999Y-90849999D03*
D17*
X160500000Y-111250000D03*
X162500000Y-111250000D03*
X123250000Y-84500000D03*
X125250000Y-84500000D03*
X114500000Y-92750000D03*
X116500000Y-92750000D03*
D24*
X122250000Y-108037500D03*
X122250000Y-105962500D03*
D12*
X112496600Y-99669600D03*
D39*
X119187500Y-112600000D03*
X119187500Y-113550000D03*
X119187500Y-114500000D03*
X121462500Y-114500000D03*
X121462500Y-112600000D03*
D40*
X157925000Y-122301000D03*
X161000000Y-122301000D03*
D41*
X110479800Y-109214500D03*
X111429800Y-109214500D03*
X112379800Y-109214500D03*
X112379800Y-106939500D03*
X111429800Y-106939500D03*
X110479800Y-106939500D03*
D20*
X135900000Y-85850000D03*
X133900000Y-85850000D03*
D42*
X118149999Y-90249999D03*
X118649999Y-90249999D03*
X119149999Y-90249999D03*
X119649999Y-90249999D03*
X120149999Y-90249999D03*
X120649999Y-90249999D03*
D43*
X121649999Y-87749999D03*
X117149999Y-87749999D03*
D17*
X120488200Y-116560600D03*
X122488200Y-116560600D03*
X128500000Y-81750000D03*
X130500000Y-81750000D03*
X116750000Y-116325000D03*
X118750000Y-116325000D03*
D44*
X106850000Y-112000000D03*
X110150000Y-112000000D03*
D24*
X115250000Y-87325000D03*
X115250000Y-85250000D03*
X142600000Y-86237500D03*
X142600000Y-84162500D03*
D22*
X125424999Y-117724999D03*
D23*
X125424999Y-115184999D03*
X125424999Y-112644999D03*
X125424999Y-110104999D03*
X125424999Y-107564999D03*
X125424999Y-105024999D03*
D45*
X151225999Y-118209999D03*
X151225999Y-116939999D03*
X151225999Y-115669999D03*
X151225999Y-114399999D03*
X151225999Y-113129999D03*
X151225999Y-111859999D03*
X151225999Y-110589999D03*
X151225999Y-109319999D03*
X151225999Y-108049999D03*
X151225999Y-106779999D03*
X151225999Y-105509999D03*
X151225999Y-104239999D03*
X151225999Y-102969999D03*
X151225999Y-101699999D03*
D46*
X149460999Y-100449999D03*
X148190999Y-100449999D03*
X146920999Y-100449999D03*
X145650999Y-100449999D03*
X144380999Y-100449999D03*
X143110999Y-100449999D03*
X141840999Y-100449999D03*
X140570999Y-100449999D03*
X139300999Y-100449999D03*
X138030999Y-100449999D03*
X136760999Y-100449999D03*
X135490999Y-100449999D03*
D45*
X133725999Y-101699999D03*
X133725999Y-102969999D03*
X133725999Y-104239999D03*
X133725999Y-105509999D03*
X133725999Y-106779999D03*
X133725999Y-108049999D03*
X133725999Y-109319999D03*
X133725999Y-110589999D03*
X133725999Y-111859999D03*
X133725999Y-113129999D03*
X133725999Y-114399999D03*
X133725999Y-115669999D03*
X133725999Y-116939999D03*
X133725999Y-118209999D03*
D47*
X145376000Y-111190000D03*
X145376000Y-109790000D03*
X144676000Y-111890000D03*
X144676000Y-110490000D03*
X144676000Y-109090000D03*
X143976000Y-111190000D03*
D48*
X143975999Y-110489999D03*
D47*
X143976000Y-109790000D03*
X143276000Y-111890000D03*
X143276000Y-110490000D03*
X143276000Y-109090000D03*
X142576000Y-111190000D03*
X142576000Y-109790000D03*
D49*
X115500000Y-80925000D03*
X115000000Y-80925000D03*
X114500000Y-80925000D03*
X114000000Y-80925000D03*
D50*
X113837500Y-81587500D03*
X113837500Y-82087500D03*
X113837500Y-82587500D03*
D49*
X114000000Y-83250000D03*
X114500000Y-83250000D03*
X115000000Y-83250000D03*
X115500000Y-83250000D03*
D50*
X115662500Y-82587500D03*
X115662500Y-82087500D03*
X115662500Y-81587500D03*
D22*
X154049999Y-102349999D03*
D23*
X154049999Y-104889999D03*
X154049999Y-107429999D03*
X154049999Y-109969999D03*
X154049999Y-112509999D03*
X154049999Y-115049999D03*
D51*
X126971500Y-72199999D03*
D52*
X128971502Y-72200000D03*
X130971501Y-72200000D03*
X132971502Y-72200000D03*
D38*
X149999999Y-93449999D03*
X153299999Y-93449999D03*
D17*
X114087400Y-103809800D03*
X116087400Y-103809800D03*
D26*
X150137500Y-90800000D03*
X148062500Y-90800000D03*
D22*
X157699999Y-102349999D03*
D23*
X157699999Y-104889999D03*
X157699999Y-107429999D03*
X157699999Y-109969999D03*
X157699999Y-112509999D03*
X157699999Y-115049999D03*
D40*
X133162500Y-78800000D03*
X136237500Y-78800000D03*
D12*
X156550000Y-78650000D03*
D53*
X137649999Y-85849999D03*
X137649999Y-87149999D03*
X139649999Y-86499999D03*
D26*
X152323800Y-97815400D03*
X150248800Y-97815400D03*
D17*
X123250000Y-87250000D03*
X125250000Y-87250000D03*
D54*
X156649999Y-96449999D03*
X156649999Y-99649999D03*
D22*
X129249999Y-117119999D03*
D23*
X129249999Y-114579999D03*
X129249999Y-112039999D03*
X129249999Y-109499999D03*
X129249999Y-106959999D03*
D38*
X158199999Y-93949999D03*
X154899999Y-93949999D03*
D55*
X132768799Y-59810799D03*
X132768799Y-60610799D03*
X132768799Y-61410799D03*
X132768799Y-62210799D03*
X129968799Y-62210799D03*
X129968799Y-61410799D03*
X129968799Y-60610799D03*
X129968799Y-59810799D03*
D29*
X167500000Y-90100000D03*
D24*
X151550000Y-86037500D03*
X151550000Y-83962500D03*
D10*
X154432000Y-119700000D03*
X154432000Y-117700000D03*
D56*
X165070001Y-119700000D03*
X163570001Y-119700000D03*
X163570001Y-114500000D03*
X165070001Y-114500000D03*
X165070001Y-97400000D03*
X163570001Y-97400000D03*
X163570001Y-102600000D03*
X165070001Y-102600000D03*
D57*
X108250000Y-74100000D03*
X109750000Y-74100000D03*
X109750000Y-79300000D03*
X108250000Y-79300000D03*
X108329999Y-97400000D03*
X109829999Y-97400000D03*
X109829999Y-102600000D03*
X108329999Y-102600000D03*
D22*
X138499999Y-72749999D03*
D56*
X165020001Y-79300000D03*
X163520001Y-79300000D03*
X163520001Y-74100000D03*
X165020001Y-74100000D03*
D57*
X107329999Y-114500000D03*
X108829999Y-114500000D03*
X108829999Y-119700000D03*
X107329999Y-119700000D03*
D56*
X164970001Y-64125000D03*
X163470001Y-64125000D03*
X163470001Y-58925000D03*
X164970001Y-58925000D03*
D57*
X108329999Y-59400000D03*
X109829999Y-59400000D03*
X109829999Y-64600000D03*
X108329999Y-64600000D03*
M02*
