%TF.GenerationSoftware,KiCad,Pcbnew,(7.0.0)*%
%TF.CreationDate,2023-03-27T21:21:58+02:00*%
%TF.ProjectId,220AC-mini-C3-board,32323041-432d-46d6-996e-692d43332d62,rev?*%
%TF.SameCoordinates,Original*%
%TF.FileFunction,Legend,Top*%
%TF.FilePolarity,Positive*%
%FSLAX46Y46*%
G04 Gerber Fmt 4.6, Leading zero omitted, Abs format (unit mm)*
G04 Created by KiCad (PCBNEW (7.0.0)) date 2023-03-27 21:21:58*
%MOMM*%
%LPD*%
G01*
G04 APERTURE LIST*
%ADD10C,0.150000*%
%ADD11C,0.140000*%
%ADD12C,0.250000*%
%ADD13C,0.130000*%
%ADD14C,0.254000*%
%ADD15C,0.152000*%
%ADD16C,0.120000*%
%ADD17C,0.127000*%
%ADD18C,0.200000*%
G04 APERTURE END LIST*
D10*
X166539200Y-85342100D02*
G75*
G03*
X166539200Y-85342100I-30000000J0D01*
G01*
X163539200Y-85342100D02*
G75*
G03*
X163539200Y-85342100I-27000000J0D01*
G01*
X134197666Y-110750000D02*
X134264333Y-110550000D01*
X134264333Y-110550000D02*
X134264333Y-110216667D01*
X134264333Y-110216667D02*
X134197666Y-110083333D01*
X134197666Y-110083333D02*
X134131000Y-110016667D01*
X134131000Y-110016667D02*
X133997666Y-109950000D01*
X133997666Y-109950000D02*
X133864333Y-109950000D01*
X133864333Y-109950000D02*
X133731000Y-110016667D01*
X133731000Y-110016667D02*
X133664333Y-110083333D01*
X133664333Y-110083333D02*
X133597666Y-110216667D01*
X133597666Y-110216667D02*
X133531000Y-110483333D01*
X133531000Y-110483333D02*
X133464333Y-110616667D01*
X133464333Y-110616667D02*
X133397666Y-110683333D01*
X133397666Y-110683333D02*
X133264333Y-110750000D01*
X133264333Y-110750000D02*
X133131000Y-110750000D01*
X133131000Y-110750000D02*
X132997666Y-110683333D01*
X132997666Y-110683333D02*
X132931000Y-110616667D01*
X132931000Y-110616667D02*
X132864333Y-110483333D01*
X132864333Y-110483333D02*
X132864333Y-110150000D01*
X132864333Y-110150000D02*
X132931000Y-109950000D01*
X132864333Y-109483334D02*
X134264333Y-109150000D01*
X134264333Y-109150000D02*
X133264333Y-108883334D01*
X133264333Y-108883334D02*
X134264333Y-108616667D01*
X134264333Y-108616667D02*
X132864333Y-108283334D01*
X134264333Y-107750000D02*
X132864333Y-107750000D01*
X132864333Y-107283333D02*
X132864333Y-106483333D01*
X134264333Y-106883333D02*
X132864333Y-106883333D01*
X134131000Y-105216666D02*
X134197666Y-105283333D01*
X134197666Y-105283333D02*
X134264333Y-105483333D01*
X134264333Y-105483333D02*
X134264333Y-105616666D01*
X134264333Y-105616666D02*
X134197666Y-105816666D01*
X134197666Y-105816666D02*
X134064333Y-105950000D01*
X134064333Y-105950000D02*
X133931000Y-106016666D01*
X133931000Y-106016666D02*
X133664333Y-106083333D01*
X133664333Y-106083333D02*
X133464333Y-106083333D01*
X133464333Y-106083333D02*
X133197666Y-106016666D01*
X133197666Y-106016666D02*
X133064333Y-105950000D01*
X133064333Y-105950000D02*
X132931000Y-105816666D01*
X132931000Y-105816666D02*
X132864333Y-105616666D01*
X132864333Y-105616666D02*
X132864333Y-105483333D01*
X132864333Y-105483333D02*
X132931000Y-105283333D01*
X132931000Y-105283333D02*
X132997666Y-105216666D01*
X134264333Y-104616666D02*
X132864333Y-104616666D01*
X133531000Y-104616666D02*
X133531000Y-103816666D01*
X134264333Y-103816666D02*
X132864333Y-103816666D01*
X148490630Y-98025589D02*
X147711208Y-97575589D01*
X147711208Y-97575589D02*
X147882636Y-97278666D01*
X147882636Y-97278666D02*
X147962609Y-97225864D01*
X147962609Y-97225864D02*
X148021153Y-97210177D01*
X148021153Y-97210177D02*
X148116812Y-97215919D01*
X148116812Y-97215919D02*
X148228158Y-97280205D01*
X148228158Y-97280205D02*
X148280960Y-97360177D01*
X148280960Y-97360177D02*
X148296647Y-97418721D01*
X148296647Y-97418721D02*
X148290905Y-97514380D01*
X148290905Y-97514380D02*
X148119477Y-97811303D01*
X148246922Y-96647705D02*
X148332636Y-96499243D01*
X148332636Y-96499243D02*
X148412609Y-96446441D01*
X148412609Y-96446441D02*
X148529697Y-96415067D01*
X148529697Y-96415067D02*
X148699587Y-96463666D01*
X148699587Y-96463666D02*
X148959394Y-96613666D01*
X148959394Y-96613666D02*
X149086427Y-96736496D01*
X149086427Y-96736496D02*
X149117801Y-96853584D01*
X149117801Y-96853584D02*
X149112059Y-96949243D01*
X149112059Y-96949243D02*
X149026345Y-97097705D01*
X149026345Y-97097705D02*
X148946372Y-97150507D01*
X148946372Y-97150507D02*
X148829284Y-97181880D01*
X148829284Y-97181880D02*
X148659394Y-97133282D01*
X148659394Y-97133282D02*
X148399587Y-96983282D01*
X148399587Y-96983282D02*
X148272554Y-96860452D01*
X148272554Y-96860452D02*
X148241180Y-96743364D01*
X148241180Y-96743364D02*
X148246922Y-96647705D01*
X148589779Y-96053859D02*
X149476345Y-96318282D01*
X149476345Y-96318282D02*
X149005328Y-95848392D01*
X149005328Y-95848392D02*
X149647773Y-96021359D01*
X149647773Y-96021359D02*
X148975493Y-95385782D01*
X149518075Y-95303145D02*
X149668075Y-95043338D01*
X150140630Y-95167706D02*
X149926344Y-95538859D01*
X149926344Y-95538859D02*
X149146922Y-95088859D01*
X149146922Y-95088859D02*
X149361207Y-94717706D01*
X150590630Y-94388283D02*
X150069477Y-94433805D01*
X150333487Y-94833667D02*
X149554065Y-94383667D01*
X149554065Y-94383667D02*
X149725493Y-94086744D01*
X149725493Y-94086744D02*
X149805466Y-94033942D01*
X149805466Y-94033942D02*
X149864010Y-94018255D01*
X149864010Y-94018255D02*
X149959669Y-94023997D01*
X149959669Y-94023997D02*
X150071015Y-94088283D01*
X150071015Y-94088283D02*
X150123817Y-94168255D01*
X150123817Y-94168255D02*
X150139504Y-94226799D01*
X150139504Y-94226799D02*
X150133762Y-94322458D01*
X150133762Y-94322458D02*
X149962334Y-94619381D01*
X151053487Y-93586591D02*
X150274065Y-93136591D01*
X151267773Y-93215437D02*
X150488350Y-92765437D01*
X150488350Y-92765437D02*
X151524916Y-92770053D01*
X151524916Y-92770053D02*
X150745493Y-92320053D01*
X151910630Y-92101976D02*
X151316784Y-91759119D01*
X151379531Y-91993295D02*
X151316784Y-91759119D01*
X151316784Y-91759119D02*
X151550960Y-91696372D01*
D11*
X147117380Y-99811905D02*
X147117380Y-100288095D01*
X147117380Y-100288095D02*
X146117380Y-100288095D01*
X147117380Y-99050000D02*
X146593571Y-99050000D01*
X146593571Y-99050000D02*
X146498333Y-99097619D01*
X146498333Y-99097619D02*
X146450714Y-99192857D01*
X146450714Y-99192857D02*
X146450714Y-99383333D01*
X146450714Y-99383333D02*
X146498333Y-99478571D01*
X147069761Y-99050000D02*
X147117380Y-99145238D01*
X147117380Y-99145238D02*
X147117380Y-99383333D01*
X147117380Y-99383333D02*
X147069761Y-99478571D01*
X147069761Y-99478571D02*
X146974523Y-99526190D01*
X146974523Y-99526190D02*
X146879285Y-99526190D01*
X146879285Y-99526190D02*
X146784047Y-99478571D01*
X146784047Y-99478571D02*
X146736428Y-99383333D01*
X146736428Y-99383333D02*
X146736428Y-99145238D01*
X146736428Y-99145238D02*
X146688809Y-99050000D01*
X146450714Y-98716666D02*
X146450714Y-98335714D01*
X146117380Y-98573809D02*
X146974523Y-98573809D01*
X146974523Y-98573809D02*
X147069761Y-98526190D01*
X147069761Y-98526190D02*
X147117380Y-98430952D01*
X147117380Y-98430952D02*
X147117380Y-98335714D01*
X147069761Y-97573809D02*
X147117380Y-97669047D01*
X147117380Y-97669047D02*
X147117380Y-97859523D01*
X147117380Y-97859523D02*
X147069761Y-97954761D01*
X147069761Y-97954761D02*
X147022142Y-98002380D01*
X147022142Y-98002380D02*
X146926904Y-98049999D01*
X146926904Y-98049999D02*
X146641190Y-98049999D01*
X146641190Y-98049999D02*
X146545952Y-98002380D01*
X146545952Y-98002380D02*
X146498333Y-97954761D01*
X146498333Y-97954761D02*
X146450714Y-97859523D01*
X146450714Y-97859523D02*
X146450714Y-97669047D01*
X146450714Y-97669047D02*
X146498333Y-97573809D01*
X147117380Y-97145237D02*
X146117380Y-97145237D01*
X147117380Y-96716666D02*
X146593571Y-96716666D01*
X146593571Y-96716666D02*
X146498333Y-96764285D01*
X146498333Y-96764285D02*
X146450714Y-96859523D01*
X146450714Y-96859523D02*
X146450714Y-97002380D01*
X146450714Y-97002380D02*
X146498333Y-97097618D01*
X146498333Y-97097618D02*
X146545952Y-97145237D01*
X147117380Y-95640475D02*
X146450714Y-95640475D01*
X146641190Y-95640475D02*
X146545952Y-95592856D01*
X146545952Y-95592856D02*
X146498333Y-95545237D01*
X146498333Y-95545237D02*
X146450714Y-95449999D01*
X146450714Y-95449999D02*
X146450714Y-95354761D01*
X147069761Y-94640475D02*
X147117380Y-94735713D01*
X147117380Y-94735713D02*
X147117380Y-94926189D01*
X147117380Y-94926189D02*
X147069761Y-95021427D01*
X147069761Y-95021427D02*
X146974523Y-95069046D01*
X146974523Y-95069046D02*
X146593571Y-95069046D01*
X146593571Y-95069046D02*
X146498333Y-95021427D01*
X146498333Y-95021427D02*
X146450714Y-94926189D01*
X146450714Y-94926189D02*
X146450714Y-94735713D01*
X146450714Y-94735713D02*
X146498333Y-94640475D01*
X146498333Y-94640475D02*
X146593571Y-94592856D01*
X146593571Y-94592856D02*
X146688809Y-94592856D01*
X146688809Y-94592856D02*
X146784047Y-95069046D01*
X147117380Y-94021427D02*
X147069761Y-94116665D01*
X147069761Y-94116665D02*
X146974523Y-94164284D01*
X146974523Y-94164284D02*
X146117380Y-94164284D01*
X147117380Y-93211903D02*
X146593571Y-93211903D01*
X146593571Y-93211903D02*
X146498333Y-93259522D01*
X146498333Y-93259522D02*
X146450714Y-93354760D01*
X146450714Y-93354760D02*
X146450714Y-93545236D01*
X146450714Y-93545236D02*
X146498333Y-93640474D01*
X147069761Y-93211903D02*
X147117380Y-93307141D01*
X147117380Y-93307141D02*
X147117380Y-93545236D01*
X147117380Y-93545236D02*
X147069761Y-93640474D01*
X147069761Y-93640474D02*
X146974523Y-93688093D01*
X146974523Y-93688093D02*
X146879285Y-93688093D01*
X146879285Y-93688093D02*
X146784047Y-93640474D01*
X146784047Y-93640474D02*
X146736428Y-93545236D01*
X146736428Y-93545236D02*
X146736428Y-93307141D01*
X146736428Y-93307141D02*
X146688809Y-93211903D01*
X146450714Y-92830950D02*
X147117380Y-92592855D01*
X146450714Y-92354760D02*
X147117380Y-92592855D01*
X147117380Y-92592855D02*
X147355476Y-92688093D01*
X147355476Y-92688093D02*
X147403095Y-92735712D01*
X147403095Y-92735712D02*
X147450714Y-92830950D01*
X147117380Y-91592855D02*
X146355476Y-91592855D01*
X146545952Y-91783331D02*
X146355476Y-91592855D01*
X146355476Y-91592855D02*
X146545952Y-91402379D01*
D10*
X115254762Y-96493904D02*
X115407143Y-96493904D01*
X115407143Y-96493904D02*
X115483333Y-96532000D01*
X115483333Y-96532000D02*
X115559524Y-96608190D01*
X115559524Y-96608190D02*
X115597619Y-96760571D01*
X115597619Y-96760571D02*
X115597619Y-97027238D01*
X115597619Y-97027238D02*
X115559524Y-97179619D01*
X115559524Y-97179619D02*
X115483333Y-97255809D01*
X115483333Y-97255809D02*
X115407143Y-97293904D01*
X115407143Y-97293904D02*
X115254762Y-97293904D01*
X115254762Y-97293904D02*
X115178571Y-97255809D01*
X115178571Y-97255809D02*
X115102381Y-97179619D01*
X115102381Y-97179619D02*
X115064285Y-97027238D01*
X115064285Y-97027238D02*
X115064285Y-96760571D01*
X115064285Y-96760571D02*
X115102381Y-96608190D01*
X115102381Y-96608190D02*
X115178571Y-96532000D01*
X115178571Y-96532000D02*
X115254762Y-96493904D01*
X115940476Y-97293904D02*
X115940476Y-96493904D01*
X115940476Y-96493904D02*
X116397619Y-97293904D01*
X116397619Y-97293904D02*
X116397619Y-96493904D01*
X118416667Y-103867380D02*
X118750000Y-104867380D01*
X118750000Y-104867380D02*
X119083333Y-103867380D01*
X119750000Y-104343571D02*
X119892857Y-104391190D01*
X119892857Y-104391190D02*
X119940476Y-104438809D01*
X119940476Y-104438809D02*
X119988095Y-104534047D01*
X119988095Y-104534047D02*
X119988095Y-104676904D01*
X119988095Y-104676904D02*
X119940476Y-104772142D01*
X119940476Y-104772142D02*
X119892857Y-104819761D01*
X119892857Y-104819761D02*
X119797619Y-104867380D01*
X119797619Y-104867380D02*
X119416667Y-104867380D01*
X119416667Y-104867380D02*
X119416667Y-103867380D01*
X119416667Y-103867380D02*
X119750000Y-103867380D01*
X119750000Y-103867380D02*
X119845238Y-103915000D01*
X119845238Y-103915000D02*
X119892857Y-103962619D01*
X119892857Y-103962619D02*
X119940476Y-104057857D01*
X119940476Y-104057857D02*
X119940476Y-104153095D01*
X119940476Y-104153095D02*
X119892857Y-104248333D01*
X119892857Y-104248333D02*
X119845238Y-104295952D01*
X119845238Y-104295952D02*
X119750000Y-104343571D01*
X119750000Y-104343571D02*
X119416667Y-104343571D01*
D11*
X128459523Y-63267880D02*
X128511904Y-63215500D01*
X128511904Y-63215500D02*
X128616666Y-63163119D01*
X128616666Y-63163119D02*
X128878571Y-63163119D01*
X128878571Y-63163119D02*
X128983333Y-63215500D01*
X128983333Y-63215500D02*
X129035714Y-63267880D01*
X129035714Y-63267880D02*
X129088095Y-63372642D01*
X129088095Y-63372642D02*
X129088095Y-63477404D01*
X129088095Y-63477404D02*
X129035714Y-63634547D01*
X129035714Y-63634547D02*
X128407142Y-64263119D01*
X128407142Y-64263119D02*
X129088095Y-64263119D01*
X129454761Y-63163119D02*
X130135714Y-63163119D01*
X130135714Y-63163119D02*
X129769047Y-63582166D01*
X129769047Y-63582166D02*
X129926190Y-63582166D01*
X129926190Y-63582166D02*
X130030952Y-63634547D01*
X130030952Y-63634547D02*
X130083333Y-63686928D01*
X130083333Y-63686928D02*
X130135714Y-63791690D01*
X130135714Y-63791690D02*
X130135714Y-64053595D01*
X130135714Y-64053595D02*
X130083333Y-64158357D01*
X130083333Y-64158357D02*
X130030952Y-64210738D01*
X130030952Y-64210738D02*
X129926190Y-64263119D01*
X129926190Y-64263119D02*
X129611904Y-64263119D01*
X129611904Y-64263119D02*
X129507142Y-64210738D01*
X129507142Y-64210738D02*
X129454761Y-64158357D01*
X130816666Y-63163119D02*
X130921428Y-63163119D01*
X130921428Y-63163119D02*
X131026190Y-63215500D01*
X131026190Y-63215500D02*
X131078571Y-63267880D01*
X131078571Y-63267880D02*
X131130952Y-63372642D01*
X131130952Y-63372642D02*
X131183333Y-63582166D01*
X131183333Y-63582166D02*
X131183333Y-63844071D01*
X131183333Y-63844071D02*
X131130952Y-64053595D01*
X131130952Y-64053595D02*
X131078571Y-64158357D01*
X131078571Y-64158357D02*
X131026190Y-64210738D01*
X131026190Y-64210738D02*
X130921428Y-64263119D01*
X130921428Y-64263119D02*
X130816666Y-64263119D01*
X130816666Y-64263119D02*
X130711904Y-64210738D01*
X130711904Y-64210738D02*
X130659523Y-64158357D01*
X130659523Y-64158357D02*
X130607142Y-64053595D01*
X130607142Y-64053595D02*
X130554761Y-63844071D01*
X130554761Y-63844071D02*
X130554761Y-63582166D01*
X130554761Y-63582166D02*
X130607142Y-63372642D01*
X130607142Y-63372642D02*
X130659523Y-63267880D01*
X130659523Y-63267880D02*
X130711904Y-63215500D01*
X130711904Y-63215500D02*
X130816666Y-63163119D01*
X131497618Y-63163119D02*
X131864285Y-64263119D01*
X131864285Y-64263119D02*
X132230952Y-63163119D01*
X133205237Y-63948833D02*
X133729047Y-63948833D01*
X133100475Y-64263119D02*
X133467142Y-63163119D01*
X133467142Y-63163119D02*
X133833809Y-64263119D01*
X134829047Y-64158357D02*
X134776666Y-64210738D01*
X134776666Y-64210738D02*
X134619523Y-64263119D01*
X134619523Y-64263119D02*
X134514761Y-64263119D01*
X134514761Y-64263119D02*
X134357618Y-64210738D01*
X134357618Y-64210738D02*
X134252856Y-64105976D01*
X134252856Y-64105976D02*
X134200475Y-64001214D01*
X134200475Y-64001214D02*
X134148094Y-63791690D01*
X134148094Y-63791690D02*
X134148094Y-63634547D01*
X134148094Y-63634547D02*
X134200475Y-63425023D01*
X134200475Y-63425023D02*
X134252856Y-63320261D01*
X134252856Y-63320261D02*
X134357618Y-63215500D01*
X134357618Y-63215500D02*
X134514761Y-63163119D01*
X134514761Y-63163119D02*
X134619523Y-63163119D01*
X134619523Y-63163119D02*
X134776666Y-63215500D01*
X134776666Y-63215500D02*
X134829047Y-63267880D01*
X128511904Y-66045119D02*
X128511904Y-64945119D01*
X128511904Y-64945119D02*
X128773809Y-64945119D01*
X128773809Y-64945119D02*
X128930952Y-64997500D01*
X128930952Y-64997500D02*
X129035714Y-65102261D01*
X129035714Y-65102261D02*
X129088095Y-65207023D01*
X129088095Y-65207023D02*
X129140476Y-65416547D01*
X129140476Y-65416547D02*
X129140476Y-65573690D01*
X129140476Y-65573690D02*
X129088095Y-65783214D01*
X129088095Y-65783214D02*
X129035714Y-65887976D01*
X129035714Y-65887976D02*
X128930952Y-65992738D01*
X128930952Y-65992738D02*
X128773809Y-66045119D01*
X128773809Y-66045119D02*
X128511904Y-66045119D01*
X130240476Y-65940357D02*
X130188095Y-65992738D01*
X130188095Y-65992738D02*
X130030952Y-66045119D01*
X130030952Y-66045119D02*
X129926190Y-66045119D01*
X129926190Y-66045119D02*
X129769047Y-65992738D01*
X129769047Y-65992738D02*
X129664285Y-65887976D01*
X129664285Y-65887976D02*
X129611904Y-65783214D01*
X129611904Y-65783214D02*
X129559523Y-65573690D01*
X129559523Y-65573690D02*
X129559523Y-65416547D01*
X129559523Y-65416547D02*
X129611904Y-65207023D01*
X129611904Y-65207023D02*
X129664285Y-65102261D01*
X129664285Y-65102261D02*
X129769047Y-64997500D01*
X129769047Y-64997500D02*
X129926190Y-64945119D01*
X129926190Y-64945119D02*
X130030952Y-64945119D01*
X130030952Y-64945119D02*
X130188095Y-64997500D01*
X130188095Y-64997500D02*
X130240476Y-65049880D01*
X131581428Y-64945119D02*
X131790952Y-64945119D01*
X131790952Y-64945119D02*
X131895714Y-64997500D01*
X131895714Y-64997500D02*
X132000476Y-65102261D01*
X132000476Y-65102261D02*
X132052857Y-65311785D01*
X132052857Y-65311785D02*
X132052857Y-65678452D01*
X132052857Y-65678452D02*
X132000476Y-65887976D01*
X132000476Y-65887976D02*
X131895714Y-65992738D01*
X131895714Y-65992738D02*
X131790952Y-66045119D01*
X131790952Y-66045119D02*
X131581428Y-66045119D01*
X131581428Y-66045119D02*
X131476666Y-65992738D01*
X131476666Y-65992738D02*
X131371904Y-65887976D01*
X131371904Y-65887976D02*
X131319523Y-65678452D01*
X131319523Y-65678452D02*
X131319523Y-65311785D01*
X131319523Y-65311785D02*
X131371904Y-65102261D01*
X131371904Y-65102261D02*
X131476666Y-64997500D01*
X131476666Y-64997500D02*
X131581428Y-64945119D01*
X132524285Y-64945119D02*
X132524285Y-65835595D01*
X132524285Y-65835595D02*
X132576666Y-65940357D01*
X132576666Y-65940357D02*
X132629047Y-65992738D01*
X132629047Y-65992738D02*
X132733809Y-66045119D01*
X132733809Y-66045119D02*
X132943333Y-66045119D01*
X132943333Y-66045119D02*
X133048095Y-65992738D01*
X133048095Y-65992738D02*
X133100476Y-65940357D01*
X133100476Y-65940357D02*
X133152857Y-65835595D01*
X133152857Y-65835595D02*
X133152857Y-64945119D01*
X133519523Y-64945119D02*
X134148095Y-64945119D01*
X133833809Y-66045119D02*
X133833809Y-64945119D01*
D10*
X140238095Y-65617380D02*
X140238095Y-64617380D01*
X140238095Y-65093571D02*
X140809523Y-65093571D01*
X140809523Y-65617380D02*
X140809523Y-64617380D01*
X141285714Y-65617380D02*
X141285714Y-64617380D01*
X142285713Y-64665000D02*
X142190475Y-64617380D01*
X142190475Y-64617380D02*
X142047618Y-64617380D01*
X142047618Y-64617380D02*
X141904761Y-64665000D01*
X141904761Y-64665000D02*
X141809523Y-64760238D01*
X141809523Y-64760238D02*
X141761904Y-64855476D01*
X141761904Y-64855476D02*
X141714285Y-65045952D01*
X141714285Y-65045952D02*
X141714285Y-65188809D01*
X141714285Y-65188809D02*
X141761904Y-65379285D01*
X141761904Y-65379285D02*
X141809523Y-65474523D01*
X141809523Y-65474523D02*
X141904761Y-65569761D01*
X141904761Y-65569761D02*
X142047618Y-65617380D01*
X142047618Y-65617380D02*
X142142856Y-65617380D01*
X142142856Y-65617380D02*
X142285713Y-65569761D01*
X142285713Y-65569761D02*
X142333332Y-65522142D01*
X142333332Y-65522142D02*
X142333332Y-65188809D01*
X142333332Y-65188809D02*
X142142856Y-65188809D01*
X142761904Y-65617380D02*
X142761904Y-64617380D01*
X142761904Y-65093571D02*
X143333332Y-65093571D01*
X143333332Y-65617380D02*
X143333332Y-64617380D01*
X144266666Y-64617380D02*
X144599999Y-65617380D01*
X144599999Y-65617380D02*
X144933332Y-64617380D01*
X145457142Y-64617380D02*
X145647618Y-64617380D01*
X145647618Y-64617380D02*
X145742856Y-64665000D01*
X145742856Y-64665000D02*
X145838094Y-64760238D01*
X145838094Y-64760238D02*
X145885713Y-64950714D01*
X145885713Y-64950714D02*
X145885713Y-65284047D01*
X145885713Y-65284047D02*
X145838094Y-65474523D01*
X145838094Y-65474523D02*
X145742856Y-65569761D01*
X145742856Y-65569761D02*
X145647618Y-65617380D01*
X145647618Y-65617380D02*
X145457142Y-65617380D01*
X145457142Y-65617380D02*
X145361904Y-65569761D01*
X145361904Y-65569761D02*
X145266666Y-65474523D01*
X145266666Y-65474523D02*
X145219047Y-65284047D01*
X145219047Y-65284047D02*
X145219047Y-64950714D01*
X145219047Y-64950714D02*
X145266666Y-64760238D01*
X145266666Y-64760238D02*
X145361904Y-64665000D01*
X145361904Y-64665000D02*
X145457142Y-64617380D01*
X146790475Y-65617380D02*
X146314285Y-65617380D01*
X146314285Y-65617380D02*
X146314285Y-64617380D01*
X146980952Y-64617380D02*
X147552380Y-64617380D01*
X147266666Y-65617380D02*
X147266666Y-64617380D01*
X147838095Y-65331666D02*
X148314285Y-65331666D01*
X147742857Y-65617380D02*
X148076190Y-64617380D01*
X148076190Y-64617380D02*
X148409523Y-65617380D01*
X149266666Y-64665000D02*
X149171428Y-64617380D01*
X149171428Y-64617380D02*
X149028571Y-64617380D01*
X149028571Y-64617380D02*
X148885714Y-64665000D01*
X148885714Y-64665000D02*
X148790476Y-64760238D01*
X148790476Y-64760238D02*
X148742857Y-64855476D01*
X148742857Y-64855476D02*
X148695238Y-65045952D01*
X148695238Y-65045952D02*
X148695238Y-65188809D01*
X148695238Y-65188809D02*
X148742857Y-65379285D01*
X148742857Y-65379285D02*
X148790476Y-65474523D01*
X148790476Y-65474523D02*
X148885714Y-65569761D01*
X148885714Y-65569761D02*
X149028571Y-65617380D01*
X149028571Y-65617380D02*
X149123809Y-65617380D01*
X149123809Y-65617380D02*
X149266666Y-65569761D01*
X149266666Y-65569761D02*
X149314285Y-65522142D01*
X149314285Y-65522142D02*
X149314285Y-65188809D01*
X149314285Y-65188809D02*
X149123809Y-65188809D01*
X149742857Y-65093571D02*
X150076190Y-65093571D01*
X150219047Y-65617380D02*
X149742857Y-65617380D01*
X149742857Y-65617380D02*
X149742857Y-64617380D01*
X149742857Y-64617380D02*
X150219047Y-64617380D01*
X160386333Y-75316667D02*
X160453000Y-75383334D01*
X160453000Y-75383334D02*
X160519666Y-75516667D01*
X160519666Y-75516667D02*
X160519666Y-75850001D01*
X160519666Y-75850001D02*
X160453000Y-75983334D01*
X160453000Y-75983334D02*
X160386333Y-76050001D01*
X160386333Y-76050001D02*
X160253000Y-76116667D01*
X160253000Y-76116667D02*
X160119666Y-76116667D01*
X160119666Y-76116667D02*
X159919666Y-76050001D01*
X159919666Y-76050001D02*
X159119666Y-75250001D01*
X159119666Y-75250001D02*
X159119666Y-76116667D01*
X160519666Y-76583334D02*
X160519666Y-77450000D01*
X160519666Y-77450000D02*
X159986333Y-76983334D01*
X159986333Y-76983334D02*
X159986333Y-77183334D01*
X159986333Y-77183334D02*
X159919666Y-77316667D01*
X159919666Y-77316667D02*
X159853000Y-77383334D01*
X159853000Y-77383334D02*
X159719666Y-77450000D01*
X159719666Y-77450000D02*
X159386333Y-77450000D01*
X159386333Y-77450000D02*
X159253000Y-77383334D01*
X159253000Y-77383334D02*
X159186333Y-77316667D01*
X159186333Y-77316667D02*
X159119666Y-77183334D01*
X159119666Y-77183334D02*
X159119666Y-76783334D01*
X159119666Y-76783334D02*
X159186333Y-76650000D01*
X159186333Y-76650000D02*
X159253000Y-76583334D01*
X160519666Y-78316667D02*
X160519666Y-78450000D01*
X160519666Y-78450000D02*
X160453000Y-78583333D01*
X160453000Y-78583333D02*
X160386333Y-78650000D01*
X160386333Y-78650000D02*
X160253000Y-78716667D01*
X160253000Y-78716667D02*
X159986333Y-78783333D01*
X159986333Y-78783333D02*
X159653000Y-78783333D01*
X159653000Y-78783333D02*
X159386333Y-78716667D01*
X159386333Y-78716667D02*
X159253000Y-78650000D01*
X159253000Y-78650000D02*
X159186333Y-78583333D01*
X159186333Y-78583333D02*
X159119666Y-78450000D01*
X159119666Y-78450000D02*
X159119666Y-78316667D01*
X159119666Y-78316667D02*
X159186333Y-78183333D01*
X159186333Y-78183333D02*
X159253000Y-78116667D01*
X159253000Y-78116667D02*
X159386333Y-78050000D01*
X159386333Y-78050000D02*
X159653000Y-77983333D01*
X159653000Y-77983333D02*
X159986333Y-77983333D01*
X159986333Y-77983333D02*
X160253000Y-78050000D01*
X160253000Y-78050000D02*
X160386333Y-78116667D01*
X160386333Y-78116667D02*
X160453000Y-78183333D01*
X160453000Y-78183333D02*
X160519666Y-78316667D01*
X160519666Y-79183333D02*
X159119666Y-79650000D01*
X159119666Y-79650000D02*
X160519666Y-80116666D01*
X157918333Y-76783333D02*
X156851666Y-76783333D01*
X157118333Y-77050000D02*
X156851666Y-76783333D01*
X156851666Y-76783333D02*
X157118333Y-76516667D01*
X157251666Y-77916666D02*
X157251666Y-78583333D01*
X156851666Y-77783333D02*
X158251666Y-78250000D01*
X158251666Y-78250000D02*
X156851666Y-78716666D01*
X156985000Y-79983333D02*
X156918333Y-79916666D01*
X156918333Y-79916666D02*
X156851666Y-79716666D01*
X156851666Y-79716666D02*
X156851666Y-79583333D01*
X156851666Y-79583333D02*
X156918333Y-79383333D01*
X156918333Y-79383333D02*
X157051666Y-79250000D01*
X157051666Y-79250000D02*
X157185000Y-79183333D01*
X157185000Y-79183333D02*
X157451666Y-79116666D01*
X157451666Y-79116666D02*
X157651666Y-79116666D01*
X157651666Y-79116666D02*
X157918333Y-79183333D01*
X157918333Y-79183333D02*
X158051666Y-79250000D01*
X158051666Y-79250000D02*
X158185000Y-79383333D01*
X158185000Y-79383333D02*
X158251666Y-79583333D01*
X158251666Y-79583333D02*
X158251666Y-79716666D01*
X158251666Y-79716666D02*
X158185000Y-79916666D01*
X158185000Y-79916666D02*
X158118333Y-79983333D01*
D12*
X140214285Y-63908214D02*
X140142857Y-63979642D01*
X140142857Y-63979642D02*
X139928571Y-64051071D01*
X139928571Y-64051071D02*
X139785714Y-64051071D01*
X139785714Y-64051071D02*
X139571428Y-63979642D01*
X139571428Y-63979642D02*
X139428571Y-63836785D01*
X139428571Y-63836785D02*
X139357142Y-63693928D01*
X139357142Y-63693928D02*
X139285714Y-63408214D01*
X139285714Y-63408214D02*
X139285714Y-63193928D01*
X139285714Y-63193928D02*
X139357142Y-62908214D01*
X139357142Y-62908214D02*
X139428571Y-62765357D01*
X139428571Y-62765357D02*
X139571428Y-62622500D01*
X139571428Y-62622500D02*
X139785714Y-62551071D01*
X139785714Y-62551071D02*
X139928571Y-62551071D01*
X139928571Y-62551071D02*
X140142857Y-62622500D01*
X140142857Y-62622500D02*
X140214285Y-62693928D01*
X140785714Y-63622500D02*
X141500000Y-63622500D01*
X140642857Y-64051071D02*
X141142857Y-62551071D01*
X141142857Y-62551071D02*
X141642857Y-64051071D01*
X142142856Y-62551071D02*
X142142856Y-63765357D01*
X142142856Y-63765357D02*
X142214285Y-63908214D01*
X142214285Y-63908214D02*
X142285714Y-63979642D01*
X142285714Y-63979642D02*
X142428571Y-64051071D01*
X142428571Y-64051071D02*
X142714285Y-64051071D01*
X142714285Y-64051071D02*
X142857142Y-63979642D01*
X142857142Y-63979642D02*
X142928571Y-63908214D01*
X142928571Y-63908214D02*
X142999999Y-63765357D01*
X142999999Y-63765357D02*
X142999999Y-62551071D01*
X143500000Y-62551071D02*
X144357143Y-62551071D01*
X143928571Y-64051071D02*
X143928571Y-62551071D01*
X144857142Y-64051071D02*
X144857142Y-62551071D01*
X145857143Y-62551071D02*
X146142857Y-62551071D01*
X146142857Y-62551071D02*
X146285714Y-62622500D01*
X146285714Y-62622500D02*
X146428571Y-62765357D01*
X146428571Y-62765357D02*
X146500000Y-63051071D01*
X146500000Y-63051071D02*
X146500000Y-63551071D01*
X146500000Y-63551071D02*
X146428571Y-63836785D01*
X146428571Y-63836785D02*
X146285714Y-63979642D01*
X146285714Y-63979642D02*
X146142857Y-64051071D01*
X146142857Y-64051071D02*
X145857143Y-64051071D01*
X145857143Y-64051071D02*
X145714286Y-63979642D01*
X145714286Y-63979642D02*
X145571428Y-63836785D01*
X145571428Y-63836785D02*
X145500000Y-63551071D01*
X145500000Y-63551071D02*
X145500000Y-63051071D01*
X145500000Y-63051071D02*
X145571428Y-62765357D01*
X145571428Y-62765357D02*
X145714286Y-62622500D01*
X145714286Y-62622500D02*
X145857143Y-62551071D01*
X147142857Y-64051071D02*
X147142857Y-62551071D01*
X147142857Y-62551071D02*
X148000000Y-64051071D01*
X148000000Y-64051071D02*
X148000000Y-62551071D01*
X148714286Y-63908214D02*
X148785715Y-63979642D01*
X148785715Y-63979642D02*
X148714286Y-64051071D01*
X148714286Y-64051071D02*
X148642858Y-63979642D01*
X148642858Y-63979642D02*
X148714286Y-63908214D01*
X148714286Y-63908214D02*
X148714286Y-64051071D01*
X148714286Y-63479642D02*
X148642858Y-62622500D01*
X148642858Y-62622500D02*
X148714286Y-62551071D01*
X148714286Y-62551071D02*
X148785715Y-62622500D01*
X148785715Y-62622500D02*
X148714286Y-63479642D01*
X148714286Y-63479642D02*
X148714286Y-62551071D01*
D10*
X114547618Y-94755809D02*
X114661904Y-94793904D01*
X114661904Y-94793904D02*
X114852380Y-94793904D01*
X114852380Y-94793904D02*
X114928571Y-94755809D01*
X114928571Y-94755809D02*
X114966666Y-94717714D01*
X114966666Y-94717714D02*
X115004761Y-94641523D01*
X115004761Y-94641523D02*
X115004761Y-94565333D01*
X115004761Y-94565333D02*
X114966666Y-94489142D01*
X114966666Y-94489142D02*
X114928571Y-94451047D01*
X114928571Y-94451047D02*
X114852380Y-94412952D01*
X114852380Y-94412952D02*
X114699999Y-94374857D01*
X114699999Y-94374857D02*
X114623809Y-94336761D01*
X114623809Y-94336761D02*
X114585714Y-94298666D01*
X114585714Y-94298666D02*
X114547618Y-94222476D01*
X114547618Y-94222476D02*
X114547618Y-94146285D01*
X114547618Y-94146285D02*
X114585714Y-94070095D01*
X114585714Y-94070095D02*
X114623809Y-94032000D01*
X114623809Y-94032000D02*
X114699999Y-93993904D01*
X114699999Y-93993904D02*
X114890476Y-93993904D01*
X114890476Y-93993904D02*
X115004761Y-94032000D01*
X115804762Y-94717714D02*
X115766666Y-94755809D01*
X115766666Y-94755809D02*
X115652381Y-94793904D01*
X115652381Y-94793904D02*
X115576190Y-94793904D01*
X115576190Y-94793904D02*
X115461904Y-94755809D01*
X115461904Y-94755809D02*
X115385714Y-94679619D01*
X115385714Y-94679619D02*
X115347619Y-94603428D01*
X115347619Y-94603428D02*
X115309523Y-94451047D01*
X115309523Y-94451047D02*
X115309523Y-94336761D01*
X115309523Y-94336761D02*
X115347619Y-94184380D01*
X115347619Y-94184380D02*
X115385714Y-94108190D01*
X115385714Y-94108190D02*
X115461904Y-94032000D01*
X115461904Y-94032000D02*
X115576190Y-93993904D01*
X115576190Y-93993904D02*
X115652381Y-93993904D01*
X115652381Y-93993904D02*
X115766666Y-94032000D01*
X115766666Y-94032000D02*
X115804762Y-94070095D01*
X116528571Y-94793904D02*
X116147619Y-94793904D01*
X116147619Y-94793904D02*
X116147619Y-93993904D01*
X146617380Y-109323808D02*
X145950714Y-109323808D01*
X146045952Y-109323808D02*
X145998333Y-109276189D01*
X145998333Y-109276189D02*
X145950714Y-109180951D01*
X145950714Y-109180951D02*
X145950714Y-109038094D01*
X145950714Y-109038094D02*
X145998333Y-108942856D01*
X145998333Y-108942856D02*
X146093571Y-108895237D01*
X146093571Y-108895237D02*
X146617380Y-108895237D01*
X146093571Y-108895237D02*
X145998333Y-108847618D01*
X145998333Y-108847618D02*
X145950714Y-108752380D01*
X145950714Y-108752380D02*
X145950714Y-108609523D01*
X145950714Y-108609523D02*
X145998333Y-108514284D01*
X145998333Y-108514284D02*
X146093571Y-108466665D01*
X146093571Y-108466665D02*
X146617380Y-108466665D01*
X146617380Y-107561904D02*
X146093571Y-107561904D01*
X146093571Y-107561904D02*
X145998333Y-107609523D01*
X145998333Y-107609523D02*
X145950714Y-107704761D01*
X145950714Y-107704761D02*
X145950714Y-107895237D01*
X145950714Y-107895237D02*
X145998333Y-107990475D01*
X146569761Y-107561904D02*
X146617380Y-107657142D01*
X146617380Y-107657142D02*
X146617380Y-107895237D01*
X146617380Y-107895237D02*
X146569761Y-107990475D01*
X146569761Y-107990475D02*
X146474523Y-108038094D01*
X146474523Y-108038094D02*
X146379285Y-108038094D01*
X146379285Y-108038094D02*
X146284047Y-107990475D01*
X146284047Y-107990475D02*
X146236428Y-107895237D01*
X146236428Y-107895237D02*
X146236428Y-107657142D01*
X146236428Y-107657142D02*
X146188809Y-107561904D01*
X146617380Y-107180951D02*
X145950714Y-106657142D01*
X145950714Y-107180951D02*
X146617380Y-106657142D01*
X146522142Y-106276189D02*
X146569761Y-106228570D01*
X146569761Y-106228570D02*
X146617380Y-106276189D01*
X146617380Y-106276189D02*
X146569761Y-106323808D01*
X146569761Y-106323808D02*
X146522142Y-106276189D01*
X146522142Y-106276189D02*
X146617380Y-106276189D01*
X146617380Y-105152380D02*
X146617380Y-104961904D01*
X146617380Y-104961904D02*
X146569761Y-104866666D01*
X146569761Y-104866666D02*
X146522142Y-104819047D01*
X146522142Y-104819047D02*
X146379285Y-104723809D01*
X146379285Y-104723809D02*
X146188809Y-104676190D01*
X146188809Y-104676190D02*
X145807857Y-104676190D01*
X145807857Y-104676190D02*
X145712619Y-104723809D01*
X145712619Y-104723809D02*
X145665000Y-104771428D01*
X145665000Y-104771428D02*
X145617380Y-104866666D01*
X145617380Y-104866666D02*
X145617380Y-105057142D01*
X145617380Y-105057142D02*
X145665000Y-105152380D01*
X145665000Y-105152380D02*
X145712619Y-105199999D01*
X145712619Y-105199999D02*
X145807857Y-105247618D01*
X145807857Y-105247618D02*
X146045952Y-105247618D01*
X146045952Y-105247618D02*
X146141190Y-105199999D01*
X146141190Y-105199999D02*
X146188809Y-105152380D01*
X146188809Y-105152380D02*
X146236428Y-105057142D01*
X146236428Y-105057142D02*
X146236428Y-104866666D01*
X146236428Y-104866666D02*
X146188809Y-104771428D01*
X146188809Y-104771428D02*
X146141190Y-104723809D01*
X146141190Y-104723809D02*
X146045952Y-104676190D01*
X145617380Y-104057142D02*
X145617380Y-103961904D01*
X145617380Y-103961904D02*
X145665000Y-103866666D01*
X145665000Y-103866666D02*
X145712619Y-103819047D01*
X145712619Y-103819047D02*
X145807857Y-103771428D01*
X145807857Y-103771428D02*
X145998333Y-103723809D01*
X145998333Y-103723809D02*
X146236428Y-103723809D01*
X146236428Y-103723809D02*
X146426904Y-103771428D01*
X146426904Y-103771428D02*
X146522142Y-103819047D01*
X146522142Y-103819047D02*
X146569761Y-103866666D01*
X146569761Y-103866666D02*
X146617380Y-103961904D01*
X146617380Y-103961904D02*
X146617380Y-104057142D01*
X146617380Y-104057142D02*
X146569761Y-104152380D01*
X146569761Y-104152380D02*
X146522142Y-104199999D01*
X146522142Y-104199999D02*
X146426904Y-104247618D01*
X146426904Y-104247618D02*
X146236428Y-104295237D01*
X146236428Y-104295237D02*
X145998333Y-104295237D01*
X145998333Y-104295237D02*
X145807857Y-104247618D01*
X145807857Y-104247618D02*
X145712619Y-104199999D01*
X145712619Y-104199999D02*
X145665000Y-104152380D01*
X145665000Y-104152380D02*
X145617380Y-104057142D01*
X145617380Y-103104761D02*
X145617380Y-103009523D01*
X145617380Y-103009523D02*
X145665000Y-102914285D01*
X145665000Y-102914285D02*
X145712619Y-102866666D01*
X145712619Y-102866666D02*
X145807857Y-102819047D01*
X145807857Y-102819047D02*
X145998333Y-102771428D01*
X145998333Y-102771428D02*
X146236428Y-102771428D01*
X146236428Y-102771428D02*
X146426904Y-102819047D01*
X146426904Y-102819047D02*
X146522142Y-102866666D01*
X146522142Y-102866666D02*
X146569761Y-102914285D01*
X146569761Y-102914285D02*
X146617380Y-103009523D01*
X146617380Y-103009523D02*
X146617380Y-103104761D01*
X146617380Y-103104761D02*
X146569761Y-103199999D01*
X146569761Y-103199999D02*
X146522142Y-103247618D01*
X146522142Y-103247618D02*
X146426904Y-103295237D01*
X146426904Y-103295237D02*
X146236428Y-103342856D01*
X146236428Y-103342856D02*
X145998333Y-103342856D01*
X145998333Y-103342856D02*
X145807857Y-103295237D01*
X145807857Y-103295237D02*
X145712619Y-103247618D01*
X145712619Y-103247618D02*
X145665000Y-103199999D01*
X145665000Y-103199999D02*
X145617380Y-103104761D01*
X145617380Y-102438094D02*
X146617380Y-102199999D01*
X146617380Y-102199999D02*
X145903095Y-102009523D01*
X145903095Y-102009523D02*
X146617380Y-101819047D01*
X146617380Y-101819047D02*
X145617380Y-101580952D01*
X134443809Y-103166666D02*
X133110476Y-101833333D01*
X134443809Y-102500000D02*
X134443809Y-103166666D01*
X134443809Y-103166666D02*
X133777142Y-103166666D01*
X115511904Y-98915000D02*
X115416666Y-98867380D01*
X115416666Y-98867380D02*
X115273809Y-98867380D01*
X115273809Y-98867380D02*
X115130952Y-98915000D01*
X115130952Y-98915000D02*
X115035714Y-99010238D01*
X115035714Y-99010238D02*
X114988095Y-99105476D01*
X114988095Y-99105476D02*
X114940476Y-99295952D01*
X114940476Y-99295952D02*
X114940476Y-99438809D01*
X114940476Y-99438809D02*
X114988095Y-99629285D01*
X114988095Y-99629285D02*
X115035714Y-99724523D01*
X115035714Y-99724523D02*
X115130952Y-99819761D01*
X115130952Y-99819761D02*
X115273809Y-99867380D01*
X115273809Y-99867380D02*
X115369047Y-99867380D01*
X115369047Y-99867380D02*
X115511904Y-99819761D01*
X115511904Y-99819761D02*
X115559523Y-99772142D01*
X115559523Y-99772142D02*
X115559523Y-99438809D01*
X115559523Y-99438809D02*
X115369047Y-99438809D01*
X115988095Y-99867380D02*
X115988095Y-98867380D01*
X115988095Y-98867380D02*
X116226190Y-98867380D01*
X116226190Y-98867380D02*
X116369047Y-98915000D01*
X116369047Y-98915000D02*
X116464285Y-99010238D01*
X116464285Y-99010238D02*
X116511904Y-99105476D01*
X116511904Y-99105476D02*
X116559523Y-99295952D01*
X116559523Y-99295952D02*
X116559523Y-99438809D01*
X116559523Y-99438809D02*
X116511904Y-99629285D01*
X116511904Y-99629285D02*
X116464285Y-99724523D01*
X116464285Y-99724523D02*
X116369047Y-99819761D01*
X116369047Y-99819761D02*
X116226190Y-99867380D01*
X116226190Y-99867380D02*
X115988095Y-99867380D01*
X114547619Y-88867380D02*
X114738095Y-88867380D01*
X114738095Y-88867380D02*
X114833333Y-88915000D01*
X114833333Y-88915000D02*
X114928571Y-89010238D01*
X114928571Y-89010238D02*
X114976190Y-89200714D01*
X114976190Y-89200714D02*
X114976190Y-89534047D01*
X114976190Y-89534047D02*
X114928571Y-89724523D01*
X114928571Y-89724523D02*
X114833333Y-89819761D01*
X114833333Y-89819761D02*
X114738095Y-89867380D01*
X114738095Y-89867380D02*
X114547619Y-89867380D01*
X114547619Y-89867380D02*
X114452381Y-89819761D01*
X114452381Y-89819761D02*
X114357143Y-89724523D01*
X114357143Y-89724523D02*
X114309524Y-89534047D01*
X114309524Y-89534047D02*
X114309524Y-89200714D01*
X114309524Y-89200714D02*
X114357143Y-89010238D01*
X114357143Y-89010238D02*
X114452381Y-88915000D01*
X114452381Y-88915000D02*
X114547619Y-88867380D01*
X115738095Y-89343571D02*
X115404762Y-89343571D01*
X115404762Y-89867380D02*
X115404762Y-88867380D01*
X115404762Y-88867380D02*
X115880952Y-88867380D01*
X116595238Y-89343571D02*
X116261905Y-89343571D01*
X116261905Y-89867380D02*
X116261905Y-88867380D01*
X116261905Y-88867380D02*
X116738095Y-88867380D01*
X114528571Y-92255809D02*
X114642857Y-92293904D01*
X114642857Y-92293904D02*
X114833333Y-92293904D01*
X114833333Y-92293904D02*
X114909524Y-92255809D01*
X114909524Y-92255809D02*
X114947619Y-92217714D01*
X114947619Y-92217714D02*
X114985714Y-92141523D01*
X114985714Y-92141523D02*
X114985714Y-92065333D01*
X114985714Y-92065333D02*
X114947619Y-91989142D01*
X114947619Y-91989142D02*
X114909524Y-91951047D01*
X114909524Y-91951047D02*
X114833333Y-91912952D01*
X114833333Y-91912952D02*
X114680952Y-91874857D01*
X114680952Y-91874857D02*
X114604762Y-91836761D01*
X114604762Y-91836761D02*
X114566667Y-91798666D01*
X114566667Y-91798666D02*
X114528571Y-91722476D01*
X114528571Y-91722476D02*
X114528571Y-91646285D01*
X114528571Y-91646285D02*
X114566667Y-91570095D01*
X114566667Y-91570095D02*
X114604762Y-91532000D01*
X114604762Y-91532000D02*
X114680952Y-91493904D01*
X114680952Y-91493904D02*
X114871429Y-91493904D01*
X114871429Y-91493904D02*
X114985714Y-91532000D01*
X115328572Y-92293904D02*
X115328572Y-91493904D01*
X115328572Y-91493904D02*
X115519048Y-91493904D01*
X115519048Y-91493904D02*
X115633334Y-91532000D01*
X115633334Y-91532000D02*
X115709524Y-91608190D01*
X115709524Y-91608190D02*
X115747619Y-91684380D01*
X115747619Y-91684380D02*
X115785715Y-91836761D01*
X115785715Y-91836761D02*
X115785715Y-91951047D01*
X115785715Y-91951047D02*
X115747619Y-92103428D01*
X115747619Y-92103428D02*
X115709524Y-92179619D01*
X115709524Y-92179619D02*
X115633334Y-92255809D01*
X115633334Y-92255809D02*
X115519048Y-92293904D01*
X115519048Y-92293904D02*
X115328572Y-92293904D01*
X116090476Y-92065333D02*
X116471429Y-92065333D01*
X116014286Y-92293904D02*
X116280953Y-91493904D01*
X116280953Y-91493904D02*
X116547619Y-92293904D01*
%TO.C,Q1*%
X128712619Y-105095238D02*
X128665000Y-105190476D01*
X128665000Y-105190476D02*
X128569761Y-105285714D01*
X128569761Y-105285714D02*
X128426904Y-105428571D01*
X128426904Y-105428571D02*
X128379285Y-105523809D01*
X128379285Y-105523809D02*
X128379285Y-105619047D01*
X128617380Y-105571428D02*
X128569761Y-105666666D01*
X128569761Y-105666666D02*
X128474523Y-105761904D01*
X128474523Y-105761904D02*
X128284047Y-105809523D01*
X128284047Y-105809523D02*
X127950714Y-105809523D01*
X127950714Y-105809523D02*
X127760238Y-105761904D01*
X127760238Y-105761904D02*
X127665000Y-105666666D01*
X127665000Y-105666666D02*
X127617380Y-105571428D01*
X127617380Y-105571428D02*
X127617380Y-105380952D01*
X127617380Y-105380952D02*
X127665000Y-105285714D01*
X127665000Y-105285714D02*
X127760238Y-105190476D01*
X127760238Y-105190476D02*
X127950714Y-105142857D01*
X127950714Y-105142857D02*
X128284047Y-105142857D01*
X128284047Y-105142857D02*
X128474523Y-105190476D01*
X128474523Y-105190476D02*
X128569761Y-105285714D01*
X128569761Y-105285714D02*
X128617380Y-105380952D01*
X128617380Y-105380952D02*
X128617380Y-105571428D01*
X128617380Y-104190476D02*
X128617380Y-104761904D01*
X128617380Y-104476190D02*
X127617380Y-104476190D01*
X127617380Y-104476190D02*
X127760238Y-104571428D01*
X127760238Y-104571428D02*
X127855476Y-104666666D01*
X127855476Y-104666666D02*
X127903095Y-104761904D01*
%TO.C,R2*%
X120117380Y-91466666D02*
X119641190Y-91799999D01*
X120117380Y-92038094D02*
X119117380Y-92038094D01*
X119117380Y-92038094D02*
X119117380Y-91657142D01*
X119117380Y-91657142D02*
X119165000Y-91561904D01*
X119165000Y-91561904D02*
X119212619Y-91514285D01*
X119212619Y-91514285D02*
X119307857Y-91466666D01*
X119307857Y-91466666D02*
X119450714Y-91466666D01*
X119450714Y-91466666D02*
X119545952Y-91514285D01*
X119545952Y-91514285D02*
X119593571Y-91561904D01*
X119593571Y-91561904D02*
X119641190Y-91657142D01*
X119641190Y-91657142D02*
X119641190Y-92038094D01*
X119212619Y-91085713D02*
X119165000Y-91038094D01*
X119165000Y-91038094D02*
X119117380Y-90942856D01*
X119117380Y-90942856D02*
X119117380Y-90704761D01*
X119117380Y-90704761D02*
X119165000Y-90609523D01*
X119165000Y-90609523D02*
X119212619Y-90561904D01*
X119212619Y-90561904D02*
X119307857Y-90514285D01*
X119307857Y-90514285D02*
X119403095Y-90514285D01*
X119403095Y-90514285D02*
X119545952Y-90561904D01*
X119545952Y-90561904D02*
X120117380Y-91133332D01*
X120117380Y-91133332D02*
X120117380Y-90514285D01*
D13*
%TO.C,D2*%
X123249524Y-93993904D02*
X123249524Y-93193904D01*
X123249524Y-93193904D02*
X123440000Y-93193904D01*
X123440000Y-93193904D02*
X123554286Y-93232000D01*
X123554286Y-93232000D02*
X123630476Y-93308190D01*
X123630476Y-93308190D02*
X123668571Y-93384380D01*
X123668571Y-93384380D02*
X123706667Y-93536761D01*
X123706667Y-93536761D02*
X123706667Y-93651047D01*
X123706667Y-93651047D02*
X123668571Y-93803428D01*
X123668571Y-93803428D02*
X123630476Y-93879619D01*
X123630476Y-93879619D02*
X123554286Y-93955809D01*
X123554286Y-93955809D02*
X123440000Y-93993904D01*
X123440000Y-93993904D02*
X123249524Y-93993904D01*
X124011428Y-93270095D02*
X124049524Y-93232000D01*
X124049524Y-93232000D02*
X124125714Y-93193904D01*
X124125714Y-93193904D02*
X124316190Y-93193904D01*
X124316190Y-93193904D02*
X124392381Y-93232000D01*
X124392381Y-93232000D02*
X124430476Y-93270095D01*
X124430476Y-93270095D02*
X124468571Y-93346285D01*
X124468571Y-93346285D02*
X124468571Y-93422476D01*
X124468571Y-93422476D02*
X124430476Y-93536761D01*
X124430476Y-93536761D02*
X123973333Y-93993904D01*
X123973333Y-93993904D02*
X124468571Y-93993904D01*
D10*
%TO.C,J2*%
X139616091Y-106584012D02*
X140331834Y-106584012D01*
X140331834Y-106584012D02*
X140474982Y-106631728D01*
X140474982Y-106631728D02*
X140570414Y-106727160D01*
X140570414Y-106727160D02*
X140618130Y-106870309D01*
X140618130Y-106870309D02*
X140618130Y-106965741D01*
X139711524Y-106154567D02*
X139663808Y-106106851D01*
X139663808Y-106106851D02*
X139616091Y-106011419D01*
X139616091Y-106011419D02*
X139616091Y-105772838D01*
X139616091Y-105772838D02*
X139663808Y-105677406D01*
X139663808Y-105677406D02*
X139711524Y-105629689D01*
X139711524Y-105629689D02*
X139806956Y-105581973D01*
X139806956Y-105581973D02*
X139902388Y-105581973D01*
X139902388Y-105581973D02*
X140045537Y-105629689D01*
X140045537Y-105629689D02*
X140618130Y-106202283D01*
X140618130Y-106202283D02*
X140618130Y-105581973D01*
%TO.C,J1*%
X151527690Y-103184013D02*
X151169819Y-103803864D01*
X151169819Y-103803864D02*
X151056922Y-103903976D01*
X151056922Y-103903976D02*
X150926559Y-103938906D01*
X150926559Y-103938906D02*
X150778730Y-103908656D01*
X150778730Y-103908656D02*
X150696084Y-103860939D01*
X151894462Y-104552823D02*
X151398581Y-104266526D01*
X151646521Y-104409675D02*
X152147541Y-103541884D01*
X152147541Y-103541884D02*
X151993320Y-103618138D01*
X151993320Y-103618138D02*
X151862957Y-103653068D01*
X151862957Y-103653068D02*
X151756452Y-103646676D01*
%TO.C,R3*%
X119967380Y-104566666D02*
X119491190Y-104899999D01*
X119967380Y-105138094D02*
X118967380Y-105138094D01*
X118967380Y-105138094D02*
X118967380Y-104757142D01*
X118967380Y-104757142D02*
X119015000Y-104661904D01*
X119015000Y-104661904D02*
X119062619Y-104614285D01*
X119062619Y-104614285D02*
X119157857Y-104566666D01*
X119157857Y-104566666D02*
X119300714Y-104566666D01*
X119300714Y-104566666D02*
X119395952Y-104614285D01*
X119395952Y-104614285D02*
X119443571Y-104661904D01*
X119443571Y-104661904D02*
X119491190Y-104757142D01*
X119491190Y-104757142D02*
X119491190Y-105138094D01*
X118967380Y-104233332D02*
X118967380Y-103614285D01*
X118967380Y-103614285D02*
X119348333Y-103947618D01*
X119348333Y-103947618D02*
X119348333Y-103804761D01*
X119348333Y-103804761D02*
X119395952Y-103709523D01*
X119395952Y-103709523D02*
X119443571Y-103661904D01*
X119443571Y-103661904D02*
X119538809Y-103614285D01*
X119538809Y-103614285D02*
X119776904Y-103614285D01*
X119776904Y-103614285D02*
X119872142Y-103661904D01*
X119872142Y-103661904D02*
X119919761Y-103709523D01*
X119919761Y-103709523D02*
X119967380Y-103804761D01*
X119967380Y-103804761D02*
X119967380Y-104090475D01*
X119967380Y-104090475D02*
X119919761Y-104185713D01*
X119919761Y-104185713D02*
X119872142Y-104233332D01*
%TO.C,Q2*%
X124212619Y-97095238D02*
X124165000Y-97190476D01*
X124165000Y-97190476D02*
X124069761Y-97285714D01*
X124069761Y-97285714D02*
X123926904Y-97428571D01*
X123926904Y-97428571D02*
X123879285Y-97523809D01*
X123879285Y-97523809D02*
X123879285Y-97619047D01*
X124117380Y-97571428D02*
X124069761Y-97666666D01*
X124069761Y-97666666D02*
X123974523Y-97761904D01*
X123974523Y-97761904D02*
X123784047Y-97809523D01*
X123784047Y-97809523D02*
X123450714Y-97809523D01*
X123450714Y-97809523D02*
X123260238Y-97761904D01*
X123260238Y-97761904D02*
X123165000Y-97666666D01*
X123165000Y-97666666D02*
X123117380Y-97571428D01*
X123117380Y-97571428D02*
X123117380Y-97380952D01*
X123117380Y-97380952D02*
X123165000Y-97285714D01*
X123165000Y-97285714D02*
X123260238Y-97190476D01*
X123260238Y-97190476D02*
X123450714Y-97142857D01*
X123450714Y-97142857D02*
X123784047Y-97142857D01*
X123784047Y-97142857D02*
X123974523Y-97190476D01*
X123974523Y-97190476D02*
X124069761Y-97285714D01*
X124069761Y-97285714D02*
X124117380Y-97380952D01*
X124117380Y-97380952D02*
X124117380Y-97571428D01*
X123212619Y-96761904D02*
X123165000Y-96714285D01*
X123165000Y-96714285D02*
X123117380Y-96619047D01*
X123117380Y-96619047D02*
X123117380Y-96380952D01*
X123117380Y-96380952D02*
X123165000Y-96285714D01*
X123165000Y-96285714D02*
X123212619Y-96238095D01*
X123212619Y-96238095D02*
X123307857Y-96190476D01*
X123307857Y-96190476D02*
X123403095Y-96190476D01*
X123403095Y-96190476D02*
X123545952Y-96238095D01*
X123545952Y-96238095D02*
X124117380Y-96809523D01*
X124117380Y-96809523D02*
X124117380Y-96190476D01*
%TO.C,K1*%
X125325405Y-102587380D02*
X125325405Y-101587380D01*
X125896833Y-102587380D02*
X125468262Y-102015952D01*
X125896833Y-101587380D02*
X125325405Y-102158809D01*
X126849214Y-102587380D02*
X126277786Y-102587380D01*
X126563500Y-102587380D02*
X126563500Y-101587380D01*
X126563500Y-101587380D02*
X126468262Y-101730238D01*
X126468262Y-101730238D02*
X126373024Y-101825476D01*
X126373024Y-101825476D02*
X126277786Y-101873095D01*
%TO.C,C2*%
X119402349Y-67030408D02*
X119419779Y-67095457D01*
X119419779Y-67095457D02*
X119389590Y-67242984D01*
X119389590Y-67242984D02*
X119341970Y-67325463D01*
X119341970Y-67325463D02*
X119229303Y-67425371D01*
X119229303Y-67425371D02*
X119099205Y-67460231D01*
X119099205Y-67460231D02*
X118992917Y-67453851D01*
X118992917Y-67453851D02*
X118804150Y-67399852D01*
X118804150Y-67399852D02*
X118680432Y-67328424D01*
X118680432Y-67328424D02*
X118539284Y-67191946D01*
X118539284Y-67191946D02*
X118480615Y-67103088D01*
X118480615Y-67103088D02*
X118445756Y-66972990D01*
X118445756Y-66972990D02*
X118475945Y-66825463D01*
X118475945Y-66825463D02*
X118523564Y-66742984D01*
X118523564Y-66742984D02*
X118636232Y-66643076D01*
X118636232Y-66643076D02*
X118701281Y-66625646D01*
X118891757Y-66295732D02*
X118874327Y-66230683D01*
X118874327Y-66230683D02*
X118880707Y-66124395D01*
X118880707Y-66124395D02*
X118999755Y-65918198D01*
X118999755Y-65918198D02*
X119088613Y-65859529D01*
X119088613Y-65859529D02*
X119153662Y-65842099D01*
X119153662Y-65842099D02*
X119259950Y-65848479D01*
X119259950Y-65848479D02*
X119342429Y-65896098D01*
X119342429Y-65896098D02*
X119442337Y-66008766D01*
X119442337Y-66008766D02*
X119651494Y-66789352D01*
X119651494Y-66789352D02*
X119961018Y-66253241D01*
D13*
%TO.C,F1*%
X160556667Y-92250500D02*
X160323333Y-92250500D01*
X160323333Y-92617166D02*
X160323333Y-91917166D01*
X160323333Y-91917166D02*
X160656667Y-91917166D01*
X161290000Y-92617166D02*
X160890000Y-92617166D01*
X161090000Y-92617166D02*
X161090000Y-91917166D01*
X161090000Y-91917166D02*
X161023333Y-92017166D01*
X161023333Y-92017166D02*
X160956667Y-92083833D01*
X160956667Y-92083833D02*
X160890000Y-92117166D01*
D10*
X160367380Y-86299999D02*
X160605476Y-86299999D01*
X160510238Y-86538094D02*
X160605476Y-86299999D01*
X160605476Y-86299999D02*
X160510238Y-86061904D01*
X160795952Y-86442856D02*
X160605476Y-86299999D01*
X160605476Y-86299999D02*
X160795952Y-86157142D01*
D13*
%TO.C,D1*%
X121033904Y-102180475D02*
X120233904Y-102180475D01*
X120233904Y-102180475D02*
X120233904Y-101989999D01*
X120233904Y-101989999D02*
X120272000Y-101875713D01*
X120272000Y-101875713D02*
X120348190Y-101799523D01*
X120348190Y-101799523D02*
X120424380Y-101761428D01*
X120424380Y-101761428D02*
X120576761Y-101723332D01*
X120576761Y-101723332D02*
X120691047Y-101723332D01*
X120691047Y-101723332D02*
X120843428Y-101761428D01*
X120843428Y-101761428D02*
X120919619Y-101799523D01*
X120919619Y-101799523D02*
X120995809Y-101875713D01*
X120995809Y-101875713D02*
X121033904Y-101989999D01*
X121033904Y-101989999D02*
X121033904Y-102180475D01*
X121033904Y-100961428D02*
X121033904Y-101418571D01*
X121033904Y-101189999D02*
X120233904Y-101189999D01*
X120233904Y-101189999D02*
X120348190Y-101266190D01*
X120348190Y-101266190D02*
X120424380Y-101342380D01*
X120424380Y-101342380D02*
X120462476Y-101418571D01*
D10*
%TO.C,C1*%
X112324583Y-77560284D02*
X112324583Y-77627628D01*
X112324583Y-77627628D02*
X112257239Y-77762315D01*
X112257239Y-77762315D02*
X112189896Y-77829658D01*
X112189896Y-77829658D02*
X112055209Y-77897002D01*
X112055209Y-77897002D02*
X111920522Y-77897002D01*
X111920522Y-77897002D02*
X111819506Y-77863330D01*
X111819506Y-77863330D02*
X111651148Y-77762315D01*
X111651148Y-77762315D02*
X111550132Y-77661300D01*
X111550132Y-77661300D02*
X111449117Y-77492941D01*
X111449117Y-77492941D02*
X111415445Y-77391926D01*
X111415445Y-77391926D02*
X111415445Y-77257239D01*
X111415445Y-77257239D02*
X111482789Y-77122552D01*
X111482789Y-77122552D02*
X111550132Y-77055208D01*
X111550132Y-77055208D02*
X111684819Y-76987865D01*
X111684819Y-76987865D02*
X111752163Y-76987865D01*
X113065361Y-76954193D02*
X112661300Y-77358254D01*
X112863331Y-77156223D02*
X112156224Y-76449117D01*
X112156224Y-76449117D02*
X112189896Y-76617475D01*
X112189896Y-76617475D02*
X112189896Y-76752162D01*
X112189896Y-76752162D02*
X112156224Y-76853178D01*
D14*
%TO.C,L1*%
X122596573Y-64591666D02*
X122596573Y-65196428D01*
X122596573Y-65196428D02*
X121326573Y-65196428D01*
X122596573Y-63503094D02*
X122596573Y-64228809D01*
X122596573Y-63865952D02*
X121326573Y-63865952D01*
X121326573Y-63865952D02*
X121508002Y-63986904D01*
X121508002Y-63986904D02*
X121628954Y-64107856D01*
X121628954Y-64107856D02*
X121689430Y-64228809D01*
D10*
%TO.C,J4*%
X112416666Y-92617380D02*
X112416666Y-93331666D01*
X112416666Y-93331666D02*
X112369047Y-93474523D01*
X112369047Y-93474523D02*
X112273809Y-93569761D01*
X112273809Y-93569761D02*
X112130952Y-93617380D01*
X112130952Y-93617380D02*
X112035714Y-93617380D01*
X113321428Y-92950714D02*
X113321428Y-93617380D01*
X113083333Y-92569761D02*
X112845238Y-93284047D01*
X112845238Y-93284047D02*
X113464285Y-93284047D01*
D15*
%TO.C,PS1*%
X139990142Y-90751916D02*
X139990142Y-89608916D01*
X139990142Y-89608916D02*
X140425571Y-89608916D01*
X140425571Y-89608916D02*
X140534428Y-89663345D01*
X140534428Y-89663345D02*
X140588857Y-89717773D01*
X140588857Y-89717773D02*
X140643285Y-89826630D01*
X140643285Y-89826630D02*
X140643285Y-89989916D01*
X140643285Y-89989916D02*
X140588857Y-90098773D01*
X140588857Y-90098773D02*
X140534428Y-90153202D01*
X140534428Y-90153202D02*
X140425571Y-90207630D01*
X140425571Y-90207630D02*
X139990142Y-90207630D01*
X141078714Y-90697487D02*
X141242000Y-90751916D01*
X141242000Y-90751916D02*
X141514142Y-90751916D01*
X141514142Y-90751916D02*
X141623000Y-90697487D01*
X141623000Y-90697487D02*
X141677428Y-90643059D01*
X141677428Y-90643059D02*
X141731857Y-90534202D01*
X141731857Y-90534202D02*
X141731857Y-90425345D01*
X141731857Y-90425345D02*
X141677428Y-90316487D01*
X141677428Y-90316487D02*
X141623000Y-90262059D01*
X141623000Y-90262059D02*
X141514142Y-90207630D01*
X141514142Y-90207630D02*
X141296428Y-90153202D01*
X141296428Y-90153202D02*
X141187571Y-90098773D01*
X141187571Y-90098773D02*
X141133142Y-90044345D01*
X141133142Y-90044345D02*
X141078714Y-89935487D01*
X141078714Y-89935487D02*
X141078714Y-89826630D01*
X141078714Y-89826630D02*
X141133142Y-89717773D01*
X141133142Y-89717773D02*
X141187571Y-89663345D01*
X141187571Y-89663345D02*
X141296428Y-89608916D01*
X141296428Y-89608916D02*
X141568571Y-89608916D01*
X141568571Y-89608916D02*
X141731857Y-89663345D01*
X142820428Y-90751916D02*
X142167285Y-90751916D01*
X142493856Y-90751916D02*
X142493856Y-89608916D01*
X142493856Y-89608916D02*
X142384999Y-89772202D01*
X142384999Y-89772202D02*
X142276142Y-89881059D01*
X142276142Y-89881059D02*
X142167285Y-89935487D01*
D10*
%TO.C,H5*%
X135777295Y-82509480D02*
X135777295Y-81509480D01*
X135777295Y-81985671D02*
X136348723Y-81985671D01*
X136348723Y-82509480D02*
X136348723Y-81509480D01*
X137301104Y-81509480D02*
X136824914Y-81509480D01*
X136824914Y-81509480D02*
X136777295Y-81985671D01*
X136777295Y-81985671D02*
X136824914Y-81938052D01*
X136824914Y-81938052D02*
X136920152Y-81890433D01*
X136920152Y-81890433D02*
X137158247Y-81890433D01*
X137158247Y-81890433D02*
X137253485Y-81938052D01*
X137253485Y-81938052D02*
X137301104Y-81985671D01*
X137301104Y-81985671D02*
X137348723Y-82080909D01*
X137348723Y-82080909D02*
X137348723Y-82319004D01*
X137348723Y-82319004D02*
X137301104Y-82414242D01*
X137301104Y-82414242D02*
X137253485Y-82461861D01*
X137253485Y-82461861D02*
X137158247Y-82509480D01*
X137158247Y-82509480D02*
X136920152Y-82509480D01*
X136920152Y-82509480D02*
X136824914Y-82461861D01*
X136824914Y-82461861D02*
X136777295Y-82414242D01*
D16*
%TO.C,Q1*%
X124699050Y-102936494D02*
X124699050Y-107063506D01*
X127405115Y-107544097D02*
G75*
G03*
X127406690Y-102456517I-991565J2544097D01*
G01*
X125420409Y-102456518D02*
G75*
G03*
X124748610Y-102835836I993141J-2543482D01*
G01*
X124748610Y-107164164D02*
G75*
G03*
X125421985Y-107544097I1664940J2164164D01*
G01*
X127470550Y-101960000D02*
G75*
G03*
X127470550Y-101960000I-127000J0D01*
G01*
%TO.C,R2*%
X120665000Y-91527064D02*
X120665000Y-91072936D01*
X122135000Y-91527064D02*
X122135000Y-91072936D01*
%TO.C,D2*%
X124600000Y-90100000D02*
X122900000Y-90100000D01*
X124600000Y-90100000D02*
X124600000Y-92650000D01*
X122900000Y-90100000D02*
X122900000Y-92650000D01*
D17*
%TO.C,J2*%
X135170000Y-102150000D02*
X145330000Y-102150000D01*
X135170000Y-109350000D02*
X135170000Y-102150000D01*
X135170000Y-109350000D02*
X145330000Y-109350000D01*
X135170000Y-110350000D02*
X135170000Y-109350000D01*
X145330000Y-102150000D02*
X145330000Y-109350000D01*
X145330000Y-109350000D02*
X145330000Y-110350000D01*
X145330000Y-110350000D02*
X135170000Y-110350000D01*
%TO.C,J1*%
X148139296Y-100299114D02*
X153219296Y-91500296D01*
X154374679Y-103899114D02*
X148139296Y-100299114D01*
X154374679Y-103899114D02*
X159454679Y-95100296D01*
X155240704Y-104399114D02*
X154374679Y-103899114D01*
X153219296Y-91500296D02*
X159454679Y-95100296D01*
X159454679Y-95100296D02*
X160320704Y-95600296D01*
X160320704Y-95600296D02*
X155240704Y-104399114D01*
D16*
%TO.C,R3*%
X120515000Y-104627064D02*
X120515000Y-104172936D01*
X121985000Y-104627064D02*
X121985000Y-104172936D01*
%TO.C,Q2*%
X120285500Y-94836494D02*
X120285500Y-98963506D01*
X122991565Y-99444097D02*
G75*
G03*
X122993140Y-94356517I-991565J2544097D01*
G01*
X121006859Y-94356518D02*
G75*
G03*
X120335060Y-94735836I993141J-2543482D01*
G01*
X120335060Y-99064164D02*
G75*
G03*
X121008435Y-99444097I1664940J2164164D01*
G01*
X123057000Y-93860000D02*
G75*
G03*
X123057000Y-93860000I-127000J0D01*
G01*
%TO.C,K1*%
X125276500Y-101130800D02*
X125276500Y-90869200D01*
X145723500Y-101130800D02*
X125276500Y-101130800D01*
X125276500Y-90869200D02*
X145723500Y-90869200D01*
X145723500Y-90869200D02*
X145723500Y-101130800D01*
%TO.C,C2*%
X121229646Y-68607051D02*
X120729646Y-69473076D01*
X121412659Y-69290064D02*
X120546633Y-68790064D01*
X120399409Y-74455064D02*
X111600591Y-69375064D01*
X120379409Y-74489705D02*
X111580591Y-69409705D01*
X120359409Y-74524346D02*
X111560591Y-69444346D01*
X120338543Y-74558487D02*
X111541457Y-69479487D01*
X120317677Y-74592628D02*
X111522323Y-69514628D01*
X120296811Y-74626769D02*
X111503189Y-69549769D01*
X120275079Y-74660410D02*
X111484921Y-69585410D01*
X120253347Y-74694051D02*
X111466653Y-69621051D01*
X120230749Y-74727192D02*
X111449251Y-69657192D01*
X120209017Y-74760833D02*
X111430983Y-69692833D01*
X120186419Y-74793974D02*
X111413581Y-69728974D01*
X120163821Y-74827115D02*
X111396179Y-69765115D01*
X120140356Y-74859756D02*
X111379644Y-69801756D01*
X120116892Y-74892397D02*
X111363108Y-69838397D01*
X120093428Y-74925038D02*
X111346572Y-69875038D01*
X120069098Y-74957179D02*
X111330902Y-69912179D01*
X120044768Y-74989320D02*
X111315232Y-69949320D01*
X120020438Y-75021461D02*
X111299562Y-69986461D01*
X119995608Y-75054468D02*
X111283392Y-70024468D01*
X119970412Y-75086109D02*
X111268588Y-70062109D01*
X119945215Y-75117750D02*
X111253785Y-70099750D01*
X119919153Y-75148891D02*
X111239847Y-70137891D01*
X119893091Y-75180032D02*
X111225909Y-70176032D01*
X119867029Y-75211173D02*
X111211971Y-70214173D01*
X119840967Y-75242314D02*
X111198033Y-70252314D01*
X119814039Y-75272955D02*
X111184961Y-70290955D01*
X119787110Y-75303596D02*
X111171890Y-70329596D01*
X119759316Y-75333737D02*
X111159684Y-70368737D01*
X119731522Y-75363878D02*
X111147478Y-70407878D01*
X119703728Y-75394019D02*
X111135272Y-70447019D01*
X119675933Y-75424160D02*
X111123067Y-70486160D01*
X119647273Y-75453801D02*
X111111727Y-70525801D01*
X119618613Y-75483442D02*
X116434238Y-73644942D01*
X114284762Y-72403942D02*
X111100387Y-70565442D01*
X119589087Y-75512583D02*
X116414238Y-73679583D01*
X114264762Y-72438583D02*
X111089913Y-70605583D01*
X119560426Y-75542224D02*
X116394238Y-73714224D01*
X114244762Y-72473224D02*
X111078574Y-70645224D01*
X119530034Y-75570865D02*
X116374238Y-73748865D01*
X114224762Y-72507865D02*
X111068966Y-70685865D01*
X119500508Y-75600006D02*
X116354238Y-73783506D01*
X114204762Y-72542506D02*
X111058492Y-70726006D01*
X119470116Y-75628647D02*
X116334238Y-73818147D01*
X114184762Y-72577147D02*
X111048884Y-70766647D01*
X119439723Y-75657288D02*
X116314238Y-73852788D01*
X114164762Y-72611788D02*
X111039277Y-70807288D01*
X119408465Y-75685429D02*
X116294238Y-73887429D01*
X114144762Y-72646429D02*
X111030535Y-70848429D01*
X119377207Y-75713570D02*
X116274238Y-73922070D01*
X114124762Y-72681070D02*
X111021793Y-70889570D01*
X119345948Y-75741711D02*
X116254238Y-73956711D01*
X114104762Y-72715711D02*
X111013052Y-70930711D01*
X119313824Y-75769352D02*
X116234238Y-73991352D01*
X114084762Y-72750352D02*
X111005176Y-70972352D01*
X119281700Y-75796993D02*
X116214238Y-74025993D01*
X114064762Y-72784993D02*
X110997300Y-71013993D01*
X119248709Y-75824134D02*
X116194238Y-74060634D01*
X114044762Y-72819634D02*
X110990291Y-71056134D01*
X119216585Y-75851775D02*
X116174238Y-74095275D01*
X114024762Y-72854275D02*
X110982415Y-71097775D01*
X119182728Y-75878416D02*
X116154238Y-74129916D01*
X114004762Y-72888916D02*
X110976272Y-71140416D01*
X119149738Y-75905557D02*
X116134238Y-74164557D01*
X113984762Y-72923557D02*
X110969262Y-71182557D01*
X119115882Y-75932198D02*
X116114238Y-74199198D01*
X113964762Y-72958198D02*
X110963118Y-71225198D01*
X119081159Y-75958339D02*
X116094238Y-74233839D01*
X113944762Y-72992839D02*
X110957841Y-71268339D01*
X119047303Y-75984980D02*
X116074238Y-74268480D01*
X113924762Y-73027480D02*
X110951697Y-71310980D01*
X119012580Y-76011121D02*
X116054238Y-74303121D01*
X113904762Y-73062121D02*
X110946420Y-71354121D01*
X118976992Y-76036762D02*
X116034238Y-74337762D01*
X113884762Y-73096762D02*
X110942008Y-71397762D01*
X118941403Y-76062403D02*
X116014238Y-74372403D01*
X113864762Y-73131403D02*
X110937597Y-71441403D01*
X118905815Y-76088044D02*
X115994238Y-74407044D01*
X113844762Y-73166044D02*
X110933185Y-71485044D01*
X118869360Y-76113185D02*
X115974238Y-74441685D01*
X113824762Y-73200685D02*
X110929640Y-71529185D01*
X118832040Y-76137826D02*
X115954238Y-74476326D01*
X113804762Y-73235326D02*
X110926960Y-71573826D01*
X118795585Y-76162967D02*
X115934238Y-74510967D01*
X113784762Y-73269967D02*
X110923415Y-71617967D01*
X118758265Y-76187608D02*
X115914238Y-74545608D01*
X113764762Y-73304608D02*
X110920735Y-71662608D01*
X118720078Y-76211749D02*
X115894238Y-74580249D01*
X113744762Y-73339249D02*
X110918922Y-71707749D01*
X118681892Y-76235891D02*
X115874238Y-74614891D01*
X113724762Y-73373891D02*
X110917108Y-71752891D01*
X118643705Y-76260032D02*
X115854238Y-74649532D01*
X113704762Y-73408532D02*
X110915295Y-71798032D01*
X118604653Y-76283673D02*
X115834238Y-74684173D01*
X113684762Y-73443173D02*
X110914347Y-71843673D01*
X118564734Y-76306814D02*
X115814238Y-74718814D01*
X113664762Y-73477814D02*
X110914266Y-71889814D01*
X118525682Y-76330455D02*
X115794238Y-74753455D01*
X113644762Y-73512455D02*
X110913318Y-71935455D01*
X118484897Y-76353096D02*
X115774238Y-74788096D01*
X113624762Y-73547096D02*
X110914103Y-71982096D01*
X118444112Y-76375737D02*
X115754238Y-74822737D01*
X113604762Y-73581737D02*
X110914888Y-72028737D01*
X118403328Y-76398378D02*
X115734238Y-74857378D01*
X113584762Y-73616378D02*
X110915672Y-72075378D01*
X118361677Y-76420519D02*
X115714238Y-74892019D01*
X113564762Y-73651019D02*
X110917323Y-72122519D01*
X118320027Y-76442660D02*
X115694238Y-74926660D01*
X113544762Y-73685660D02*
X110918973Y-72169660D01*
X118277510Y-76464301D02*
X115674238Y-74961301D01*
X113524762Y-73720301D02*
X110921490Y-72217301D01*
X118234993Y-76485942D02*
X115654238Y-74995942D01*
X113504762Y-73754942D02*
X110924007Y-72264942D01*
X118191611Y-76507083D02*
X115634238Y-75030583D01*
X113484762Y-73789583D02*
X110927389Y-72313083D01*
X118147362Y-76527724D02*
X115614238Y-75065224D01*
X113464762Y-73824224D02*
X110931638Y-72361724D01*
X118103113Y-76548365D02*
X115594238Y-75099865D01*
X113444762Y-73858865D02*
X110935887Y-72410365D01*
X118058864Y-76569006D02*
X115574238Y-75134506D01*
X113424762Y-73893506D02*
X110940136Y-72459006D01*
X118012884Y-76588647D02*
X115554238Y-75169147D01*
X113404762Y-73928147D02*
X110946116Y-72508647D01*
X117966903Y-76608288D02*
X115534238Y-75203788D01*
X113384762Y-73962788D02*
X110952097Y-72558288D01*
X117920922Y-76627929D02*
X115514238Y-75238429D01*
X113364762Y-73997429D02*
X110958078Y-72607929D01*
X117874075Y-76647070D02*
X115494238Y-75273070D01*
X113344762Y-74032070D02*
X110964925Y-72658070D01*
X117826363Y-76665711D02*
X115474238Y-75307711D01*
X113324762Y-74066711D02*
X110972637Y-72708711D01*
X117778650Y-76684352D02*
X115454238Y-75342352D01*
X113304762Y-74101352D02*
X110980350Y-72759352D01*
X117730071Y-76702493D02*
X115434238Y-75376993D01*
X113284762Y-74135993D02*
X110988929Y-72810493D01*
X117680626Y-76720134D02*
X115414238Y-75411634D01*
X113264762Y-74170634D02*
X110998374Y-72862134D01*
X117631181Y-76737775D02*
X115394238Y-75446275D01*
X113244762Y-74205275D02*
X111007819Y-72913775D01*
X117580870Y-76754916D02*
X115374238Y-75480916D01*
X113224762Y-74239916D02*
X111018130Y-72965916D01*
X117529693Y-76771557D02*
X115354238Y-75515557D01*
X113204762Y-74274557D02*
X111029307Y-73018557D01*
X117477650Y-76787698D02*
X115334238Y-75550198D01*
X113184762Y-74309198D02*
X111041350Y-73071698D01*
X117425607Y-76803839D02*
X115314238Y-75584839D01*
X113164762Y-74343839D02*
X111053393Y-73124839D01*
X117371832Y-76818980D02*
X115294238Y-75619480D01*
X113144762Y-74378480D02*
X111067168Y-73178980D01*
X117318057Y-76834121D02*
X115274238Y-75654121D01*
X113124762Y-74413121D02*
X111080943Y-73233121D01*
X117263416Y-76848762D02*
X115254238Y-75688762D01*
X113104762Y-74447762D02*
X111095584Y-73287762D01*
X117207909Y-76862903D02*
X115234238Y-75723403D01*
X113084762Y-74482403D02*
X111111091Y-73342903D01*
X117151536Y-76876544D02*
X115214238Y-75758044D01*
X113064762Y-74517044D02*
X111127464Y-73398544D01*
X117095163Y-76890185D02*
X111143837Y-73454185D01*
X117037058Y-76902826D02*
X111161942Y-73510826D01*
X116978087Y-76914967D02*
X111180913Y-73567967D01*
X116918250Y-76926608D02*
X111200750Y-73625608D01*
X116857547Y-76937749D02*
X111221453Y-73683749D01*
X116795977Y-76948390D02*
X111243023Y-73742390D01*
X116732676Y-76958031D02*
X111266324Y-73802031D01*
X116669375Y-76967672D02*
X111289625Y-73861672D01*
X116604342Y-76976313D02*
X111314658Y-73922313D01*
X116537576Y-76983954D02*
X111341424Y-73983954D01*
X116469945Y-76991095D02*
X111369055Y-74046095D01*
X116401447Y-76997736D02*
X111397553Y-74108736D01*
X116330352Y-77002877D02*
X111428648Y-74172877D01*
X116258390Y-77007518D02*
X111460610Y-74237518D01*
X116185563Y-77011659D02*
X111493437Y-74302659D01*
X116110137Y-77014300D02*
X111528863Y-74369300D01*
X116032980Y-77015941D02*
X111566020Y-74436941D01*
X115953224Y-77016082D02*
X111605776Y-74506082D01*
X115871736Y-77015223D02*
X111647264Y-74576223D01*
X115787650Y-77012864D02*
X111691350Y-74647864D01*
X115701832Y-77009505D02*
X111737168Y-74720505D01*
X115612550Y-77004146D02*
X111786450Y-74795146D01*
X115519804Y-76996787D02*
X111839196Y-74871787D01*
X115423594Y-76987428D02*
X111895406Y-74950428D01*
X115323053Y-76975569D02*
X111955947Y-75031569D01*
X115218183Y-76961210D02*
X112020817Y-75115210D01*
X115108116Y-76943851D02*
X112090884Y-75201851D01*
X114991121Y-76922492D02*
X112167879Y-75292492D01*
X114867198Y-76897134D02*
X112251802Y-75387134D01*
X114732883Y-76865775D02*
X112346117Y-75487775D01*
X114584711Y-76826416D02*
X112454289Y-75596416D01*
X114419219Y-76777057D02*
X112579781Y-75715057D01*
X114226014Y-76711698D02*
X112732986Y-75849698D01*
X113978249Y-76614839D02*
X112940751Y-76015839D01*
X121120000Y-71915064D02*
G75*
G03*
X121120000Y-71915064I-5120000J0D01*
G01*
%TO.C,F1*%
X162689100Y-89332550D02*
X162689100Y-83267450D01*
X159310900Y-83267450D02*
X159310900Y-89332550D01*
%TO.C,D1*%
X121350000Y-100650000D02*
X121350000Y-102350000D01*
X121350000Y-100650000D02*
X123900000Y-100650000D01*
X121350000Y-102350000D02*
X123900000Y-102350000D01*
%TO.C,C1*%
X109188686Y-84341763D02*
X109895793Y-83634656D01*
X109188686Y-83634656D02*
X109895793Y-84341763D01*
X111504211Y-78907898D02*
X118688415Y-86092102D01*
X111532495Y-78879613D02*
X118716700Y-86063818D01*
X111560779Y-78851329D02*
X118744984Y-86035534D01*
X111589770Y-78823752D02*
X118772561Y-86006543D01*
X111618762Y-78796175D02*
X118800138Y-85977551D01*
X111647753Y-78768598D02*
X118827715Y-85948560D01*
X111677452Y-78741728D02*
X118854585Y-85918861D01*
X111707150Y-78714857D02*
X118881456Y-85889163D01*
X111737556Y-78688694D02*
X118907619Y-85858757D01*
X111767254Y-78661824D02*
X118934489Y-85829059D01*
X111797660Y-78635661D02*
X118960652Y-85798653D01*
X111828065Y-78609499D02*
X118986814Y-85768248D01*
X111859178Y-78584043D02*
X119012270Y-85737135D01*
X111890291Y-78558587D02*
X119037726Y-85706022D01*
X111921404Y-78533131D02*
X119063182Y-85674909D01*
X111953223Y-78508382D02*
X119087931Y-85643090D01*
X111985043Y-78483634D02*
X119112679Y-85611270D01*
X112016863Y-78458885D02*
X119137428Y-85579450D01*
X112049390Y-78433429D02*
X119162884Y-85546923D01*
X112081917Y-78409387D02*
X119186926Y-85514396D01*
X112114444Y-78385346D02*
X119210967Y-85481869D01*
X112147678Y-78362011D02*
X119234302Y-85448635D01*
X112180912Y-78338677D02*
X119257636Y-85415401D01*
X112214146Y-78315342D02*
X119280971Y-85382167D01*
X112247380Y-78292008D02*
X119304305Y-85348933D01*
X112281321Y-78269380D02*
X119326933Y-85314992D01*
X112315262Y-78246753D02*
X119349560Y-85281051D01*
X112349910Y-78224832D02*
X119371481Y-85246403D01*
X112384558Y-78202912D02*
X119393401Y-85211755D01*
X112419207Y-78180992D02*
X119415321Y-85177106D01*
X112453855Y-78159072D02*
X119437241Y-85142458D01*
X112489210Y-78137858D02*
X119458455Y-85107103D01*
X112524566Y-78116645D02*
X115124597Y-80716677D01*
X116879636Y-82471716D02*
X119479668Y-85071747D01*
X112560628Y-78096139D02*
X115152881Y-80688392D01*
X116907921Y-82443432D02*
X119500174Y-85035685D01*
X112595983Y-78074926D02*
X115181166Y-80660108D01*
X116936205Y-82415147D02*
X119521387Y-85000330D01*
X112632753Y-78055127D02*
X115209450Y-80631824D01*
X116964489Y-82386863D02*
X119541186Y-84963560D01*
X112668815Y-78034621D02*
X115237734Y-80603540D01*
X116992773Y-82358579D02*
X119561692Y-84927498D01*
X112705585Y-78014822D02*
X115266019Y-80575255D01*
X117021058Y-82330294D02*
X119581491Y-84890728D01*
X112742354Y-77995023D02*
X115294303Y-80546971D01*
X117049342Y-82302010D02*
X119601290Y-84853959D01*
X112779831Y-77975931D02*
X115322587Y-80518687D01*
X117077626Y-82273726D02*
X119620382Y-84816482D01*
X112817308Y-77956839D02*
X115350871Y-80490403D01*
X117105910Y-82245442D02*
X119639474Y-84779005D01*
X112854784Y-77937747D02*
X115379156Y-80462118D01*
X117134195Y-82217157D02*
X119658566Y-84741529D01*
X112892968Y-77919362D02*
X115407440Y-80433834D01*
X117162479Y-82188873D02*
X119676951Y-84703345D01*
X112931152Y-77900978D02*
X115435724Y-80405550D01*
X117190763Y-82160589D02*
X119695335Y-84665161D01*
X112970043Y-77883300D02*
X115464008Y-80377265D01*
X117219048Y-82132305D02*
X119713013Y-84626270D01*
X113008227Y-77864915D02*
X115492293Y-80348981D01*
X117247332Y-82104020D02*
X119731398Y-84588086D01*
X113047825Y-77847945D02*
X115520577Y-80320697D01*
X117275616Y-82075736D02*
X119748368Y-84548488D01*
X113086715Y-77830267D02*
X115548861Y-80292413D01*
X117303900Y-82047452D02*
X119766046Y-84509598D01*
X113126313Y-77813296D02*
X115577146Y-80264128D01*
X117332185Y-82019167D02*
X119783017Y-84470000D01*
X113166619Y-77797033D02*
X115605430Y-80235844D01*
X117360469Y-81990883D02*
X119799280Y-84429694D01*
X113206217Y-77780062D02*
X115633714Y-80207560D01*
X117388753Y-81962599D02*
X119816251Y-84390096D01*
X113246522Y-77763799D02*
X115661998Y-80179276D01*
X117417037Y-81934315D02*
X119832514Y-84349791D01*
X113287534Y-77748242D02*
X115690283Y-80150991D01*
X117445322Y-81906030D02*
X119848071Y-84308779D01*
X113328546Y-77732686D02*
X115718567Y-80122707D01*
X117473606Y-81877746D02*
X119863627Y-84267767D01*
X113369558Y-77717130D02*
X115746851Y-80094423D01*
X117501890Y-81849462D02*
X119879183Y-84226755D01*
X113411277Y-77702281D02*
X115775135Y-80066139D01*
X117530174Y-81821178D02*
X119894032Y-84185036D01*
X113453704Y-77688138D02*
X115803420Y-80037854D01*
X117558459Y-81792893D02*
X119908175Y-84142609D01*
X113495423Y-77673289D02*
X115831704Y-80009570D01*
X117586743Y-81764609D02*
X119923024Y-84100890D01*
X113537850Y-77659147D02*
X115859988Y-79981286D01*
X117615027Y-81736325D02*
X119937166Y-84058463D01*
X113580983Y-77645712D02*
X115888273Y-79953001D01*
X117643312Y-81708040D02*
X119950601Y-84015330D01*
X113624117Y-77632277D02*
X115916557Y-79924717D01*
X117671596Y-81679756D02*
X119964036Y-83972196D01*
X113667250Y-77618842D02*
X115944841Y-79896433D01*
X117699880Y-81651472D02*
X119977471Y-83929063D01*
X113711091Y-77606114D02*
X115973125Y-79868149D01*
X117728164Y-81623188D02*
X119990199Y-83885222D01*
X113755638Y-77594093D02*
X116001410Y-79839864D01*
X117756449Y-81594903D02*
X120002220Y-83840675D01*
X113799479Y-77581365D02*
X116029694Y-79811580D01*
X117784733Y-81566619D02*
X120014948Y-83796834D01*
X113844734Y-77570052D02*
X116057978Y-79783296D01*
X117813017Y-81538335D02*
X120026261Y-83751579D01*
X113889989Y-77558738D02*
X116086262Y-79755012D01*
X117841301Y-81510051D02*
X120037575Y-83706324D01*
X113935244Y-77547424D02*
X116114547Y-79726727D01*
X117869586Y-81481766D02*
X120048889Y-83661069D01*
X113981206Y-77536818D02*
X116142831Y-79698443D01*
X117897870Y-81453482D02*
X120059495Y-83615107D01*
X114027167Y-77526211D02*
X116171115Y-79670159D01*
X117926154Y-81425198D02*
X120070102Y-83569146D01*
X114073837Y-77516311D02*
X116199400Y-79641874D01*
X117954439Y-81396913D02*
X120080002Y-83522476D01*
X114120506Y-77506412D02*
X116227684Y-79613590D01*
X117982723Y-81368629D02*
X120089901Y-83475807D01*
X114167882Y-77497220D02*
X116255968Y-79585306D01*
X118011007Y-81340345D02*
X120099093Y-83428431D01*
X114215965Y-77488734D02*
X116284252Y-79557022D01*
X118039291Y-81312061D02*
X120107579Y-83380348D01*
X114264048Y-77480249D02*
X116312537Y-79528737D01*
X118067576Y-81283776D02*
X120116064Y-83332265D01*
X114312132Y-77471764D02*
X116340821Y-79500453D01*
X118095860Y-81255492D02*
X120124549Y-83284181D01*
X114361629Y-77464693D02*
X116369105Y-79472169D01*
X118124144Y-81227208D02*
X120131620Y-83234684D01*
X114411126Y-77457622D02*
X116397389Y-79443885D01*
X118152428Y-81198924D02*
X120138691Y-83185187D01*
X114460624Y-77450551D02*
X116425674Y-79415600D01*
X118180713Y-81170639D02*
X120145762Y-83135689D01*
X114510829Y-77444187D02*
X116453958Y-79387316D01*
X118208997Y-81142355D02*
X120152126Y-83085484D01*
X114561740Y-77438530D02*
X116482242Y-79359032D01*
X118237281Y-81114071D02*
X120157783Y-83034573D01*
X114612652Y-77432873D02*
X116510527Y-79330747D01*
X118265566Y-81085786D02*
X120163440Y-82983661D01*
X114664271Y-77427923D02*
X116538811Y-79302463D01*
X118293850Y-81057502D02*
X120168390Y-82932042D01*
X114716597Y-77423680D02*
X116567095Y-79274179D01*
X118322134Y-81029218D02*
X120172633Y-82879716D01*
X114768923Y-77419438D02*
X116595379Y-79245895D01*
X118350418Y-81000934D02*
X120176875Y-82827390D01*
X114821956Y-77415902D02*
X116623664Y-79217610D01*
X118378703Y-80972649D02*
X120180411Y-82774357D01*
X114875696Y-77413074D02*
X116651948Y-79189326D01*
X118406987Y-80944365D02*
X120183239Y-82720617D01*
X114930143Y-77410953D02*
X116680232Y-79161042D01*
X118435271Y-80916081D02*
X120185360Y-82666170D01*
X114984590Y-77408831D02*
X116708516Y-79132758D01*
X118463555Y-80887797D02*
X120187482Y-82611723D01*
X115040452Y-77408124D02*
X116736801Y-79104473D01*
X118491840Y-80859512D02*
X120188189Y-82555861D01*
X115096313Y-77407417D02*
X116765085Y-79076189D01*
X118520124Y-80831228D02*
X120188896Y-82500000D01*
X115152881Y-77407417D02*
X116793369Y-79047905D01*
X118548408Y-80802944D02*
X120188896Y-82443432D01*
X115210157Y-77408124D02*
X116821653Y-79019620D01*
X118576693Y-80774660D02*
X120188189Y-82386156D01*
X115268140Y-77409538D02*
X116849938Y-78991336D01*
X118604977Y-80746375D02*
X120186775Y-82328173D01*
X115326123Y-77410953D02*
X120185360Y-82270190D01*
X115385520Y-77413781D02*
X120182532Y-82210793D01*
X115445624Y-77417317D02*
X120178996Y-82150689D01*
X115506435Y-77421559D02*
X120174754Y-82089878D01*
X115567953Y-77426509D02*
X120169804Y-82028360D01*
X115630179Y-77432166D02*
X120164147Y-81966134D01*
X115693818Y-77439237D02*
X120157076Y-81902495D01*
X115757458Y-77446308D02*
X120150005Y-81838855D01*
X115822512Y-77454793D02*
X120141520Y-81773801D01*
X115888980Y-77464693D02*
X120131620Y-81707333D01*
X115956155Y-77475299D02*
X120121014Y-81640158D01*
X116024037Y-77486613D02*
X120109700Y-81572276D01*
X116094041Y-77500048D02*
X120096265Y-81502272D01*
X116164751Y-77514190D02*
X120082123Y-81431562D01*
X116236169Y-77529039D02*
X120067274Y-81360144D01*
X116309708Y-77546010D02*
X120050303Y-81286605D01*
X116384662Y-77564395D02*
X120031918Y-81211651D01*
X116461736Y-77584901D02*
X120011412Y-81134577D01*
X116540225Y-77606821D02*
X119989492Y-81056088D01*
X116620835Y-77630863D02*
X119965450Y-80975478D01*
X116702860Y-77656319D02*
X119939994Y-80893453D01*
X116787712Y-77684603D02*
X119911710Y-80808601D01*
X116875394Y-77715716D02*
X119880597Y-80720919D01*
X116965903Y-77749657D02*
X119846656Y-80630410D01*
X117059948Y-77787133D02*
X119809180Y-80536365D01*
X117157529Y-77828146D02*
X119768167Y-80438784D01*
X117259353Y-77873400D02*
X119722913Y-80336960D01*
X117366833Y-77924312D02*
X119672001Y-80229480D01*
X117479970Y-77980881D02*
X119615432Y-80116343D01*
X117601592Y-78045934D02*
X119550379Y-79994721D01*
X117734528Y-78122302D02*
X119474011Y-79861785D01*
X117881607Y-78212812D02*
X119383501Y-79714706D01*
X118051312Y-78325949D02*
X119270364Y-79545001D01*
X118265566Y-78483634D02*
X119112679Y-79330747D01*
X120216313Y-82500000D02*
G75*
G03*
X120216313Y-82500000I-5120000J0D01*
G01*
D18*
%TO.C,L1*%
X125250000Y-63350000D02*
X125250000Y-65650000D01*
D16*
%TO.C,J4*%
X119719200Y-100811700D02*
X119719200Y-88051700D01*
X119719200Y-100811700D02*
X117059200Y-100811700D01*
X119719200Y-88051700D02*
X117059200Y-88051700D01*
X118389200Y-103411700D02*
X117059200Y-103411700D01*
X117059200Y-103411700D02*
X117059200Y-102081700D01*
X117059200Y-100811700D02*
X117059200Y-88051700D01*
D14*
%TO.C,PS1*%
X158550000Y-89750000D02*
X158550000Y-66693000D01*
X158550000Y-66693000D02*
X120450000Y-66693000D01*
X120450000Y-89750000D02*
X158550000Y-89750000D01*
X120450000Y-89750000D02*
X120450000Y-66750000D01*
%TD*%
M02*
