%TF.GenerationSoftware,KiCad,Pcbnew,(7.0.0)*%
%TF.CreationDate,2023-03-27T21:21:58+02:00*%
%TF.ProjectId,220AC-mini-C3-board,32323041-432d-46d6-996e-692d43332d62,rev?*%
%TF.SameCoordinates,Original*%
%TF.FileFunction,Legend,Bot*%
%TF.FilePolarity,Positive*%
%FSLAX46Y46*%
G04 Gerber Fmt 4.6, Leading zero omitted, Abs format (unit mm)*
G04 Created by KiCad (PCBNEW (7.0.0)) date 2023-03-27 21:21:58*
%MOMM*%
%LPD*%
G01*
G04 APERTURE LIST*
%ADD10C,0.400000*%
%ADD11C,0.150000*%
%ADD12C,0.500000*%
%ADD13C,0.300000*%
%ADD14C,0.200000*%
%ADD15C,0.250000*%
%ADD16C,0.120000*%
G04 APERTURE END LIST*
D10*
X138170000Y-69685000D02*
X138170000Y-64000000D01*
X138210000Y-78500000D02*
X138210000Y-75045000D01*
D11*
X145430000Y-78860000D02*
X143860000Y-78890000D01*
X143930000Y-74050000D02*
X141980000Y-79870000D01*
X143860000Y-79840000D02*
X143960000Y-83920000D01*
D10*
X137750000Y-78680000D02*
X133000000Y-78680000D01*
D11*
X144000000Y-83810000D02*
X145460000Y-78960000D01*
X141980000Y-79840000D02*
X143820000Y-79840000D01*
D12*
X132245000Y-108320000D02*
X132255000Y-78680000D01*
D11*
X143790000Y-78890000D02*
X144000000Y-74110000D01*
D13*
X151515238Y-81499999D02*
X153039047Y-81499999D01*
X152658095Y-81880952D02*
X153039047Y-81499999D01*
X153039047Y-81499999D02*
X152658095Y-81119047D01*
X139369999Y-75774761D02*
X139369999Y-74250952D01*
X139750952Y-74631904D02*
X139369999Y-74250952D01*
X139369999Y-74250952D02*
X138989047Y-74631904D01*
D11*
X150761904Y-68437380D02*
X150761904Y-67437380D01*
X150761904Y-67913571D02*
X150190476Y-67913571D01*
X150190476Y-68437380D02*
X150190476Y-67437380D01*
X149714285Y-68437380D02*
X149714285Y-67437380D01*
X148714286Y-67485000D02*
X148809524Y-67437380D01*
X148809524Y-67437380D02*
X148952381Y-67437380D01*
X148952381Y-67437380D02*
X149095238Y-67485000D01*
X149095238Y-67485000D02*
X149190476Y-67580238D01*
X149190476Y-67580238D02*
X149238095Y-67675476D01*
X149238095Y-67675476D02*
X149285714Y-67865952D01*
X149285714Y-67865952D02*
X149285714Y-68008809D01*
X149285714Y-68008809D02*
X149238095Y-68199285D01*
X149238095Y-68199285D02*
X149190476Y-68294523D01*
X149190476Y-68294523D02*
X149095238Y-68389761D01*
X149095238Y-68389761D02*
X148952381Y-68437380D01*
X148952381Y-68437380D02*
X148857143Y-68437380D01*
X148857143Y-68437380D02*
X148714286Y-68389761D01*
X148714286Y-68389761D02*
X148666667Y-68342142D01*
X148666667Y-68342142D02*
X148666667Y-68008809D01*
X148666667Y-68008809D02*
X148857143Y-68008809D01*
X148238095Y-68437380D02*
X148238095Y-67437380D01*
X148238095Y-67913571D02*
X147666667Y-67913571D01*
X147666667Y-68437380D02*
X147666667Y-67437380D01*
X146733333Y-67437380D02*
X146400000Y-68437380D01*
X146400000Y-68437380D02*
X146066667Y-67437380D01*
X145542857Y-67437380D02*
X145352381Y-67437380D01*
X145352381Y-67437380D02*
X145257143Y-67485000D01*
X145257143Y-67485000D02*
X145161905Y-67580238D01*
X145161905Y-67580238D02*
X145114286Y-67770714D01*
X145114286Y-67770714D02*
X145114286Y-68104047D01*
X145114286Y-68104047D02*
X145161905Y-68294523D01*
X145161905Y-68294523D02*
X145257143Y-68389761D01*
X145257143Y-68389761D02*
X145352381Y-68437380D01*
X145352381Y-68437380D02*
X145542857Y-68437380D01*
X145542857Y-68437380D02*
X145638095Y-68389761D01*
X145638095Y-68389761D02*
X145733333Y-68294523D01*
X145733333Y-68294523D02*
X145780952Y-68104047D01*
X145780952Y-68104047D02*
X145780952Y-67770714D01*
X145780952Y-67770714D02*
X145733333Y-67580238D01*
X145733333Y-67580238D02*
X145638095Y-67485000D01*
X145638095Y-67485000D02*
X145542857Y-67437380D01*
X144209524Y-68437380D02*
X144685714Y-68437380D01*
X144685714Y-68437380D02*
X144685714Y-67437380D01*
X144019047Y-67437380D02*
X143447619Y-67437380D01*
X143733333Y-68437380D02*
X143733333Y-67437380D01*
X143161904Y-68151666D02*
X142685714Y-68151666D01*
X143257142Y-68437380D02*
X142923809Y-67437380D01*
X142923809Y-67437380D02*
X142590476Y-68437380D01*
X141733333Y-67485000D02*
X141828571Y-67437380D01*
X141828571Y-67437380D02*
X141971428Y-67437380D01*
X141971428Y-67437380D02*
X142114285Y-67485000D01*
X142114285Y-67485000D02*
X142209523Y-67580238D01*
X142209523Y-67580238D02*
X142257142Y-67675476D01*
X142257142Y-67675476D02*
X142304761Y-67865952D01*
X142304761Y-67865952D02*
X142304761Y-68008809D01*
X142304761Y-68008809D02*
X142257142Y-68199285D01*
X142257142Y-68199285D02*
X142209523Y-68294523D01*
X142209523Y-68294523D02*
X142114285Y-68389761D01*
X142114285Y-68389761D02*
X141971428Y-68437380D01*
X141971428Y-68437380D02*
X141876190Y-68437380D01*
X141876190Y-68437380D02*
X141733333Y-68389761D01*
X141733333Y-68389761D02*
X141685714Y-68342142D01*
X141685714Y-68342142D02*
X141685714Y-68008809D01*
X141685714Y-68008809D02*
X141876190Y-68008809D01*
X141257142Y-67913571D02*
X140923809Y-67913571D01*
X140780952Y-68437380D02*
X141257142Y-68437380D01*
X141257142Y-68437380D02*
X141257142Y-67437380D01*
X141257142Y-67437380D02*
X140780952Y-67437380D01*
X150809523Y-69771666D02*
X150333333Y-69771666D01*
X150904761Y-70057380D02*
X150571428Y-69057380D01*
X150571428Y-69057380D02*
X150238095Y-70057380D01*
X149333333Y-70057380D02*
X149666666Y-69581190D01*
X149904761Y-70057380D02*
X149904761Y-69057380D01*
X149904761Y-69057380D02*
X149523809Y-69057380D01*
X149523809Y-69057380D02*
X149428571Y-69105000D01*
X149428571Y-69105000D02*
X149380952Y-69152619D01*
X149380952Y-69152619D02*
X149333333Y-69247857D01*
X149333333Y-69247857D02*
X149333333Y-69390714D01*
X149333333Y-69390714D02*
X149380952Y-69485952D01*
X149380952Y-69485952D02*
X149428571Y-69533571D01*
X149428571Y-69533571D02*
X149523809Y-69581190D01*
X149523809Y-69581190D02*
X149904761Y-69581190D01*
X148904761Y-69533571D02*
X148571428Y-69533571D01*
X148428571Y-70057380D02*
X148904761Y-70057380D01*
X148904761Y-70057380D02*
X148904761Y-69057380D01*
X148904761Y-69057380D02*
X148428571Y-69057380D01*
X148047618Y-69771666D02*
X147571428Y-69771666D01*
X148142856Y-70057380D02*
X147809523Y-69057380D01*
X147809523Y-69057380D02*
X147476190Y-70057380D01*
X147142856Y-69962142D02*
X147095237Y-70009761D01*
X147095237Y-70009761D02*
X147142856Y-70057380D01*
X147142856Y-70057380D02*
X147190475Y-70009761D01*
X147190475Y-70009761D02*
X147142856Y-69962142D01*
X147142856Y-69962142D02*
X147142856Y-70057380D01*
X150761904Y-73297380D02*
X150761904Y-72297380D01*
X150761904Y-72297380D02*
X150523809Y-72297380D01*
X150523809Y-72297380D02*
X150380952Y-72345000D01*
X150380952Y-72345000D02*
X150285714Y-72440238D01*
X150285714Y-72440238D02*
X150238095Y-72535476D01*
X150238095Y-72535476D02*
X150190476Y-72725952D01*
X150190476Y-72725952D02*
X150190476Y-72868809D01*
X150190476Y-72868809D02*
X150238095Y-73059285D01*
X150238095Y-73059285D02*
X150285714Y-73154523D01*
X150285714Y-73154523D02*
X150380952Y-73249761D01*
X150380952Y-73249761D02*
X150523809Y-73297380D01*
X150523809Y-73297380D02*
X150761904Y-73297380D01*
X149571428Y-72297380D02*
X149380952Y-72297380D01*
X149380952Y-72297380D02*
X149285714Y-72345000D01*
X149285714Y-72345000D02*
X149190476Y-72440238D01*
X149190476Y-72440238D02*
X149142857Y-72630714D01*
X149142857Y-72630714D02*
X149142857Y-72964047D01*
X149142857Y-72964047D02*
X149190476Y-73154523D01*
X149190476Y-73154523D02*
X149285714Y-73249761D01*
X149285714Y-73249761D02*
X149380952Y-73297380D01*
X149380952Y-73297380D02*
X149571428Y-73297380D01*
X149571428Y-73297380D02*
X149666666Y-73249761D01*
X149666666Y-73249761D02*
X149761904Y-73154523D01*
X149761904Y-73154523D02*
X149809523Y-72964047D01*
X149809523Y-72964047D02*
X149809523Y-72630714D01*
X149809523Y-72630714D02*
X149761904Y-72440238D01*
X149761904Y-72440238D02*
X149666666Y-72345000D01*
X149666666Y-72345000D02*
X149571428Y-72297380D01*
X148114285Y-73297380D02*
X148114285Y-72297380D01*
X148114285Y-72297380D02*
X147542857Y-73297380D01*
X147542857Y-73297380D02*
X147542857Y-72297380D01*
X146876190Y-72297380D02*
X146685714Y-72297380D01*
X146685714Y-72297380D02*
X146590476Y-72345000D01*
X146590476Y-72345000D02*
X146495238Y-72440238D01*
X146495238Y-72440238D02*
X146447619Y-72630714D01*
X146447619Y-72630714D02*
X146447619Y-72964047D01*
X146447619Y-72964047D02*
X146495238Y-73154523D01*
X146495238Y-73154523D02*
X146590476Y-73249761D01*
X146590476Y-73249761D02*
X146685714Y-73297380D01*
X146685714Y-73297380D02*
X146876190Y-73297380D01*
X146876190Y-73297380D02*
X146971428Y-73249761D01*
X146971428Y-73249761D02*
X147066666Y-73154523D01*
X147066666Y-73154523D02*
X147114285Y-72964047D01*
X147114285Y-72964047D02*
X147114285Y-72630714D01*
X147114285Y-72630714D02*
X147066666Y-72440238D01*
X147066666Y-72440238D02*
X146971428Y-72345000D01*
X146971428Y-72345000D02*
X146876190Y-72297380D01*
X146161904Y-72297380D02*
X145590476Y-72297380D01*
X145876190Y-73297380D02*
X145876190Y-72297380D01*
X144799999Y-72297380D02*
X144228571Y-72297380D01*
X144514285Y-73297380D02*
X144514285Y-72297380D01*
X143704761Y-72297380D02*
X143514285Y-72297380D01*
X143514285Y-72297380D02*
X143419047Y-72345000D01*
X143419047Y-72345000D02*
X143323809Y-72440238D01*
X143323809Y-72440238D02*
X143276190Y-72630714D01*
X143276190Y-72630714D02*
X143276190Y-72964047D01*
X143276190Y-72964047D02*
X143323809Y-73154523D01*
X143323809Y-73154523D02*
X143419047Y-73249761D01*
X143419047Y-73249761D02*
X143514285Y-73297380D01*
X143514285Y-73297380D02*
X143704761Y-73297380D01*
X143704761Y-73297380D02*
X143799999Y-73249761D01*
X143799999Y-73249761D02*
X143895237Y-73154523D01*
X143895237Y-73154523D02*
X143942856Y-72964047D01*
X143942856Y-72964047D02*
X143942856Y-72630714D01*
X143942856Y-72630714D02*
X143895237Y-72440238D01*
X143895237Y-72440238D02*
X143799999Y-72345000D01*
X143799999Y-72345000D02*
X143704761Y-72297380D01*
X142847618Y-72297380D02*
X142847618Y-73106904D01*
X142847618Y-73106904D02*
X142799999Y-73202142D01*
X142799999Y-73202142D02*
X142752380Y-73249761D01*
X142752380Y-73249761D02*
X142657142Y-73297380D01*
X142657142Y-73297380D02*
X142466666Y-73297380D01*
X142466666Y-73297380D02*
X142371428Y-73249761D01*
X142371428Y-73249761D02*
X142323809Y-73202142D01*
X142323809Y-73202142D02*
X142276190Y-73106904D01*
X142276190Y-73106904D02*
X142276190Y-72297380D01*
X141228571Y-73202142D02*
X141276190Y-73249761D01*
X141276190Y-73249761D02*
X141419047Y-73297380D01*
X141419047Y-73297380D02*
X141514285Y-73297380D01*
X141514285Y-73297380D02*
X141657142Y-73249761D01*
X141657142Y-73249761D02*
X141752380Y-73154523D01*
X141752380Y-73154523D02*
X141799999Y-73059285D01*
X141799999Y-73059285D02*
X141847618Y-72868809D01*
X141847618Y-72868809D02*
X141847618Y-72725952D01*
X141847618Y-72725952D02*
X141799999Y-72535476D01*
X141799999Y-72535476D02*
X141752380Y-72440238D01*
X141752380Y-72440238D02*
X141657142Y-72345000D01*
X141657142Y-72345000D02*
X141514285Y-72297380D01*
X141514285Y-72297380D02*
X141419047Y-72297380D01*
X141419047Y-72297380D02*
X141276190Y-72345000D01*
X141276190Y-72345000D02*
X141228571Y-72392619D01*
X140799999Y-73297380D02*
X140799999Y-72297380D01*
X140799999Y-72773571D02*
X140228571Y-72773571D01*
X140228571Y-73297380D02*
X140228571Y-72297380D01*
D13*
X152765238Y-74999999D02*
X154289047Y-74999999D01*
X153908095Y-75380952D02*
X154289047Y-74999999D01*
X154289047Y-74999999D02*
X153908095Y-74619047D01*
D14*
X139478572Y-108911714D02*
X139307144Y-108968857D01*
X139307144Y-108968857D02*
X139021429Y-108968857D01*
X139021429Y-108968857D02*
X138907144Y-108911714D01*
X138907144Y-108911714D02*
X138850001Y-108854571D01*
X138850001Y-108854571D02*
X138792858Y-108740285D01*
X138792858Y-108740285D02*
X138792858Y-108626000D01*
X138792858Y-108626000D02*
X138850001Y-108511714D01*
X138850001Y-108511714D02*
X138907144Y-108454571D01*
X138907144Y-108454571D02*
X139021429Y-108397428D01*
X139021429Y-108397428D02*
X139250001Y-108340285D01*
X139250001Y-108340285D02*
X139364286Y-108283142D01*
X139364286Y-108283142D02*
X139421429Y-108226000D01*
X139421429Y-108226000D02*
X139478572Y-108111714D01*
X139478572Y-108111714D02*
X139478572Y-107997428D01*
X139478572Y-107997428D02*
X139421429Y-107883142D01*
X139421429Y-107883142D02*
X139364286Y-107826000D01*
X139364286Y-107826000D02*
X139250001Y-107768857D01*
X139250001Y-107768857D02*
X138964286Y-107768857D01*
X138964286Y-107768857D02*
X138792858Y-107826000D01*
X138392858Y-107768857D02*
X138107144Y-108968857D01*
X138107144Y-108968857D02*
X137878572Y-108111714D01*
X137878572Y-108111714D02*
X137650001Y-108968857D01*
X137650001Y-108968857D02*
X137364287Y-107768857D01*
X136907143Y-108968857D02*
X136907143Y-107768857D01*
X136507143Y-107768857D02*
X135821429Y-107768857D01*
X136164286Y-108968857D02*
X136164286Y-107768857D01*
X134735714Y-108854571D02*
X134792857Y-108911714D01*
X134792857Y-108911714D02*
X134964285Y-108968857D01*
X134964285Y-108968857D02*
X135078571Y-108968857D01*
X135078571Y-108968857D02*
X135250000Y-108911714D01*
X135250000Y-108911714D02*
X135364285Y-108797428D01*
X135364285Y-108797428D02*
X135421428Y-108683142D01*
X135421428Y-108683142D02*
X135478571Y-108454571D01*
X135478571Y-108454571D02*
X135478571Y-108283142D01*
X135478571Y-108283142D02*
X135421428Y-108054571D01*
X135421428Y-108054571D02*
X135364285Y-107940285D01*
X135364285Y-107940285D02*
X135250000Y-107826000D01*
X135250000Y-107826000D02*
X135078571Y-107768857D01*
X135078571Y-107768857D02*
X134964285Y-107768857D01*
X134964285Y-107768857D02*
X134792857Y-107826000D01*
X134792857Y-107826000D02*
X134735714Y-107883142D01*
X134221428Y-108968857D02*
X134221428Y-107768857D01*
X134221428Y-108340285D02*
X133535714Y-108340285D01*
X133535714Y-108968857D02*
X133535714Y-107768857D01*
X139821428Y-109712857D02*
X139592856Y-109712857D01*
X139592856Y-109712857D02*
X139478571Y-109770000D01*
X139478571Y-109770000D02*
X139364285Y-109884285D01*
X139364285Y-109884285D02*
X139307142Y-110112857D01*
X139307142Y-110112857D02*
X139307142Y-110512857D01*
X139307142Y-110512857D02*
X139364285Y-110741428D01*
X139364285Y-110741428D02*
X139478571Y-110855714D01*
X139478571Y-110855714D02*
X139592856Y-110912857D01*
X139592856Y-110912857D02*
X139821428Y-110912857D01*
X139821428Y-110912857D02*
X139935714Y-110855714D01*
X139935714Y-110855714D02*
X140049999Y-110741428D01*
X140049999Y-110741428D02*
X140107142Y-110512857D01*
X140107142Y-110512857D02*
X140107142Y-110112857D01*
X140107142Y-110112857D02*
X140049999Y-109884285D01*
X140049999Y-109884285D02*
X139935714Y-109770000D01*
X139935714Y-109770000D02*
X139821428Y-109712857D01*
X138792856Y-110912857D02*
X138792856Y-109712857D01*
X138792856Y-109712857D02*
X138107142Y-110912857D01*
X138107142Y-110912857D02*
X138107142Y-109712857D01*
X136678570Y-109655714D02*
X137707142Y-111198571D01*
X136049999Y-109712857D02*
X135821427Y-109712857D01*
X135821427Y-109712857D02*
X135707142Y-109770000D01*
X135707142Y-109770000D02*
X135592856Y-109884285D01*
X135592856Y-109884285D02*
X135535713Y-110112857D01*
X135535713Y-110112857D02*
X135535713Y-110512857D01*
X135535713Y-110512857D02*
X135592856Y-110741428D01*
X135592856Y-110741428D02*
X135707142Y-110855714D01*
X135707142Y-110855714D02*
X135821427Y-110912857D01*
X135821427Y-110912857D02*
X136049999Y-110912857D01*
X136049999Y-110912857D02*
X136164285Y-110855714D01*
X136164285Y-110855714D02*
X136278570Y-110741428D01*
X136278570Y-110741428D02*
X136335713Y-110512857D01*
X136335713Y-110512857D02*
X136335713Y-110112857D01*
X136335713Y-110112857D02*
X136278570Y-109884285D01*
X136278570Y-109884285D02*
X136164285Y-109770000D01*
X136164285Y-109770000D02*
X136049999Y-109712857D01*
X134621427Y-110284285D02*
X135021427Y-110284285D01*
X135021427Y-110912857D02*
X135021427Y-109712857D01*
X135021427Y-109712857D02*
X134449999Y-109712857D01*
X133592856Y-110284285D02*
X133992856Y-110284285D01*
X133992856Y-110912857D02*
X133992856Y-109712857D01*
X133992856Y-109712857D02*
X133421428Y-109712857D01*
D15*
X153535714Y-78158214D02*
X153607142Y-78229642D01*
X153607142Y-78229642D02*
X153821428Y-78301071D01*
X153821428Y-78301071D02*
X153964285Y-78301071D01*
X153964285Y-78301071D02*
X154178571Y-78229642D01*
X154178571Y-78229642D02*
X154321428Y-78086785D01*
X154321428Y-78086785D02*
X154392857Y-77943928D01*
X154392857Y-77943928D02*
X154464285Y-77658214D01*
X154464285Y-77658214D02*
X154464285Y-77443928D01*
X154464285Y-77443928D02*
X154392857Y-77158214D01*
X154392857Y-77158214D02*
X154321428Y-77015357D01*
X154321428Y-77015357D02*
X154178571Y-76872500D01*
X154178571Y-76872500D02*
X153964285Y-76801071D01*
X153964285Y-76801071D02*
X153821428Y-76801071D01*
X153821428Y-76801071D02*
X153607142Y-76872500D01*
X153607142Y-76872500D02*
X153535714Y-76943928D01*
X152964285Y-77872500D02*
X152250000Y-77872500D01*
X153107142Y-78301071D02*
X152607142Y-76801071D01*
X152607142Y-76801071D02*
X152107142Y-78301071D01*
X151607143Y-76801071D02*
X151607143Y-78015357D01*
X151607143Y-78015357D02*
X151535714Y-78158214D01*
X151535714Y-78158214D02*
X151464286Y-78229642D01*
X151464286Y-78229642D02*
X151321428Y-78301071D01*
X151321428Y-78301071D02*
X151035714Y-78301071D01*
X151035714Y-78301071D02*
X150892857Y-78229642D01*
X150892857Y-78229642D02*
X150821428Y-78158214D01*
X150821428Y-78158214D02*
X150750000Y-78015357D01*
X150750000Y-78015357D02*
X150750000Y-76801071D01*
X150249999Y-76801071D02*
X149392857Y-76801071D01*
X149821428Y-78301071D02*
X149821428Y-76801071D01*
X148892857Y-78301071D02*
X148892857Y-76801071D01*
X147892856Y-76801071D02*
X147607142Y-76801071D01*
X147607142Y-76801071D02*
X147464285Y-76872500D01*
X147464285Y-76872500D02*
X147321428Y-77015357D01*
X147321428Y-77015357D02*
X147249999Y-77301071D01*
X147249999Y-77301071D02*
X147249999Y-77801071D01*
X147249999Y-77801071D02*
X147321428Y-78086785D01*
X147321428Y-78086785D02*
X147464285Y-78229642D01*
X147464285Y-78229642D02*
X147607142Y-78301071D01*
X147607142Y-78301071D02*
X147892856Y-78301071D01*
X147892856Y-78301071D02*
X148035714Y-78229642D01*
X148035714Y-78229642D02*
X148178571Y-78086785D01*
X148178571Y-78086785D02*
X148249999Y-77801071D01*
X148249999Y-77801071D02*
X148249999Y-77301071D01*
X148249999Y-77301071D02*
X148178571Y-77015357D01*
X148178571Y-77015357D02*
X148035714Y-76872500D01*
X148035714Y-76872500D02*
X147892856Y-76801071D01*
X146607142Y-78301071D02*
X146607142Y-76801071D01*
X146607142Y-76801071D02*
X145749999Y-78301071D01*
X145749999Y-78301071D02*
X145749999Y-76801071D01*
X145035713Y-78158214D02*
X144964284Y-78229642D01*
X144964284Y-78229642D02*
X145035713Y-78301071D01*
X145035713Y-78301071D02*
X145107141Y-78229642D01*
X145107141Y-78229642D02*
X145035713Y-78158214D01*
X145035713Y-78158214D02*
X145035713Y-78301071D01*
X145035713Y-77729642D02*
X145107141Y-76872500D01*
X145107141Y-76872500D02*
X145035713Y-76801071D01*
X145035713Y-76801071D02*
X144964284Y-76872500D01*
X144964284Y-76872500D02*
X145035713Y-77729642D01*
X145035713Y-77729642D02*
X145035713Y-76801071D01*
D11*
%TO.C,TP1*%
X116361904Y-97267380D02*
X115790476Y-97267380D01*
X116076190Y-98267380D02*
X116076190Y-97267380D01*
X115457142Y-98267380D02*
X115457142Y-97267380D01*
X115457142Y-97267380D02*
X115076190Y-97267380D01*
X115076190Y-97267380D02*
X114980952Y-97315000D01*
X114980952Y-97315000D02*
X114933333Y-97362619D01*
X114933333Y-97362619D02*
X114885714Y-97457857D01*
X114885714Y-97457857D02*
X114885714Y-97600714D01*
X114885714Y-97600714D02*
X114933333Y-97695952D01*
X114933333Y-97695952D02*
X114980952Y-97743571D01*
X114980952Y-97743571D02*
X115076190Y-97791190D01*
X115076190Y-97791190D02*
X115457142Y-97791190D01*
X113933333Y-98267380D02*
X114504761Y-98267380D01*
X114219047Y-98267380D02*
X114219047Y-97267380D01*
X114219047Y-97267380D02*
X114314285Y-97410238D01*
X114314285Y-97410238D02*
X114409523Y-97505476D01*
X114409523Y-97505476D02*
X114504761Y-97553095D01*
%TO.C,R6*%
X127066666Y-85217380D02*
X127399999Y-84741190D01*
X127638094Y-85217380D02*
X127638094Y-84217380D01*
X127638094Y-84217380D02*
X127257142Y-84217380D01*
X127257142Y-84217380D02*
X127161904Y-84265000D01*
X127161904Y-84265000D02*
X127114285Y-84312619D01*
X127114285Y-84312619D02*
X127066666Y-84407857D01*
X127066666Y-84407857D02*
X127066666Y-84550714D01*
X127066666Y-84550714D02*
X127114285Y-84645952D01*
X127114285Y-84645952D02*
X127161904Y-84693571D01*
X127161904Y-84693571D02*
X127257142Y-84741190D01*
X127257142Y-84741190D02*
X127638094Y-84741190D01*
X126209523Y-84217380D02*
X126399999Y-84217380D01*
X126399999Y-84217380D02*
X126495237Y-84265000D01*
X126495237Y-84265000D02*
X126542856Y-84312619D01*
X126542856Y-84312619D02*
X126638094Y-84455476D01*
X126638094Y-84455476D02*
X126685713Y-84645952D01*
X126685713Y-84645952D02*
X126685713Y-85026904D01*
X126685713Y-85026904D02*
X126638094Y-85122142D01*
X126638094Y-85122142D02*
X126590475Y-85169761D01*
X126590475Y-85169761D02*
X126495237Y-85217380D01*
X126495237Y-85217380D02*
X126304761Y-85217380D01*
X126304761Y-85217380D02*
X126209523Y-85169761D01*
X126209523Y-85169761D02*
X126161904Y-85122142D01*
X126161904Y-85122142D02*
X126114285Y-85026904D01*
X126114285Y-85026904D02*
X126114285Y-84788809D01*
X126114285Y-84788809D02*
X126161904Y-84693571D01*
X126161904Y-84693571D02*
X126209523Y-84645952D01*
X126209523Y-84645952D02*
X126304761Y-84598333D01*
X126304761Y-84598333D02*
X126495237Y-84598333D01*
X126495237Y-84598333D02*
X126590475Y-84645952D01*
X126590475Y-84645952D02*
X126638094Y-84693571D01*
X126638094Y-84693571D02*
X126685713Y-84788809D01*
%TO.C,J3*%
X119483333Y-85217380D02*
X119483333Y-85931666D01*
X119483333Y-85931666D02*
X119530952Y-86074523D01*
X119530952Y-86074523D02*
X119626190Y-86169761D01*
X119626190Y-86169761D02*
X119769047Y-86217380D01*
X119769047Y-86217380D02*
X119864285Y-86217380D01*
X119102380Y-85217380D02*
X118483333Y-85217380D01*
X118483333Y-85217380D02*
X118816666Y-85598333D01*
X118816666Y-85598333D02*
X118673809Y-85598333D01*
X118673809Y-85598333D02*
X118578571Y-85645952D01*
X118578571Y-85645952D02*
X118530952Y-85693571D01*
X118530952Y-85693571D02*
X118483333Y-85788809D01*
X118483333Y-85788809D02*
X118483333Y-86026904D01*
X118483333Y-86026904D02*
X118530952Y-86122142D01*
X118530952Y-86122142D02*
X118578571Y-86169761D01*
X118578571Y-86169761D02*
X118673809Y-86217380D01*
X118673809Y-86217380D02*
X118959523Y-86217380D01*
X118959523Y-86217380D02*
X119054761Y-86169761D01*
X119054761Y-86169761D02*
X119102380Y-86122142D01*
%TO.C,R8*%
X111767380Y-88333333D02*
X111291190Y-88000000D01*
X111767380Y-87761905D02*
X110767380Y-87761905D01*
X110767380Y-87761905D02*
X110767380Y-88142857D01*
X110767380Y-88142857D02*
X110815000Y-88238095D01*
X110815000Y-88238095D02*
X110862619Y-88285714D01*
X110862619Y-88285714D02*
X110957857Y-88333333D01*
X110957857Y-88333333D02*
X111100714Y-88333333D01*
X111100714Y-88333333D02*
X111195952Y-88285714D01*
X111195952Y-88285714D02*
X111243571Y-88238095D01*
X111243571Y-88238095D02*
X111291190Y-88142857D01*
X111291190Y-88142857D02*
X111291190Y-87761905D01*
X111195952Y-88904762D02*
X111148333Y-88809524D01*
X111148333Y-88809524D02*
X111100714Y-88761905D01*
X111100714Y-88761905D02*
X111005476Y-88714286D01*
X111005476Y-88714286D02*
X110957857Y-88714286D01*
X110957857Y-88714286D02*
X110862619Y-88761905D01*
X110862619Y-88761905D02*
X110815000Y-88809524D01*
X110815000Y-88809524D02*
X110767380Y-88904762D01*
X110767380Y-88904762D02*
X110767380Y-89095238D01*
X110767380Y-89095238D02*
X110815000Y-89190476D01*
X110815000Y-89190476D02*
X110862619Y-89238095D01*
X110862619Y-89238095D02*
X110957857Y-89285714D01*
X110957857Y-89285714D02*
X111005476Y-89285714D01*
X111005476Y-89285714D02*
X111100714Y-89238095D01*
X111100714Y-89238095D02*
X111148333Y-89190476D01*
X111148333Y-89190476D02*
X111195952Y-89095238D01*
X111195952Y-89095238D02*
X111195952Y-88904762D01*
X111195952Y-88904762D02*
X111243571Y-88809524D01*
X111243571Y-88809524D02*
X111291190Y-88761905D01*
X111291190Y-88761905D02*
X111386428Y-88714286D01*
X111386428Y-88714286D02*
X111576904Y-88714286D01*
X111576904Y-88714286D02*
X111672142Y-88761905D01*
X111672142Y-88761905D02*
X111719761Y-88809524D01*
X111719761Y-88809524D02*
X111767380Y-88904762D01*
X111767380Y-88904762D02*
X111767380Y-89095238D01*
X111767380Y-89095238D02*
X111719761Y-89190476D01*
X111719761Y-89190476D02*
X111672142Y-89238095D01*
X111672142Y-89238095D02*
X111576904Y-89285714D01*
X111576904Y-89285714D02*
X111386428Y-89285714D01*
X111386428Y-89285714D02*
X111291190Y-89238095D01*
X111291190Y-89238095D02*
X111243571Y-89190476D01*
X111243571Y-89190476D02*
X111195952Y-89095238D01*
%TO.C,R7*%
X127066666Y-86317380D02*
X127399999Y-85841190D01*
X127638094Y-86317380D02*
X127638094Y-85317380D01*
X127638094Y-85317380D02*
X127257142Y-85317380D01*
X127257142Y-85317380D02*
X127161904Y-85365000D01*
X127161904Y-85365000D02*
X127114285Y-85412619D01*
X127114285Y-85412619D02*
X127066666Y-85507857D01*
X127066666Y-85507857D02*
X127066666Y-85650714D01*
X127066666Y-85650714D02*
X127114285Y-85745952D01*
X127114285Y-85745952D02*
X127161904Y-85793571D01*
X127161904Y-85793571D02*
X127257142Y-85841190D01*
X127257142Y-85841190D02*
X127638094Y-85841190D01*
X126733332Y-85317380D02*
X126066666Y-85317380D01*
X126066666Y-85317380D02*
X126495237Y-86317380D01*
%TO.C,U2*%
X113467380Y-89788095D02*
X114276904Y-89788095D01*
X114276904Y-89788095D02*
X114372142Y-89835714D01*
X114372142Y-89835714D02*
X114419761Y-89883333D01*
X114419761Y-89883333D02*
X114467380Y-89978571D01*
X114467380Y-89978571D02*
X114467380Y-90169047D01*
X114467380Y-90169047D02*
X114419761Y-90264285D01*
X114419761Y-90264285D02*
X114372142Y-90311904D01*
X114372142Y-90311904D02*
X114276904Y-90359523D01*
X114276904Y-90359523D02*
X113467380Y-90359523D01*
X113562619Y-90788095D02*
X113515000Y-90835714D01*
X113515000Y-90835714D02*
X113467380Y-90930952D01*
X113467380Y-90930952D02*
X113467380Y-91169047D01*
X113467380Y-91169047D02*
X113515000Y-91264285D01*
X113515000Y-91264285D02*
X113562619Y-91311904D01*
X113562619Y-91311904D02*
X113657857Y-91359523D01*
X113657857Y-91359523D02*
X113753095Y-91359523D01*
X113753095Y-91359523D02*
X113895952Y-91311904D01*
X113895952Y-91311904D02*
X114467380Y-90740476D01*
X114467380Y-90740476D02*
X114467380Y-91359523D01*
%TO.C,R4*%
X122766666Y-73117380D02*
X123099999Y-72641190D01*
X123338094Y-73117380D02*
X123338094Y-72117380D01*
X123338094Y-72117380D02*
X122957142Y-72117380D01*
X122957142Y-72117380D02*
X122861904Y-72165000D01*
X122861904Y-72165000D02*
X122814285Y-72212619D01*
X122814285Y-72212619D02*
X122766666Y-72307857D01*
X122766666Y-72307857D02*
X122766666Y-72450714D01*
X122766666Y-72450714D02*
X122814285Y-72545952D01*
X122814285Y-72545952D02*
X122861904Y-72593571D01*
X122861904Y-72593571D02*
X122957142Y-72641190D01*
X122957142Y-72641190D02*
X123338094Y-72641190D01*
X121909523Y-72450714D02*
X121909523Y-73117380D01*
X122147618Y-72069761D02*
X122385713Y-72784047D01*
X122385713Y-72784047D02*
X121766666Y-72784047D01*
%TO.C,TP2*%
X115867380Y-86838095D02*
X115867380Y-87409523D01*
X116867380Y-87123809D02*
X115867380Y-87123809D01*
X116867380Y-87742857D02*
X115867380Y-87742857D01*
X115867380Y-87742857D02*
X115867380Y-88123809D01*
X115867380Y-88123809D02*
X115915000Y-88219047D01*
X115915000Y-88219047D02*
X115962619Y-88266666D01*
X115962619Y-88266666D02*
X116057857Y-88314285D01*
X116057857Y-88314285D02*
X116200714Y-88314285D01*
X116200714Y-88314285D02*
X116295952Y-88266666D01*
X116295952Y-88266666D02*
X116343571Y-88219047D01*
X116343571Y-88219047D02*
X116391190Y-88123809D01*
X116391190Y-88123809D02*
X116391190Y-87742857D01*
X115962619Y-88695238D02*
X115915000Y-88742857D01*
X115915000Y-88742857D02*
X115867380Y-88838095D01*
X115867380Y-88838095D02*
X115867380Y-89076190D01*
X115867380Y-89076190D02*
X115915000Y-89171428D01*
X115915000Y-89171428D02*
X115962619Y-89219047D01*
X115962619Y-89219047D02*
X116057857Y-89266666D01*
X116057857Y-89266666D02*
X116153095Y-89266666D01*
X116153095Y-89266666D02*
X116295952Y-89219047D01*
X116295952Y-89219047D02*
X116867380Y-88647619D01*
X116867380Y-88647619D02*
X116867380Y-89266666D01*
%TO.C,R5*%
X122766666Y-71017380D02*
X123099999Y-70541190D01*
X123338094Y-71017380D02*
X123338094Y-70017380D01*
X123338094Y-70017380D02*
X122957142Y-70017380D01*
X122957142Y-70017380D02*
X122861904Y-70065000D01*
X122861904Y-70065000D02*
X122814285Y-70112619D01*
X122814285Y-70112619D02*
X122766666Y-70207857D01*
X122766666Y-70207857D02*
X122766666Y-70350714D01*
X122766666Y-70350714D02*
X122814285Y-70445952D01*
X122814285Y-70445952D02*
X122861904Y-70493571D01*
X122861904Y-70493571D02*
X122957142Y-70541190D01*
X122957142Y-70541190D02*
X123338094Y-70541190D01*
X121861904Y-70017380D02*
X122338094Y-70017380D01*
X122338094Y-70017380D02*
X122385713Y-70493571D01*
X122385713Y-70493571D02*
X122338094Y-70445952D01*
X122338094Y-70445952D02*
X122242856Y-70398333D01*
X122242856Y-70398333D02*
X122004761Y-70398333D01*
X122004761Y-70398333D02*
X121909523Y-70445952D01*
X121909523Y-70445952D02*
X121861904Y-70493571D01*
X121861904Y-70493571D02*
X121814285Y-70588809D01*
X121814285Y-70588809D02*
X121814285Y-70826904D01*
X121814285Y-70826904D02*
X121861904Y-70922142D01*
X121861904Y-70922142D02*
X121909523Y-70969761D01*
X121909523Y-70969761D02*
X122004761Y-71017380D01*
X122004761Y-71017380D02*
X122242856Y-71017380D01*
X122242856Y-71017380D02*
X122338094Y-70969761D01*
X122338094Y-70969761D02*
X122385713Y-70922142D01*
%TO.C,J6*%
X135262493Y-67166457D02*
X135976779Y-67166457D01*
X135976779Y-67166457D02*
X136119636Y-67118838D01*
X136119636Y-67118838D02*
X136214874Y-67023600D01*
X136214874Y-67023600D02*
X136262493Y-66880743D01*
X136262493Y-66880743D02*
X136262493Y-66785505D01*
X135262493Y-68071219D02*
X135262493Y-67880743D01*
X135262493Y-67880743D02*
X135310113Y-67785505D01*
X135310113Y-67785505D02*
X135357732Y-67737886D01*
X135357732Y-67737886D02*
X135500589Y-67642648D01*
X135500589Y-67642648D02*
X135691065Y-67595029D01*
X135691065Y-67595029D02*
X136072017Y-67595029D01*
X136072017Y-67595029D02*
X136167255Y-67642648D01*
X136167255Y-67642648D02*
X136214874Y-67690267D01*
X136214874Y-67690267D02*
X136262493Y-67785505D01*
X136262493Y-67785505D02*
X136262493Y-67975981D01*
X136262493Y-67975981D02*
X136214874Y-68071219D01*
X136214874Y-68071219D02*
X136167255Y-68118838D01*
X136167255Y-68118838D02*
X136072017Y-68166457D01*
X136072017Y-68166457D02*
X135833922Y-68166457D01*
X135833922Y-68166457D02*
X135738684Y-68118838D01*
X135738684Y-68118838D02*
X135691065Y-68071219D01*
X135691065Y-68071219D02*
X135643446Y-67975981D01*
X135643446Y-67975981D02*
X135643446Y-67785505D01*
X135643446Y-67785505D02*
X135691065Y-67690267D01*
X135691065Y-67690267D02*
X135738684Y-67642648D01*
X135738684Y-67642648D02*
X135833922Y-67595029D01*
D16*
%TO.C,TP1*%
X116650000Y-95550000D02*
G75*
G03*
X116650000Y-95550000I-950000J0D01*
G01*
%TO.C,R6*%
X127127064Y-87235000D02*
X126672936Y-87235000D01*
X127127064Y-85765000D02*
X126672936Y-85765000D01*
%TO.C,J3*%
X110725000Y-83000000D02*
X110725000Y-78000000D01*
X112725000Y-78000000D02*
X110725000Y-78000000D01*
X112725000Y-78000000D02*
X112725000Y-77400000D01*
X112725000Y-83000000D02*
X110725000Y-83000000D01*
X112725000Y-83600000D02*
X112725000Y-83000000D01*
X112725000Y-83600000D02*
X115100000Y-83600000D01*
X116750000Y-83600000D02*
X118100000Y-83600000D01*
X119750000Y-83600000D02*
X122150000Y-83600000D01*
X122150000Y-83600000D02*
X122150000Y-85000000D01*
X123250000Y-77400000D02*
X112725000Y-77400000D01*
X123700000Y-83600000D02*
X123700000Y-85000000D01*
X123700000Y-83600000D02*
X124825000Y-83600000D01*
X124825000Y-77400000D02*
X124825000Y-83600000D01*
%TO.C,R8*%
X112562742Y-86177500D02*
X113037258Y-86177500D01*
X112562742Y-87222500D02*
X113037258Y-87222500D01*
%TO.C,R7*%
X126672936Y-83565000D02*
X127127064Y-83565000D01*
X126672936Y-85035000D02*
X127127064Y-85035000D01*
D11*
%TO.C,U2*%
X115625000Y-88925000D02*
X115350000Y-88925000D01*
X115625000Y-88925000D02*
X115625000Y-92175000D01*
X112550000Y-88925000D02*
X112550000Y-87850000D01*
X112375000Y-88925000D02*
X112550000Y-88925000D01*
X112375000Y-88925000D02*
X112375000Y-92175000D01*
X115625000Y-92175000D02*
X115350000Y-92175000D01*
X112375000Y-92175000D02*
X112650000Y-92175000D01*
D16*
%TO.C,R4*%
X122827064Y-75135000D02*
X122372936Y-75135000D01*
X122827064Y-73665000D02*
X122372936Y-73665000D01*
%TO.C,TP2*%
X116650000Y-90700000D02*
G75*
G03*
X116650000Y-90700000I-950000J0D01*
G01*
%TO.C,R5*%
X122827064Y-73035000D02*
X122372936Y-73035000D01*
X122827064Y-71565000D02*
X122372936Y-71565000D01*
%TO.C,J6*%
X133045113Y-75924791D02*
X128045113Y-75924791D01*
X128045113Y-73924791D02*
X128045113Y-75924791D01*
X128045113Y-73924791D02*
X127445113Y-73924791D01*
X133045113Y-73924791D02*
X133045113Y-75924791D01*
X133645113Y-73924791D02*
X133045113Y-73924791D01*
X133645113Y-73924791D02*
X133645113Y-71549791D01*
X133645113Y-69899791D02*
X133645113Y-68549791D01*
X133645113Y-66899791D02*
X133645113Y-64499791D01*
X133645113Y-64499791D02*
X135045113Y-64499791D01*
X127445113Y-63399791D02*
X127445113Y-73924791D01*
X133645113Y-62949791D02*
X135045113Y-62949791D01*
X133645113Y-62949791D02*
X133645113Y-61824791D01*
X127445113Y-61824791D02*
X133645113Y-61824791D01*
%TD*%
M02*
