%TF.GenerationSoftware,KiCad,Pcbnew,(7.0.0)*%
%TF.CreationDate,2023-03-27T21:21:57+02:00*%
%TF.ProjectId,220AC-mini-C3-board,32323041-432d-46d6-996e-692d43332d62,rev?*%
%TF.SameCoordinates,Original*%
%TF.FileFunction,Copper,L1,Top*%
%TF.FilePolarity,Positive*%
%FSLAX46Y46*%
G04 Gerber Fmt 4.6, Leading zero omitted, Abs format (unit mm)*
G04 Created by KiCad (PCBNEW (7.0.0)) date 2023-03-27 21:21:57*
%MOMM*%
%LPD*%
G01*
G04 APERTURE LIST*
G04 Aperture macros list*
%AMRoundRect*
0 Rectangle with rounded corners*
0 $1 Rounding radius*
0 $2 $3 $4 $5 $6 $7 $8 $9 X,Y pos of 4 corners*
0 Add a 4 corners polygon primitive as box body*
4,1,4,$2,$3,$4,$5,$6,$7,$8,$9,$2,$3,0*
0 Add four circle primitives for the rounded corners*
1,1,$1+$1,$2,$3*
1,1,$1+$1,$4,$5*
1,1,$1+$1,$6,$7*
1,1,$1+$1,$8,$9*
0 Add four rect primitives between the rounded corners*
20,1,$1+$1,$2,$3,$4,$5,0*
20,1,$1+$1,$4,$5,$6,$7,0*
20,1,$1+$1,$6,$7,$8,$9,0*
20,1,$1+$1,$8,$9,$2,$3,0*%
%AMRotRect*
0 Rectangle, with rotation*
0 The origin of the aperture is its center*
0 $1 length*
0 $2 width*
0 $3 Rotation angle, in degrees counterclockwise*
0 Add horizontal line*
21,1,$1,$2,0,0,$3*%
G04 Aperture macros list end*
%TA.AperFunction,ComponentPad*%
%ADD10R,1.320800X1.320800*%
%TD*%
%TA.AperFunction,ComponentPad*%
%ADD11C,1.320800*%
%TD*%
%TA.AperFunction,SMDPad,CuDef*%
%ADD12RoundRect,0.250000X0.450000X-0.350000X0.450000X0.350000X-0.450000X0.350000X-0.450000X-0.350000X0*%
%TD*%
%TA.AperFunction,SMDPad,CuDef*%
%ADD13R,0.450000X0.600000*%
%TD*%
%TA.AperFunction,ComponentPad*%
%ADD14RoundRect,0.500000X-0.500000X-0.500000X0.500000X-0.500000X0.500000X0.500000X-0.500000X0.500000X0*%
%TD*%
%TA.AperFunction,ComponentPad*%
%ADD15C,2.000000*%
%TD*%
%TA.AperFunction,ComponentPad*%
%ADD16RoundRect,0.500000X0.183013X-0.683013X0.683013X0.183013X-0.183013X0.683013X-0.683013X-0.183013X0*%
%TD*%
%TA.AperFunction,ComponentPad*%
%ADD17C,1.803400*%
%TD*%
%TA.AperFunction,ComponentPad*%
%ADD18R,1.803400X1.803400*%
%TD*%
%TA.AperFunction,ComponentPad*%
%ADD19C,2.311400*%
%TD*%
%TA.AperFunction,ComponentPad*%
%ADD20RotRect,2.000000X2.000000X240.000000*%
%TD*%
%TA.AperFunction,SMDPad,CuDef*%
%ADD21RoundRect,0.514350X1.047750X-0.514350X1.047750X0.514350X-1.047750X0.514350X-1.047750X-0.514350X0*%
%TD*%
%TA.AperFunction,SMDPad,CuDef*%
%ADD22R,0.600000X0.450000*%
%TD*%
%TA.AperFunction,ComponentPad*%
%ADD23RotRect,2.000000X2.000000X45.000000*%
%TD*%
%TA.AperFunction,SMDPad,CuDef*%
%ADD24R,1.400000X2.700000*%
%TD*%
%TA.AperFunction,ComponentPad*%
%ADD25R,1.700000X1.700000*%
%TD*%
%TA.AperFunction,ComponentPad*%
%ADD26O,1.700000X1.700000*%
%TD*%
%TA.AperFunction,ViaPad*%
%ADD27C,0.800000*%
%TD*%
%TA.AperFunction,Conductor*%
%ADD28C,1.500000*%
%TD*%
%TA.AperFunction,Conductor*%
%ADD29C,0.500000*%
%TD*%
G04 APERTURE END LIST*
D10*
%TO.P,Q1,1,C*%
%TO.N,Net-(D1-A)*%
X126413549Y-102399999D03*
D11*
%TO.P,Q1,2,B*%
%TO.N,Net-(Q1-B)*%
X126413550Y-105000000D03*
%TO.P,Q1,3,E*%
%TO.N,GND*%
X126413550Y-107600000D03*
%TD*%
D12*
%TO.P,R2,1*%
%TO.N,Net-(Q2-B)*%
X121400000Y-92300000D03*
%TO.P,R2,2*%
%TO.N,/RELAIS_OFF*%
X121400000Y-90300000D03*
%TD*%
D13*
%TO.P,D2,1,K*%
%TO.N,+3V3*%
X123749999Y-90549999D03*
%TO.P,D2,2,A*%
%TO.N,Net-(D2-A)*%
X123749999Y-92649999D03*
%TD*%
D14*
%TO.P,J2,1,Pin_1*%
%TO.N,Net-(J2-Pin_1)*%
X137710000Y-106250000D03*
D15*
%TO.P,J2,2,Pin_2*%
%TO.N,Net-(J2-Pin_2)*%
X142790000Y-106250000D03*
%TD*%
D16*
%TO.P,J1,1,Pin_1*%
%TO.N,/AC (N)*%
X152960000Y-100149410D03*
D15*
%TO.P,J1,2,Pin_2*%
%TO.N,/AC (L)*%
X155500000Y-95750000D03*
%TD*%
D12*
%TO.P,R3,1*%
%TO.N,Net-(Q1-B)*%
X121250000Y-105400000D03*
%TO.P,R3,2*%
%TO.N,/RELAIS_ON*%
X121250000Y-103400000D03*
%TD*%
D10*
%TO.P,Q2,1,C*%
%TO.N,Net-(D2-A)*%
X121999999Y-94299999D03*
D11*
%TO.P,Q2,2,B*%
%TO.N,Net-(Q2-B)*%
X122000000Y-96900000D03*
%TO.P,Q2,3,E*%
%TO.N,GND*%
X122000000Y-99500000D03*
%TD*%
D17*
%TO.P,K1,1*%
%TO.N,Net-(D1-A)*%
X126903500Y-99750000D03*
D18*
%TO.P,K1,2*%
%TO.N,+3V3*%
X126903499Y-95999999D03*
D17*
%TO.P,K1,3*%
%TO.N,Net-(D2-A)*%
X126903500Y-92250000D03*
D19*
%TO.P,K1,4*%
%TO.N,Net-(J2-Pin_1)*%
X144236500Y-92400000D03*
%TO.P,K1,5*%
%TO.N,Net-(J2-Pin_2)*%
X141696500Y-99600000D03*
%TD*%
D20*
%TO.P,C2,1*%
%TO.N,Net-(PS1-+Vout)*%
X117249999Y-69749999D03*
D15*
%TO.P,C2,2*%
%TO.N,GND*%
X114750000Y-74080127D03*
%TD*%
D21*
%TO.P,F1,1*%
%TO.N,/AC (L)*%
X161000000Y-90668800D03*
%TO.P,F1,2*%
%TO.N,Net-(PS1-AC{slash}L)*%
X161000000Y-81931200D03*
%TD*%
D22*
%TO.P,D1,1,K*%
%TO.N,+3V3*%
X121799999Y-101499999D03*
%TO.P,D1,2,A*%
%TO.N,Net-(D1-A)*%
X123899999Y-101499999D03*
%TD*%
D23*
%TO.P,C1,1*%
%TO.N,+3V3*%
X113328545Y-84267766D03*
D15*
%TO.P,C1,2*%
%TO.N,GND*%
X116864080Y-80732233D03*
%TD*%
D24*
%TO.P,L1,1,1*%
%TO.N,Net-(PS1-+Vout)*%
X123899999Y-64499999D03*
%TO.P,L1,2,2*%
%TO.N,+3V3*%
X126599999Y-64499999D03*
%TD*%
D25*
%TO.P,J4,1,Pin_1*%
%TO.N,+3V3*%
X118389199Y-102081699D03*
D26*
%TO.P,J4,2,Pin_2*%
%TO.N,GND*%
X118389199Y-99541699D03*
%TO.P,J4,3,Pin_3*%
%TO.N,/RELAIS_ON*%
X118389199Y-97001699D03*
%TO.P,J4,4,Pin_4*%
%TO.N,/SCL*%
X118389199Y-94461699D03*
%TO.P,J4,5,Pin_5*%
%TO.N,/SDA*%
X118389199Y-91921699D03*
%TO.P,J4,6,Pin_6*%
%TO.N,/RELAIS_OFF*%
X118389199Y-89381699D03*
%TD*%
D15*
%TO.P,PS1,1,AC/L*%
%TO.N,Net-(PS1-AC{slash}L)*%
X156300000Y-81250000D03*
%TO.P,PS1,2,AC/N*%
%TO.N,/AC (N)*%
X156300000Y-75250000D03*
%TO.P,PS1,3,-Vout*%
%TO.N,GND*%
X122700000Y-87250000D03*
%TO.P,PS1,4,+Vout*%
%TO.N,Net-(PS1-+Vout)*%
X122700000Y-69250000D03*
%TD*%
D27*
%TO.N,+3V3*%
X114500000Y-94000000D03*
X124600000Y-70900000D03*
X127500000Y-89300000D03*
%TD*%
D28*
%TO.N,Net-(PS1-+Vout)*%
X117250000Y-69750000D02*
X122200000Y-69750000D01*
X123900000Y-64500000D02*
X123900000Y-68050000D01*
X123900000Y-68050000D02*
X122700000Y-69250000D01*
X122200000Y-69750000D02*
X122700000Y-69250000D01*
%TO.N,/AC (N)*%
X152960000Y-99960000D02*
X149750000Y-96750000D01*
X153500000Y-75250000D02*
X156300000Y-75250000D01*
X149750000Y-96750000D02*
X149750000Y-79000000D01*
X149750000Y-79000000D02*
X153500000Y-75250000D01*
X152960000Y-100149410D02*
X152960000Y-99960000D01*
%TO.N,Net-(D1-A)*%
X126903500Y-99750000D02*
X126903500Y-101910050D01*
X126903500Y-101910050D02*
X126413550Y-102400000D01*
D29*
X124950000Y-102400000D02*
X124050000Y-101500000D01*
X126413550Y-102400000D02*
X124950000Y-102400000D01*
D28*
%TO.N,+3V3*%
X126600000Y-73754030D02*
X126600000Y-71000000D01*
X114500000Y-98243826D02*
X114500000Y-85439221D01*
D29*
X127463393Y-90148300D02*
X128255200Y-90940107D01*
X126500000Y-70900000D02*
X126600000Y-71000000D01*
D28*
X121654030Y-78700000D02*
X126600000Y-73754030D01*
X113328546Y-84267767D02*
X116086263Y-84267767D01*
X116086263Y-84267767D02*
X118814080Y-81539950D01*
D29*
X120075000Y-79125000D02*
X120075000Y-86875000D01*
X120500000Y-78700000D02*
X120075000Y-79125000D01*
D28*
X126600000Y-71000000D02*
X126600000Y-64500000D01*
X118337874Y-102081700D02*
X114500000Y-98243826D01*
D29*
X128255200Y-90940107D02*
X128255200Y-93898300D01*
X123750000Y-90550000D02*
X124151700Y-90148300D01*
D28*
X118814080Y-80385920D02*
X120500000Y-78700000D01*
D29*
X121950000Y-101500000D02*
X118970900Y-101500000D01*
D28*
X114500000Y-85439221D02*
X113328546Y-84267767D01*
D29*
X128255200Y-93898300D02*
X126903500Y-95250000D01*
D28*
X120500000Y-78700000D02*
X121654030Y-78700000D01*
D29*
X118970900Y-101500000D02*
X118389200Y-102081700D01*
X124600000Y-70900000D02*
X126500000Y-70900000D01*
X127500000Y-89300000D02*
X127500000Y-90111693D01*
D28*
X118814080Y-81539950D02*
X118814080Y-80385920D01*
X118389200Y-102081700D02*
X118337874Y-102081700D01*
D29*
X127500000Y-90111693D02*
X127463393Y-90148300D01*
X120075000Y-86875000D02*
X123750000Y-90550000D01*
X124151700Y-90148300D02*
X127463393Y-90148300D01*
%TO.N,Net-(D2-A)*%
X123750000Y-92650000D02*
X126503500Y-92650000D01*
X126503500Y-92650000D02*
X126903500Y-92250000D01*
X122413550Y-94300000D02*
X122413550Y-93986450D01*
X122413550Y-93986450D02*
X123750000Y-92650000D01*
D28*
%TO.N,Net-(J2-Pin_1)*%
X140350000Y-92400000D02*
X144236500Y-92400000D01*
X136750000Y-105290000D02*
X136750000Y-96000000D01*
X137710000Y-106250000D02*
X136750000Y-105290000D01*
X136750000Y-96000000D02*
X140350000Y-92400000D01*
%TO.N,Net-(J2-Pin_2)*%
X143250000Y-105790000D02*
X142790000Y-106250000D01*
X141696500Y-99600000D02*
X143250000Y-101153500D01*
X143250000Y-101153500D02*
X143250000Y-105790000D01*
D29*
%TO.N,Net-(Q1-B)*%
X121250000Y-105325000D02*
X121575000Y-105000000D01*
X121575000Y-105000000D02*
X126413550Y-105000000D01*
%TO.N,Net-(Q2-B)*%
X121900000Y-96900000D02*
X120750000Y-95750000D01*
X120750000Y-93150000D02*
X121500000Y-92400000D01*
X120750000Y-95750000D02*
X120750000Y-93150000D01*
%TO.N,/RELAIS_ON*%
X121250000Y-103675000D02*
X122700000Y-102225000D01*
X122700000Y-102225000D02*
X122700000Y-100370343D01*
X123110400Y-99959943D02*
X123110400Y-99040057D01*
X122459943Y-98389600D02*
X119777100Y-98389600D01*
X119777100Y-98389600D02*
X118389200Y-97001700D01*
X123110400Y-99040057D02*
X122459943Y-98389600D01*
X122700000Y-100370343D02*
X123110400Y-99959943D01*
%TO.N,/RELAIS_OFF*%
X120925000Y-90750000D02*
X119757500Y-90750000D01*
X119757500Y-90750000D02*
X118389200Y-89381700D01*
D28*
%TO.N,/AC (L)*%
X155500000Y-95750000D02*
X156368800Y-95750000D01*
X156368800Y-95750000D02*
X161000000Y-91118800D01*
%TO.N,Net-(PS1-AC{slash}L)*%
X159868800Y-81250000D02*
X161000000Y-82381200D01*
X156300000Y-81250000D02*
X159868800Y-81250000D01*
%TD*%
M02*
