%TF.GenerationSoftware,KiCad,Pcbnew,(7.0.0)*%
%TF.CreationDate,2023-03-27T21:21:58+02:00*%
%TF.ProjectId,220AC-mini-C3-board,32323041-432d-46d6-996e-692d43332d62,rev?*%
%TF.SameCoordinates,Original*%
%TF.FileFunction,Soldermask,Bot*%
%TF.FilePolarity,Negative*%
%FSLAX46Y46*%
G04 Gerber Fmt 4.6, Leading zero omitted, Abs format (unit mm)*
G04 Created by KiCad (PCBNEW (7.0.0)) date 2023-03-27 21:21:58*
%MOMM*%
%LPD*%
G01*
G04 APERTURE LIST*
G04 Aperture macros list*
%AMRoundRect*
0 Rectangle with rounded corners*
0 $1 Rounding radius*
0 $2 $3 $4 $5 $6 $7 $8 $9 X,Y pos of 4 corners*
0 Add a 4 corners polygon primitive as box body*
4,1,4,$2,$3,$4,$5,$6,$7,$8,$9,$2,$3,0*
0 Add four circle primitives for the rounded corners*
1,1,$1+$1,$2,$3*
1,1,$1+$1,$4,$5*
1,1,$1+$1,$6,$7*
1,1,$1+$1,$8,$9*
0 Add four rect primitives between the rounded corners*
20,1,$1+$1,$2,$3,$4,$5,0*
20,1,$1+$1,$4,$5,$6,$7,0*
20,1,$1+$1,$6,$7,$8,$9,0*
20,1,$1+$1,$8,$9,$2,$3,0*%
%AMRotRect*
0 Rectangle, with rotation*
0 The origin of the aperture is its center*
0 $1 length*
0 $2 width*
0 $3 Rotation angle, in degrees counterclockwise*
0 Add horizontal line*
21,1,$1,$2,0,0,$3*%
G04 Aperture macros list end*
%ADD10R,1.320800X1.320800*%
%ADD11C,1.320800*%
%ADD12RoundRect,0.500000X-0.500000X-0.500000X0.500000X-0.500000X0.500000X0.500000X-0.500000X0.500000X0*%
%ADD13C,2.000000*%
%ADD14RoundRect,0.500000X0.183013X-0.683013X0.683013X0.183013X-0.183013X0.683013X-0.683013X-0.183013X0*%
%ADD15C,1.803400*%
%ADD16R,1.803400X1.803400*%
%ADD17C,2.311400*%
%ADD18RotRect,2.000000X2.000000X240.000000*%
%ADD19RotRect,2.000000X2.000000X45.000000*%
%ADD20R,1.700000X1.700000*%
%ADD21O,1.700000X1.700000*%
%ADD22C,2.100000*%
%ADD23C,1.500000*%
%ADD24RoundRect,0.250000X0.350000X0.450000X-0.350000X0.450000X-0.350000X-0.450000X0.350000X-0.450000X0*%
%ADD25R,1.200000X2.500000*%
%ADD26RoundRect,0.200000X-0.200000X-0.275000X0.200000X-0.275000X0.200000X0.275000X-0.200000X0.275000X0*%
%ADD27RoundRect,0.250000X-0.350000X-0.450000X0.350000X-0.450000X0.350000X0.450000X-0.350000X0.450000X0*%
%ADD28R,0.250000X1.100000*%
%ADD29R,2.500000X1.200000*%
G04 APERTURE END LIST*
D10*
%TO.C,Q1*%
X126413549Y-102399999D03*
D11*
X126413550Y-105000000D03*
X126413550Y-107600000D03*
%TD*%
D12*
%TO.C,J2*%
X137710000Y-106250000D03*
D13*
X142790000Y-106250000D03*
%TD*%
D14*
%TO.C,J1*%
X152960000Y-100149410D03*
D13*
X155500000Y-95750000D03*
%TD*%
D10*
%TO.C,Q2*%
X121999999Y-94299999D03*
D11*
X122000000Y-96900000D03*
X122000000Y-99500000D03*
%TD*%
D15*
%TO.C,K1*%
X126903500Y-99750000D03*
D16*
X126903499Y-95999999D03*
D15*
X126903500Y-92250000D03*
D17*
X144236500Y-92400000D03*
X141696500Y-99600000D03*
%TD*%
D18*
%TO.C,C2*%
X117249999Y-69749999D03*
D13*
X114750000Y-74080127D03*
%TD*%
D19*
%TO.C,C1*%
X113328545Y-84267766D03*
D13*
X116864080Y-80732233D03*
%TD*%
D20*
%TO.C,J4*%
X118389199Y-102081699D03*
D21*
X118389199Y-99541699D03*
X118389199Y-97001699D03*
X118389199Y-94461699D03*
X118389199Y-91921699D03*
X118389199Y-89381699D03*
%TD*%
D13*
%TO.C,PS1*%
X156300000Y-81250000D03*
X156300000Y-75250000D03*
X122700000Y-87250000D03*
X122700000Y-69250000D03*
%TD*%
D22*
%TO.C,H5*%
X136539200Y-85342100D03*
%TD*%
D23*
%TO.C,TP1*%
X115700000Y-95550000D03*
%TD*%
D24*
%TO.C,R6*%
X127900000Y-86500000D03*
X125900000Y-86500000D03*
%TD*%
D23*
%TO.C,J3*%
X114325000Y-80500000D03*
X121325000Y-80500000D03*
D25*
X118924999Y-83749999D03*
X115924999Y-83749999D03*
X124024999Y-77249999D03*
X122924999Y-83749999D03*
%TD*%
D26*
%TO.C,R8*%
X111975000Y-86700000D03*
X113625000Y-86700000D03*
%TD*%
D27*
%TO.C,R7*%
X125900000Y-84300000D03*
X127900000Y-84300000D03*
%TD*%
D28*
%TO.C,U2*%
X112999999Y-88399999D03*
X113499999Y-88399999D03*
X113999999Y-88399999D03*
X114499999Y-88399999D03*
X114999999Y-88399999D03*
X114999999Y-92699999D03*
X114499999Y-92699999D03*
X113999999Y-92699999D03*
X113499999Y-92699999D03*
X112999999Y-92699999D03*
%TD*%
D24*
%TO.C,R4*%
X123600000Y-74400000D03*
X121600000Y-74400000D03*
%TD*%
D23*
%TO.C,TP2*%
X115700000Y-90700000D03*
%TD*%
D24*
%TO.C,R5*%
X123600000Y-72300000D03*
X121600000Y-72300000D03*
%TD*%
D23*
%TO.C,J6*%
X130545113Y-72324791D03*
X130545113Y-65324791D03*
D29*
X133795112Y-67724790D03*
X133795112Y-70724790D03*
X127295112Y-62624790D03*
X133795112Y-63724790D03*
%TD*%
M02*
