%TF.GenerationSoftware,KiCad,Pcbnew,(7.0.0)*%
%TF.CreationDate,2023-03-27T21:21:58+02:00*%
%TF.ProjectId,220AC-mini-C3-board,32323041-432d-46d6-996e-692d43332d62,rev?*%
%TF.SameCoordinates,Original*%
%TF.FileFunction,Soldermask,Top*%
%TF.FilePolarity,Negative*%
%FSLAX46Y46*%
G04 Gerber Fmt 4.6, Leading zero omitted, Abs format (unit mm)*
G04 Created by KiCad (PCBNEW (7.0.0)) date 2023-03-27 21:21:58*
%MOMM*%
%LPD*%
G01*
G04 APERTURE LIST*
G04 Aperture macros list*
%AMRoundRect*
0 Rectangle with rounded corners*
0 $1 Rounding radius*
0 $2 $3 $4 $5 $6 $7 $8 $9 X,Y pos of 4 corners*
0 Add a 4 corners polygon primitive as box body*
4,1,4,$2,$3,$4,$5,$6,$7,$8,$9,$2,$3,0*
0 Add four circle primitives for the rounded corners*
1,1,$1+$1,$2,$3*
1,1,$1+$1,$4,$5*
1,1,$1+$1,$6,$7*
1,1,$1+$1,$8,$9*
0 Add four rect primitives between the rounded corners*
20,1,$1+$1,$2,$3,$4,$5,0*
20,1,$1+$1,$4,$5,$6,$7,0*
20,1,$1+$1,$6,$7,$8,$9,0*
20,1,$1+$1,$8,$9,$2,$3,0*%
%AMRotRect*
0 Rectangle, with rotation*
0 The origin of the aperture is its center*
0 $1 length*
0 $2 width*
0 $3 Rotation angle, in degrees counterclockwise*
0 Add horizontal line*
21,1,$1,$2,0,0,$3*%
G04 Aperture macros list end*
%ADD10R,1.320800X1.320800*%
%ADD11C,1.320800*%
%ADD12RoundRect,0.250000X0.450000X-0.350000X0.450000X0.350000X-0.450000X0.350000X-0.450000X-0.350000X0*%
%ADD13R,0.450000X0.600000*%
%ADD14RoundRect,0.500000X-0.500000X-0.500000X0.500000X-0.500000X0.500000X0.500000X-0.500000X0.500000X0*%
%ADD15C,2.000000*%
%ADD16RoundRect,0.500000X0.183013X-0.683013X0.683013X0.183013X-0.183013X0.683013X-0.683013X-0.183013X0*%
%ADD17C,1.803400*%
%ADD18R,1.803400X1.803400*%
%ADD19C,2.311400*%
%ADD20RotRect,2.000000X2.000000X240.000000*%
%ADD21RoundRect,0.514350X1.047750X-0.514350X1.047750X0.514350X-1.047750X0.514350X-1.047750X-0.514350X0*%
%ADD22R,0.600000X0.450000*%
%ADD23RotRect,2.000000X2.000000X45.000000*%
%ADD24R,1.400000X2.700000*%
%ADD25R,1.700000X1.700000*%
%ADD26O,1.700000X1.700000*%
%ADD27C,2.100000*%
%ADD28C,1.500000*%
G04 APERTURE END LIST*
D10*
%TO.C,Q1*%
X126413549Y-102399999D03*
D11*
X126413550Y-105000000D03*
X126413550Y-107600000D03*
%TD*%
D12*
%TO.C,R2*%
X121400000Y-92300000D03*
X121400000Y-90300000D03*
%TD*%
D13*
%TO.C,D2*%
X123749999Y-90549999D03*
X123749999Y-92649999D03*
%TD*%
D14*
%TO.C,J2*%
X137710000Y-106250000D03*
D15*
X142790000Y-106250000D03*
%TD*%
D16*
%TO.C,J1*%
X152960000Y-100149410D03*
D15*
X155500000Y-95750000D03*
%TD*%
D12*
%TO.C,R3*%
X121250000Y-105400000D03*
X121250000Y-103400000D03*
%TD*%
D10*
%TO.C,Q2*%
X121999999Y-94299999D03*
D11*
X122000000Y-96900000D03*
X122000000Y-99500000D03*
%TD*%
D17*
%TO.C,K1*%
X126903500Y-99750000D03*
D18*
X126903499Y-95999999D03*
D17*
X126903500Y-92250000D03*
D19*
X144236500Y-92400000D03*
X141696500Y-99600000D03*
%TD*%
D20*
%TO.C,C2*%
X117249999Y-69749999D03*
D15*
X114750000Y-74080127D03*
%TD*%
D21*
%TO.C,F1*%
X161000000Y-90668800D03*
X161000000Y-81931200D03*
%TD*%
D22*
%TO.C,D1*%
X121799999Y-101499999D03*
X123899999Y-101499999D03*
%TD*%
D23*
%TO.C,C1*%
X113328545Y-84267766D03*
D15*
X116864080Y-80732233D03*
%TD*%
D24*
%TO.C,L1*%
X123899999Y-64499999D03*
X126599999Y-64499999D03*
%TD*%
D25*
%TO.C,J4*%
X118389199Y-102081699D03*
D26*
X118389199Y-99541699D03*
X118389199Y-97001699D03*
X118389199Y-94461699D03*
X118389199Y-91921699D03*
X118389199Y-89381699D03*
%TD*%
D15*
%TO.C,PS1*%
X156300000Y-81250000D03*
X156300000Y-75250000D03*
X122700000Y-87250000D03*
X122700000Y-69250000D03*
%TD*%
D27*
%TO.C,H5*%
X136539200Y-85342100D03*
%TD*%
D28*
%TO.C,J3*%
X114325000Y-80500000D03*
X121325000Y-80500000D03*
%TD*%
%TO.C,J6*%
X130545113Y-72324791D03*
X130545113Y-65324791D03*
%TD*%
M02*
