M48
; DRILL file {KiCad (7.0.0)} date Mon Mar 27 21:22:00 2023
; FORMAT={-:-/ absolute / inch / decimal}
; #@! TF.CreationDate,2023-03-27T21:22:00+02:00
; #@! TF.GenerationSoftware,Kicad,Pcbnew,(7.0.0)
; #@! TF.FileFunction,Plated,1,2,PTH
FMAT,2
INCH
; #@! TA.AperFunction,Plated,PTH,ViaDrill
T1C0.0157
; #@! TA.AperFunction,Plated,PTH,ComponentDrill
T2C0.0320
; #@! TA.AperFunction,Plated,PTH,ComponentDrill
T3C0.0394
; #@! TA.AperFunction,Plated,PTH,ComponentDrill
T4C0.0433
; #@! TA.AperFunction,Plated,PTH,ComponentDrill
T5C0.0472
; #@! TA.AperFunction,Plated,PTH,ComponentDrill
T6C0.0510
; #@! TA.AperFunction,Plated,PTH,ComponentDrill
T7C0.0710
%
G90
G05
T1
X4.5079Y-3.7008
X4.9055Y-2.7913
X5.0197Y-3.5157
T2
X4.8031Y-3.7126
X4.8031Y-3.815
X4.8031Y-3.9173
X4.9769Y-4.0315
X4.9769Y-4.1339
X4.9769Y-4.2362
T3
X4.4618Y-3.3176
X4.5177Y-2.9165
X4.6009Y-3.1784
X4.6161Y-2.7461
X4.661Y-3.519
X4.661Y-3.619
X4.661Y-3.719
X4.661Y-3.819
X4.661Y-3.919
X4.661Y-4.019
T4
X5.4217Y-4.1831
X5.6217Y-4.1831
X6.022Y-3.9429
X6.122Y-3.7697
T5
X4.8307Y-2.7264
X4.8307Y-3.435
X6.1535Y-2.9626
X6.1535Y-3.1988
T6
X4.9962Y-3.6319
X4.9962Y-3.7795
X4.9962Y-3.9272
T7
X5.5786Y-3.9213
X5.6786Y-3.6378
T0
M30
