%TF.GenerationSoftware,KiCad,Pcbnew,(7.0.0)*%
%TF.CreationDate,2023-03-27T21:21:58+02:00*%
%TF.ProjectId,220AC-mini-C3-board,32323041-432d-46d6-996e-692d43332d62,rev?*%
%TF.SameCoordinates,Original*%
%TF.FileFunction,Copper,L2,Bot*%
%TF.FilePolarity,Positive*%
%FSLAX46Y46*%
G04 Gerber Fmt 4.6, Leading zero omitted, Abs format (unit mm)*
G04 Created by KiCad (PCBNEW (7.0.0)) date 2023-03-27 21:21:58*
%MOMM*%
%LPD*%
G01*
G04 APERTURE LIST*
G04 Aperture macros list*
%AMRoundRect*
0 Rectangle with rounded corners*
0 $1 Rounding radius*
0 $2 $3 $4 $5 $6 $7 $8 $9 X,Y pos of 4 corners*
0 Add a 4 corners polygon primitive as box body*
4,1,4,$2,$3,$4,$5,$6,$7,$8,$9,$2,$3,0*
0 Add four circle primitives for the rounded corners*
1,1,$1+$1,$2,$3*
1,1,$1+$1,$4,$5*
1,1,$1+$1,$6,$7*
1,1,$1+$1,$8,$9*
0 Add four rect primitives between the rounded corners*
20,1,$1+$1,$2,$3,$4,$5,0*
20,1,$1+$1,$4,$5,$6,$7,0*
20,1,$1+$1,$6,$7,$8,$9,0*
20,1,$1+$1,$8,$9,$2,$3,0*%
%AMRotRect*
0 Rectangle, with rotation*
0 The origin of the aperture is its center*
0 $1 length*
0 $2 width*
0 $3 Rotation angle, in degrees counterclockwise*
0 Add horizontal line*
21,1,$1,$2,0,0,$3*%
G04 Aperture macros list end*
%TA.AperFunction,ComponentPad*%
%ADD10R,1.320800X1.320800*%
%TD*%
%TA.AperFunction,ComponentPad*%
%ADD11C,1.320800*%
%TD*%
%TA.AperFunction,ComponentPad*%
%ADD12RoundRect,0.500000X-0.500000X-0.500000X0.500000X-0.500000X0.500000X0.500000X-0.500000X0.500000X0*%
%TD*%
%TA.AperFunction,ComponentPad*%
%ADD13C,2.000000*%
%TD*%
%TA.AperFunction,ComponentPad*%
%ADD14RoundRect,0.500000X0.183013X-0.683013X0.683013X0.183013X-0.183013X0.683013X-0.683013X-0.183013X0*%
%TD*%
%TA.AperFunction,ComponentPad*%
%ADD15C,1.803400*%
%TD*%
%TA.AperFunction,ComponentPad*%
%ADD16R,1.803400X1.803400*%
%TD*%
%TA.AperFunction,ComponentPad*%
%ADD17C,2.311400*%
%TD*%
%TA.AperFunction,ComponentPad*%
%ADD18RotRect,2.000000X2.000000X240.000000*%
%TD*%
%TA.AperFunction,ComponentPad*%
%ADD19RotRect,2.000000X2.000000X45.000000*%
%TD*%
%TA.AperFunction,ComponentPad*%
%ADD20R,1.700000X1.700000*%
%TD*%
%TA.AperFunction,ComponentPad*%
%ADD21O,1.700000X1.700000*%
%TD*%
%TA.AperFunction,SMDPad,CuDef*%
%ADD22C,1.500000*%
%TD*%
%TA.AperFunction,SMDPad,CuDef*%
%ADD23RoundRect,0.250000X0.350000X0.450000X-0.350000X0.450000X-0.350000X-0.450000X0.350000X-0.450000X0*%
%TD*%
%TA.AperFunction,SMDPad,CuDef*%
%ADD24R,1.200000X2.500000*%
%TD*%
%TA.AperFunction,SMDPad,CuDef*%
%ADD25RoundRect,0.200000X-0.200000X-0.275000X0.200000X-0.275000X0.200000X0.275000X-0.200000X0.275000X0*%
%TD*%
%TA.AperFunction,SMDPad,CuDef*%
%ADD26RoundRect,0.250000X-0.350000X-0.450000X0.350000X-0.450000X0.350000X0.450000X-0.350000X0.450000X0*%
%TD*%
%TA.AperFunction,SMDPad,CuDef*%
%ADD27R,0.250000X1.100000*%
%TD*%
%TA.AperFunction,SMDPad,CuDef*%
%ADD28R,2.500000X1.200000*%
%TD*%
%TA.AperFunction,ViaPad*%
%ADD29C,0.800000*%
%TD*%
%TA.AperFunction,Conductor*%
%ADD30C,0.250000*%
%TD*%
%TA.AperFunction,Conductor*%
%ADD31C,0.200000*%
%TD*%
%TA.AperFunction,Conductor*%
%ADD32C,0.500000*%
%TD*%
G04 APERTURE END LIST*
D10*
%TO.P,Q1,1,C*%
%TO.N,Net-(D1-A)*%
X126413549Y-102399999D03*
D11*
%TO.P,Q1,2,B*%
%TO.N,Net-(Q1-B)*%
X126413550Y-105000000D03*
%TO.P,Q1,3,E*%
%TO.N,GND*%
X126413550Y-107600000D03*
%TD*%
D12*
%TO.P,J2,1,Pin_1*%
%TO.N,Net-(J2-Pin_1)*%
X137710000Y-106250000D03*
D13*
%TO.P,J2,2,Pin_2*%
%TO.N,Net-(J2-Pin_2)*%
X142790000Y-106250000D03*
%TD*%
D14*
%TO.P,J1,1,Pin_1*%
%TO.N,/AC (N)*%
X152960000Y-100149410D03*
D13*
%TO.P,J1,2,Pin_2*%
%TO.N,/AC (L)*%
X155500000Y-95750000D03*
%TD*%
D10*
%TO.P,Q2,1,C*%
%TO.N,Net-(D2-A)*%
X121999999Y-94299999D03*
D11*
%TO.P,Q2,2,B*%
%TO.N,Net-(Q2-B)*%
X122000000Y-96900000D03*
%TO.P,Q2,3,E*%
%TO.N,GND*%
X122000000Y-99500000D03*
%TD*%
D15*
%TO.P,K1,1*%
%TO.N,Net-(D1-A)*%
X126903500Y-99750000D03*
D16*
%TO.P,K1,2*%
%TO.N,+3V3*%
X126903499Y-95999999D03*
D15*
%TO.P,K1,3*%
%TO.N,Net-(D2-A)*%
X126903500Y-92250000D03*
D17*
%TO.P,K1,4*%
%TO.N,Net-(J2-Pin_1)*%
X144236500Y-92400000D03*
%TO.P,K1,5*%
%TO.N,Net-(J2-Pin_2)*%
X141696500Y-99600000D03*
%TD*%
D18*
%TO.P,C2,1*%
%TO.N,Net-(PS1-+Vout)*%
X117249999Y-69749999D03*
D13*
%TO.P,C2,2*%
%TO.N,GND*%
X114750000Y-74080127D03*
%TD*%
D19*
%TO.P,C1,1*%
%TO.N,+3V3*%
X113328545Y-84267766D03*
D13*
%TO.P,C1,2*%
%TO.N,GND*%
X116864080Y-80732233D03*
%TD*%
D20*
%TO.P,J4,1,Pin_1*%
%TO.N,+3V3*%
X118389199Y-102081699D03*
D21*
%TO.P,J4,2,Pin_2*%
%TO.N,GND*%
X118389199Y-99541699D03*
%TO.P,J4,3,Pin_3*%
%TO.N,/RELAIS_ON*%
X118389199Y-97001699D03*
%TO.P,J4,4,Pin_4*%
%TO.N,/SCL*%
X118389199Y-94461699D03*
%TO.P,J4,5,Pin_5*%
%TO.N,/SDA*%
X118389199Y-91921699D03*
%TO.P,J4,6,Pin_6*%
%TO.N,/RELAIS_OFF*%
X118389199Y-89381699D03*
%TD*%
D13*
%TO.P,PS1,1,AC/L*%
%TO.N,Net-(PS1-AC{slash}L)*%
X156300000Y-81250000D03*
%TO.P,PS1,2,AC/N*%
%TO.N,/AC (N)*%
X156300000Y-75250000D03*
%TO.P,PS1,3,-Vout*%
%TO.N,GND*%
X122700000Y-87250000D03*
%TO.P,PS1,4,+Vout*%
%TO.N,Net-(PS1-+Vout)*%
X122700000Y-69250000D03*
%TD*%
D22*
%TO.P,TP1,1,1*%
%TO.N,Net-(U2-AIN2)*%
X115700000Y-95550000D03*
%TD*%
D23*
%TO.P,R6,1*%
%TO.N,GND*%
X127900000Y-86500000D03*
%TO.P,R6,2*%
%TO.N,Net-(J3-PadT)*%
X125900000Y-86500000D03*
%TD*%
D24*
%TO.P,J3,R1*%
%TO.N,unconnected-(J3-PadR1)*%
X118924999Y-83749999D03*
%TO.P,J3,R2*%
%TO.N,unconnected-(J3-PadR2)*%
X115924999Y-83749999D03*
%TO.P,J3,S*%
%TO.N,Net-(U2-AIN0)*%
X124024999Y-77249999D03*
%TO.P,J3,T*%
%TO.N,Net-(J3-PadT)*%
X122924999Y-83749999D03*
%TD*%
D25*
%TO.P,R8,1*%
%TO.N,Net-(U2-ADDR)*%
X111975000Y-86700000D03*
%TO.P,R8,2*%
%TO.N,GND*%
X113625000Y-86700000D03*
%TD*%
D26*
%TO.P,R7,1*%
%TO.N,Net-(J3-PadT)*%
X125900000Y-84300000D03*
%TO.P,R7,2*%
%TO.N,+3V3*%
X127900000Y-84300000D03*
%TD*%
D27*
%TO.P,U2,1,ADDR*%
%TO.N,Net-(U2-ADDR)*%
X112999999Y-88399999D03*
%TO.P,U2,2,ALERT/RDY*%
%TO.N,unconnected-(U2-ALERT{slash}RDY-Pad2)*%
X113499999Y-88399999D03*
%TO.P,U2,3,GND*%
%TO.N,GND*%
X113999999Y-88399999D03*
%TO.P,U2,4,AIN0*%
%TO.N,Net-(U2-AIN0)*%
X114499999Y-88399999D03*
%TO.P,U2,5,AIN1*%
%TO.N,Net-(U2-AIN1)*%
X114999999Y-88399999D03*
%TO.P,U2,6,AIN2*%
%TO.N,Net-(U2-AIN2)*%
X114999999Y-92699999D03*
%TO.P,U2,7,AIN3*%
%TO.N,Net-(U2-AIN3)*%
X114499999Y-92699999D03*
%TO.P,U2,8,VDD*%
%TO.N,+3V3*%
X113999999Y-92699999D03*
%TO.P,U2,9,SDA*%
%TO.N,/SDA*%
X113499999Y-92699999D03*
%TO.P,U2,10,SCL*%
%TO.N,/SCL*%
X112999999Y-92699999D03*
%TD*%
D23*
%TO.P,R4,1*%
%TO.N,GND*%
X123600000Y-74400000D03*
%TO.P,R4,2*%
%TO.N,Net-(J6-PadS)*%
X121600000Y-74400000D03*
%TD*%
D22*
%TO.P,TP2,1,1*%
%TO.N,Net-(U2-AIN3)*%
X115700000Y-90700000D03*
%TD*%
D23*
%TO.P,R5,1*%
%TO.N,Net-(J6-PadS)*%
X123600000Y-72300000D03*
%TO.P,R5,2*%
%TO.N,+3V3*%
X121600000Y-72300000D03*
%TD*%
D28*
%TO.P,J6,R1*%
%TO.N,unconnected-(J6-PadR1)*%
X133795112Y-67724790D03*
%TO.P,J6,R2*%
%TO.N,unconnected-(J6-PadR2)*%
X133795112Y-70724790D03*
%TO.P,J6,S*%
%TO.N,Net-(J6-PadS)*%
X127295112Y-62624790D03*
%TO.P,J6,T*%
%TO.N,Net-(U2-AIN1)*%
X133795112Y-63724790D03*
%TD*%
D29*
%TO.N,+3V3*%
X114500000Y-94000000D03*
X124600000Y-70900000D03*
X127500000Y-89300000D03*
%TD*%
D30*
%TO.N,GND*%
X116094873Y-75425000D02*
X114750000Y-74080127D01*
X122575000Y-75425000D02*
X116094873Y-75425000D01*
X123600000Y-74400000D02*
X122575000Y-75425000D01*
X123700000Y-88250000D02*
X122700000Y-87250000D01*
X126150000Y-88250000D02*
X123700000Y-88250000D01*
X127900000Y-86500000D02*
X126150000Y-88250000D01*
%TO.N,/SCL*%
X113000000Y-94000000D02*
X113000000Y-92700000D01*
X114625000Y-95625000D02*
X113000000Y-94000000D01*
X114625000Y-95995280D02*
X114625000Y-95625000D01*
X118389200Y-94610800D02*
X116100000Y-96900000D01*
X118389200Y-94461700D02*
X118389200Y-94610800D01*
X116100000Y-96900000D02*
X115529720Y-96900000D01*
X115529720Y-96900000D02*
X114625000Y-95995280D01*
D31*
%TO.N,GND*%
X111614332Y-84664332D02*
X111614332Y-82885668D01*
X114000000Y-87050000D02*
X113450000Y-86500000D01*
X115996313Y-81600000D02*
X116864080Y-80732233D01*
X114000000Y-88400000D02*
X114000000Y-87050000D01*
X111614332Y-82885668D02*
X112900000Y-81600000D01*
X113450000Y-86500000D02*
X111614332Y-84664332D01*
X112900000Y-81600000D02*
X115996313Y-81600000D01*
%TO.N,+3V3*%
X114000000Y-93500000D02*
X114500000Y-94000000D01*
D32*
X121750000Y-71950000D02*
X122800000Y-70900000D01*
X129300000Y-85875000D02*
X129300000Y-87500000D01*
X121750000Y-72700000D02*
X121750000Y-71950000D01*
X127725000Y-84300000D02*
X129300000Y-85875000D01*
D31*
X114000000Y-92700000D02*
X114000000Y-93500000D01*
D32*
X122800000Y-70900000D02*
X124600000Y-70900000D01*
X129300000Y-87500000D02*
X127500000Y-89300000D01*
D31*
%TO.N,/SDA*%
X113500000Y-92700000D02*
X113500000Y-91000000D01*
X116500000Y-89500000D02*
X118389200Y-91389200D01*
X118389200Y-91389200D02*
X118389200Y-91921700D01*
X113500000Y-91000000D02*
X115000000Y-89500000D01*
X115000000Y-89500000D02*
X116500000Y-89500000D01*
%TO.N,Net-(U2-ADDR)*%
X113000000Y-88400000D02*
X113000000Y-87725000D01*
X113000000Y-87725000D02*
X111975000Y-86700000D01*
%TO.N,Net-(U2-AIN0)*%
X117400000Y-84725000D02*
X117400000Y-84600000D01*
X114500000Y-87625000D02*
X117400000Y-84725000D01*
D30*
X117400000Y-84600000D02*
X117400000Y-82775000D01*
X117400000Y-82775000D02*
X122925000Y-77250000D01*
D31*
X114500000Y-88400000D02*
X114500000Y-87625000D01*
D30*
X117400000Y-84775000D02*
X117400000Y-84600000D01*
X122925000Y-77250000D02*
X124025000Y-77250000D01*
%TO.N,Net-(U2-AIN1)*%
X133795113Y-64304887D02*
X129250000Y-68850000D01*
X116775000Y-88400000D02*
X115000000Y-88400000D01*
X121300000Y-83875000D02*
X116775000Y-88400000D01*
X129250000Y-74850000D02*
X121300000Y-82800000D01*
X129250000Y-68850000D02*
X129250000Y-74850000D01*
X121300000Y-82800000D02*
X121300000Y-83875000D01*
X133795113Y-63724791D02*
X133795113Y-64304887D01*
D32*
%TO.N,Net-(J3-PadT)*%
X123475000Y-84300000D02*
X122925000Y-83750000D01*
X126075000Y-84300000D02*
X126075000Y-86500000D01*
X126075000Y-84300000D02*
X123475000Y-84300000D01*
%TO.N,Net-(J6-PadS)*%
X121775000Y-74400000D02*
X121775000Y-74325000D01*
X121775000Y-74325000D02*
X123400000Y-72700000D01*
X124153942Y-72700000D02*
X126182885Y-70671057D01*
X126182885Y-70671057D02*
X126182885Y-70032550D01*
X126182885Y-70032550D02*
X127295113Y-68920322D01*
X123400000Y-72700000D02*
X124153942Y-72700000D01*
X127295113Y-68920322D02*
X127295113Y-62624791D01*
D30*
%TO.N,Net-(U2-AIN2)*%
X115000000Y-92700000D02*
X115700000Y-93400000D01*
X115700000Y-93400000D02*
X115700000Y-95200000D01*
%TO.N,Net-(U2-AIN3)*%
X114500000Y-91900000D02*
X115700000Y-90700000D01*
X114500000Y-92700000D02*
X114500000Y-91900000D01*
%TD*%
%TA.AperFunction,Conductor*%
%TO.N,GND*%
G36*
X128698738Y-60240061D02*
G01*
X128736457Y-60284673D01*
X128750000Y-60341502D01*
X128750000Y-61392817D01*
X128730801Y-61459671D01*
X128679056Y-61506152D01*
X128610532Y-61518095D01*
X128597101Y-61516651D01*
X128597098Y-61516650D01*
X128593751Y-61516291D01*
X125996475Y-61516291D01*
X125993128Y-61516650D01*
X125993124Y-61516651D01*
X125943745Y-61521959D01*
X125943738Y-61521960D01*
X125935912Y-61522802D01*
X125928536Y-61525552D01*
X125928532Y-61525554D01*
X125807349Y-61570753D01*
X125807343Y-61570756D01*
X125798909Y-61573902D01*
X125791701Y-61579297D01*
X125791695Y-61579301D01*
X125689063Y-61656131D01*
X125689059Y-61656134D01*
X125681852Y-61661530D01*
X125676456Y-61668737D01*
X125676453Y-61668741D01*
X125599623Y-61771373D01*
X125599619Y-61771379D01*
X125594224Y-61778587D01*
X125591078Y-61787021D01*
X125591075Y-61787027D01*
X125545876Y-61908210D01*
X125545874Y-61908214D01*
X125543124Y-61915590D01*
X125542282Y-61923416D01*
X125542281Y-61923423D01*
X125536973Y-61972802D01*
X125536613Y-61976153D01*
X125536613Y-63273429D01*
X125536972Y-63276776D01*
X125536973Y-63276779D01*
X125542281Y-63326158D01*
X125542282Y-63326164D01*
X125543124Y-63333992D01*
X125545875Y-63341369D01*
X125545876Y-63341371D01*
X125591075Y-63462554D01*
X125591077Y-63462557D01*
X125594224Y-63470995D01*
X125599621Y-63478205D01*
X125599623Y-63478208D01*
X125676453Y-63580840D01*
X125681852Y-63588052D01*
X125798909Y-63675680D01*
X125935912Y-63726780D01*
X125996475Y-63733291D01*
X126410613Y-63733291D01*
X126473613Y-63750172D01*
X126519732Y-63796291D01*
X126536613Y-63859291D01*
X126536613Y-68553950D01*
X126527022Y-68602168D01*
X126499708Y-68643046D01*
X125692106Y-69450646D01*
X125678258Y-69462614D01*
X125668112Y-69470168D01*
X125658827Y-69477081D01*
X125654114Y-69482697D01*
X125654105Y-69482706D01*
X125626656Y-69515418D01*
X125619255Y-69523497D01*
X125617907Y-69524845D01*
X125617893Y-69524860D01*
X125615305Y-69527449D01*
X125613034Y-69530320D01*
X125613025Y-69530331D01*
X125595882Y-69552010D01*
X125593573Y-69554844D01*
X125549570Y-69607286D01*
X125549562Y-69607296D01*
X125544853Y-69612910D01*
X125541561Y-69619461D01*
X125539694Y-69622302D01*
X125539452Y-69622637D01*
X125539246Y-69623006D01*
X125537467Y-69625889D01*
X125532918Y-69631644D01*
X125529818Y-69638290D01*
X125529817Y-69638293D01*
X125500888Y-69700330D01*
X125499293Y-69703624D01*
X125468569Y-69764803D01*
X125468566Y-69764809D01*
X125465276Y-69771362D01*
X125463585Y-69778494D01*
X125462428Y-69781674D01*
X125462263Y-69782072D01*
X125462151Y-69782467D01*
X125461079Y-69785700D01*
X125457982Y-69792344D01*
X125456498Y-69799526D01*
X125456496Y-69799535D01*
X125442644Y-69866614D01*
X125441852Y-69870187D01*
X125426077Y-69936750D01*
X125426075Y-69936759D01*
X125424385Y-69943894D01*
X125424385Y-69951230D01*
X125423995Y-69954567D01*
X125423923Y-69955013D01*
X125423905Y-69955426D01*
X125423608Y-69958811D01*
X125422126Y-69965992D01*
X125422339Y-69973318D01*
X125422339Y-69973321D01*
X125424332Y-70041808D01*
X125424385Y-70045473D01*
X125424385Y-70130968D01*
X125411244Y-70186993D01*
X125374563Y-70231332D01*
X125321992Y-70254737D01*
X125264498Y-70252326D01*
X125214672Y-70224931D01*
X125211253Y-70221134D01*
X125056752Y-70108882D01*
X124882288Y-70031206D01*
X124875835Y-70029834D01*
X124875831Y-70029833D01*
X124701943Y-69992872D01*
X124701940Y-69992871D01*
X124695487Y-69991500D01*
X124504513Y-69991500D01*
X124498060Y-69992871D01*
X124498056Y-69992872D01*
X124324168Y-70029833D01*
X124324161Y-70029835D01*
X124317712Y-70031206D01*
X124311687Y-70033888D01*
X124311676Y-70033892D01*
X124227959Y-70071165D01*
X124169457Y-70081849D01*
X124112571Y-70064511D01*
X124069973Y-70023014D01*
X124051153Y-69966601D01*
X124060301Y-69907844D01*
X124139105Y-69717594D01*
X124194535Y-69486711D01*
X124213165Y-69250000D01*
X124194535Y-69013289D01*
X124139105Y-68782406D01*
X124048240Y-68563037D01*
X123924176Y-68360584D01*
X123769969Y-68180031D01*
X123661750Y-68087603D01*
X123593175Y-68029034D01*
X123593171Y-68029031D01*
X123589416Y-68025824D01*
X123386963Y-67901760D01*
X123167594Y-67810895D01*
X123162786Y-67809740D01*
X123162781Y-67809739D01*
X122941523Y-67756620D01*
X122941519Y-67756619D01*
X122936711Y-67755465D01*
X122931785Y-67755077D01*
X122931777Y-67755076D01*
X122704930Y-67737223D01*
X122700000Y-67736835D01*
X122695070Y-67737223D01*
X122468222Y-67755076D01*
X122468212Y-67755077D01*
X122463289Y-67755465D01*
X122458482Y-67756619D01*
X122458476Y-67756620D01*
X122237218Y-67809739D01*
X122237209Y-67809741D01*
X122232406Y-67810895D01*
X122227838Y-67812786D01*
X122227832Y-67812789D01*
X122017611Y-67899865D01*
X122017606Y-67899867D01*
X122013037Y-67901760D01*
X122008817Y-67904345D01*
X122008817Y-67904346D01*
X121814798Y-68023241D01*
X121814792Y-68023245D01*
X121810584Y-68025824D01*
X121806834Y-68029026D01*
X121806824Y-68029034D01*
X121633786Y-68176823D01*
X121633779Y-68176829D01*
X121630031Y-68180031D01*
X121626829Y-68183779D01*
X121626823Y-68183786D01*
X121479034Y-68356824D01*
X121479026Y-68356834D01*
X121475824Y-68360584D01*
X121473245Y-68364792D01*
X121473241Y-68364798D01*
X121389705Y-68501117D01*
X121351760Y-68563037D01*
X121349867Y-68567606D01*
X121349865Y-68567611D01*
X121262789Y-68777832D01*
X121262786Y-68777838D01*
X121260895Y-68782406D01*
X121259741Y-68787209D01*
X121259739Y-68787218D01*
X121209062Y-68998306D01*
X121205465Y-69013289D01*
X121205077Y-69018212D01*
X121205076Y-69018222D01*
X121193080Y-69170650D01*
X121186835Y-69250000D01*
X121187223Y-69254930D01*
X121205076Y-69481777D01*
X121205077Y-69481785D01*
X121205465Y-69486711D01*
X121206619Y-69491519D01*
X121206620Y-69491523D01*
X121259739Y-69712781D01*
X121259740Y-69712786D01*
X121260895Y-69717594D01*
X121262788Y-69722164D01*
X121262789Y-69722167D01*
X121287602Y-69782072D01*
X121351760Y-69936963D01*
X121475824Y-70139416D01*
X121479031Y-70143171D01*
X121479034Y-70143175D01*
X121576480Y-70257269D01*
X121630031Y-70319969D01*
X121810584Y-70474176D01*
X121814797Y-70476758D01*
X121814803Y-70476762D01*
X121886705Y-70520823D01*
X121926990Y-70560324D01*
X121945998Y-70613446D01*
X121939917Y-70669537D01*
X121909966Y-70717351D01*
X121572722Y-71054595D01*
X121531845Y-71081909D01*
X121483627Y-71091500D01*
X121202661Y-71091500D01*
X121202641Y-71091500D01*
X121199456Y-71091501D01*
X121196279Y-71091825D01*
X121196270Y-71091826D01*
X121102411Y-71101414D01*
X121102405Y-71101415D01*
X121095574Y-71102113D01*
X121089058Y-71104271D01*
X121089049Y-71104274D01*
X120934225Y-71155577D01*
X120934219Y-71155579D01*
X120927262Y-71157885D01*
X120921026Y-71161730D01*
X120921018Y-71161735D01*
X120782595Y-71247116D01*
X120782590Y-71247119D01*
X120776348Y-71250970D01*
X120771158Y-71256159D01*
X120771154Y-71256163D01*
X120656163Y-71371154D01*
X120656159Y-71371158D01*
X120650970Y-71376348D01*
X120647119Y-71382590D01*
X120647116Y-71382595D01*
X120561735Y-71521018D01*
X120561730Y-71521026D01*
X120557885Y-71527262D01*
X120555579Y-71534219D01*
X120555577Y-71534225D01*
X120523971Y-71629609D01*
X120502113Y-71695574D01*
X120491500Y-71799455D01*
X120491500Y-71802659D01*
X120491500Y-71802660D01*
X120491500Y-72797338D01*
X120491500Y-72797357D01*
X120491501Y-72800544D01*
X120491825Y-72803721D01*
X120491826Y-72803729D01*
X120497530Y-72859569D01*
X120502113Y-72904426D01*
X120504272Y-72910943D01*
X120504274Y-72910950D01*
X120536203Y-73007305D01*
X120557885Y-73072738D01*
X120561732Y-73078976D01*
X120561735Y-73078981D01*
X120628513Y-73187244D01*
X120650970Y-73223652D01*
X120656163Y-73228845D01*
X120688223Y-73260905D01*
X120720835Y-73317389D01*
X120720835Y-73382611D01*
X120688223Y-73439095D01*
X120656163Y-73471154D01*
X120656159Y-73471158D01*
X120650970Y-73476348D01*
X120647119Y-73482590D01*
X120647116Y-73482595D01*
X120561735Y-73621018D01*
X120561730Y-73621026D01*
X120557885Y-73627262D01*
X120555579Y-73634219D01*
X120555577Y-73634225D01*
X120504275Y-73789048D01*
X120502113Y-73795574D01*
X120501414Y-73802408D01*
X120501414Y-73802412D01*
X120491825Y-73896270D01*
X120491500Y-73899455D01*
X120491500Y-73902659D01*
X120491500Y-73902660D01*
X120491500Y-74897338D01*
X120491500Y-74897357D01*
X120491501Y-74900544D01*
X120491825Y-74903721D01*
X120491826Y-74903729D01*
X120499475Y-74978610D01*
X120502113Y-75004426D01*
X120504272Y-75010943D01*
X120504274Y-75010950D01*
X120555577Y-75165774D01*
X120557885Y-75172738D01*
X120561732Y-75178976D01*
X120561735Y-75178981D01*
X120647116Y-75317404D01*
X120650970Y-75323652D01*
X120776348Y-75449030D01*
X120782596Y-75452883D01*
X120782595Y-75452883D01*
X120921018Y-75538264D01*
X120921020Y-75538265D01*
X120927262Y-75542115D01*
X121095574Y-75597887D01*
X121199455Y-75608500D01*
X122000544Y-75608499D01*
X122104426Y-75597887D01*
X122272738Y-75542115D01*
X122423652Y-75449030D01*
X122511259Y-75361422D01*
X122567743Y-75328811D01*
X122632965Y-75328811D01*
X122689449Y-75361423D01*
X122771467Y-75443441D01*
X122782908Y-75452488D01*
X122921227Y-75537804D01*
X122939715Y-75546425D01*
X122983627Y-75580396D01*
X123008675Y-75629943D01*
X123009997Y-75685445D01*
X122987337Y-75736128D01*
X122979510Y-75746583D01*
X122979508Y-75746585D01*
X122974111Y-75753796D01*
X122970965Y-75762230D01*
X122970962Y-75762236D01*
X122925763Y-75883419D01*
X122925761Y-75883423D01*
X122923011Y-75890799D01*
X122922169Y-75898625D01*
X122922168Y-75898632D01*
X122916860Y-75948011D01*
X122916500Y-75951362D01*
X122916500Y-75954731D01*
X122916500Y-76498243D01*
X122902760Y-76555460D01*
X122864535Y-76600198D01*
X122824377Y-76616816D01*
X122825107Y-76619327D01*
X122805648Y-76624979D01*
X122786303Y-76628985D01*
X122774072Y-76630530D01*
X122774059Y-76630533D01*
X122766203Y-76631526D01*
X122758839Y-76634441D01*
X122758829Y-76634444D01*
X122725092Y-76647802D01*
X122713865Y-76651646D01*
X122679018Y-76661770D01*
X122679013Y-76661772D01*
X122671407Y-76663982D01*
X122664590Y-76668012D01*
X122664581Y-76668017D01*
X122653960Y-76674298D01*
X122636221Y-76682989D01*
X122624749Y-76687531D01*
X122624746Y-76687532D01*
X122617383Y-76690448D01*
X122610976Y-76695102D01*
X122610972Y-76695105D01*
X122581611Y-76716437D01*
X122571693Y-76722951D01*
X122540465Y-76741419D01*
X122540457Y-76741425D01*
X122533638Y-76745458D01*
X122528036Y-76751058D01*
X122528029Y-76751065D01*
X122519308Y-76759786D01*
X122504287Y-76772615D01*
X122494307Y-76779866D01*
X122494298Y-76779873D01*
X122487893Y-76784528D01*
X122482845Y-76790628D01*
X122482836Y-76790638D01*
X122459700Y-76818604D01*
X122451713Y-76827381D01*
X118582417Y-80696676D01*
X118520325Y-80730654D01*
X118449711Y-80725793D01*
X118392859Y-80683628D01*
X118367710Y-80617466D01*
X118358508Y-80500534D01*
X118356964Y-80490787D01*
X118303863Y-80269606D01*
X118300813Y-80260220D01*
X118213766Y-80050070D01*
X118209285Y-80041275D01*
X118090437Y-79847333D01*
X118084637Y-79839350D01*
X117936901Y-79666374D01*
X117929938Y-79659411D01*
X117756962Y-79511675D01*
X117748979Y-79505875D01*
X117555037Y-79387027D01*
X117546242Y-79382546D01*
X117336087Y-79295497D01*
X117326713Y-79292451D01*
X117131969Y-79245696D01*
X117120621Y-79245585D01*
X117118080Y-79256647D01*
X117118080Y-80860233D01*
X117101199Y-80923233D01*
X117055080Y-80969352D01*
X116992080Y-80986233D01*
X116736080Y-80986233D01*
X116673080Y-80969352D01*
X116626961Y-80923233D01*
X116610080Y-80860233D01*
X116610080Y-79256647D01*
X116607538Y-79245585D01*
X116596190Y-79245696D01*
X116401446Y-79292451D01*
X116392072Y-79295497D01*
X116181917Y-79382546D01*
X116173122Y-79387027D01*
X115979180Y-79505875D01*
X115971197Y-79511675D01*
X115798221Y-79659411D01*
X115791258Y-79666374D01*
X115643522Y-79839350D01*
X115637722Y-79847333D01*
X115518874Y-80041275D01*
X115514393Y-80050070D01*
X115484722Y-80121702D01*
X115449413Y-80169915D01*
X115395861Y-80196436D01*
X115336113Y-80195300D01*
X115283608Y-80166763D01*
X115250156Y-80117244D01*
X115230106Y-80063108D01*
X115227886Y-80057113D01*
X115120252Y-79884429D01*
X114980059Y-79736947D01*
X114813049Y-79620705D01*
X114807175Y-79618184D01*
X114807171Y-79618182D01*
X114631938Y-79542983D01*
X114631935Y-79542982D01*
X114626058Y-79540460D01*
X114619797Y-79539173D01*
X114619793Y-79539172D01*
X114433002Y-79500786D01*
X114432995Y-79500785D01*
X114426741Y-79499500D01*
X114274258Y-79499500D01*
X114271085Y-79499822D01*
X114271078Y-79499823D01*
X114128915Y-79514279D01*
X114128905Y-79514280D01*
X114122562Y-79514926D01*
X114116477Y-79516835D01*
X114116468Y-79516837D01*
X113934503Y-79573929D01*
X113934494Y-79573932D01*
X113928412Y-79575841D01*
X113922835Y-79578936D01*
X113922829Y-79578939D01*
X113756079Y-79671492D01*
X113756069Y-79671498D01*
X113750498Y-79674591D01*
X113745653Y-79678750D01*
X113745652Y-79678751D01*
X113600956Y-79802968D01*
X113600948Y-79802976D01*
X113596105Y-79807134D01*
X113592196Y-79812182D01*
X113592191Y-79812189D01*
X113475465Y-79962986D01*
X113475462Y-79962990D01*
X113471552Y-79968042D01*
X113468740Y-79973774D01*
X113468736Y-79973781D01*
X113384753Y-80144992D01*
X113384749Y-80145001D01*
X113381940Y-80150729D01*
X113380339Y-80156910D01*
X113380339Y-80156912D01*
X113351161Y-80269606D01*
X113330937Y-80347715D01*
X113330613Y-80354087D01*
X113330613Y-80354093D01*
X113320954Y-80544555D01*
X113320954Y-80544560D01*
X113320631Y-80550936D01*
X113321597Y-80557247D01*
X113321598Y-80557249D01*
X113336157Y-80652285D01*
X113351444Y-80752071D01*
X113353661Y-80758059D01*
X113353663Y-80758064D01*
X113410895Y-80912595D01*
X113422114Y-80942887D01*
X113425493Y-80948309D01*
X113425496Y-80948314D01*
X113526364Y-81110143D01*
X113526367Y-81110147D01*
X113529748Y-81115571D01*
X113669941Y-81263053D01*
X113836951Y-81379295D01*
X114023942Y-81459540D01*
X114223259Y-81500500D01*
X114372542Y-81500500D01*
X114375742Y-81500500D01*
X114527438Y-81485074D01*
X114721588Y-81424159D01*
X114899502Y-81325409D01*
X115053895Y-81192866D01*
X115175425Y-81035862D01*
X115231823Y-80994641D01*
X115301516Y-80989799D01*
X115363076Y-81022828D01*
X115397578Y-81083575D01*
X115424293Y-81194850D01*
X115427346Y-81204245D01*
X115514393Y-81414395D01*
X115518874Y-81423190D01*
X115637722Y-81617132D01*
X115643527Y-81625122D01*
X115778940Y-81783670D01*
X115807941Y-81848236D01*
X115797555Y-81918251D01*
X115751060Y-81971619D01*
X115683129Y-81991500D01*
X115276362Y-81991500D01*
X115273015Y-81991859D01*
X115273011Y-81991860D01*
X115223632Y-81997168D01*
X115223625Y-81997169D01*
X115215799Y-81998011D01*
X115208423Y-82000761D01*
X115208419Y-82000763D01*
X115087236Y-82045962D01*
X115087230Y-82045965D01*
X115078796Y-82049111D01*
X115071588Y-82054506D01*
X115071582Y-82054510D01*
X114968950Y-82131340D01*
X114968946Y-82131343D01*
X114961739Y-82136739D01*
X114956343Y-82143946D01*
X114956340Y-82143950D01*
X114879510Y-82246582D01*
X114879506Y-82246588D01*
X114874111Y-82253796D01*
X114870965Y-82262230D01*
X114870962Y-82262236D01*
X114825763Y-82383419D01*
X114825761Y-82383423D01*
X114823011Y-82390799D01*
X114822169Y-82398625D01*
X114822168Y-82398632D01*
X114816860Y-82448011D01*
X114816500Y-82451362D01*
X114816500Y-82454731D01*
X114816500Y-83318189D01*
X114802767Y-83375392D01*
X114764561Y-83420125D01*
X114710211Y-83442638D01*
X114651564Y-83438022D01*
X114601405Y-83407284D01*
X113656110Y-82461989D01*
X113653718Y-82459597D01*
X113606289Y-82421377D01*
X113599129Y-82418107D01*
X113599124Y-82418104D01*
X113481474Y-82364376D01*
X113481473Y-82364375D01*
X113473280Y-82360634D01*
X113328546Y-82339825D01*
X113319629Y-82341107D01*
X113192728Y-82359352D01*
X113192727Y-82359352D01*
X113183812Y-82360634D01*
X113175620Y-82364375D01*
X113175617Y-82364376D01*
X113057967Y-82418104D01*
X113057958Y-82418109D01*
X113050803Y-82421377D01*
X113044671Y-82426318D01*
X113044670Y-82426319D01*
X113017752Y-82448011D01*
X113003374Y-82459597D01*
X113000990Y-82461980D01*
X113000981Y-82461989D01*
X111522768Y-83940202D01*
X111522759Y-83940211D01*
X111520376Y-83942595D01*
X111518260Y-83945220D01*
X111518258Y-83945223D01*
X111487098Y-83983891D01*
X111482156Y-83990024D01*
X111478888Y-83997179D01*
X111478883Y-83997188D01*
X111425155Y-84114838D01*
X111425154Y-84114841D01*
X111421413Y-84123033D01*
X111400604Y-84267767D01*
X111421413Y-84412501D01*
X111425154Y-84420694D01*
X111425155Y-84420695D01*
X111478883Y-84538345D01*
X111478886Y-84538350D01*
X111482156Y-84545510D01*
X111520376Y-84592939D01*
X111522767Y-84595330D01*
X111522768Y-84595331D01*
X112445925Y-85518488D01*
X112478795Y-85575953D01*
X112477996Y-85642150D01*
X112443747Y-85698805D01*
X112385504Y-85730277D01*
X112319345Y-85727878D01*
X112310013Y-85724970D01*
X112310012Y-85724969D01*
X112303649Y-85722987D01*
X112297016Y-85722384D01*
X112297010Y-85722383D01*
X112235114Y-85716758D01*
X112235094Y-85716757D01*
X112232265Y-85716500D01*
X112229403Y-85716500D01*
X111720599Y-85716500D01*
X111720577Y-85716500D01*
X111717736Y-85716501D01*
X111714887Y-85716759D01*
X111714883Y-85716760D01*
X111652988Y-85722383D01*
X111652979Y-85722384D01*
X111646351Y-85722987D01*
X111639993Y-85724968D01*
X111639989Y-85724969D01*
X111489364Y-85771905D01*
X111489360Y-85771906D01*
X111482087Y-85774173D01*
X111475568Y-85778113D01*
X111475563Y-85778116D01*
X111341368Y-85859240D01*
X111341364Y-85859243D01*
X111334845Y-85863184D01*
X111329456Y-85868572D01*
X111329452Y-85868576D01*
X111218576Y-85979452D01*
X111218572Y-85979456D01*
X111213184Y-85984845D01*
X111209243Y-85991364D01*
X111209240Y-85991368D01*
X111128116Y-86125563D01*
X111128113Y-86125568D01*
X111124173Y-86132087D01*
X111121906Y-86139360D01*
X111121905Y-86139364D01*
X111074970Y-86289986D01*
X111072987Y-86296351D01*
X111072384Y-86302981D01*
X111072383Y-86302989D01*
X111066758Y-86364885D01*
X111066757Y-86364906D01*
X111066500Y-86367735D01*
X111066500Y-86370595D01*
X111066500Y-86370596D01*
X111066500Y-87029400D01*
X111066500Y-87029421D01*
X111066501Y-87032264D01*
X111066759Y-87035113D01*
X111066760Y-87035116D01*
X111072383Y-87097011D01*
X111072384Y-87097019D01*
X111072987Y-87103649D01*
X111124173Y-87267913D01*
X111128115Y-87274434D01*
X111128116Y-87274436D01*
X111157429Y-87322925D01*
X111213184Y-87415155D01*
X111334845Y-87536816D01*
X111482087Y-87625827D01*
X111646351Y-87677013D01*
X111717735Y-87683500D01*
X112045760Y-87683499D01*
X112093978Y-87693090D01*
X112134855Y-87720404D01*
X112329595Y-87915144D01*
X112356909Y-87956021D01*
X112366500Y-88004239D01*
X112366500Y-88998638D01*
X112366859Y-89001985D01*
X112366860Y-89001988D01*
X112372168Y-89051367D01*
X112372169Y-89051373D01*
X112373011Y-89059201D01*
X112375762Y-89066578D01*
X112375763Y-89066580D01*
X112420962Y-89187763D01*
X112420964Y-89187766D01*
X112424111Y-89196204D01*
X112429508Y-89203414D01*
X112429510Y-89203417D01*
X112501812Y-89300000D01*
X112511739Y-89313261D01*
X112518950Y-89318659D01*
X112603162Y-89381700D01*
X112628796Y-89400889D01*
X112765799Y-89451989D01*
X112826362Y-89458500D01*
X113170269Y-89458500D01*
X113173638Y-89458500D01*
X113234201Y-89451989D01*
X113234427Y-89454096D01*
X113265572Y-89454093D01*
X113265799Y-89451989D01*
X113326362Y-89458500D01*
X113670269Y-89458500D01*
X113673638Y-89458500D01*
X113734201Y-89451989D01*
X113734400Y-89453840D01*
X113765653Y-89453843D01*
X113765906Y-89451495D01*
X113823061Y-89457640D01*
X113829777Y-89458000D01*
X113877259Y-89458000D01*
X113934462Y-89471733D01*
X113979195Y-89509939D01*
X114001708Y-89564289D01*
X113997092Y-89622936D01*
X113966354Y-89673095D01*
X113103767Y-90535682D01*
X113091380Y-90546546D01*
X113072562Y-90560986D01*
X113072555Y-90560992D01*
X113066013Y-90566013D01*
X113060992Y-90572555D01*
X113060989Y-90572559D01*
X113049753Y-90587202D01*
X113041525Y-90597925D01*
X113041523Y-90597928D01*
X112968476Y-90693124D01*
X112965320Y-90700741D01*
X112965317Y-90700748D01*
X112925713Y-90796362D01*
X112910320Y-90833523D01*
X112910318Y-90833530D01*
X112907162Y-90841150D01*
X112906084Y-90849331D01*
X112906084Y-90849335D01*
X112902275Y-90878267D01*
X112891500Y-90960115D01*
X112891500Y-90960120D01*
X112886250Y-91000000D01*
X112887328Y-91008188D01*
X112890422Y-91031690D01*
X112891500Y-91048136D01*
X112891500Y-91521317D01*
X112876799Y-91580382D01*
X112836125Y-91625663D01*
X112778971Y-91646594D01*
X112765799Y-91648011D01*
X112758423Y-91650761D01*
X112758419Y-91650763D01*
X112637236Y-91695962D01*
X112637230Y-91695965D01*
X112628796Y-91699111D01*
X112621588Y-91704506D01*
X112621582Y-91704510D01*
X112518950Y-91781340D01*
X112518946Y-91781343D01*
X112511739Y-91786739D01*
X112506343Y-91793946D01*
X112506340Y-91793950D01*
X112429510Y-91896582D01*
X112429506Y-91896588D01*
X112424111Y-91903796D01*
X112420965Y-91912230D01*
X112420962Y-91912236D01*
X112375763Y-92033419D01*
X112375761Y-92033423D01*
X112373011Y-92040799D01*
X112372169Y-92048625D01*
X112372168Y-92048632D01*
X112366860Y-92098011D01*
X112366500Y-92101362D01*
X112366500Y-92104731D01*
X112366500Y-93921233D01*
X112365972Y-93932416D01*
X112364298Y-93939909D01*
X112364547Y-93947833D01*
X112364547Y-93947835D01*
X112366438Y-94007986D01*
X112366500Y-94011945D01*
X112366500Y-94039856D01*
X112366995Y-94043774D01*
X112366997Y-94043806D01*
X112367008Y-94043888D01*
X112367937Y-94055697D01*
X112369077Y-94091969D01*
X112369078Y-94091976D01*
X112369327Y-94099889D01*
X112371537Y-94107498D01*
X112371538Y-94107500D01*
X112374978Y-94119342D01*
X112378986Y-94138693D01*
X112381526Y-94158797D01*
X112384444Y-94166169D01*
X112384445Y-94166170D01*
X112397800Y-94199901D01*
X112401645Y-94211130D01*
X112411771Y-94245986D01*
X112411773Y-94245992D01*
X112413982Y-94253593D01*
X112418014Y-94260411D01*
X112418015Y-94260413D01*
X112424293Y-94271029D01*
X112432990Y-94288782D01*
X112440448Y-94307617D01*
X112445107Y-94314030D01*
X112445108Y-94314031D01*
X112466432Y-94343381D01*
X112472948Y-94353301D01*
X112491422Y-94384538D01*
X112495458Y-94391362D01*
X112501062Y-94396966D01*
X112501063Y-94396967D01*
X112509778Y-94405682D01*
X112522618Y-94420715D01*
X112534528Y-94437107D01*
X112557983Y-94456511D01*
X112568598Y-94465292D01*
X112577378Y-94473282D01*
X113952601Y-95848506D01*
X113982054Y-95894911D01*
X113987155Y-95935256D01*
X113989298Y-95935189D01*
X113991438Y-96003266D01*
X113991500Y-96007225D01*
X113991500Y-96035136D01*
X113991995Y-96039054D01*
X113991997Y-96039086D01*
X113992008Y-96039168D01*
X113992937Y-96050977D01*
X113994077Y-96087249D01*
X113994078Y-96087256D01*
X113994327Y-96095169D01*
X113996537Y-96102778D01*
X113996538Y-96102780D01*
X113999978Y-96114622D01*
X114003986Y-96133973D01*
X114006526Y-96154077D01*
X114009444Y-96161449D01*
X114009445Y-96161450D01*
X114022800Y-96195181D01*
X114026645Y-96206410D01*
X114036771Y-96241266D01*
X114036773Y-96241272D01*
X114038982Y-96248873D01*
X114043014Y-96255691D01*
X114043015Y-96255693D01*
X114049293Y-96266309D01*
X114057990Y-96284062D01*
X114065448Y-96302897D01*
X114070107Y-96309310D01*
X114070108Y-96309311D01*
X114091432Y-96338661D01*
X114097948Y-96348581D01*
X114111792Y-96371989D01*
X114120458Y-96386642D01*
X114126063Y-96392247D01*
X114134778Y-96400962D01*
X114147618Y-96415995D01*
X114159528Y-96432387D01*
X114165635Y-96437439D01*
X114165636Y-96437440D01*
X114193598Y-96460572D01*
X114202378Y-96468562D01*
X115026062Y-97292246D01*
X115033604Y-97300533D01*
X115037720Y-97307018D01*
X115043499Y-97312444D01*
X115043500Y-97312446D01*
X115087387Y-97353658D01*
X115090228Y-97356412D01*
X115109950Y-97376134D01*
X115113134Y-97378604D01*
X115122157Y-97386309D01*
X115154399Y-97416586D01*
X115161348Y-97420406D01*
X115172149Y-97426344D01*
X115188679Y-97437202D01*
X115198414Y-97444754D01*
X115198417Y-97444756D01*
X115204679Y-97449613D01*
X115245256Y-97467172D01*
X115255891Y-97472381D01*
X115294660Y-97493695D01*
X115314286Y-97498734D01*
X115332979Y-97505134D01*
X115351575Y-97513181D01*
X115359406Y-97514421D01*
X115359409Y-97514422D01*
X115375848Y-97517025D01*
X115395245Y-97520097D01*
X115406845Y-97522498D01*
X115449690Y-97533500D01*
X115469944Y-97533500D01*
X115489654Y-97535050D01*
X115509663Y-97538220D01*
X115553681Y-97534058D01*
X115565539Y-97533500D01*
X116021233Y-97533500D01*
X116032416Y-97534027D01*
X116039909Y-97535702D01*
X116107985Y-97533562D01*
X116111945Y-97533500D01*
X116135894Y-97533500D01*
X116139856Y-97533500D01*
X116143856Y-97532994D01*
X116155699Y-97532061D01*
X116199889Y-97530673D01*
X116219333Y-97525023D01*
X116238702Y-97521012D01*
X116258797Y-97518474D01*
X116299915Y-97502193D01*
X116311117Y-97498357D01*
X116353593Y-97486018D01*
X116371039Y-97475699D01*
X116388769Y-97467013D01*
X116407617Y-97459552D01*
X116443387Y-97433561D01*
X116453298Y-97427051D01*
X116491362Y-97404542D01*
X116505688Y-97390215D01*
X116520717Y-97377378D01*
X116537107Y-97365472D01*
X116565294Y-97331397D01*
X116573272Y-97322630D01*
X116823740Y-97072162D01*
X116885703Y-97038215D01*
X116956199Y-97042957D01*
X117013059Y-97084899D01*
X117038403Y-97150853D01*
X117038756Y-97155117D01*
X117044636Y-97226068D01*
X117065135Y-97307018D01*
X117094997Y-97424941D01*
X117099904Y-97444316D01*
X117101997Y-97449089D01*
X117101999Y-97449093D01*
X117141094Y-97538220D01*
X117190340Y-97650491D01*
X117313478Y-97838968D01*
X117317006Y-97842800D01*
X117462427Y-98000769D01*
X117462431Y-98000773D01*
X117465960Y-98004606D01*
X117643624Y-98142889D01*
X117648200Y-98145365D01*
X117648204Y-98145368D01*
X117658782Y-98151092D01*
X117677405Y-98161170D01*
X117725676Y-98207484D01*
X117743437Y-98271981D01*
X117725679Y-98336479D01*
X117677409Y-98382796D01*
X117648485Y-98398449D01*
X117639788Y-98404131D01*
X117470411Y-98535962D01*
X117462767Y-98542999D01*
X117317410Y-98700900D01*
X117311022Y-98709106D01*
X117193631Y-98888786D01*
X117188688Y-98897921D01*
X117102470Y-99094476D01*
X117099100Y-99104291D01*
X117056186Y-99273756D01*
X117055951Y-99285134D01*
X117067040Y-99287700D01*
X119711360Y-99287700D01*
X119722448Y-99285134D01*
X119722213Y-99273756D01*
X119679299Y-99104291D01*
X119675929Y-99094476D01*
X119589711Y-98897921D01*
X119584768Y-98888786D01*
X119467377Y-98709106D01*
X119460989Y-98700900D01*
X119315632Y-98542999D01*
X119307988Y-98535962D01*
X119280259Y-98514380D01*
X121377171Y-98514380D01*
X121383196Y-98523986D01*
X121988270Y-99129060D01*
X121999999Y-99135832D01*
X122011730Y-99129059D01*
X122616802Y-98523986D01*
X122622827Y-98514379D01*
X122614763Y-98506408D01*
X122527984Y-98452676D01*
X122517599Y-98447505D01*
X122326551Y-98373492D01*
X122315393Y-98370317D01*
X122113994Y-98332670D01*
X122102440Y-98331600D01*
X121897560Y-98331600D01*
X121886005Y-98332670D01*
X121684606Y-98370317D01*
X121673448Y-98373492D01*
X121482406Y-98447503D01*
X121472007Y-98452681D01*
X121385237Y-98506407D01*
X121377171Y-98514380D01*
X119280259Y-98514380D01*
X119138611Y-98404131D01*
X119129913Y-98398449D01*
X119100992Y-98382797D01*
X119052720Y-98336480D01*
X119034962Y-98271981D01*
X119052723Y-98207484D01*
X119100991Y-98161172D01*
X119134776Y-98142889D01*
X119312440Y-98004606D01*
X119464922Y-97838968D01*
X119588060Y-97650491D01*
X119678496Y-97444316D01*
X119733764Y-97226068D01*
X119752356Y-97001700D01*
X119743929Y-96900000D01*
X120826092Y-96900000D01*
X120826629Y-96905795D01*
X120845542Y-97109907D01*
X120845543Y-97109914D01*
X120846080Y-97115705D01*
X120847673Y-97121306D01*
X120847674Y-97121308D01*
X120876002Y-97220872D01*
X120905363Y-97324064D01*
X120945431Y-97404531D01*
X120994062Y-97502197D01*
X121001923Y-97517983D01*
X121005431Y-97522629D01*
X121005434Y-97522633D01*
X121128959Y-97686206D01*
X121128963Y-97686210D01*
X121132472Y-97690857D01*
X121292562Y-97836799D01*
X121297516Y-97839866D01*
X121297517Y-97839867D01*
X121471793Y-97947774D01*
X121471797Y-97947776D01*
X121476744Y-97950839D01*
X121482174Y-97952942D01*
X121482175Y-97952943D01*
X121605627Y-98000769D01*
X121678745Y-98029095D01*
X121891685Y-98068900D01*
X122102487Y-98068900D01*
X122108315Y-98068900D01*
X122321255Y-98029095D01*
X122523256Y-97950839D01*
X122707438Y-97836799D01*
X122867528Y-97690857D01*
X122998077Y-97517983D01*
X123094637Y-97324064D01*
X123153920Y-97115705D01*
X123169244Y-96950338D01*
X125493300Y-96950338D01*
X125493659Y-96953685D01*
X125493660Y-96953688D01*
X125498968Y-97003067D01*
X125498969Y-97003073D01*
X125499811Y-97010901D01*
X125502562Y-97018278D01*
X125502563Y-97018280D01*
X125547762Y-97139463D01*
X125547764Y-97139466D01*
X125550911Y-97147904D01*
X125556308Y-97155114D01*
X125556310Y-97155117D01*
X125633140Y-97257749D01*
X125638539Y-97264961D01*
X125645750Y-97270359D01*
X125727293Y-97331402D01*
X125755596Y-97352589D01*
X125892599Y-97403689D01*
X125953162Y-97410200D01*
X127850469Y-97410200D01*
X127853838Y-97410200D01*
X127914401Y-97403689D01*
X128051404Y-97352589D01*
X128168461Y-97264961D01*
X128256089Y-97147904D01*
X128307189Y-97010901D01*
X128313700Y-96950338D01*
X128313700Y-95049662D01*
X128307189Y-94989099D01*
X128256089Y-94852096D01*
X128168461Y-94735039D01*
X128161249Y-94729640D01*
X128058617Y-94652810D01*
X128058614Y-94652808D01*
X128051404Y-94647411D01*
X128042966Y-94644264D01*
X128042963Y-94644262D01*
X127921780Y-94599063D01*
X127921778Y-94599062D01*
X127914401Y-94596311D01*
X127906573Y-94595469D01*
X127906567Y-94595468D01*
X127857188Y-94590160D01*
X127857185Y-94590159D01*
X127853838Y-94589800D01*
X125953162Y-94589800D01*
X125949815Y-94590159D01*
X125949811Y-94590160D01*
X125900432Y-94595468D01*
X125900425Y-94595469D01*
X125892599Y-94596311D01*
X125885223Y-94599061D01*
X125885219Y-94599063D01*
X125764036Y-94644262D01*
X125764030Y-94644265D01*
X125755596Y-94647411D01*
X125748388Y-94652806D01*
X125748382Y-94652810D01*
X125645750Y-94729640D01*
X125645746Y-94729643D01*
X125638539Y-94735039D01*
X125633143Y-94742246D01*
X125633140Y-94742250D01*
X125556310Y-94844882D01*
X125556306Y-94844888D01*
X125550911Y-94852096D01*
X125547765Y-94860530D01*
X125547762Y-94860536D01*
X125502563Y-94981719D01*
X125502561Y-94981723D01*
X125499811Y-94989099D01*
X125498969Y-94996925D01*
X125498968Y-94996932D01*
X125497667Y-95009038D01*
X125493300Y-95049662D01*
X125493300Y-96950338D01*
X123169244Y-96950338D01*
X123173908Y-96900000D01*
X123153920Y-96684295D01*
X123094637Y-96475936D01*
X122998077Y-96282017D01*
X122994565Y-96277366D01*
X122871040Y-96113793D01*
X122871037Y-96113790D01*
X122867528Y-96109143D01*
X122863224Y-96105220D01*
X122863222Y-96105217D01*
X122711745Y-95967127D01*
X122711742Y-95967125D01*
X122707438Y-95963201D01*
X122702484Y-95960134D01*
X122702482Y-95960132D01*
X122528206Y-95852225D01*
X122528198Y-95852221D01*
X122523256Y-95849161D01*
X122517829Y-95847058D01*
X122517824Y-95847056D01*
X122326688Y-95773009D01*
X122326680Y-95773006D01*
X122321255Y-95770905D01*
X122315538Y-95769836D01*
X122315530Y-95769834D01*
X122114041Y-95732170D01*
X122114037Y-95732169D01*
X122108315Y-95731100D01*
X121891685Y-95731100D01*
X121885963Y-95732169D01*
X121885958Y-95732170D01*
X121684469Y-95769834D01*
X121684458Y-95769836D01*
X121678745Y-95770905D01*
X121673322Y-95773005D01*
X121673311Y-95773009D01*
X121482175Y-95847056D01*
X121482165Y-95847060D01*
X121476744Y-95849161D01*
X121471805Y-95852218D01*
X121471793Y-95852225D01*
X121297517Y-95960132D01*
X121297509Y-95960137D01*
X121292562Y-95963201D01*
X121288262Y-95967120D01*
X121288254Y-95967127D01*
X121136777Y-96105217D01*
X121136769Y-96105225D01*
X121132472Y-96109143D01*
X121128967Y-96113783D01*
X121128959Y-96113793D01*
X121005434Y-96277366D01*
X121005428Y-96277375D01*
X121001923Y-96282017D01*
X120999329Y-96287224D01*
X120999326Y-96287231D01*
X120913013Y-96460572D01*
X120905363Y-96475936D01*
X120903768Y-96481538D01*
X120903768Y-96481541D01*
X120895936Y-96509070D01*
X120846080Y-96684295D01*
X120845543Y-96690083D01*
X120845542Y-96690092D01*
X120829989Y-96857948D01*
X120826092Y-96900000D01*
X119743929Y-96900000D01*
X119733764Y-96777332D01*
X119678496Y-96559084D01*
X119588060Y-96352909D01*
X119464922Y-96164432D01*
X119393869Y-96087249D01*
X119315972Y-96002630D01*
X119315967Y-96002625D01*
X119312440Y-95998794D01*
X119134776Y-95860511D01*
X119130197Y-95858033D01*
X119130194Y-95858031D01*
X119101518Y-95842512D01*
X119053247Y-95796194D01*
X119035489Y-95731696D01*
X119053250Y-95667199D01*
X119101521Y-95620885D01*
X119134776Y-95602889D01*
X119312440Y-95464606D01*
X119464922Y-95298968D01*
X119588060Y-95110491D01*
X119632561Y-95009038D01*
X120831100Y-95009038D01*
X120831459Y-95012385D01*
X120831460Y-95012388D01*
X120836768Y-95061767D01*
X120836769Y-95061773D01*
X120837611Y-95069601D01*
X120840362Y-95076978D01*
X120840363Y-95076980D01*
X120885562Y-95198163D01*
X120885564Y-95198166D01*
X120888711Y-95206604D01*
X120894108Y-95213814D01*
X120894110Y-95213817D01*
X120970940Y-95316449D01*
X120976339Y-95323661D01*
X120983550Y-95329059D01*
X121079838Y-95401140D01*
X121093396Y-95411289D01*
X121230399Y-95462389D01*
X121290962Y-95468900D01*
X122705669Y-95468900D01*
X122709038Y-95468900D01*
X122769601Y-95462389D01*
X122906604Y-95411289D01*
X123023661Y-95323661D01*
X123111289Y-95206604D01*
X123162389Y-95069601D01*
X123168900Y-95009038D01*
X123168900Y-93590962D01*
X123162389Y-93530399D01*
X123111289Y-93393396D01*
X123023661Y-93276339D01*
X123016449Y-93270940D01*
X122913817Y-93194110D01*
X122913814Y-93194108D01*
X122906604Y-93188711D01*
X122898166Y-93185564D01*
X122898163Y-93185562D01*
X122776980Y-93140363D01*
X122776978Y-93140362D01*
X122769601Y-93137611D01*
X122761773Y-93136769D01*
X122761767Y-93136768D01*
X122712388Y-93131460D01*
X122712385Y-93131459D01*
X122709038Y-93131100D01*
X121290962Y-93131100D01*
X121287615Y-93131459D01*
X121287611Y-93131460D01*
X121238232Y-93136768D01*
X121238225Y-93136769D01*
X121230399Y-93137611D01*
X121223023Y-93140361D01*
X121223019Y-93140363D01*
X121101836Y-93185562D01*
X121101830Y-93185565D01*
X121093396Y-93188711D01*
X121086188Y-93194106D01*
X121086182Y-93194110D01*
X120983550Y-93270940D01*
X120983546Y-93270943D01*
X120976339Y-93276339D01*
X120970943Y-93283546D01*
X120970940Y-93283550D01*
X120894110Y-93386182D01*
X120894106Y-93386188D01*
X120888711Y-93393396D01*
X120885565Y-93401830D01*
X120885562Y-93401836D01*
X120840363Y-93523019D01*
X120840361Y-93523023D01*
X120837611Y-93530399D01*
X120836769Y-93538225D01*
X120836768Y-93538232D01*
X120831460Y-93587611D01*
X120831100Y-93590962D01*
X120831100Y-95009038D01*
X119632561Y-95009038D01*
X119678496Y-94904316D01*
X119733764Y-94686068D01*
X119752356Y-94461700D01*
X119733764Y-94237332D01*
X119678496Y-94019084D01*
X119588060Y-93812909D01*
X119464922Y-93624432D01*
X119341256Y-93490096D01*
X119315972Y-93462630D01*
X119315967Y-93462625D01*
X119312440Y-93458794D01*
X119134776Y-93320511D01*
X119130202Y-93318036D01*
X119130195Y-93318031D01*
X119101520Y-93302514D01*
X119053248Y-93256198D01*
X119035489Y-93191700D01*
X119053248Y-93127202D01*
X119101520Y-93080886D01*
X119130190Y-93065371D01*
X119134776Y-93062889D01*
X119312440Y-92924606D01*
X119464922Y-92758968D01*
X119588060Y-92570491D01*
X119678496Y-92364316D01*
X119707445Y-92250000D01*
X125488467Y-92250000D01*
X125507766Y-92482907D01*
X125565137Y-92709460D01*
X125659016Y-92923481D01*
X125786840Y-93119131D01*
X125945124Y-93291074D01*
X126129550Y-93434618D01*
X126335088Y-93545849D01*
X126340017Y-93547541D01*
X126340019Y-93547542D01*
X126437570Y-93581031D01*
X126556130Y-93621733D01*
X126786648Y-93660200D01*
X127015144Y-93660200D01*
X127020352Y-93660200D01*
X127250870Y-93621733D01*
X127471912Y-93545849D01*
X127677450Y-93434618D01*
X127861876Y-93291074D01*
X128020160Y-93119131D01*
X128147984Y-92923481D01*
X128241863Y-92709460D01*
X128299234Y-92482907D01*
X128318533Y-92250000D01*
X128299234Y-92017093D01*
X128241863Y-91790540D01*
X128147984Y-91576519D01*
X128020160Y-91380869D01*
X127861876Y-91208926D01*
X127677450Y-91065382D01*
X127471912Y-90954151D01*
X127466988Y-90952460D01*
X127466980Y-90952457D01*
X127255797Y-90879958D01*
X127255792Y-90879956D01*
X127250870Y-90878267D01*
X127245736Y-90877410D01*
X127245727Y-90877408D01*
X127025492Y-90840657D01*
X127025483Y-90840656D01*
X127020352Y-90839800D01*
X126786648Y-90839800D01*
X126781517Y-90840656D01*
X126781507Y-90840657D01*
X126561272Y-90877408D01*
X126561261Y-90877410D01*
X126556130Y-90878267D01*
X126551210Y-90879955D01*
X126551202Y-90879958D01*
X126340019Y-90952457D01*
X126340006Y-90952462D01*
X126335088Y-90954151D01*
X126330509Y-90956628D01*
X126330502Y-90956632D01*
X126134132Y-91062902D01*
X126134128Y-91062904D01*
X126129550Y-91065382D01*
X126125444Y-91068577D01*
X126125439Y-91068581D01*
X125993918Y-91170948D01*
X125945124Y-91208926D01*
X125941596Y-91212757D01*
X125941592Y-91212762D01*
X125790374Y-91377029D01*
X125790368Y-91377035D01*
X125786840Y-91380869D01*
X125783991Y-91385228D01*
X125783986Y-91385236D01*
X125663178Y-91570148D01*
X125659016Y-91576519D01*
X125656923Y-91581289D01*
X125656921Y-91581294D01*
X125567230Y-91785767D01*
X125567227Y-91785773D01*
X125565137Y-91790540D01*
X125563859Y-91795584D01*
X125563857Y-91795592D01*
X125522438Y-91959155D01*
X125507766Y-92017093D01*
X125507336Y-92022281D01*
X125507335Y-92022288D01*
X125501340Y-92094639D01*
X125488467Y-92250000D01*
X119707445Y-92250000D01*
X119733764Y-92146068D01*
X119752356Y-91921700D01*
X119733764Y-91697332D01*
X119678496Y-91479084D01*
X119588060Y-91272909D01*
X119464922Y-91084432D01*
X119344989Y-90954151D01*
X119315972Y-90922630D01*
X119315967Y-90922625D01*
X119312440Y-90918794D01*
X119134776Y-90780511D01*
X119130202Y-90778036D01*
X119130195Y-90778031D01*
X119101520Y-90762514D01*
X119053248Y-90716198D01*
X119035489Y-90651700D01*
X119053248Y-90587202D01*
X119101520Y-90540886D01*
X119110577Y-90535985D01*
X119134776Y-90522889D01*
X119312440Y-90384606D01*
X119464922Y-90218968D01*
X119588060Y-90030491D01*
X119678496Y-89824316D01*
X119733764Y-89606068D01*
X119752356Y-89381700D01*
X119733764Y-89157332D01*
X119678496Y-88939084D01*
X119588060Y-88732909D01*
X119464922Y-88544432D01*
X119408019Y-88482619D01*
X121830183Y-88482619D01*
X121838286Y-88490565D01*
X122009044Y-88595206D01*
X122017839Y-88599687D01*
X122227987Y-88686733D01*
X122237373Y-88689783D01*
X122458554Y-88742884D01*
X122468300Y-88744428D01*
X122695070Y-88762275D01*
X122704930Y-88762275D01*
X122931699Y-88744428D01*
X122941445Y-88742884D01*
X123162626Y-88689783D01*
X123172012Y-88686733D01*
X123382162Y-88599686D01*
X123390957Y-88595205D01*
X123561708Y-88490568D01*
X123569814Y-88482619D01*
X123563787Y-88472997D01*
X122711729Y-87620939D01*
X122699999Y-87614167D01*
X122688271Y-87620938D01*
X121836208Y-88473000D01*
X121830183Y-88482619D01*
X119408019Y-88482619D01*
X119360689Y-88431206D01*
X119315972Y-88382630D01*
X119315967Y-88382625D01*
X119312440Y-88378794D01*
X119134776Y-88240511D01*
X119130197Y-88238033D01*
X119130194Y-88238031D01*
X118941359Y-88135839D01*
X118941356Y-88135837D01*
X118936774Y-88133358D01*
X118931850Y-88131667D01*
X118931842Y-88131664D01*
X118728765Y-88061948D01*
X118728759Y-88061946D01*
X118723835Y-88060256D01*
X118718698Y-88059398D01*
X118718695Y-88059398D01*
X118506906Y-88024057D01*
X118506903Y-88024056D01*
X118501769Y-88023200D01*
X118351893Y-88023200D01*
X118294690Y-88009467D01*
X118249957Y-87971261D01*
X118227444Y-87916911D01*
X118232060Y-87858264D01*
X118262798Y-87808105D01*
X118815973Y-87254930D01*
X121187725Y-87254930D01*
X121205571Y-87481699D01*
X121207115Y-87491445D01*
X121260216Y-87712626D01*
X121263266Y-87722012D01*
X121350312Y-87932160D01*
X121354793Y-87940955D01*
X121459433Y-88111712D01*
X121467379Y-88119816D01*
X121476997Y-88113791D01*
X122329059Y-87261730D01*
X122335832Y-87249999D01*
X123064167Y-87249999D01*
X123070939Y-87261729D01*
X123922997Y-88113787D01*
X123932619Y-88119814D01*
X123940568Y-88111708D01*
X124045205Y-87940957D01*
X124049686Y-87932162D01*
X124136733Y-87722012D01*
X124139783Y-87712626D01*
X124192884Y-87491445D01*
X124194428Y-87481699D01*
X124212275Y-87254930D01*
X124212275Y-87245070D01*
X124194428Y-87018300D01*
X124192884Y-87008554D01*
X124139783Y-86787373D01*
X124136733Y-86777987D01*
X124049687Y-86567839D01*
X124045206Y-86559044D01*
X123940565Y-86388286D01*
X123932619Y-86380183D01*
X123923000Y-86386208D01*
X123070938Y-87238271D01*
X123064167Y-87249999D01*
X122335832Y-87249999D01*
X122329060Y-87238270D01*
X121476999Y-86386209D01*
X121467378Y-86380183D01*
X121459433Y-86388285D01*
X121354793Y-86559044D01*
X121350312Y-86567839D01*
X121263266Y-86777987D01*
X121260216Y-86787373D01*
X121207115Y-87008554D01*
X121205571Y-87018300D01*
X121187725Y-87245070D01*
X121187725Y-87254930D01*
X118815973Y-87254930D01*
X121601405Y-84469498D01*
X121651564Y-84438760D01*
X121710211Y-84434144D01*
X121764561Y-84456657D01*
X121802767Y-84501390D01*
X121816500Y-84558593D01*
X121816500Y-85048638D01*
X121816859Y-85051985D01*
X121816860Y-85051988D01*
X121822168Y-85101367D01*
X121822169Y-85101373D01*
X121823011Y-85109201D01*
X121825762Y-85116578D01*
X121825763Y-85116580D01*
X121870962Y-85237763D01*
X121870964Y-85237766D01*
X121874111Y-85246204D01*
X121879508Y-85253414D01*
X121879510Y-85253417D01*
X121932956Y-85324812D01*
X121961739Y-85363261D01*
X121968950Y-85368659D01*
X122054379Y-85432611D01*
X122078796Y-85450889D01*
X122215799Y-85501989D01*
X122276362Y-85508500D01*
X122279731Y-85508500D01*
X122429542Y-85508500D01*
X122488209Y-85522992D01*
X122533382Y-85563133D01*
X122554669Y-85619690D01*
X122547173Y-85679654D01*
X122512620Y-85729232D01*
X122458956Y-85757019D01*
X122237373Y-85810216D01*
X122227987Y-85813266D01*
X122017839Y-85900312D01*
X122009044Y-85904793D01*
X121838285Y-86009433D01*
X121830183Y-86017378D01*
X121836209Y-86026999D01*
X122688270Y-86879060D01*
X122699999Y-86885832D01*
X122711730Y-86879059D01*
X123563791Y-86026997D01*
X123569816Y-86017379D01*
X123561712Y-86009433D01*
X123390955Y-85904793D01*
X123382160Y-85900312D01*
X123172012Y-85813266D01*
X123162626Y-85810216D01*
X122941044Y-85757019D01*
X122887380Y-85729232D01*
X122852827Y-85679654D01*
X122845331Y-85619690D01*
X122866618Y-85563133D01*
X122911791Y-85522992D01*
X122970458Y-85508500D01*
X123570269Y-85508500D01*
X123573638Y-85508500D01*
X123634201Y-85501989D01*
X123771204Y-85450889D01*
X123888261Y-85363261D01*
X123975889Y-85246204D01*
X124015327Y-85140465D01*
X124042193Y-85097550D01*
X124083783Y-85068673D01*
X124133383Y-85058500D01*
X124778780Y-85058500D01*
X124840186Y-85074476D01*
X124886020Y-85118352D01*
X124950970Y-85223652D01*
X124956163Y-85228845D01*
X125038223Y-85310905D01*
X125070835Y-85367389D01*
X125070835Y-85432611D01*
X125038223Y-85489095D01*
X124956163Y-85571154D01*
X124956159Y-85571158D01*
X124950970Y-85576348D01*
X124947119Y-85582590D01*
X124947116Y-85582595D01*
X124861735Y-85721018D01*
X124861730Y-85721026D01*
X124857885Y-85727262D01*
X124855579Y-85734219D01*
X124855577Y-85734225D01*
X124804275Y-85889048D01*
X124802113Y-85895574D01*
X124801414Y-85902408D01*
X124801414Y-85902412D01*
X124792326Y-85991368D01*
X124791500Y-85999455D01*
X124791500Y-86002659D01*
X124791500Y-86002660D01*
X124791500Y-86997338D01*
X124791500Y-86997357D01*
X124791501Y-87000544D01*
X124791825Y-87003721D01*
X124791826Y-87003729D01*
X124801355Y-87097011D01*
X124802113Y-87104426D01*
X124804272Y-87110943D01*
X124804274Y-87110950D01*
X124854237Y-87261729D01*
X124857885Y-87272738D01*
X124861732Y-87278976D01*
X124861735Y-87278981D01*
X124904314Y-87348011D01*
X124950970Y-87423652D01*
X125076348Y-87549030D01*
X125104765Y-87566558D01*
X125221018Y-87638264D01*
X125221020Y-87638265D01*
X125227262Y-87642115D01*
X125395574Y-87697887D01*
X125499455Y-87708500D01*
X126300544Y-87708499D01*
X126404426Y-87697887D01*
X126572738Y-87642115D01*
X126723652Y-87549030D01*
X126811259Y-87461422D01*
X126867743Y-87428811D01*
X126932965Y-87428811D01*
X126989449Y-87461423D01*
X127071467Y-87543441D01*
X127082908Y-87552488D01*
X127221232Y-87637807D01*
X127234435Y-87643964D01*
X127389153Y-87695232D01*
X127402511Y-87698092D01*
X127496307Y-87707674D01*
X127502697Y-87708000D01*
X127715128Y-87708000D01*
X127772331Y-87721733D01*
X127817064Y-87759939D01*
X127839577Y-87814289D01*
X127834961Y-87872936D01*
X127804223Y-87923094D01*
X127671849Y-88055469D01*
X127343665Y-88383652D01*
X127314693Y-88405287D01*
X127280769Y-88417802D01*
X127224172Y-88429832D01*
X127224164Y-88429834D01*
X127217712Y-88431206D01*
X127211687Y-88433888D01*
X127211679Y-88433891D01*
X127049278Y-88506197D01*
X127049275Y-88506198D01*
X127043248Y-88508882D01*
X127037907Y-88512762D01*
X127037906Y-88512763D01*
X126894091Y-88617250D01*
X126894083Y-88617256D01*
X126888747Y-88621134D01*
X126884330Y-88626039D01*
X126884325Y-88626044D01*
X126765379Y-88758148D01*
X126760960Y-88763056D01*
X126757661Y-88768769D01*
X126757658Y-88768774D01*
X126668777Y-88922721D01*
X126665473Y-88928444D01*
X126663434Y-88934718D01*
X126663430Y-88934728D01*
X126608497Y-89103794D01*
X126608495Y-89103801D01*
X126606458Y-89110072D01*
X126605768Y-89116633D01*
X126605768Y-89116635D01*
X126601491Y-89157332D01*
X126586496Y-89300000D01*
X126587186Y-89306565D01*
X126602418Y-89451495D01*
X126606458Y-89489928D01*
X126608495Y-89496200D01*
X126608497Y-89496205D01*
X126663430Y-89665271D01*
X126663433Y-89665278D01*
X126665473Y-89671556D01*
X126760960Y-89836944D01*
X126888747Y-89978866D01*
X127043248Y-90091118D01*
X127217712Y-90168794D01*
X127404513Y-90208500D01*
X127588884Y-90208500D01*
X127595487Y-90208500D01*
X127782288Y-90168794D01*
X127956752Y-90091118D01*
X128111253Y-89978866D01*
X128239040Y-89836944D01*
X128334527Y-89671556D01*
X128389388Y-89502709D01*
X128420121Y-89452558D01*
X128534907Y-89337772D01*
X128585064Y-89307037D01*
X128643711Y-89302421D01*
X128698061Y-89324934D01*
X128736267Y-89369667D01*
X128750000Y-89426870D01*
X128750000Y-110342999D01*
X128736300Y-110400136D01*
X128698179Y-110444849D01*
X128643928Y-110467413D01*
X128585343Y-110462922D01*
X128262240Y-110358770D01*
X128260162Y-110358081D01*
X127734544Y-110178509D01*
X127731989Y-110177605D01*
X127299310Y-110019315D01*
X127297290Y-110018556D01*
X126778970Y-109818802D01*
X126776424Y-109817789D01*
X126350320Y-109642839D01*
X126348358Y-109642014D01*
X125837966Y-109422311D01*
X125835455Y-109421197D01*
X125741407Y-109378237D01*
X125416680Y-109229908D01*
X125414780Y-109229021D01*
X124913121Y-108989703D01*
X124910606Y-108988469D01*
X124499657Y-108781085D01*
X124497819Y-108780138D01*
X124127591Y-108585618D01*
X125790721Y-108585618D01*
X125798785Y-108593590D01*
X125885565Y-108647323D01*
X125895950Y-108652494D01*
X126086998Y-108726507D01*
X126098156Y-108729682D01*
X126299555Y-108767329D01*
X126311110Y-108768400D01*
X126515990Y-108768400D01*
X126527544Y-108767329D01*
X126728943Y-108729682D01*
X126740101Y-108726507D01*
X126931150Y-108652494D01*
X126941531Y-108647325D01*
X127028315Y-108593589D01*
X127036377Y-108585619D01*
X127030352Y-108576012D01*
X126425279Y-107970939D01*
X126413549Y-107964167D01*
X126401821Y-107970938D01*
X125796746Y-108576012D01*
X125790721Y-108585618D01*
X124127591Y-108585618D01*
X124005649Y-108521549D01*
X124003157Y-108520204D01*
X123600788Y-108297117D01*
X123599016Y-108296116D01*
X123117014Y-108018601D01*
X123114549Y-108017144D01*
X122772661Y-107809818D01*
X122721292Y-107778667D01*
X122719655Y-107777656D01*
X122446166Y-107605795D01*
X125240681Y-107605795D01*
X125259586Y-107809818D01*
X125261716Y-107821212D01*
X125317787Y-108018282D01*
X125321975Y-108029093D01*
X125413304Y-108212507D01*
X125415754Y-108216462D01*
X125425232Y-108223506D01*
X125437592Y-108216746D01*
X126042609Y-107611730D01*
X126049382Y-107599999D01*
X126777717Y-107599999D01*
X126784489Y-107611729D01*
X127389506Y-108216746D01*
X127401866Y-108223507D01*
X127411345Y-108216463D01*
X127413793Y-108212509D01*
X127505124Y-108029093D01*
X127509312Y-108018282D01*
X127565383Y-107821212D01*
X127567513Y-107809818D01*
X127586419Y-107605795D01*
X127586419Y-107594205D01*
X127567513Y-107390181D01*
X127565383Y-107378787D01*
X127509312Y-107181717D01*
X127505124Y-107170906D01*
X127413796Y-106987495D01*
X127411344Y-106983535D01*
X127401865Y-106976492D01*
X127389507Y-106983251D01*
X126784488Y-107588271D01*
X126777717Y-107599999D01*
X126049382Y-107599999D01*
X126042610Y-107588270D01*
X125437594Y-106983254D01*
X125425232Y-106976492D01*
X125415753Y-106983537D01*
X125413306Y-106987489D01*
X125321975Y-107170906D01*
X125317787Y-107181717D01*
X125261716Y-107378787D01*
X125259586Y-107390181D01*
X125240681Y-107594205D01*
X125240681Y-107605795D01*
X122446166Y-107605795D01*
X122248516Y-107481591D01*
X122246084Y-107480024D01*
X121862655Y-107226612D01*
X121861016Y-107225510D01*
X121401455Y-106911323D01*
X121399061Y-106909645D01*
X121025991Y-106641678D01*
X121024420Y-106640531D01*
X120989173Y-106614380D01*
X125790721Y-106614380D01*
X125796746Y-106623986D01*
X126401820Y-107229060D01*
X126413549Y-107235832D01*
X126425280Y-107229059D01*
X127030352Y-106623986D01*
X127036377Y-106614379D01*
X127028313Y-106606408D01*
X126941534Y-106552676D01*
X126931149Y-106547505D01*
X126740101Y-106473492D01*
X126728943Y-106470317D01*
X126527544Y-106432670D01*
X126515990Y-106431600D01*
X126311110Y-106431600D01*
X126299555Y-106432670D01*
X126098156Y-106470317D01*
X126086998Y-106473492D01*
X125895956Y-106547503D01*
X125885557Y-106552681D01*
X125798787Y-106606407D01*
X125790721Y-106614380D01*
X120989173Y-106614380D01*
X120577168Y-106308699D01*
X120574816Y-106306911D01*
X120212646Y-106024801D01*
X120211145Y-106023614D01*
X119776772Y-105674533D01*
X119774468Y-105672635D01*
X119423797Y-105376878D01*
X119422366Y-105375653D01*
X119001639Y-105009912D01*
X118999387Y-105007907D01*
X118990719Y-105000000D01*
X125239642Y-105000000D01*
X125240179Y-105005795D01*
X125259092Y-105209907D01*
X125259093Y-105209914D01*
X125259630Y-105215705D01*
X125318913Y-105424064D01*
X125415473Y-105617983D01*
X125418981Y-105622629D01*
X125418984Y-105622633D01*
X125542509Y-105786206D01*
X125542513Y-105786210D01*
X125546022Y-105790857D01*
X125550324Y-105794779D01*
X125550327Y-105794782D01*
X125701804Y-105932872D01*
X125706112Y-105936799D01*
X125711066Y-105939866D01*
X125711067Y-105939867D01*
X125885343Y-106047774D01*
X125885347Y-106047776D01*
X125890294Y-106050839D01*
X126092295Y-106129095D01*
X126305235Y-106168900D01*
X126516037Y-106168900D01*
X126521865Y-106168900D01*
X126734805Y-106129095D01*
X126936806Y-106050839D01*
X127120988Y-105936799D01*
X127281078Y-105790857D01*
X127411627Y-105617983D01*
X127508187Y-105424064D01*
X127567470Y-105215705D01*
X127587458Y-105000000D01*
X127567470Y-104784295D01*
X127508187Y-104575936D01*
X127411627Y-104382017D01*
X127361554Y-104315710D01*
X127284590Y-104213793D01*
X127284587Y-104213790D01*
X127281078Y-104209143D01*
X127276774Y-104205220D01*
X127276772Y-104205217D01*
X127125295Y-104067127D01*
X127125292Y-104067125D01*
X127120988Y-104063201D01*
X127116034Y-104060134D01*
X127116032Y-104060132D01*
X126941756Y-103952225D01*
X126941748Y-103952221D01*
X126936806Y-103949161D01*
X126931379Y-103947058D01*
X126931374Y-103947056D01*
X126740238Y-103873009D01*
X126740230Y-103873006D01*
X126734805Y-103870905D01*
X126729088Y-103869836D01*
X126729080Y-103869834D01*
X126527591Y-103832170D01*
X126527587Y-103832169D01*
X126521865Y-103831100D01*
X126305235Y-103831100D01*
X126299513Y-103832169D01*
X126299508Y-103832170D01*
X126098019Y-103869834D01*
X126098008Y-103869836D01*
X126092295Y-103870905D01*
X126086872Y-103873005D01*
X126086861Y-103873009D01*
X125895725Y-103947056D01*
X125895715Y-103947060D01*
X125890294Y-103949161D01*
X125885355Y-103952218D01*
X125885343Y-103952225D01*
X125711067Y-104060132D01*
X125711059Y-104060137D01*
X125706112Y-104063201D01*
X125701812Y-104067120D01*
X125701804Y-104067127D01*
X125550327Y-104205217D01*
X125550319Y-104205225D01*
X125546022Y-104209143D01*
X125542517Y-104213783D01*
X125542509Y-104213793D01*
X125418984Y-104377366D01*
X125418978Y-104377375D01*
X125415473Y-104382017D01*
X125412879Y-104387224D01*
X125412876Y-104387231D01*
X125330290Y-104553088D01*
X125318913Y-104575936D01*
X125259630Y-104784295D01*
X125259093Y-104790083D01*
X125259092Y-104790092D01*
X125249481Y-104893815D01*
X125239642Y-105000000D01*
X118990719Y-105000000D01*
X118660574Y-104698829D01*
X118659215Y-104697570D01*
X118252782Y-104315710D01*
X118250587Y-104313597D01*
X117924321Y-103991856D01*
X117923033Y-103990568D01*
X117592079Y-103654627D01*
X117561774Y-103604419D01*
X117557479Y-103545931D01*
X117580124Y-103491834D01*
X117624803Y-103453848D01*
X117681838Y-103440200D01*
X119284469Y-103440200D01*
X119287838Y-103440200D01*
X119348401Y-103433689D01*
X119485404Y-103382589D01*
X119602461Y-103294961D01*
X119690089Y-103177904D01*
X119715775Y-103109038D01*
X125244650Y-103109038D01*
X125245009Y-103112385D01*
X125245010Y-103112388D01*
X125250318Y-103161767D01*
X125250319Y-103161773D01*
X125251161Y-103169601D01*
X125253912Y-103176978D01*
X125253913Y-103176980D01*
X125299112Y-103298163D01*
X125299114Y-103298166D01*
X125302261Y-103306604D01*
X125307658Y-103313814D01*
X125307660Y-103313817D01*
X125355100Y-103377189D01*
X125389889Y-103423661D01*
X125420248Y-103446388D01*
X125493038Y-103500878D01*
X125506946Y-103511289D01*
X125643949Y-103562389D01*
X125704512Y-103568900D01*
X127119219Y-103568900D01*
X127122588Y-103568900D01*
X127183151Y-103562389D01*
X127320154Y-103511289D01*
X127437211Y-103423661D01*
X127524839Y-103306604D01*
X127575939Y-103169601D01*
X127582450Y-103109038D01*
X127582450Y-101690962D01*
X127575939Y-101630399D01*
X127524839Y-101493396D01*
X127437211Y-101376339D01*
X127429999Y-101370940D01*
X127336090Y-101300640D01*
X127294875Y-101247223D01*
X127287128Y-101180201D01*
X127315069Y-101118790D01*
X127370685Y-101080600D01*
X127471912Y-101045849D01*
X127677450Y-100934618D01*
X127861876Y-100791074D01*
X128020160Y-100619131D01*
X128147984Y-100423481D01*
X128241863Y-100209460D01*
X128299234Y-99982907D01*
X128318533Y-99750000D01*
X128299234Y-99517093D01*
X128241863Y-99290540D01*
X128147984Y-99076519D01*
X128020160Y-98880869D01*
X127861876Y-98708926D01*
X127677450Y-98565382D01*
X127471912Y-98454151D01*
X127466988Y-98452460D01*
X127466980Y-98452457D01*
X127255797Y-98379958D01*
X127255792Y-98379956D01*
X127250870Y-98378267D01*
X127245736Y-98377410D01*
X127245727Y-98377408D01*
X127025492Y-98340657D01*
X127025483Y-98340656D01*
X127020352Y-98339800D01*
X126786648Y-98339800D01*
X126781517Y-98340656D01*
X126781507Y-98340657D01*
X126561272Y-98377408D01*
X126561261Y-98377410D01*
X126556130Y-98378267D01*
X126551210Y-98379955D01*
X126551202Y-98379958D01*
X126340019Y-98452457D01*
X126340006Y-98452462D01*
X126335088Y-98454151D01*
X126330509Y-98456628D01*
X126330502Y-98456632D01*
X126134132Y-98562902D01*
X126134128Y-98562904D01*
X126129550Y-98565382D01*
X126125444Y-98568577D01*
X126125439Y-98568581D01*
X125949235Y-98705726D01*
X125945124Y-98708926D01*
X125941596Y-98712757D01*
X125941592Y-98712762D01*
X125790374Y-98877029D01*
X125790368Y-98877035D01*
X125786840Y-98880869D01*
X125783991Y-98885228D01*
X125783986Y-98885236D01*
X125662683Y-99070906D01*
X125659016Y-99076519D01*
X125656923Y-99081289D01*
X125656921Y-99081294D01*
X125567230Y-99285767D01*
X125567227Y-99285773D01*
X125565137Y-99290540D01*
X125563859Y-99295584D01*
X125563857Y-99295592D01*
X125521841Y-99461511D01*
X125507766Y-99517093D01*
X125507336Y-99522281D01*
X125507335Y-99522288D01*
X125490852Y-99721212D01*
X125488467Y-99750000D01*
X125488897Y-99755189D01*
X125503057Y-99926084D01*
X125507766Y-99982907D01*
X125523130Y-100043579D01*
X125541658Y-100116746D01*
X125565137Y-100209460D01*
X125659016Y-100423481D01*
X125786840Y-100619131D01*
X125945124Y-100791074D01*
X126129550Y-100934618D01*
X126210234Y-100978282D01*
X126239807Y-100994286D01*
X126287542Y-101039710D01*
X126305821Y-101103017D01*
X126289645Y-101166893D01*
X126243438Y-101213870D01*
X126179838Y-101231100D01*
X125704512Y-101231100D01*
X125701165Y-101231459D01*
X125701161Y-101231460D01*
X125651782Y-101236768D01*
X125651775Y-101236769D01*
X125643949Y-101237611D01*
X125636573Y-101240361D01*
X125636569Y-101240363D01*
X125515386Y-101285562D01*
X125515380Y-101285565D01*
X125506946Y-101288711D01*
X125499738Y-101294106D01*
X125499732Y-101294110D01*
X125397100Y-101370940D01*
X125397096Y-101370943D01*
X125389889Y-101376339D01*
X125384493Y-101383546D01*
X125384490Y-101383550D01*
X125307660Y-101486182D01*
X125307656Y-101486188D01*
X125302261Y-101493396D01*
X125299115Y-101501830D01*
X125299112Y-101501836D01*
X125253913Y-101623019D01*
X125253911Y-101623023D01*
X125251161Y-101630399D01*
X125250319Y-101638225D01*
X125250318Y-101638232D01*
X125245010Y-101687611D01*
X125244650Y-101690962D01*
X125244650Y-103109038D01*
X119715775Y-103109038D01*
X119741189Y-103040901D01*
X119747700Y-102980338D01*
X119747700Y-101183062D01*
X119741189Y-101122499D01*
X119690089Y-100985496D01*
X119602461Y-100868439D01*
X119595249Y-100863040D01*
X119492617Y-100786210D01*
X119492614Y-100786208D01*
X119485404Y-100780811D01*
X119476965Y-100777663D01*
X119476957Y-100777659D01*
X119369886Y-100737723D01*
X119319552Y-100703159D01*
X119291378Y-100648989D01*
X119291981Y-100587934D01*
X119321218Y-100534330D01*
X119366060Y-100485618D01*
X121377171Y-100485618D01*
X121385235Y-100493590D01*
X121472015Y-100547323D01*
X121482400Y-100552494D01*
X121673448Y-100626507D01*
X121684606Y-100629682D01*
X121886005Y-100667329D01*
X121897560Y-100668400D01*
X122102440Y-100668400D01*
X122113994Y-100667329D01*
X122315393Y-100629682D01*
X122326551Y-100626507D01*
X122517600Y-100552494D01*
X122527981Y-100547325D01*
X122614765Y-100493589D01*
X122622827Y-100485619D01*
X122616802Y-100476012D01*
X122011729Y-99870939D01*
X121999999Y-99864167D01*
X121988271Y-99870938D01*
X121383196Y-100476012D01*
X121377171Y-100485618D01*
X119366060Y-100485618D01*
X119460994Y-100382492D01*
X119467377Y-100374293D01*
X119584768Y-100194613D01*
X119589711Y-100185478D01*
X119675929Y-99988923D01*
X119679299Y-99979108D01*
X119722213Y-99809643D01*
X119722448Y-99798265D01*
X119711360Y-99795700D01*
X117067040Y-99795700D01*
X117055951Y-99798265D01*
X117056186Y-99809643D01*
X117099100Y-99979108D01*
X117102470Y-99988923D01*
X117188688Y-100185478D01*
X117193631Y-100194613D01*
X117311022Y-100374293D01*
X117317410Y-100382499D01*
X117457181Y-100534331D01*
X117486418Y-100587934D01*
X117487021Y-100648989D01*
X117458847Y-100703159D01*
X117408514Y-100737723D01*
X117301440Y-100777660D01*
X117301431Y-100777664D01*
X117292996Y-100780811D01*
X117285788Y-100786206D01*
X117285782Y-100786210D01*
X117183150Y-100863040D01*
X117183146Y-100863043D01*
X117175939Y-100868439D01*
X117170543Y-100875646D01*
X117170540Y-100875650D01*
X117093710Y-100978282D01*
X117093706Y-100978288D01*
X117088311Y-100985496D01*
X117085165Y-100993930D01*
X117085162Y-100993936D01*
X117039963Y-101115119D01*
X117039961Y-101115123D01*
X117037211Y-101122499D01*
X117036369Y-101130325D01*
X117036368Y-101130332D01*
X117032438Y-101166893D01*
X117030700Y-101183062D01*
X117030700Y-101186431D01*
X117030700Y-102726981D01*
X117016146Y-102785767D01*
X116975846Y-102830973D01*
X116919109Y-102852154D01*
X116859044Y-102844418D01*
X116809527Y-102809552D01*
X116536639Y-102495015D01*
X116535494Y-102493677D01*
X116175218Y-102066501D01*
X116173225Y-102064077D01*
X115887270Y-101707361D01*
X115886305Y-101706141D01*
X115542496Y-101264975D01*
X115540580Y-101262451D01*
X115269011Y-100895298D01*
X115268009Y-100893925D01*
X115091899Y-100648989D01*
X114941340Y-100439588D01*
X114939515Y-100436982D01*
X114927065Y-100418705D01*
X114721190Y-100116463D01*
X114682557Y-100059746D01*
X114681627Y-100058360D01*
X114372579Y-99591481D01*
X114370831Y-99588765D01*
X114318918Y-99505795D01*
X120827131Y-99505795D01*
X120846036Y-99709818D01*
X120848166Y-99721212D01*
X120904237Y-99918282D01*
X120908425Y-99929093D01*
X120999754Y-100112507D01*
X121002204Y-100116462D01*
X121011682Y-100123506D01*
X121024042Y-100116746D01*
X121629059Y-99511730D01*
X121635832Y-99499999D01*
X122364167Y-99499999D01*
X122370939Y-99511729D01*
X122975956Y-100116746D01*
X122988316Y-100123507D01*
X122997795Y-100116463D01*
X123000243Y-100112509D01*
X123091574Y-99929093D01*
X123095762Y-99918282D01*
X123151833Y-99721212D01*
X123153963Y-99709818D01*
X123172869Y-99505795D01*
X123172869Y-99494205D01*
X123153963Y-99290181D01*
X123151833Y-99278787D01*
X123095762Y-99081717D01*
X123091574Y-99070906D01*
X123000246Y-98887495D01*
X122997794Y-98883535D01*
X122988315Y-98876492D01*
X122975957Y-98883251D01*
X122370938Y-99488271D01*
X122364167Y-99499999D01*
X121635832Y-99499999D01*
X121629060Y-99488270D01*
X121024044Y-98883254D01*
X121011682Y-98876492D01*
X121002203Y-98883537D01*
X120999756Y-98887489D01*
X120908425Y-99070906D01*
X120904237Y-99081717D01*
X120848166Y-99278787D01*
X120846036Y-99290181D01*
X120827131Y-99494205D01*
X120827131Y-99505795D01*
X114318918Y-99505795D01*
X114315292Y-99499999D01*
X114128994Y-99202247D01*
X114128220Y-99200993D01*
X113837082Y-98721936D01*
X113835425Y-98719127D01*
X113609114Y-98324055D01*
X113608324Y-98322656D01*
X113552125Y-98221582D01*
X113335673Y-97832289D01*
X113334192Y-97829541D01*
X113123569Y-97426278D01*
X113122882Y-97424941D01*
X112869155Y-96923968D01*
X112867693Y-96920984D01*
X112673206Y-96510471D01*
X112672552Y-96509070D01*
X112622949Y-96400962D01*
X112438141Y-95998178D01*
X112436828Y-95995212D01*
X112258536Y-95577663D01*
X112258122Y-95576677D01*
X112043347Y-95056448D01*
X112042126Y-95053372D01*
X111880456Y-94629879D01*
X111879940Y-94628501D01*
X111830718Y-94494859D01*
X111685326Y-94100104D01*
X111684220Y-94096973D01*
X111539276Y-93667934D01*
X111538904Y-93666810D01*
X111364619Y-93130586D01*
X111363623Y-93127374D01*
X111235699Y-92693816D01*
X111235380Y-92692714D01*
X111081689Y-92149272D01*
X111080824Y-92146044D01*
X110970019Y-91708504D01*
X110969787Y-91707568D01*
X110837021Y-91157840D01*
X110836274Y-91154547D01*
X110742708Y-90713728D01*
X110742530Y-90712867D01*
X110630948Y-90157671D01*
X110630306Y-90154223D01*
X110600824Y-89982749D01*
X110554116Y-89711084D01*
X110553936Y-89710007D01*
X110463782Y-89150278D01*
X110463267Y-89146763D01*
X110450661Y-89051367D01*
X110404453Y-88701699D01*
X110404333Y-88700754D01*
X110335762Y-88137090D01*
X110335389Y-88133606D01*
X110294003Y-87687495D01*
X110293914Y-87686482D01*
X110247098Y-87119743D01*
X110246860Y-87116249D01*
X110222891Y-86669669D01*
X110222848Y-86668783D01*
X110197918Y-86099701D01*
X110197814Y-86096150D01*
X110191237Y-85649970D01*
X110191230Y-85649322D01*
X110188295Y-85078485D01*
X110188329Y-85074997D01*
X110199076Y-84629895D01*
X110199092Y-84629336D01*
X110218246Y-84057782D01*
X110218424Y-84054089D01*
X110246382Y-83611071D01*
X110246455Y-83610007D01*
X110246555Y-83608623D01*
X110287724Y-83038907D01*
X110288039Y-83035288D01*
X110333093Y-82594708D01*
X110333161Y-82594067D01*
X110396640Y-82023380D01*
X110397080Y-82019904D01*
X110459051Y-81582640D01*
X110459128Y-81582111D01*
X110544794Y-81013042D01*
X110545393Y-81009431D01*
X110624054Y-80576346D01*
X110624219Y-80575464D01*
X110625169Y-80570472D01*
X110731995Y-80009126D01*
X110732753Y-80005448D01*
X110827869Y-79577191D01*
X110828077Y-79576277D01*
X110834526Y-79548319D01*
X110957952Y-79013211D01*
X110958857Y-79009545D01*
X111070186Y-78586686D01*
X111070325Y-78586163D01*
X111222338Y-78026757D01*
X111223383Y-78023135D01*
X111350611Y-77606410D01*
X111350696Y-77606134D01*
X111524780Y-77051185D01*
X111525929Y-77047715D01*
X111668662Y-76637968D01*
X111668715Y-76637814D01*
X111864721Y-76088280D01*
X111866082Y-76084647D01*
X112023907Y-75682610D01*
X112241745Y-75139186D01*
X112243234Y-75135635D01*
X112415823Y-74741735D01*
X112428597Y-74713123D01*
X113384207Y-74713123D01*
X113385738Y-74727104D01*
X113400311Y-74762285D01*
X113404795Y-74771085D01*
X113523642Y-74965026D01*
X113529442Y-74973009D01*
X113677178Y-75145985D01*
X113684141Y-75152948D01*
X113857117Y-75300684D01*
X113865100Y-75306484D01*
X114059042Y-75425332D01*
X114067837Y-75429813D01*
X114277987Y-75516860D01*
X114287373Y-75519910D01*
X114508554Y-75573011D01*
X114518300Y-75574555D01*
X114745070Y-75592402D01*
X114754930Y-75592402D01*
X114875591Y-75582905D01*
X114886304Y-75579617D01*
X114885827Y-75568422D01*
X114574687Y-74407233D01*
X114567916Y-74395505D01*
X114554373Y-74395505D01*
X113396227Y-74705828D01*
X113384207Y-74713123D01*
X112428597Y-74713123D01*
X112623856Y-74275753D01*
X115065378Y-74275753D01*
X115375701Y-75433897D01*
X115382996Y-75445919D01*
X115396976Y-75444388D01*
X115432159Y-75429815D01*
X115440958Y-75425331D01*
X115634899Y-75306484D01*
X115642882Y-75300684D01*
X115815858Y-75152948D01*
X115822821Y-75145985D01*
X115970557Y-74973009D01*
X115976357Y-74965026D01*
X116095205Y-74771084D01*
X116099686Y-74762289D01*
X116186733Y-74552139D01*
X116189783Y-74542753D01*
X116242884Y-74321572D01*
X116244428Y-74311826D01*
X116262275Y-74085057D01*
X116262275Y-74075197D01*
X116252778Y-73954534D01*
X116249490Y-73943821D01*
X116238295Y-73944298D01*
X115077106Y-74255438D01*
X115065378Y-74262210D01*
X115065378Y-74275753D01*
X112623856Y-74275753D01*
X112655281Y-74205362D01*
X112656916Y-74201853D01*
X112713600Y-74085057D01*
X113237725Y-74085057D01*
X113247220Y-74205717D01*
X113250509Y-74216431D01*
X113261703Y-74215954D01*
X114422892Y-73904814D01*
X114434621Y-73898043D01*
X114434621Y-73884500D01*
X114124297Y-72726354D01*
X114117002Y-72714334D01*
X114103022Y-72715865D01*
X114067837Y-72730439D01*
X114059042Y-72734921D01*
X113865100Y-72853769D01*
X113857117Y-72859569D01*
X113684141Y-73007305D01*
X113677178Y-73014268D01*
X113529442Y-73187244D01*
X113523642Y-73195227D01*
X113404794Y-73389169D01*
X113400313Y-73397964D01*
X113313266Y-73608114D01*
X113310216Y-73617500D01*
X113257115Y-73838681D01*
X113255571Y-73848427D01*
X113237725Y-74075197D01*
X113237725Y-74085057D01*
X112713600Y-74085057D01*
X112843674Y-73817045D01*
X113104650Y-73288343D01*
X113106470Y-73284800D01*
X113306931Y-72909631D01*
X113307039Y-72909431D01*
X113485453Y-72580636D01*
X114613694Y-72580636D01*
X114614171Y-72591830D01*
X114925311Y-73753019D01*
X114932083Y-73764748D01*
X114945626Y-73764748D01*
X116103771Y-73454424D01*
X116115792Y-73447129D01*
X116114261Y-73433150D01*
X116099686Y-73397964D01*
X116095205Y-73389169D01*
X115976357Y-73195227D01*
X115970557Y-73187244D01*
X115822821Y-73014268D01*
X115815858Y-73007305D01*
X115642882Y-72859569D01*
X115634899Y-72853769D01*
X115440957Y-72734921D01*
X115432162Y-72730440D01*
X115222012Y-72643393D01*
X115212626Y-72640343D01*
X114991445Y-72587242D01*
X114981699Y-72585698D01*
X114754930Y-72567852D01*
X114745070Y-72567852D01*
X114624408Y-72577347D01*
X114613694Y-72580636D01*
X113485453Y-72580636D01*
X113589263Y-72389326D01*
X113591169Y-72385943D01*
X113804814Y-72020980D01*
X114108347Y-71509760D01*
X114110387Y-71506448D01*
X114336453Y-71152577D01*
X114661055Y-70651072D01*
X114663303Y-70647721D01*
X114901256Y-70305351D01*
X114901479Y-70305032D01*
X115153869Y-69946278D01*
X115205690Y-69903665D01*
X115272042Y-69893692D01*
X115334105Y-69919191D01*
X115374280Y-69972932D01*
X115381174Y-70039674D01*
X115370391Y-70103800D01*
X115371460Y-70112741D01*
X115371460Y-70112746D01*
X115386681Y-70240043D01*
X115387751Y-70248988D01*
X115445311Y-70383405D01*
X115538409Y-70496160D01*
X115587603Y-70532080D01*
X117403897Y-71580718D01*
X117459602Y-71605361D01*
X117603800Y-71629609D01*
X117748988Y-71612249D01*
X117883405Y-71554689D01*
X117996160Y-71461591D01*
X118032080Y-71412397D01*
X119080718Y-69596103D01*
X119105361Y-69540398D01*
X119129609Y-69396200D01*
X119112249Y-69251012D01*
X119054689Y-69116595D01*
X118961591Y-69003840D01*
X118955224Y-68999191D01*
X118955222Y-68999189D01*
X118915132Y-68969917D01*
X118915131Y-68969916D01*
X118912397Y-68967920D01*
X118909465Y-68966227D01*
X117099029Y-67920971D01*
X117099024Y-67920968D01*
X117096103Y-67919282D01*
X117062340Y-67904346D01*
X117047609Y-67897829D01*
X117047608Y-67897828D01*
X117040398Y-67894639D01*
X117034099Y-67893579D01*
X116981136Y-67861646D01*
X116949699Y-67807515D01*
X116948191Y-67744936D01*
X116976984Y-67689353D01*
X117191669Y-67448977D01*
X117194510Y-67445903D01*
X117471789Y-67155857D01*
X117899421Y-66712760D01*
X117902374Y-66709802D01*
X118187488Y-66433881D01*
X118635257Y-66004432D01*
X118638292Y-66001619D01*
X118929832Y-65740646D01*
X119397943Y-65325186D01*
X119401084Y-65322494D01*
X119697740Y-65077028D01*
X120186330Y-64676040D01*
X120189672Y-64673393D01*
X120490170Y-64443828D01*
X120999341Y-64057877D01*
X121002794Y-64055354D01*
X121305294Y-63842357D01*
X121835660Y-63471704D01*
X121839261Y-63469281D01*
X122142096Y-63273199D01*
X122694131Y-62918332D01*
X122697779Y-62916078D01*
X122998940Y-62737300D01*
X123573287Y-62398706D01*
X123577129Y-62396532D01*
X123874131Y-62235496D01*
X124471993Y-61913490D01*
X124475936Y-61911457D01*
X124765870Y-61768547D01*
X124765903Y-61768615D01*
X124766150Y-61768409D01*
X125388850Y-61463449D01*
X125392824Y-61461591D01*
X125671403Y-61337493D01*
X126322455Y-61049272D01*
X126326526Y-61047558D01*
X126589029Y-60942652D01*
X126589261Y-60942560D01*
X126589284Y-60942619D01*
X126589490Y-60942469D01*
X127271400Y-60671585D01*
X127275533Y-60670030D01*
X127515016Y-60584962D01*
X127515205Y-60584895D01*
X127515436Y-60584882D01*
X127515415Y-60584821D01*
X128234236Y-60330961D01*
X128238520Y-60329537D01*
X128445813Y-60264861D01*
X128586662Y-60221160D01*
X128644952Y-60217256D01*
X128698738Y-60240061D01*
G37*
%TD.AperFunction*%
%TA.AperFunction,Conductor*%
G36*
X128679056Y-63743430D02*
G01*
X128730801Y-63789911D01*
X128750000Y-63856765D01*
X128750000Y-68412600D01*
X128743831Y-68451544D01*
X128732338Y-68474093D01*
X128733411Y-68474683D01*
X128723650Y-68492436D01*
X128712803Y-68508949D01*
X128705243Y-68518695D01*
X128705237Y-68518704D01*
X128700386Y-68524959D01*
X128697242Y-68532223D01*
X128697238Y-68532231D01*
X128682824Y-68565540D01*
X128677604Y-68576195D01*
X128660125Y-68607989D01*
X128660121Y-68607997D01*
X128656305Y-68614940D01*
X128654333Y-68622616D01*
X128654331Y-68622624D01*
X128651266Y-68634562D01*
X128644865Y-68653259D01*
X128639968Y-68664576D01*
X128639966Y-68664581D01*
X128636819Y-68671855D01*
X128635579Y-68679680D01*
X128635577Y-68679689D01*
X128629901Y-68715524D01*
X128627495Y-68727144D01*
X128618471Y-68762289D01*
X128618469Y-68762297D01*
X128616500Y-68769970D01*
X128616500Y-68777899D01*
X128616500Y-68790224D01*
X128614949Y-68809935D01*
X128613019Y-68822114D01*
X128613018Y-68822121D01*
X128611780Y-68829943D01*
X128612525Y-68837826D01*
X128612525Y-68837834D01*
X128615941Y-68873961D01*
X128616500Y-68885819D01*
X128616500Y-74535406D01*
X128606909Y-74583624D01*
X128579595Y-74624501D01*
X125348595Y-77855501D01*
X125298436Y-77886239D01*
X125239789Y-77890855D01*
X125185439Y-77868342D01*
X125147233Y-77823609D01*
X125133500Y-77766406D01*
X125133500Y-75954731D01*
X125133500Y-75951362D01*
X125126989Y-75890799D01*
X125075889Y-75753796D01*
X125070489Y-75746583D01*
X125070489Y-75746582D01*
X124993659Y-75643950D01*
X124988261Y-75636739D01*
X124979183Y-75629943D01*
X124878417Y-75554510D01*
X124878414Y-75554508D01*
X124871204Y-75549111D01*
X124862766Y-75545964D01*
X124862763Y-75545962D01*
X124741580Y-75500763D01*
X124741578Y-75500762D01*
X124734201Y-75498011D01*
X124726373Y-75497169D01*
X124726367Y-75497168D01*
X124676988Y-75491860D01*
X124676985Y-75491859D01*
X124673638Y-75491500D01*
X124670270Y-75491500D01*
X124666893Y-75491319D01*
X124666937Y-75490485D01*
X124606879Y-75474158D01*
X124560647Y-75426907D01*
X124544701Y-75362752D01*
X124563430Y-75299353D01*
X124637807Y-75178767D01*
X124643964Y-75165564D01*
X124695232Y-75010846D01*
X124698092Y-74997488D01*
X124707674Y-74903692D01*
X124708000Y-74897303D01*
X124708000Y-74670590D01*
X124704493Y-74657506D01*
X124691410Y-74654000D01*
X123472000Y-74654000D01*
X123409000Y-74637119D01*
X123362881Y-74591000D01*
X123346000Y-74528000D01*
X123346000Y-74272000D01*
X123362881Y-74209000D01*
X123409000Y-74162881D01*
X123472000Y-74146000D01*
X124691410Y-74146000D01*
X124704493Y-74142493D01*
X124708000Y-74129410D01*
X124708000Y-73902698D01*
X124707674Y-73896307D01*
X124698092Y-73802511D01*
X124695232Y-73789153D01*
X124643964Y-73634435D01*
X124637805Y-73621228D01*
X124557174Y-73490503D01*
X124538468Y-73428019D01*
X124553511Y-73364554D01*
X124598270Y-73317115D01*
X124627593Y-73299030D01*
X124632787Y-73293834D01*
X124635414Y-73291758D01*
X124635779Y-73291494D01*
X124636107Y-73291194D01*
X124638674Y-73289039D01*
X124644816Y-73285001D01*
X124696904Y-73229789D01*
X124699390Y-73227231D01*
X126673663Y-71252958D01*
X126687508Y-71240994D01*
X126706943Y-71226526D01*
X126739106Y-71188195D01*
X126746545Y-71180077D01*
X126750466Y-71176157D01*
X126769898Y-71151580D01*
X126772144Y-71148821D01*
X126820917Y-71090697D01*
X126824211Y-71084135D01*
X126826063Y-71081321D01*
X126826314Y-71080972D01*
X126826537Y-71080574D01*
X126828293Y-71077727D01*
X126832852Y-71071962D01*
X126864920Y-71003189D01*
X126866455Y-71000020D01*
X126900494Y-70932245D01*
X126902187Y-70925098D01*
X126903332Y-70921953D01*
X126903504Y-70921537D01*
X126903628Y-70921100D01*
X126904678Y-70917929D01*
X126907788Y-70911263D01*
X126923126Y-70836976D01*
X126923907Y-70833454D01*
X126941385Y-70759713D01*
X126941385Y-70752369D01*
X126941774Y-70749041D01*
X126941847Y-70748589D01*
X126941865Y-70748181D01*
X126942160Y-70744797D01*
X126943644Y-70737615D01*
X126941437Y-70661798D01*
X126941385Y-70658134D01*
X126941385Y-70398922D01*
X126950976Y-70350704D01*
X126978289Y-70309827D01*
X127179234Y-70108882D01*
X127785894Y-69502220D01*
X127799731Y-69490262D01*
X127819171Y-69475791D01*
X127851334Y-69437460D01*
X127858773Y-69429342D01*
X127862694Y-69425422D01*
X127882126Y-69400845D01*
X127884372Y-69398086D01*
X127933145Y-69339962D01*
X127936439Y-69333400D01*
X127938291Y-69330586D01*
X127938542Y-69330237D01*
X127938765Y-69329839D01*
X127940521Y-69326992D01*
X127945080Y-69321227D01*
X127977148Y-69252454D01*
X127978683Y-69249285D01*
X128012722Y-69181510D01*
X128014415Y-69174363D01*
X128015560Y-69171218D01*
X128015732Y-69170802D01*
X128015856Y-69170365D01*
X128016906Y-69167194D01*
X128020016Y-69160528D01*
X128035354Y-69086241D01*
X128036135Y-69082719D01*
X128053613Y-69008978D01*
X128053613Y-69001634D01*
X128054002Y-68998306D01*
X128054075Y-68997854D01*
X128054093Y-68997446D01*
X128054388Y-68994062D01*
X128055872Y-68986880D01*
X128053665Y-68911063D01*
X128053613Y-68907399D01*
X128053613Y-63859291D01*
X128070494Y-63796291D01*
X128116613Y-63750172D01*
X128179613Y-63733291D01*
X128590382Y-63733291D01*
X128593751Y-63733291D01*
X128609246Y-63731625D01*
X128610532Y-63731487D01*
X128679056Y-63743430D01*
G37*
%TD.AperFunction*%
%TD*%
M02*
